<?xml version="1.0" encoding="UTF-8"?>
<!-- Generated by jsxcad -->
<!DOCTYPE svg PUBLIC "-//W3C//DTD SVG 1.1 Tiny//EN" "http://www.w3.org/Graphics/SVG/1.1/DTD/svg11-tiny.dtd">
<svg viewBox="-250 -250 500 500" width="500" height="500" xmlns="http://www.w3.org/2000/svg"><path d="M-149.82737494657044,-50.21787165282762L-135.53986865486783,-19.600157959462635L-129.20472775133402,-17.391916347029564zM-148.66182705811318,-49.839093262023106L-129.20472775133402,-17.391916347029564L-128.0528469706153,-16.99043901507883zM-149.82737494657044,-50.21787165282762L-156.23628446565237,-52.30084419516016L-135.53986865486783,-19.600157959462635z" style="fill:rgb(54,37,179)"/><path d="M-137.3519451857466,-47.08031492032882L-128.0528469706153,-16.99043901507883L-116.89903729435537,-14.01671552089952z" style="fill:rgb(60,35,184)"/><path d="M-148.66182705811318,-49.839093262023106L-149.82737494657044,-50.21787165282762L-129.20472775133402,-17.391916347029564z" style="fill:rgb(54,37,179)"/><path d="M-137.3519451857466,-47.08031492032882L-148.66182705811318,-49.839093262023106L-128.0528469706153,-16.99043901507883z" style="fill:rgb(60,35,184)"/><path d="M-125.24762136810311,-45.00156908199681L-116.89903729435537,-14.01671552089952L-104.9871600142561,-11.713251662354605z" style="fill:rgb(66,34,189)"/><path d="M-152.57360063699684,-32.055431343374096L-134.1303701111187,-2.120945132868937L-131.5004824389666,0.797990446738948z" style="fill:rgb(26,52,150)"/><path d="M-124.38241022116755,-44.90941910820433L-104.9871600142561,-11.713251662354605L-104.13713276790735,-11.605309146314662zM-120.54710148804168,-44.50097514112407L-104.13713276790735,-11.605309146314662L-100.3695320368642,-11.126917955097204z" style="fill:rgb(73,33,193)"/><path d="M-148.90408674021592,-28.042762140500077L-131.5004080981029,0.7979354804735638L-127.8144338658113,4.889048134277482z" style="fill:rgb(26,52,150)"/><path d="M-125.24762136810311,-45.00156908199681L-137.3519451857466,-47.08031492032882L-116.89903729435537,-14.01671552089952z" style="fill:rgb(66,34,189)"/><path d="M-152.57360063699684,-32.055431343374096L-155.19080125442542,-34.91748870873673L-134.1303701111187,-2.120945132868937zM-144.73404017926075,-23.48243760077444L-127.8145189651975,4.8891094853211845L-123.62731531308195,9.536525014459231z" style="fill:rgb(26,52,150)"/><path d="M-124.38241022116755,-44.90941910820433L-125.24762136810311,-45.00156908199681L-104.9871600142561,-11.713251662354605z" style="fill:rgb(73,33,193)"/><path d="M-148.90408674021592,-28.042762140500077L-152.57352237560832,-32.05548738170965L-131.5004080981029,0.7979354804735638z" style="fill:rgb(26,52,150)"/><path d="M-120.54710148804168,-44.50097514112407L-124.38241022116755,-44.90941910820433L-104.13713276790735,-11.605309146314662z" style="fill:rgb(73,33,193)"/><path d="M-140.05933159265012,-18.370526028284694L-123.6272389659755,9.536468657911433L-118.93565950694554,14.743703443283392zM-144.73404017926075,-23.48243760077444L-148.90417492782515,-28.042698551024113L-127.8145189651975,4.8891094853211845z" style="fill:rgb(26,52,150)"/><path d="M-124.38241022116755,-44.90941910820433L-120.54710148804168,-44.50097514112407L-125.24762136810311,-45.00156908199681z" style="fill:rgb(99,233,191)"/><path d="M-140.05933159265012,-18.370526028284694L-144.7339616662349,-23.482497055420453L-123.6272389659755,9.536468657911433zM-134.8765151860311,-12.702614471676974L-118.93578412553028,14.743794900294104L-113.73676676080557,20.514228399361777z" style="fill:rgb(26,52,150)"/><path d="M-77.83824854893385,2.97682341897769L-106.94621873455321,-28.36727846752218L-86.71288215649427,5.299224086025743z" style="fill:rgb(127,37,217)"/><path d="M-106.94621873455321,-28.36727846752218L-92.69934627035781,12.119411445987664L-86.71288215649427,5.299224086025743z" style="fill:rgb(221,95,207)"/><path d="M-113.2059104044532,-21.454408690402406L-91.30820885380218,18.388462665173723L-92.69934627035781,12.119411445987664z" style="fill:rgb(244,177,137)"/><path d="M-134.8765151860311,-12.702614471676974L-140.05946081713844,-18.370431336691112L-118.93578412553028,14.743794900294104z" style="fill:rgb(26,52,150)"/><path d="M-92.61453098834477,-27.019316722872258L-77.83824854893385,2.97682341897769L-72.6576874240836,6.901343234423609z" style="fill:rgb(33,47,159)"/><path d="M-113.2059104044532,-21.454408690402406L-105.3688543233235,-43.304455821801135L-110.75213378733231,-43.55593329172623zM-117.96260331283759,5.7935268417569L-120.54710148804168,-44.50097514112407L-155.19080125442542,-34.91748870873673z" style="fill:rgb(83,212,212)"/><path d="M-77.83824854893385,2.97682341897769L-97.82940560273138,-30.843217051336442L-106.94621873455321,-28.36727846752218z" style="fill:rgb(127,37,217)"/><path d="M-106.94621873455321,-28.36727846752218L-98.84151953570337,-42.99951261134472L-105.3688543233235,-43.304455821801135z" style="fill:rgb(83,212,212)"/><path d="M-106.94621873455321,-28.36727846752218L-113.2059104044532,-21.454408690402406L-92.69934627035781,12.119411445987664z" style="fill:rgb(221,95,207)"/><path d="M-100.10657500183396,-30.224783857683267L-96.65039619942854,-43.01871711729419L-98.84151953570337,-42.99951261134472z" style="fill:rgb(83,212,212)"/><path d="M-92.61453098834477,-27.019316722872258L-97.82940560273138,-30.843217051336442L-77.83824854893385,2.97682341897769z" style="fill:rgb(33,47,159)"/><path d="M-97.82940560273138,-30.843217051336442L-91.14895366306988,-43.066886281183365L-96.65039619942854,-43.01871711729419zM-117.96260331283759,5.7935268417569L-112.39341733680155,-43.63262432495767L-120.54710148804168,-44.50097514112407zM-113.2059104044532,-21.454408690402406L-106.94621873455321,-28.36727846752218L-105.3688543233235,-43.304455821801135zM-106.94621873455321,-28.36727846752218L-100.10657500183396,-30.224783857683267L-98.84151953570337,-42.99951261134472zM-117.96260331283759,5.7935268417569L-110.75213378733231,-43.55593329172623L-112.39341733680155,-43.63262432495767z" style="fill:rgb(83,212,212)"/><path d="M-113.2059104044532,-21.454408690402406L-111.91620763151163,-15.220315467627426L-91.30820885380218,18.388462665173723z" style="fill:rgb(244,177,137)"/><path d="M-100.10657500183396,-30.224783857683267L-97.82940560273138,-30.843217051336442L-96.65039619942854,-43.01871711729419z" style="fill:rgb(83,212,212)"/><path d="M-116.23943298524935,7.67792541841215L-113.73671863609728,20.51419053826185L-95.06539924675933,41.23766559212247zM-116.23943298524935,7.67792541841215L-134.8764652981807,-12.702652038467546L-113.73671863609728,20.51419053826185z" style="fill:rgb(26,52,150)"/><path d="M-97.82940560273138,-30.843217051336442L-92.61453098834477,-27.019316722872258L-91.14895366306988,-43.066886281183365z" style="fill:rgb(83,212,212)"/><path d="M13.204847249662395,-44.35724170928434L15.747416649478044,-15.249714201848397L25.096266653897075,-19.660458503410524z" style="fill:rgb(160,49,222)"/><path d="M3.6432283353937622,-39.83409209073513L7.062545651875841,-9.765663593506028L15.747416649478044,-15.249714201848397z" style="fill:rgb(180,60,221)"/><path d="M23.14329316015118,-47.679770321988215L25.096266653897075,-19.660458503410524L34.82901947997696,-22.864169471837926z" style="fill:rgb(138,40,220)"/><path d="M-5.256015814204782,-34.247020588439845L-0.6952254069393323,-3.3700919907384153L7.062545651875841,-9.765663593506028z" style="fill:rgb(199,74,218)"/><path d="M33.16139397641333,-49.69523581601881L34.82901947997696,-22.864169471837926L44.65385689770361,-24.75782535068504z" style="fill:rgb(116,34,214)"/><path d="M-13.224144364476187,-27.760317036206217L-7.284360583842367,3.7494662244431725L-0.6952254069393323,-3.3700919907384153z" style="fill:rgb(216,89,211)"/><path d="M-117.96260331283759,5.7935268417569L-116.41852328365016,7.482068773101378L-110.75213378733231,-43.55593329172623z" style="fill:rgb(83,212,212)"/><path d="M13.204847249662395,-44.35724170928434L3.6432283353937622,-39.83409209073513L15.747416649478044,-15.249714201848397z" style="fill:rgb(160,49,222)"/><path d="M42.9553863777726,-50.330262268472474L44.65385689770361,-24.75782535068504L54.272150221466944,-25.271837704882472z" style="fill:rgb(94,32,205)"/><path d="M-116.41852328365016,7.482068773101378L-111.91620763151163,-15.220315467627426L-113.2059104044532,-21.454408690402406z" style="fill:rgb(83,212,212)"/><path d="M3.6432283353937622,-39.83409209073513L-5.256015814204782,-34.247020588439845L7.062545651875841,-9.765663593506028z" style="fill:rgb(180,60,221)"/><path d="M-20.01372119078455,-20.56368291748425L-12.490375459808627,11.382518616994574L-7.284360583842367,3.7494662244431725z" style="fill:rgb(229,106,201)"/><path d="M23.14329316015118,-47.679770321988215L13.204847249662395,-44.35724170928434L25.096266653897075,-19.660458503410524z" style="fill:rgb(138,40,220)"/><path d="M-5.256015814204782,-34.247020588439845L-13.224144364476187,-27.760317036206217L-0.6952254069393323,-3.3700919907384153z" style="fill:rgb(199,74,218)"/><path d="M-97.64079041426784,28.016500543018548L-84.6519148495218,-43.12378369250805L-91.14895366306988,-43.066886281183365z" style="fill:rgb(83,212,212)"/><path d="M-108.98651334348092,15.609311436800748L-95.06539924675933,41.23766559212247L-87.80907392752243,49.29148166461694z" style="fill:rgb(26,52,150)"/><path d="M33.16139397641333,-49.69523581601881L23.14329316015118,-47.679770321988215L34.82901947997696,-22.864169471837926z" style="fill:rgb(116,34,214)"/><path d="M52.220372494731485,-49.54728063796906L54.272150221466944,-25.271837704882472L63.38394395964486,-24.372745027591872z" style="fill:rgb(74,33,194)"/><path d="M-114.60873653828737,9.461146893796062L-103.93212153445414,-14.400057343829227L-111.91620763151163,-15.220315467627426z" style="fill:rgb(83,212,212)"/><path d="M-13.224144364476187,-27.760317036206217L-20.01372119078455,-20.56368291748425L-7.284360583842367,3.7494662244431725z" style="fill:rgb(216,89,211)"/><path d="M-25.404294165952393,-12.869324511464317L-16.131602072540026,19.298841395934073L-12.490375459808627,11.382518616994574z" style="fill:rgb(239,123,188)"/><path d="M42.9553863777726,-50.330262268472474L33.16139397641333,-49.69523581601881L44.65385689770361,-24.75782535068504z" style="fill:rgb(94,32,205)"/><path d="M153.78580125637006,-120.3896608038704L163.36682416370664,-77.58754026554169L166.3269852247715,-82.27035011400395z" style="fill:rgb(228,104,202)"/><path d="M-91.27652196587644,34.976171346572976L-69.89206076730177,-44.02211147394529L-84.6519148495218,-43.12378369250805z" style="fill:rgb(83,212,212)"/><path d="M-108.98651334348092,15.609311436800748L-116.23943298524935,7.67792541841215L-95.06539924675933,41.23766559212247z" style="fill:rgb(26,52,150)"/><path d="M-20.01372119078455,-20.56368291748425L-25.404294165952393,-12.869324511464317L-12.490375459808627,11.382518616994574z" style="fill:rgb(229,106,201)"/><path d="M-116.41852328365016,7.482068773101378L-114.60873653828737,9.461146893796062L-111.91620763151163,-15.220315467627426zM-107.17089193960267,17.594857285221977L-95.2960264304197,-19.684183744919615L-103.93212153445414,-14.400057343829227z" style="fill:rgb(83,212,212)"/><path d="M52.220372494731485,-49.54728063796906L42.9553863777726,-50.330262268472474L54.272150221466944,-25.271837704882472z" style="fill:rgb(74,33,194)"/><path d="M60.65717067777497,-47.347617267211014L63.38394395964486,-24.372745027591872L71.6949017958421,-22.066200616131432z" style="fill:rgb(55,36,180)"/><path d="M113.1509972910823,-47.00310804797583L88.64817731936786,-81.48671815445745L103.40268106992049,-44.45207245397659z" style="fill:rgb(127,37,217)"/><path d="M-29.208108835295143,-4.908929593074224L-18.06579206438074,27.25252206010956L-16.131602072540026,19.298841395934073z" style="fill:rgb(245,141,174)"/><path d="M88.64817731936786,-81.48671815445745L97.8714623281586,-37.497799653248705L103.40268106992049,-44.45207245397659z" style="fill:rgb(221,95,207)"/><path d="M-99.55140311668657,25.927164333235645L-92.61453098834477,-27.019316722872258L-95.2960264304197,-19.684183744919615z" style="fill:rgb(83,212,212)"/><path d="M150.68568194262437,-115.66673570776292L149.33564427327954,-55.39097370973479L163.36682416370664,-77.58754026554169z" style="fill:rgb(228,104,202)"/><path d="M-25.404294165952393,-12.869324511464317L-29.208108835295143,-4.908929593074224L-16.131602072540026,19.298841395934073z" style="fill:rgb(239,123,188)"/><path d="M60.65717067777497,-47.347617267211014L52.220372494731485,-49.54728063796906L63.38394395964486,-24.372745027591872z" style="fill:rgb(55,36,180)"/><path d="M-114.60873653828737,9.461146893796062L-107.17089193960267,17.594857285221977L-103.93212153445414,-14.400057343829227z" style="fill:rgb(83,212,212)"/><path d="M105.56929466936067,-80.57933817401111L113.1509972910823,-47.00310804797583L119.89706321014636,-43.232407847136415z" style="fill:rgb(33,47,159)"/><path d="M67.97992435205883,-43.77447424584817L71.6949017958421,-22.066200616131432L78.92366310699367,-18.399743508636973z" style="fill:rgb(38,43,165)"/><path d="M35.69461642978288,2.4422066483709868L13.664564148204786,-17.77261996407043L25.855632057139907,6.948416330412816z" style="fill:rgb(158,48,222)"/><path d="M153.78580125637006,-120.3896608038704L150.68568194262437,-115.66673570776292L163.36682416370664,-77.58754026554169z" style="fill:rgb(228,104,202)"/><path d="M45.718009126131896,1.9023578173201185L23.73221354219825,-22.39986083927628L35.69461642978288,2.4422066483709868z" style="fill:rgb(96,32,206)"/><path d="M25.855632057139907,6.948416330412816L6.326028791624984,-10.376099255690974L18.730766434857486,14.256538358269468z" style="fill:rgb(212,85,213)"/><path d="M75.98613474525192,-36.05873006150434L13.204865885023981,-44.35725164810818L3.643245712817236,-39.834104414083704z" style="fill:rgb(83,212,212)"/><path d="M-31.508821751916273,10.81148662058037L-18.196580688859623,34.987060512337294L-18.06579206438074,27.25252206010956z" style="fill:rgb(247,158,158)"/><path d="M17.90673835790122,-34.504558147369174L8.580404399309206,-29.016346386778196L18.34315788875769,-33.598229545596496z" style="fill:rgb(159,49,222)"/><path d="M75.98613474525192,-36.05873006150434L3.643245712817236,-39.834104414083704L-5.256016435760743,-34.247020588439845z" style="fill:rgb(83,212,212)"/><path d="M17.90673835790122,-34.504558147369174L8.135956594658959,-29.9184219230622L8.580404399309206,-29.016346386778196z" style="fill:rgb(159,49,222)"/><path d="M8.135956594658959,-29.9184219230622L-0.07534087965418967,-22.86613138669438L8.580404399309206,-29.016346386778196z" style="fill:rgb(189,66,220)"/><path d="M-76.55774695951062,51.07194566440301L-54.63675773280894,-45.705553646032534L-69.89206076730177,-44.02211147394529zM75.98613474525192,-36.05873006150434L23.143288154180922,-47.67977026487755L13.204865885023981,-44.35725164810818z" style="fill:rgb(83,212,212)"/><path d="M-29.208108835295143,-4.908929593074224L-31.27695142606727,3.0704503818632456L-18.06579206438074,27.25252206010956z" style="fill:rgb(245,141,174)"/><path d="M28.549498252572644,-36.29776253782511L17.90673835790122,-34.504558147369174L18.34315788875769,-33.598229545596496z" style="fill:rgb(127,37,217)"/><path d="M8.135956594658959,-29.9184219230622L-0.5278453991401046,-23.76452172924164L-0.07534087965418967,-22.86613138669438z" style="fill:rgb(189,66,220)"/><path d="M75.98613474525192,-36.05873006150434L-5.256016435760743,-34.247020588439845L-13.22413557870979,-27.76032687132965z" style="fill:rgb(83,212,212)"/><path d="M28.549498252572644,-36.29776253782511L28.120605883797467,-37.208647521729475L17.90673835790122,-34.504558147369174z" style="fill:rgb(127,37,217)"/><path d="M75.98613474525192,-36.05873006150434L33.161396513102034,-49.695235875724265L23.143288154180922,-47.67977026487755z" style="fill:rgb(83,212,212)"/><path d="M67.97992435205883,-43.77447424584817L60.65717067777497,-47.347617267211014L71.6949017958421,-22.066200616131432z" style="fill:rgb(38,43,165)"/><path d="M113.1509972910823,-47.00310804797583L98.69388746953986,-84.21492644960632L88.64817731936786,-81.48671815445745z" style="fill:rgb(127,37,217)"/><path d="M-7.48710901211923,-16.455765188812702L-0.07534087965418967,-22.86613138669438L-0.5278453991401046,-23.76452172924164z" style="fill:rgb(215,88,211)"/><path d="M75.98613474525192,-36.05873006150434L-13.22413557870979,-27.76032687132965L-20.013723740159787,-20.56368046583717zM88.64817731936786,-81.48671815445745L89.9415237612998,-94.86360890078883L87.52999959971449,-93.59115955690248zM91.14845823019427,-82.1657439007062L97.16343287973315,-99.05368567237157L89.9415237612998,-94.86360890078883z" style="fill:rgb(83,212,212)"/><path d="M88.64817731936786,-81.48671815445745L82.86786202158798,-74.44417800289594L97.8714623281586,-37.497799653248705z" style="fill:rgb(221,95,207)"/><path d="M-7.48710901211923,-16.455765188812702L-7.027039798699594,-15.560289146180391L-0.07534087965418967,-22.86613138669438z" style="fill:rgb(215,88,211)"/><path d="M135.9824881752317,-93.26685535701586L143.5831897642183,-46.29099247925914L149.33564427327954,-55.39097370973479z" style="fill:rgb(228,104,202)"/><path d="M98.69388746953986,-84.21492644960632L103.15667727688579,-102.53087958063152L97.16343287973315,-99.05368567237157zM-107.17089193960267,17.594857285221977L-99.55140311668657,25.927164333235645L-95.2960264304197,-19.684183744919615z" style="fill:rgb(83,212,212)"/><path d="M73.925263101782,-38.91534147052054L78.92366310699367,-18.399743508636973L84.81091404336308,-13.465007730093337z" style="fill:rgb(25,53,148)"/><path d="M38.08003521903951,-37.83126118609892L28.120605883797467,-37.208647521729475L28.549498252572644,-36.29776253782511z" style="fill:rgb(95,32,206)"/><path d="M53.31550361111061,5.517021778867902L33.943026476136225,-23.063322567536378L45.718009126131896,1.9023578173201185z" style="fill:rgb(42,41,169)"/><path d="M75.98613474525192,-36.05873006150434L42.9554068542653,-50.330267769974185L33.161396513102034,-49.695235875724265z" style="fill:rgb(83,212,212)"/><path d="M-31.508821751916273,10.81148662058037L-16.480625726812487,42.242012512361974L-18.196580688859623,34.987060512337294z" style="fill:rgb(245,174,141)"/><path d="M82.86786202158798,-74.44417800289594L87.52999959971449,-93.59115955690248L81.49928141745346,-90.4089817925338z" style="fill:rgb(83,212,212)"/><path d="M18.730766434857486,14.256538358269468L3.6465119052354713,-2.102126912250538L16.195172010073268,22.49588081526096z" style="fill:rgb(243,133,180)"/><path d="M-31.508821751916273,10.81148662058037L-18.06579206438074,27.25252206010956L-31.27695142606727,3.0704503818632456z" style="fill:rgb(247,158,158)"/><path d="M13.664564148204786,-17.77261996407043L-27.213610993413766,-9.082922292865575L-28.292014390686553,-6.826037836004185z" style="fill:rgb(83,212,212)"/><path d="M35.69461642978288,2.4422066483709868L23.73221354219825,-22.39986083927628L13.664564148204786,-17.77261996407043z" style="fill:rgb(158,48,222)"/><path d="M38.08003521903951,-37.83126118609892L28.549498252572644,-36.29776253782511L38.50238623534026,-36.91582371343007z" style="fill:rgb(95,32,206)"/><path d="M105.56929466936067,-80.57933817401111L98.69388746953986,-84.21492644960632L113.1509972910823,-47.00310804797583z" style="fill:rgb(33,47,159)"/><path d="M75.98613474525192,-36.05873006150434L-20.013723740159787,-20.56368046583717L-25.40428892435161,-12.869335712501323z" style="fill:rgb(83,212,212)"/><path d="M25.855632057139907,6.948416330412816L13.664564148204786,-17.77261996407043L6.326028791624984,-10.376099255690974z" style="fill:rgb(212,85,213)"/><path d="M-7.48710901211923,-16.455765188812702L-11.77591193411019,-7.591314843259105L-7.027039798699594,-15.560289146180391z" style="fill:rgb(233,113,196)"/><path d="M-99.55140311668657,25.927164333235645L-97.64079041426784,28.016500543018548L-92.61453098834477,-27.019316722872258zM-97.64079041426784,28.016500543018548L-91.27652196587644,34.976171346572976L-84.6519148495218,-43.12378369250805zM6.326028791624984,-10.376099255690974L-28.292014390686553,-6.826037836004185L-29.208103423988074,-4.908943754122123zM75.98613474525192,-36.05873006150434L52.22037779080454,-49.54728087843236L42.9554068542653,-50.330267769974185zM88.64817731936786,-81.48671815445745L91.14845823019427,-82.1657439007062L89.9415237612998,-94.86360890078883z" style="fill:rgb(83,212,212)"/><path d="M150.68568194262437,-115.66673570776292L135.9824881752317,-93.26685535701586L149.33564427327954,-55.39097370973479z" style="fill:rgb(228,104,202)"/><path d="M75.98613474525192,-36.05873006150434L-25.40428892435161,-12.869335712501323L-27.213610993413766,-9.082922292865575z" style="fill:rgb(83,212,212)"/><path d="M45.718009126131896,1.9023578173201185L33.943026476136225,-23.063322567536378L23.73221354219825,-22.39986083927628z" style="fill:rgb(96,32,206)"/><path d="M91.14845823019427,-82.1657439007062L98.69388746953986,-84.21492644960632L97.16343287973315,-99.05368567237157z" style="fill:rgb(83,212,212)"/><path d="M-7.48710901211923,-16.455765188812702L-12.242481605672493,-8.484839793291542L-11.77591193411019,-7.591314843259105z" style="fill:rgb(233,113,196)"/><path d="M47.50628915163759,-35.382352905958676L38.08003521903951,-37.83126118609892L38.50238623534026,-36.91582371343007z" style="fill:rgb(65,34,188)"/><path d="M13.664564148204786,-17.77261996407043L23.73221354219825,-22.39986083927628L-27.213610993413766,-9.082922292865575zM82.86786202158798,-74.44417800289594L88.64817731936786,-81.48671815445745L87.52999959971449,-93.59115955690248zM6.326028791624984,-10.376099255690974L-29.208103423988074,-4.908943754122123L-30.252128518298814,-0.8822383283705704z" style="fill:rgb(83,212,212)"/><path d="M73.925263101782,-38.91534147052054L67.97992435205883,-43.77447424584817L78.92366310699367,-18.399743508636973z" style="fill:rgb(25,53,148)"/><path d="M-84.0772077689489,42.849000728159595L-108.98656528597398,15.609349662240962L-87.80912382856594,49.2915164795758z" style="fill:rgb(26,52,150)"/><path d="M6.326028791624984,-10.376099255690974L13.664564148204786,-17.77261996407043L-28.292014390686553,-6.826037836004185z" style="fill:rgb(83,212,212)"/><path d="M18.730766434857486,14.256538358269468L6.326028791624984,-10.376099255690974L3.6465119052354713,-2.102126912250538z" style="fill:rgb(243,133,180)"/><path d="M-84.0772077689489,42.849000728159595L-87.80912382856594,49.2915164795758L-62.930260345465655,76.90474874049792z" style="fill:rgb(26,52,150)"/><path d="M47.50628915163759,-35.382352905958676L47.08908862699251,-36.30200187032585L38.08003521903951,-37.83126118609892z" style="fill:rgb(65,34,188)"/><path d="M98.69388746953986,-84.21492644960632L105.56929466936067,-80.57933817401111L103.15667727688579,-102.53087958063152zM-60.88922249735995,68.2062745353137L-48.51527410767651,-46.67191972369218L-54.63675773280894,-45.705553646032534zM75.98613474525192,-36.05873006150434L60.65717601668176,-47.34761239766096L52.22037779080454,-49.54728087843236z" style="fill:rgb(83,212,212)"/><path d="M78.262477105735,-32.90340603032052L84.81091404336308,-13.465007730093337L89.12940191405221,-7.398866225184855z" style="fill:rgb(15,66,131)"/><path d="M-29.855357181429785,18.05313573029757L-12.933959058000044,48.76101240369215L-16.480625726812487,42.242012512361974z" style="fill:rgb(239,188,123)"/><path d="M16.195172010073268,22.49588081526096L6.41965515810682,4.879047742883895L19.001399724082948,29.50519970258436z" style="fill:rgb(243,180,133)"/><path d="M-12.242481605672493,-8.484839793291542L-13.953122051684304,0.49142098365862646L-11.77591193411019,-7.591314843259105z" style="fill:rgb(244,139,176)"/><path d="M3.6465119052354713,-2.102126912250538L-30.252128518298814,-0.8822383283705704L-31.27695142606727,3.0704503818632456z" style="fill:rgb(83,212,212)"/><path d="M129.950398826705,-84.07722300443464L123.17724974900867,-14.009994429370122L143.5831897642183,-46.29099247925914z" style="fill:rgb(228,104,202)"/><path d="M53.31550361111061,5.517021778867902L44.725558345213045,-12.687327710516847L56.42066503103892,12.406187449044518z" style="fill:rgb(243,180,133)"/><path d="M53.31550361111061,5.517021778867902L41.63919864066073,-19.54163296985788L33.943026476136225,-23.063322567536378z" style="fill:rgb(42,41,169)"/><path d="M-12.242481605672493,-8.484839793291542L-14.424717705368456,-0.40123825769001026L-13.953122051684304,0.49142098365862646z" style="fill:rgb(244,139,176)"/><path d="M110.4955569615397,-54.438452608645676L114.15578166606608,-109.42680944000323L104.99064792376723,-103.59494362861278z" style="fill:rgb(83,212,212)"/><path d="M-31.508821751916273,10.81148662058037L-29.855357181429785,18.05313573029757L-16.480625726812487,42.242012512361974z" style="fill:rgb(245,174,141)"/><path d="M3.6465119052354713,-2.102126912250538L6.326028791624984,-10.376099255690974L-30.252128518298814,-0.8822383283705704z" style="fill:rgb(83,212,212)"/><path d="M54.492792048914836,-32.69096030246645L47.08908862699251,-36.30200187032585L47.50628915163759,-35.382352905958676z" style="fill:rgb(39,43,166)"/><path d="M3.6465119052354713,-2.102126912250538L-31.27695142606727,3.0704503818632456L-31.392458431068228,6.926674365092528zM108.73682790516486,-51.75907900887346L104.99064792376723,-103.59494362861278L103.15667727688579,-102.53087958063152zM75.98613474525192,-36.05873006150434L67.97992983940952,-43.77447448817586L60.65717601668176,-47.34761239766096zM-31.432633980899364,50.43818285827618L-22.9715965848203,-51.441906299493944L-28.53153161665058,-50.30782927394627zM-54.44961540995433,74.96760442721L-38.96740378580326,-48.179209115076404L-48.51527410767651,-46.67191972369218zM-38.13781635883491,58.54529691973767L-28.53153161665058,-50.30782927394627L-34.40418028135074,-49.109993566184976z" style="fill:rgb(83,212,212)"/><path d="M135.9824881752317,-93.26685535701586L129.950398826705,-84.07722300443464L143.5831897642183,-46.29099247925914z" style="fill:rgb(228,104,202)"/><path d="M78.262477105735,-32.90340603032052L73.925263101782,-38.91534147052054L84.81091404336308,-13.465007730093337z" style="fill:rgb(15,66,131)"/><path d="M26.507312062118295,33.364442871131956L6.41965515810682,4.879047742883895L19.001399724082948,29.50519970258436z" style="fill:rgb(42,41,169)"/><path d="M54.492792048914836,-32.69096030246645L47.50628915163759,-35.382352905958676L54.90661516575327,-31.767789751332813z" style="fill:rgb(39,43,166)"/><path d="M16.195172010073268,22.49588081526096L3.6465119052354713,-2.102126912250538L6.41965515810682,4.879047742883895z" style="fill:rgb(243,180,133)"/><path d="M-25.301231245602676,48.92467858154377L-19.063029882905294,-52.41581196512564L-22.9715965848203,-51.441906299493944zM110.4955569615397,-54.438452608645676L153.78580125637006,-120.3896608038704L114.15578166606608,-109.42680944000323zM-20.996476508964047,47.862074216471115L-13.13022393998819,-53.894088217599844L-19.063029882905294,-52.41581196512564z" style="fill:rgb(83,212,212)"/><path d="M89.12940191405221,-7.398866225184855L80.80489913349741,-25.917483717201574L91.69492219959908,-0.3831165311431816z" style="fill:rgb(245,174,141)"/><path d="M-14.424717705368456,-0.40123825769001026L-13.351151714457577,8.110507205501488L-13.953122051684304,0.49142098365862646z" style="fill:rgb(247,164,152)"/><path d="M53.31550361111061,5.517021778867902L41.63919864066073,-19.54163296985788L44.725558345213045,-12.687327710516847z" style="fill:rgb(243,180,133)"/><path d="M77.21634014604415,-34.35344465030336L23.73221354219825,-22.39986083927628L33.943026476136225,-23.063322567536378zM34.99856223177117,17.328234957390983L17.90673835790122,-34.504558147369174L8.135956594658959,-29.9184219230622z" style="fill:rgb(83,212,212)"/><path d="M-7.636786110725392,54.30126231826247L-26.328510250037496,24.538840142483224L-12.933959058000044,48.76101240369215z" style="fill:rgb(25,53,148)"/><path d="M34.99856223177117,17.328234957390983L8.135956594658959,-29.9184219230622L-0.5278453991401046,-23.76452172924164zM-91.27652196587644,34.976171346572976L-76.55774695951062,51.07194566440301L-69.89206076730177,-44.02211147394529zM-43.91461085667483,77.88173175071594L-34.40418028135074,-49.109993566184976L-38.96740378580326,-48.179209115076404zM75.98613474525192,-36.05873006150434L73.92525749350396,-38.91534638036159L67.97992983940952,-43.77447448817586zM34.99856223177117,17.328234957390983L28.120605883797467,-37.208647521729475L17.90673835790122,-34.504558147369174zM6.41965515810682,4.879047742883895L-31.392458431068228,6.926674365092528L-31.508821751916273,10.81148662058037z" style="fill:rgb(83,212,212)"/><path d="M56.42066503103892,12.406187449044518L42.26091619970983,-4.2884307985410794L54.09248686880528,20.769938032102576z" style="fill:rgb(243,133,180)"/><path d="M34.99856223177117,17.328234957390983L-0.5278453991401046,-23.76452172924164L-7.48710901211923,-16.455765188812702z" style="fill:rgb(83,212,212)"/><path d="M-14.424717705368456,-0.40123825769001026L-13.825868222166035,7.217582606929139L-13.351151714457577,8.110507205501488z" style="fill:rgb(247,164,152)"/><path d="M77.21634014604415,-34.35344465030336L75.98613474525192,-36.05873006150434L23.73221354219825,-22.39986083927628z" style="fill:rgb(83,212,212)"/><path d="M60.13370875584164,-26.289562295121492L54.492792048914836,-32.69096030246645L54.90661516575327,-31.767789751332813z" style="fill:rgb(21,58,141)"/><path d="M6.41965515810682,4.879047742883895L3.6465119052354713,-2.102126912250538L-31.392458431068228,6.926674365092528z" style="fill:rgb(83,212,212)"/><path d="M-29.855357181429785,18.05313573029757L-26.328517801335906,24.538834688133527L-12.933959058000044,48.76101240369215z" style="fill:rgb(239,188,123)"/><path d="M34.99856223177117,17.328234957390983L38.08003521903951,-37.83126118609892L28.120605883797467,-37.208647521729475zM6.41965515810682,4.879047742883895L-31.508821751916273,10.81148662058037L-30.695765225463706,14.372430968637923z" style="fill:rgb(83,212,212)"/><path d="M36.73809381251996,32.949052968699164L14.017415614576088,8.652552744452807L26.507312062118295,33.364442871131956z" style="fill:rgb(96,32,206)"/><path d="M89.12940191405221,-7.398866225184855L78.26247191377819,-32.90340603032052L80.80489913349741,-25.917483717201574z" style="fill:rgb(245,174,141)"/><path d="M6.236022157852689,41.13988739665352L9.623889941386235,-60.2963485898288L5.658257366239473,-59.13072215664482zM34.99856223177117,17.328234957390983L-7.48710901211923,-16.455765188812702L-12.242481605672493,-8.484839793291542z" style="fill:rgb(83,212,212)"/><path d="M60.13370875584164,-26.289562295121492L59.7211206021102,-27.215226951538757L54.492792048914836,-32.69096030246645z" style="fill:rgb(21,58,141)"/><path d="M79.54476551450563,-29.38002305346621L33.943026476136225,-23.063322567536378L41.63919864066073,-19.54163296985788zM-0.36771064490854916,49.28275757367161L5.658257366239473,-59.13072215664482L-0.3317445861506071,-57.37004772747752z" style="fill:rgb(83,212,212)"/><path d="M54.09248686880528,20.769938032102576L34.82400719910857,3.3599366695245614L46.87607434539485,28.322668960829247z" style="fill:rgb(212,85,213)"/><path d="M10.608600037649854,40.060541103795536L15.29523801411042,-62.21731755645226L9.623889941386235,-60.2963485898288zM80.49819217868051,-8.738509737228052L81.49928141745346,-90.4089817925338L74.42126968627076,-86.67419952123522zM34.99856223177117,17.328234957390983L47.08908862699251,-36.30200187032585L38.08003521903951,-37.83126118609892zM79.54476551450563,-29.38002305346621L77.21634014604415,-34.35344465030336L33.943026476136225,-23.063322567536378z" style="fill:rgb(83,212,212)"/><path d="M46.87607434539485,28.322668960829247L24.443071658308217,8.114069733808545L36.73809381251996,32.949052968699164z" style="fill:rgb(158,48,222)"/><path d="M91.69492219959908,-0.3831165311431816L81.42079210329514,-18.17966138912596L92.37697602441129,7.358166506889528z" style="fill:rgb(247,158,158)"/><path d="M16.869176179941984,38.515153270835604L21.319960067684274,-64.25800207170914L15.29523801411042,-62.21731755645226z" style="fill:rgb(83,212,212)"/><path d="M56.42066503103892,12.406187449044518L44.725558345213045,-12.687327710516847L42.26091619970983,-4.2884307985410794z" style="fill:rgb(243,133,180)"/><path d="M-13.351151714457577,8.110507205501488L-13.825868222166035,7.217582606929139L-10.426951240903435,13.802091877555807z" style="fill:rgb(240,186,126)"/><path d="M-0.7367712073738121,58.64434739527131L-21.00581959641862,30.025926610237374L-7.636786110725392,54.30126231826247z" style="fill:rgb(38,43,165)"/><path d="M26.507312062118295,33.364442871131956L14.017415614576088,8.652552744452807L6.41965515810682,4.879047742883895z" style="fill:rgb(42,41,169)"/><path d="M14.017415614576088,8.652552744452807L-30.695765225463706,14.372430968637923L-29.855347399718468,18.053151570624127zM-14.810223498017699,72.42010056590118L-6.742102523786949,-55.48584537942361L-13.13022393998819,-53.894088217599844zM34.99856223177117,17.328234957390983L-12.242481605672493,-8.484839793291542L-14.424717705368456,-0.40123825769001026z" style="fill:rgb(83,212,212)"/><path d="M-68.76739797293511,62.71733350447607L-62.930260345465655,76.90474874049792L-53.60571905079772,87.25421834905403z" style="fill:rgb(26,52,150)"/><path d="M-13.351151714457577,8.110507205501488L-10.426951240903435,13.802091877555807L-9.951403412884796,14.696437827753503z" style="fill:rgb(240,186,126)"/><path d="M14.017415614576088,8.652552744452807L6.41965515810682,4.879047742883895L-30.695765225463706,14.372430968637923z" style="fill:rgb(83,212,212)"/><path d="M108.53302715076566,-51.44857905127888L115.35176416116084,-1.6306760979342092L123.17724974900867,-14.009994429370122z" style="fill:rgb(228,104,202)"/><path d="M59.7211206021102,-27.215226951538757L62.749740489587644,-19.31020581592212L60.13369366898528,-26.28954695653131z" style="fill:rgb(244,176,139)"/><path d="M14.017415614576088,8.652552744452807L-29.855347399718468,18.053151570624127L-29.014838965267842,19.598758092690836z" style="fill:rgb(83,212,212)"/><path d="M-7.636786110725392,54.30126231826247L-21.00581959641862,30.025926610237374L-26.328510250037496,24.538840142483224z" style="fill:rgb(25,53,148)"/><path d="M-7.605182542506246,70.68819328376874L-0.3317445861506071,-57.37004772747752L-6.742102523786949,-55.48584537942361zM79.54476551450563,-29.38002305346621L78.26247191377819,-32.90340603032052L77.21634014604415,-34.35344465030336zM34.99856223177117,17.328234957390983L54.492792048914836,-32.69096030246645L47.08908862699251,-36.30200187032585zM64.30755501019765,15.927387980328913L74.42126968627076,-86.67419952123522L58.5276454145855,-79.07885468855136z" style="fill:rgb(83,212,212)"/><path d="M129.950398826705,-84.07722300443464L108.53302715076566,-51.44857905127888L123.17724974900867,-14.009994429370122z" style="fill:rgb(228,104,202)"/><path d="M91.69492219959908,-0.3831165311431816L80.80489913349741,-25.917483717201574L81.42079210329514,-18.17966138912596z" style="fill:rgb(247,158,158)"/><path d="M54.09248686880528,20.769938032102576L42.26091619970983,-4.2884307985410794L34.82400719910857,3.3599366695245614z" style="fill:rgb(212,85,213)"/><path d="M108.73682790516486,-51.75907900887346L110.4955569615397,-54.438452608645676L104.99064792376723,-103.59494362861278z" style="fill:rgb(83,212,212)"/><path d="M36.73809381251996,32.949052968699164L24.443071658308217,8.114069733808545L14.017415614576088,8.652552744452807z" style="fill:rgb(96,32,206)"/><path d="M81.11167649362419,-22.06326029250647L41.63919864066073,-19.54163296985788L44.725558345213045,-12.687327710516847z" style="fill:rgb(83,212,212)"/><path d="M-68.76739797293511,62.71733350447607L-78.11437875474711,52.45173754245458L-62.930260345465655,76.90474874049792z" style="fill:rgb(26,52,150)"/><path d="M24.443071658308217,8.114069733808545L-29.014838965267842,19.598758092690836L-28.018243979438413,21.4315281344541z" style="fill:rgb(83,212,212)"/><path d="M59.7211206021102,-27.215226951538757L62.33617110631765,-20.237163425967335L62.749740489587644,-19.31020581592212z" style="fill:rgb(244,176,139)"/><path d="M81.11167649362419,-22.06326029250647L79.54476551450563,-29.38002305346621L41.63919864066073,-19.54163296985788zM34.99856223177117,17.328234957390983L-14.424717705368456,-0.40123825769001026L-13.825868222166035,7.217582606929139zM106.67909390436431,-48.62422658846261L105.56929466936067,-80.57933817401111L104.03530188573754,-73.2208342038676z" style="fill:rgb(83,212,212)"/><path d="M92.37697602441129,7.358166506889528L80.0441995007626,-9.950368073282021L91.1092902665442,15.563768619012645z" style="fill:rgb(245,141,174)"/><path d="M7.551298351718156,61.6074130201969L-14.033969246253186,34.29666879776036L-0.7367712073738121,58.64434739527131z" style="fill:rgb(55,36,180)"/><path d="M46.87607434539485,28.322668960829247L34.82400719910857,3.3599366695245614L24.443071658308217,8.114069733808545z" style="fill:rgb(158,48,222)"/><path d="M-3.943240598534325,19.73011432336703L-10.426951240903435,13.802091877555807L-9.95139878580942,14.696428613407168z" style="fill:rgb(29,50,154)"/><path d="M34.99856223177117,17.328234957390983L59.7211206021102,-27.215226951538757L54.492792048914836,-32.69096030246645zM47.341013160833185,41.77530079198418L58.5276454145855,-79.07885468855136L42.36163477000918,-72.12444274889225zM24.443071658308217,8.114069733808545L14.017415614576088,8.652552744452807L-29.014838965267842,19.598758092690836zM24.084522383057507,62.411411055509184L26.025941677972824,-65.85197212957668L21.319960067684274,-64.25800207170914zM87.57610370969374,-19.52146635098247L85.69979698355786,-68.29626463777375L82.86786202158798,-74.44417800289594z" style="fill:rgb(83,212,212)"/><path d="M-3.943240598534325,19.73011432336703L-4.4172007781808365,18.833272876267994L-10.426951240903435,13.802091877555807z" style="fill:rgb(29,50,154)"/><path d="M29.390646923333964,60.23292976290546L42.36163477000918,-72.12444274889225L26.025941677972824,-65.85197212957668zM81.11167649362419,-22.06326029250647L80.80489913349741,-25.917483717201574L79.54476551450563,-29.38002305346621z" style="fill:rgb(83,212,212)"/><path d="M-0.7367712073738121,58.64434739527131L-14.033969246253186,34.29666879776036L-21.00581959641862,30.025926610237374z" style="fill:rgb(38,43,165)"/><path d="M100.31160750794837,-38.923681595803444L107.03117543585425,11.531963803331541L115.35176416116084,-1.6306760979342092z" style="fill:rgb(228,104,202)"/><path d="M62.749740489587644,-19.31020581592212L62.33617110631765,-20.237163425967335L62.078254719024216,-12.250629174366516z" style="fill:rgb(247,152,164)"/><path d="M-76.55774695951062,51.07194566440301L-60.88922249735995,68.2062745353137L-54.63675773280894,-45.705553646032534zM34.99856223177117,17.328234957390983L-13.825868222166035,7.217582606929139L-10.426951240903435,13.802091877555807zM98.26340982181613,-35.803170926156696L104.03530188573754,-73.2208342038676L95.14388263132979,-67.71843714250059z" style="fill:rgb(83,212,212)"/><path d="M92.37697602441129,7.358166506889528L81.42079210329514,-18.17966138912596L80.0441995007626,-9.950368073282021z" style="fill:rgb(245,141,174)"/><path d="M91.1092902665442,15.563768619012645L76.68361066046894,-1.520475840151622L87.89818597495967,23.94338717359269z" style="fill:rgb(239,123,188)"/><path d="M89.71016459818458,-22.772614646055874L95.14388263132979,-67.71843714250059L85.69979698355786,-68.29626463777375zM80.7436318695317,-14.131540678646031L44.725558345213045,-12.687327710516847L42.26091619970983,-4.2884307985410794z" style="fill:rgb(83,212,212)"/><path d="M62.749740489587644,-19.31020581592212L62.078254719024216,-12.250629174366516L62.49513820740161,-11.3237881413343z" style="fill:rgb(247,152,164)"/><path d="M16.94941032392881,63.0542802393632L-5.6288220416473616,37.16954305276695L7.551298351718156,61.6074130201969z" style="fill:rgb(74,33,194)"/><path d="M34.99856223177117,17.328234957390983L62.33617110631765,-20.237163425967335L59.7211206021102,-27.215226951538757zM80.7436318695317,-14.131540678646031L81.11167649362419,-22.06326029250647L44.725558345213045,-12.687327710516847zM106.67909390436431,-48.62422658846261L108.73682790516486,-51.75907900887346L105.56929466936067,-80.57933817401111z" style="fill:rgb(83,212,212)"/><path d="M4.271248271686117,22.78955068462226L-4.4172007781808365,18.833272876267994L-3.943240598534325,19.73011432336703z" style="fill:rgb(51,38,177)"/><path d="M-58.902914669458724,73.55116790397715L-53.60571905079772,87.25421834905403L-43.77206578178893,98.16863266707801z" style="fill:rgb(26,52,150)"/><path d="M34.99856223177117,17.328234957390983L-10.426951240903435,13.802091877555807L-4.4172007781808365,18.833272876267994z" style="fill:rgb(83,212,212)"/><path d="M108.53302715076566,-51.44857905127888L100.31160750794837,-38.923681595803444L115.35176416116084,-1.6306760979342092z" style="fill:rgb(228,104,202)"/><path d="M-68.76737111728056,62.717311981251065L-84.0772077689489,42.849000728159595L-78.11437875474711,52.45173754245458z" style="fill:rgb(26,52,150)"/><path d="M35.92406105806031,32.899744030632725L-28.018243979438413,21.4315281344541L-26.328510250037496,24.538840142483224z" style="fill:rgb(83,212,212)"/><path d="M7.551298351718156,61.6074130201969L-5.6288220416473616,37.16954305276695L-14.033969246253186,34.29666879776036z" style="fill:rgb(55,36,180)"/><path d="M4.271248271686117,22.78955068462226L3.801282758014917,21.889233764187015L-4.4172007781808365,18.833272876267994z" style="fill:rgb(51,38,177)"/><path d="M62.078254719024216,-12.250629174366516L59.326609599077834,-2.926876163206725L62.49513820740161,-11.3237881413343z" style="fill:rgb(240,126,186)"/><path d="M80.7436318695317,-14.131540678646031L81.42079210329514,-18.17966138912596L81.11167649362419,-22.06326029250647zM79.24227799219524,-7.9388325190666365L42.26091619970983,-4.2884307985410794L34.82400719910857,3.3599366695245614z" style="fill:rgb(83,212,212)"/><path d="M87.89818597495967,23.94338717359269L71.42712544875404,6.79977143447819L82.8276051932225,32.18873154637366z" style="fill:rgb(229,106,201)"/><path d="M34.99856223177117,17.328234957390983L62.078254719024216,-12.250629174366516L62.33617110631765,-20.237163425967335z" style="fill:rgb(83,212,212)"/><path d="M27.124830728640788,62.9051873593025L3.928308570225768,38.51045420271193L16.94941032392881,63.0542802393632z" style="fill:rgb(94,32,205)"/><path d="M91.56540542166512,-25.59872774397667L98.22821960890639,25.458204375754587L107.03142164719425,11.532018967091826z" style="fill:rgb(228,104,202)"/><path d="M91.1092902665442,15.563768619012645L80.0441995007626,-9.950368073282021L76.68361066046894,-1.520475840151622z" style="fill:rgb(239,123,188)"/><path d="M98.26340982181613,-35.803170926156696L106.67909390436431,-48.62422658846261L104.03530188573754,-73.2208342038676zM78.29227710682972,-5.555707841705535L34.82400719910857,3.3599366695245614L24.443071658308217,8.114069733808545z" style="fill:rgb(83,212,212)"/><path d="M-58.902914669458724,73.55116790397715L-68.76739797293511,62.71733350447607L-53.60571905079772,87.25421834905403z" style="fill:rgb(26,52,150)"/><path d="M79.24227799219524,-7.9388325190666365L80.7436318695317,-14.131540678646031L42.26091619970983,-4.2884307985410794z" style="fill:rgb(83,212,212)"/><path d="M62.078254719024216,-12.250629174366516L58.904260409819706,-3.8521886435679757L59.326609599077834,-2.926876163206725z" style="fill:rgb(240,126,186)"/><path d="M35.92406105806031,32.899744030632725L-26.328510250037496,24.538840142483224L-21.00581959641862,30.025926610237374zM34.99856223177117,17.328234957390983L-4.4172007781808365,18.833272876267994L3.801282758014917,21.889233764187015zM-31.432633980899364,50.43818285827618L-25.301231245602676,48.92467858154377L-22.9715965848203,-51.441906299493944z" style="fill:rgb(83,212,212)"/><path d="M13.629488050378649,22.690567547075453L3.801282758014917,21.889233764187015L4.271248271686117,22.78955068462226z" style="fill:rgb(79,32,197)"/><path d="M-38.13781635883491,58.54529691973767L-31.432633980899364,50.43818285827618L-28.53153161665058,-50.30782927394627zM80.49819217868051,-8.738509737228052L87.57610370969374,-19.52146635098247L81.49928141745346,-90.4089817925338z" style="fill:rgb(83,212,212)"/><path d="M82.8276051932225,32.18873154637366L64.44405631591219,14.694256352267853L76.06062666160446,39.9869438338055z" style="fill:rgb(216,89,211)"/><path d="M-25.301231245602676,48.92467858154377L-20.996476508964047,47.862074216471115L-19.063029882905294,-52.41581196512564z" style="fill:rgb(83,212,212)"/><path d="M37.70249664794658,61.14409250824094L14.299131450535794,38.24256792830993L27.124830728640788,62.9051873593025z" style="fill:rgb(116,34,214)"/><path d="M-60.88922249735995,68.2062745353137L-54.44961540995433,74.96760442721L-48.51527410767651,-46.67191972369218z" style="fill:rgb(83,212,212)"/><path d="M13.629488050378649,22.690567547075453L4.271248271686117,22.78955068462226L14.093311426919485,23.59512109231658z" style="fill:rgb(79,32,197)"/><path d="M34.99856223177117,17.328234957390983L58.904260409819706,-3.8521886435679757L62.078254719024216,-12.250629174366516zM78.29227710682972,-5.555707841705535L79.24227799219524,-7.9388325190666365L34.82400719910857,3.3599366695245614z" style="fill:rgb(83,212,212)"/><path d="M16.94941032392881,63.0542802393632L3.928308570225768,38.51045420271193L-5.6288220416473616,37.16954305276695z" style="fill:rgb(74,33,194)"/><path d="M59.326609599077834,-2.926876163206725L58.904260409819706,-3.8521886435679757L53.00987687677672,4.303445720394929z" style="fill:rgb(225,100,204)"/><path d="M79.24227799219524,-7.9388325190666365L80.0441995007626,-9.950368073282021L80.7436318695317,-14.131540678646031z" style="fill:rgb(83,212,212)"/><path d="M87.89818597495967,23.94338717359269L76.68361066046894,-1.520475840151622L71.42712544875404,6.79977143447819z" style="fill:rgb(229,106,201)"/><path d="M35.92406105806031,32.899744030632725L78.29227710682972,-5.555707841705535L-28.018243979438413,21.4315281344541z" style="fill:rgb(83,212,212)"/><path d="M-68.76737111728056,62.717311981251065L-74.72432442026096,53.0768859028243L-84.0772077689489,42.849000728159595z" style="fill:rgb(26,52,150)"/><path d="M59.326609599077834,-2.926876163206725L53.00987687677672,4.303445720394929L53.43948745488821,5.2259401316453795z" style="fill:rgb(225,100,204)"/><path d="M100.31160750794837,-38.923681595803444L91.56515269870654,-25.59877993240522L107.03117543585425,11.531963803331541z" style="fill:rgb(228,104,202)"/><path d="M89.71016459818458,-22.772614646055874L98.26340982181613,-35.803170926156696L95.14388263132979,-67.71843714250059zM34.99856223177117,17.328234957390983L3.801282758014917,21.889233764187015L13.629488050378649,22.690567547075453z" style="fill:rgb(83,212,212)"/><path d="M76.06062666160446,39.9869438338055L55.98080562757562,21.856366683053608L67.83555940367037,47.03576637947956z" style="fill:rgb(199,74,218)"/><path d="M48.28203292520872,57.822474640797395L25.100945826527127,36.35363982439652L37.70249664794658,61.14409250824094z" style="fill:rgb(138,40,220)"/><path d="M-20.996476508964047,47.862074216471115L-14.548746848716318,52.76044096164052L-13.13022393998819,-53.894088217599844z" style="fill:rgb(83,212,212)"/><path d="M24.76764095691757,22.04636312188184L13.629488050378649,22.690567547075453L14.093311426919485,23.59512109231658z" style="fill:rgb(111,33,212)"/><path d="M35.92406105806031,32.899744030632725L-21.00581959641862,30.025926610237374L-14.033969246253186,34.29666879776036zM34.99856223177117,17.328234957390983L53.00987687677672,4.303445720394929L58.904260409819706,-3.8521886435679757zM87.57610370969374,-19.52146635098247L89.71016459818458,-22.772614646055874L85.69979698355786,-68.29626463777375z" style="fill:rgb(83,212,212)"/><path d="M67.83555940367037,47.03576637947956L46.351620821596846,28.004990465844603L58.45703633445781,53.059222202542564z" style="fill:rgb(180,60,221)"/><path d="M58.45703633445781,53.059222202542564L35.92406105806031,32.899744030632725L48.28203292520872,57.822474640797395z" style="fill:rgb(160,49,222)"/><path d="M82.30581910855362,-11.49254309748617L88.95647950054752,40.12498581484214L98.2279275747222,25.45813907808527z" style="fill:rgb(228,104,202)"/><path d="M53.00987687677672,4.303445720394929L45.26608533462094,12.479587750288404L53.43948745488821,5.2259401316453795z" style="fill:rgb(203,77,216)"/><path d="M24.76764095691757,22.04636312188184L24.31162936172746,21.13709630136624L13.629488050378649,22.690567547075453z" style="fill:rgb(111,33,212)"/><path d="M34.99856223177117,17.328234957390983L13.629488050378649,22.690567547075453L24.31162936172746,21.13709630136624z" style="fill:rgb(83,212,212)"/><path d="M27.124830728640788,62.9051873593025L14.299131450535794,38.24256792830993L3.928308570225768,38.51045420271193z" style="fill:rgb(94,32,205)"/><path d="M-1.3406492728787776,82.92414223963218L-31.432633980899364,50.43818285827618L-11.45864743482517,85.32187461705277z" style="fill:rgb(127,37,217)"/><path d="M53.00987687677672,4.303445720394929L44.82795292586654,11.560948844890193L45.26608533462094,12.479587750288404z" style="fill:rgb(203,77,216)"/><path d="M-31.432633980899364,50.43818285827618L-17.843415595738122,93.28815381506946L-11.45864743482517,85.32187461705277z" style="fill:rgb(221,95,207)"/><path d="M34.99856223177117,17.328234957390983L44.82795292586654,11.560948844890193L53.00987687677672,4.303445720394929z" style="fill:rgb(83,212,212)"/><path d="M34.99856223177117,17.328234957390983L24.31162936172746,21.13709630136624L24.76764095691757,22.04636312188184z" style="fill:rgb(143,42,221)"/><path d="M82.8276051932225,32.18873154637366L71.42712544875404,6.79977143447819L64.44405631591219,14.694256352267853z" style="fill:rgb(216,89,211)"/><path d="M34.99856223177117,17.328234957390983L24.76764095691757,22.04636312188184L35.44575285337142,18.24233090822887z" style="fill:rgb(143,42,221)"/><path d="M64.30755501019765,15.927387980328913L80.49819217868051,-8.738509737228052L74.42126968627076,-86.67419952123522z" style="fill:rgb(83,212,212)"/><path d="M45.26608533462094,12.479587750288404L34.99856223177117,17.328234957390983L35.44575285337142,18.24233090822887z" style="fill:rgb(175,57,222)"/><path d="M-54.44961540995433,74.96760442721L-43.91461085667483,77.88173175071594L-38.96740378580326,-48.179209115076404z" style="fill:rgb(83,212,212)"/><path d="M45.26608533462094,12.479587750288404L44.82795292586654,11.560948844890193L34.99856223177117,17.328234957390983z" style="fill:rgb(175,57,222)"/><path d="M6.236022157852689,41.13988739665352L10.608600037649854,40.060541103795536L9.623889941386235,-60.2963485898288zM35.92406105806031,32.899744030632725L-14.033969246253186,34.29666879776036L-5.6288220416473616,37.16954305276695zM-0.36771064490854916,49.28275757367161L6.236022157852689,41.13988739665352L5.658257366239473,-59.13072215664482zM10.608600037649854,40.060541103795536L16.869176179941984,38.515153270835604L15.29523801411042,-62.21731755645226z" style="fill:rgb(83,212,212)"/><path d="M37.70249664794658,61.14409250824094L25.100945826527127,36.35363982439652L14.299131450535794,38.24256792830993z" style="fill:rgb(116,34,214)"/><path d="M76.06062666160446,39.9869438338055L64.44405631591219,14.694256352267853L55.98080562757562,21.856366683053608z" style="fill:rgb(199,74,218)"/><path d="M91.56540542166512,-25.59872774397667L82.30611852139359,-11.492480229969948L98.22821960890639,25.458204375754587z" style="fill:rgb(228,104,202)"/><path d="M-43.91461085667483,77.88173175071594L-38.796460374505195,77.53657281333741L-34.40418028135074,-49.109993566184976z" style="fill:rgb(83,212,212)"/><path d="M-54.83356434047855,74.82847123859392L-43.77206578178893,98.16863266707801L-33.805655378013185,109.23043321945809z" style="fill:rgb(26,52,150)"/><path d="M35.92406105806031,32.899744030632725L76.68361066046894,-1.520475840151622L78.29227710682972,-5.555707841705535z" style="fill:rgb(83,212,212)"/><path d="M-38.13781635883491,58.54529691973767L-15.703010853388173,100.94075762744725L-17.843415595738122,93.28815381506946z" style="fill:rgb(244,177,137)"/><path d="M48.28203292520872,57.822474640797395L35.92406105806031,32.899744030632725L25.100945826527127,36.35363982439652z" style="fill:rgb(138,40,220)"/><path d="M-64.85084694443404,63.874052612504116L-74.72432442026096,53.0768859028243L-68.76737111728056,62.717311981251065z" style="fill:rgb(26,52,150)"/><path d="M16.869176179941984,38.515153270835604L23.66933697335547,43.388038704689585L21.319960067684274,-64.25800207170914zM35.92406105806031,32.899744030632725L-5.6288220416473616,37.16954305276695L3.928308570225768,38.51045420271193z" style="fill:rgb(83,212,212)"/><path d="M67.83555940367037,47.03576637947956L55.98080562757562,21.856366683053608L46.351620821596846,28.004990465844603z" style="fill:rgb(180,60,221)"/><path d="M-14.548746848716318,52.76044096164052L-1.3406492728787776,82.92414223963218L5.022372863797306,87.90611222518567z" style="fill:rgb(33,47,159)"/><path d="M58.45703633445781,53.059222202542564L46.351620821596846,28.004990465844603L35.92406105806031,32.899744030632725z" style="fill:rgb(160,49,222)"/><path d="M-64.85084694443404,63.874052612504116L-68.76737111728056,62.717311981251065L-58.902914669458724,73.55116790397715z" style="fill:rgb(26,52,150)"/><path d="M72.54824298340745,3.373350335528184L79.23378749200674,55.50638252741741L88.95681732763019,40.1250664006527z" style="fill:rgb(228,104,202)"/><path d="M35.92406105806031,32.899744030632725L71.42712544875404,6.79977143447819L76.68361066046894,-1.520475840151622z" style="fill:rgb(83,212,212)"/><path d="M35.35508702867276,74.22808952732966L6.236022157852689,41.13988739665352L25.052921467084975,76.66946625480364z" style="fill:rgb(127,37,217)"/><path d="M6.236022157852689,41.13988739665352L18.76401864421952,84.67166633717399L25.052921467084975,76.66946625480364z" style="fill:rgb(221,95,207)"/><path d="M35.92406105806031,32.899744030632725L3.928308570225768,38.51045420271193L14.299131450535794,38.24256792830993z" style="fill:rgb(83,212,212)"/><path d="M-54.44961540995433,74.96760442721L-33.805655378013185,109.23043321945809L-33.42909313476954,109.37489026541546z" style="fill:rgb(57,36,182)"/><path d="M47.341013160833185,41.77530079198418L64.30755501019765,15.927387980328913L58.5276454145855,-79.07885468855136zM35.92406105806031,32.899744030632725L64.44405631591219,14.694256352267853L71.42712544875404,6.79977143447819zM35.92406105806031,32.899744030632725L14.299131450535794,38.24256792830993L25.100945826527127,36.35363982439652z" style="fill:rgb(83,212,212)"/><path d="M-54.83356434047855,74.82847123859392L-64.85084694443404,63.874052612504116L-43.77206578178893,98.16863266707801z" style="fill:rgb(26,52,150)"/><path d="M-1.3406492728787776,82.92414223963218L-20.996476508964047,47.862074216471115L-31.432633980899364,50.43818285827618z" style="fill:rgb(127,37,217)"/><path d="M-14.810223498017699,72.42010056590118L-7.605182542506246,70.68819328376874L-6.742102523786949,-55.48584537942361zM35.92406105806031,32.899744030632725L55.98080562757562,21.856366683053608L64.44405631591219,14.694256352267853z" style="fill:rgb(83,212,212)"/><path d="M-31.432633980899364,50.43818285827618L-38.13781635883491,58.54529691973767L-17.843415595738122,93.28815381506946z" style="fill:rgb(221,95,207)"/><path d="M82.30581910855362,-11.49254309748617L72.54789703010003,3.3732738076717674L88.95647950054752,40.12498581484214z" style="fill:rgb(228,104,202)"/><path d="M35.92406105806031,32.899744030632725L46.351620821596846,28.004990465844603L55.98080562757562,21.856366683053608z" style="fill:rgb(83,212,212)"/><path d="M-46.017110322630906,78.02353980240262L-33.42909313476954,109.37489026541546L-25.16096888733894,112.5468294560841z" style="fill:rgb(57,36,182)"/><path d="M-0.36771064490854916,49.28275757367161L21.211439889547332,92.32670307959842L18.76401864421952,84.67166633717399z" style="fill:rgb(244,177,137)"/><path d="M-7.605182542506246,70.68819328376874L-0.37434297172088377,68.95008471765364L-0.3317445861506071,-57.37004772747752z" style="fill:rgb(83,212,212)"/><path d="M23.66933697335547,43.388038704689585L35.35508702867276,74.22808952732966L42.04844913256372,79.19108131387486zM-14.548746848716318,52.76044096164052L-20.996476508964047,47.862074216471115L-1.3406492728787776,82.92414223963218z" style="fill:rgb(33,47,159)"/><path d="M62.308071277436945,18.97357075500362L69.07784829708271,71.57208885983292L79.23357318908133,55.506326510674306z" style="fill:rgb(228,104,202)"/><path d="M-43.20856140366158,77.83412492331207L-25.16096888733894,112.5468294560841L-22.430106860764507,112.40236887988388z" style="fill:rgb(102,32,209)"/><path d="M29.390646923333964,60.23292976290546L47.341013160833185,41.77530079198418L42.36163477000918,-72.12444274889225z" style="fill:rgb(83,212,212)"/><path d="M-35.042525451697664,77.28342617385218L-22.430106860764507,112.40236887988388L-14.491223637105671,111.98246711728439z" style="fill:rgb(102,32,209)"/><path d="M-38.13781635883491,58.54529691973767L-36.08207723027653,66.2002694253237L-15.703010853388173,100.94075762744725z" style="fill:rgb(244,177,137)"/><path d="M24.084522383057507,62.411411055509184L29.390646923333964,60.23292976290546L26.025941677972824,-65.85197212957668z" style="fill:rgb(83,212,212)"/><path d="M35.35508702867276,74.22808952732966L16.869176179941984,38.515153270835604L6.236022157852689,41.13988739665352z" style="fill:rgb(127,37,217)"/><path d="M-54.44961540995433,74.96760442721L-54.83356434047855,74.82847123859392L-33.805655378013185,109.23043321945809z" style="fill:rgb(57,36,182)"/><path d="M6.236022157852689,41.13988739665352L-0.36771064490854916,49.28275757367161L18.76401864421952,84.67166633717399z" style="fill:rgb(221,95,207)"/><path d="M72.54824298340745,3.373350335528184L62.30829099991651,18.97362202241641L79.23378749200674,55.50638252741741z" style="fill:rgb(228,104,202)"/><path d="M-46.017110322630906,78.02353980240262L-54.44961540995433,74.96760442721L-33.42909313476954,109.37489026541546z" style="fill:rgb(57,36,182)"/><path d="M23.66933697335547,43.388038704689585L16.869176179941984,38.515153270835604L35.35508702867276,74.22808952732966z" style="fill:rgb(33,47,159)"/><path d="M51.60495749744266,35.27927927681281L58.88620794250494,87.69452769612084L69.07778613467296,71.57206972666631z" style="fill:rgb(228,104,202)"/><path d="M-43.20856140366158,77.83412492331207L-46.017110322630906,78.02353980240262L-25.16096888733894,112.5468294560841z" style="fill:rgb(102,32,209)"/><path d="M-0.36771064490854916,49.28275757367161L2.015155502788274,56.93501502976065L21.211439889547332,92.32670307959842z" style="fill:rgb(244,177,137)"/><path d="M20.210074537608854,64.00212027540923L-14.491223637105671,111.98246711728439L39.0194409183587,99.64594681742885z" style="fill:rgb(127,37,217)"/><path d="M-60.88922249735995,68.2062745353137L-54.83356434047855,74.82847123859392L-54.44961540995433,74.96760442721z" style="fill:rgb(83,212,212)"/><path d="M-35.042525451697664,77.28342617385218L-43.20856140366158,77.83412492331207L-22.430106860764507,112.40236887988388z" style="fill:rgb(102,32,209)"/><path d="M62.308071277436945,18.97357075500362L51.60502738205993,35.2792979442894L69.07784829708271,71.57208885983292z" style="fill:rgb(228,104,202)"/><path d="M40.85652750314657,51.65413362430408L58.497220595295325,88.02215712225464L58.88620794250494,87.69452769612084zM40.45078685373743,51.99003235670956L49.99196699379101,95.18539819827959L58.497220595295325,88.02215712225464z" style="fill:rgb(197,72,218)"/><path d="M28.657036572183724,60.53412627665055L39.0194409183587,99.64594681742885L47.172456160478276,96.3315791953489z" style="fill:rgb(152,45,222)"/><path d="M-38.796460374505195,77.53657281333741L-36.08207723027653,66.2002694253237L-38.13781635883491,58.54529691973767z" style="fill:rgb(83,212,212)"/><path d="M31.57831760264094,59.3347769202415L47.172456160478276,96.3315791953489L49.99196699379101,95.18539819827959z" style="fill:rgb(152,45,222)"/><path d="M20.210074537608854,64.00212027540923L-35.042525451697664,77.28342617385218L-14.491223637105671,111.98246711728439z" style="fill:rgb(127,37,217)"/><path d="M-54.44961540995433,74.96760442721L-46.017110322630906,78.02353980240262L-43.91461085667483,77.88173175071594zM-36.44630812884208,77.37808633453655L-26.664761898208337,67.58951077400337L-36.08207723027653,66.2002694253237zM-17.200695743095626,72.99471238019676L-14.548746848716318,52.76044096164052L-17.024239351483264,61.56539709372206zM-38.796460374505195,77.53657281333741L-36.44630812884208,77.37808633453655L-36.08207723027653,66.2002694253237z" style="fill:rgb(83,212,212)"/><path d="M51.60495749744266,35.27927927681281L40.85652750314657,51.65413362430408L58.88620794250494,87.69452769612084z" style="fill:rgb(228,104,202)"/><path d="M-26.85054531081652,75.31428341209552L-17.024239351483264,61.56539709372206L-26.664761898208337,67.58951077400337zM-36.44630812884208,77.37808633453655L-26.85054531081652,75.31428341209552L-26.664761898208337,67.58951077400337zM-17.200695743095626,72.99471238019676L-14.810223498017699,72.42010056590118L-14.548746848716318,52.76044096164052zM-0.37434297172088377,68.95008471765364L2.015155502788274,56.93501502976065L-0.36771064490854916,49.28275757367161z" style="fill:rgb(83,212,212)"/><path d="M40.85652750314657,51.65413362430408L40.45078685373743,51.99003235670956L58.497220595295325,88.02215712225464z" style="fill:rgb(197,72,218)"/><path d="M-26.85054531081652,75.31428341209552L-17.200695743095626,72.99471238019676L-17.024239351483264,61.56539709372206zM-36.44630812884208,77.37808633453655L-35.042525451697664,77.28342617385218L-26.85054531081652,75.31428341209552z" style="fill:rgb(83,212,212)"/><path d="M40.45078685373743,51.99003235670956L31.57831760264094,59.3347769202415L49.99196699379101,95.18539819827959z" style="fill:rgb(197,72,218)"/><path d="M28.657036572183724,60.53412627665055L20.210074537608854,64.00212027540923L39.0194409183587,99.64594681742885zM31.57831760264094,59.3347769202415L28.657036572183724,60.53412627665055L47.172456160478276,96.3315791953489z" style="fill:rgb(152,45,222)"/><path d="M2.036142327541625,68.37066793451466L11.742749712498496,58.28394747294374L2.015155502788274,56.93501502976065zM21.657211054663346,63.407973923590085L23.66933697335547,43.388038704689585L21.43767268252683,52.21145251278128zM-0.37434297172088377,68.95008471765364L2.036142327541625,68.37066793451466L2.015155502788274,56.93501502976065zM11.82535307317842,66.01759219684119L21.43767268252683,52.21145251278128L11.742749712498496,58.28394747294374zM21.657211054663346,63.407973923590085L24.084522383057507,62.411411055509184L23.66933697335547,43.388038704689585zM2.036142327541625,68.37066793451466L11.82535307317842,66.01759219684119L11.742749712498496,58.28394747294374zM11.82535307317842,66.01759219684119L21.657211054663346,63.407973923590085L21.43767268252683,52.21145251278128zM29.390646923333964,60.23292976290546L40.85652750314657,51.65413362430408L47.341013160833185,41.77530079198418zM29.390646923333964,60.23292976290546L40.45078685373743,51.99003235670956L40.85652750314657,51.65413362430408zM11.82535307317842,66.01759219684119L20.210074537608854,64.00212027540923L21.657211054663346,63.407973923590085zM29.390646923333964,60.23292976290546L31.57831760264094,59.3347769202415L40.45078685373743,51.99003235670956z" style="fill:rgb(83,212,212)"/></svg>
