<?xml version="1.0" encoding="UTF-8"?>
<!-- Generated by jsxcad -->
<!DOCTYPE svg PUBLIC "-//W3C//DTD SVG 1.1 Tiny//EN" "http://www.w3.org/Graphics/SVG/1.1/DTD/svg11-tiny.dtd">
<svg viewBox="-250 -250 500 500" width="500" height="500" xmlns="http://www.w3.org/2000/svg"><path d="M35.694614649549045,2.4422104343979285L13.664561888827956,-17.772616519064563L25.855630112435755,6.948420212561354z" style="fill:rgb(158,48,222)"/><path d="M45.71800509036923,1.9023616111513741L23.732211503940576,-22.39985877440505L35.694614649549045,2.4422104343979285z" style="fill:rgb(96,32,206)"/><path d="M25.855630112435755,6.948420212561354L6.326025725113394,-10.376095636887761L18.73076308219599,14.256542408843522z" style="fill:rgb(212,85,213)"/><path d="M75.98613124237404,-36.058725684632826L13.20486367884062,-44.35724761650906L3.6432426849706627,-39.834100288713664zM75.98613124237404,-36.058725684632826L3.6432426849706627,-39.834100288713664L-5.256019032916996,-34.247018827224004zM75.98613124237404,-36.058725684632826L23.143286154064654,-47.67976629628485L13.20486367884062,-44.35724761650906zM75.98613124237404,-36.058725684632826L-5.256019032916996,-34.247018827224004L-13.2241395966777,-27.7603224765736zM75.98613124237404,-36.058725684632826L33.161394719090524,-49.69523193745555L23.143286154064654,-47.67976629628485zM75.98613124237404,-36.058725684632826L-13.2241395966777,-27.7603224765736L-20.01372666642528,-20.563677152749317z" style="fill:rgb(83,212,212)"/><path d="M53.31549967722125,5.517025673559891L33.94302463014429,-23.063320493647986L45.71800509036923,1.9023616111513741z" style="fill:rgb(42,41,169)"/><path d="M75.98613124237404,-36.058725684632826L42.95540776876529,-50.33026382802001L33.161394719090524,-49.69523193745555z" style="fill:rgb(83,212,212)"/><path d="M18.73076308219599,14.256542408843522L3.646508763567811,-2.1021230947841447L16.195168571630607,22.495883796481397z" style="fill:rgb(243,133,180)"/><path d="M13.664561888827956,-17.772616519064563L-27.21361409625844,-9.08291870862248L-28.292020029443826,-6.8260341931966755z" style="fill:rgb(83,212,212)"/><path d="M35.694614649549045,2.4422104343979285L23.732211503940576,-22.39985877440505L13.664561888827956,-17.772616519064563z" style="fill:rgb(158,48,222)"/><path d="M75.98613124237404,-36.058725684632826L-20.01372666642528,-20.563677152749317L-25.40429447803635,-12.86933221127382z" style="fill:rgb(83,212,212)"/><path d="M25.855630112435755,6.948420212561354L13.664561888827956,-17.772616519064563L6.326025725113394,-10.376095636887761z" style="fill:rgb(212,85,213)"/><path d="M6.326025725113394,-10.376095636887761L-28.292020029443826,-6.8260341931966755L-29.208109098710057,-4.908940067688174zM75.98613124237404,-36.058725684632826L52.22037890864459,-49.5472768981123L42.95540776876529,-50.33026382802001zM75.98613124237404,-36.058725684632826L-25.40429447803635,-12.86933221127382L-27.21361409625844,-9.08291870862248z" style="fill:rgb(83,212,212)"/><path d="M45.71800509036923,1.9023616111513741L33.94302463014429,-23.063320493647986L23.732211503940576,-22.39985877440505z" style="fill:rgb(96,32,206)"/><path d="M13.664561888827956,-17.772616519064563L23.732211503940576,-22.39985877440505L-27.21361409625844,-9.08291870862248zM6.326025725113394,-10.376095636887761L-29.208109098710057,-4.908940067688174L-30.25213169759882,-0.8822345438440579zM6.326025725113394,-10.376095636887761L13.664561888827956,-17.772616519064563L-28.292020029443826,-6.8260341931966755z" style="fill:rgb(83,212,212)"/><path d="M18.73076308219599,14.256542408843522L6.326025725113394,-10.376095636887761L3.646508763567811,-2.1021230947841447z" style="fill:rgb(243,133,180)"/><path d="M75.98613124237404,-36.058725684632826L60.65717222939155,-47.347613405468834L52.22037890864459,-49.5472768981123z" style="fill:rgb(83,212,212)"/><path d="M16.195168571630607,22.495883796481397L6.4196520522208536,4.879051745155125L19.001396323024426,29.50520539917916z" style="fill:rgb(243,180,133)"/><path d="M3.646508763567811,-2.1021230947841447L-30.25213169759882,-0.8822345438440579L-31.276957183287152,3.0704542632455896z" style="fill:rgb(83,212,212)"/><path d="M53.31549967722125,5.517025673559891L44.72555922182316,-12.687324056283089L56.42066114837097,12.406191522686825z" style="fill:rgb(243,180,133)"/><path d="M53.31549967722125,5.517025673559891L41.639196971095345,-19.541629526950157L33.94302463014429,-23.063320493647986z" style="fill:rgb(42,41,169)"/><path d="M3.646508763567811,-2.1021230947841447L6.326025725113394,-10.376095636887761L-30.25213169759882,-0.8822345438440579zM3.646508763567811,-2.1021230947841447L-31.276957183287152,3.0704542632455896L-31.392464202391945,6.926678341169952zM75.98613124237404,-36.058725684632826L67.97992620252049,-43.77447032833573L60.65717222939155,-47.347613405468834z" style="fill:rgb(83,212,212)"/><path d="M26.507310082533362,33.36444870114594L6.4196520522208536,4.879051745155125L19.001396323024426,29.50520539917916z" style="fill:rgb(42,41,169)"/><path d="M16.195168571630607,22.495883796481397L3.646508763567811,-2.1021230947841447L6.4196520522208536,4.879051745155125z" style="fill:rgb(243,180,133)"/><path d="M89.12940380451211,-7.398862582791304L80.804895695293,-25.91748167867463L91.694924187603,-0.3831127108188336z" style="fill:rgb(245,174,141)"/><path d="M26.800907735921186,20.45306055465233L11.46270844071354,-31.720238682463535L9.26259635673354,-30.558707328243855zM26.800907735921186,20.45306055465233L13.70963059686661,-32.79193771261732L11.46270844071354,-31.720238682463535zM26.800907735921186,20.45306055465233L9.26259635673354,-30.558707328243855L7.11724286339997,-29.311533908120225zM26.800907735921186,20.45306055465233L15.995260005119718,-33.769911589785565L13.70963059686661,-32.79193771261732zM26.800907735921186,20.45306055465233L7.11724286339997,-29.311533908120225L5.03441996869048,-27.98318331226963z" style="fill:rgb(83,212,212)"/><path d="M53.31549967722125,5.517025673559891L41.639196971095345,-19.541629526950157L44.72555922182316,-12.687324056283089z" style="fill:rgb(243,180,133)"/><path d="M26.800907735921186,20.45306055465233L18.311360602015032,-34.65057629485491L15.995260005119718,-33.769911589785565zM77.21633666238101,-34.3534402261203L23.732211503940576,-22.39985877440505L33.94302463014429,-23.063320493647986zM26.800907735921186,20.45306055465233L5.03441996869048,-27.98318331226963L3.0217049436925123,-26.578395881911zM26.800907735921186,20.45306055465233L20.649582535173124,-35.43065156800283L18.311360602015032,-34.65057629485491z" style="fill:rgb(83,212,212)"/><path d="M-7.636789474994962,54.30126858836995L-26.32851604209678,24.53884589266363L-12.933961876128025,48.76101343917051z" style="fill:rgb(25,53,148)"/><path d="M26.800907735921186,20.45306055465233L3.0217049436925123,-26.578395881911L1.086458316404531,-25.102176765259916zM26.800907735921186,20.45306055465233L23.00148661640633,-36.107187544379755L20.649582535173124,-35.43065156800283zM26.800907735921186,20.45306055465233L1.086458316404531,-25.102176765259916L-0.7641954005199112,-23.559773247941102zM26.800907735921186,20.45306055465233L25.358559981987913,-36.67756996349516L23.00148661640633,-36.107187544379755zM26.800907735921186,20.45306055465233L-0.7641954005199112,-23.559773247941102L-2.5233885977452335,-21.956670577971863zM75.98613124237404,-36.058725684632826L73.92525395870757,-38.91534208236881L67.97992620252049,-43.77447032833573zM6.4196520522208536,4.879051745155125L-31.392464202391945,6.926678341169952L-31.508827547094192,10.811490693572727zM26.800907735921186,20.45306055465233L27.712247238356486,-37.13952182306472L25.358559981987913,-36.67756996349516zM26.800907735921186,20.45306055465233L-2.5233885977452335,-21.956670577971863L-4.184531523136277,-20.29857678120507z" style="fill:rgb(83,212,212)"/><path d="M56.42066114837097,12.406191522686825L42.260914519049045,-4.288426964849262L54.092482927203626,20.76994231811744z" style="fill:rgb(243,133,180)"/><path d="M26.800907735921186,20.45306055465233L30.0539631776886,-37.49112156970235L27.712247238356486,-37.13952182306472zM26.800907735921186,20.45306055465233L-4.184531523136277,-20.29857678120507L-5.7413315290074625,-18.59141428662726zM26.800907735921186,20.45306055465233L32.37512392392194,-37.73080513002699L30.0539631776886,-37.49112156970235zM77.21633666238101,-34.3534402261203L75.98613124237404,-36.058725684632826L23.732211503940576,-22.39985877440505zM26.800907735921186,20.45306055465233L-5.7413315290074625,-18.59141428662726L-7.187814970652628,-16.841295181319357zM6.4196520522208536,4.879051745155125L3.646508763567811,-2.1021230947841447L-31.392464202391945,6.926678341169952zM26.800907735921186,20.45306055465233L34.66716764781594,-37.85738453753948L32.37512392392194,-37.73080513002699zM26.800907735921186,20.45306055465233L-7.187814970652628,-16.841295181319357L-8.518347611103708,-15.054515513794144zM6.4196520522208536,4.879051745155125L-31.508827547094192,10.811490693572727L-30.695768470429634,14.372435141712655zM26.800907735921186,20.45306055465233L36.92157887402812,-37.87003755435078L34.66716764781594,-37.85738453753948z" style="fill:rgb(83,212,212)"/><path d="M36.73809204694227,32.94905624987059L14.017413308988388,8.652556859864772L26.507310082533362,33.36444870114594z" style="fill:rgb(96,32,206)"/><path d="M26.800907735921186,20.45306055465233L-8.518347611103708,-15.054515513794144L-9.72765373091403,-13.237536760773214zM26.800907735921186,20.45306055465233L39.1299141548001,-37.76833923796681L36.92157887402812,-37.87003755435078zM26.800907735921186,20.45306055465233L-9.72765373091403,-13.237536760773214L-10.810838977735658,-11.39696694220192z" style="fill:rgb(83,212,212)"/><path d="M89.12940380451211,-7.398862582791304L78.26247344338255,-32.90340407945936L80.804895695293,-25.91748167867463z" style="fill:rgb(245,174,141)"/><path d="M26.800907735921186,20.45306055465233L41.283829151988705,-37.55224914586297L39.1299141548001,-37.76833923796681zM26.800907735921186,20.45306055465233L-10.810838977735658,-11.39696694220192L-11.763410660378597,-9.539547584779191zM79.5447620618154,-29.38001849315098L33.94302463014429,-23.063320493647986L41.639196971095345,-19.541629526950157z" style="fill:rgb(83,212,212)"/><path d="M54.092482927203626,20.76994231811744L34.824005346316206,3.359940687840761L46.87607017486591,28.322674675339332z" style="fill:rgb(212,85,213)"/><path d="M26.800907735921186,20.45306055465233L43.375107379745096,-37.22212509747657L41.283829151988705,-37.55224914586297zM26.800907735921186,20.45306055465233L-11.763410660378597,-9.539547584779191L-12.581294815643487,-7.672131121632101zM79.5447620618154,-29.38001849315098L77.21633666238101,-34.3534402261203L33.94302463014429,-23.063320493647986z" style="fill:rgb(83,212,212)"/><path d="M46.87607017486591,28.322674675339332L24.443069574865596,8.114073855998566L36.73809204694227,32.94905624987059z" style="fill:rgb(158,48,222)"/><path d="M26.800907735921186,20.45306055465233L45.39567793250561,-36.7787304142936L43.375107379745096,-37.22212509747657z" style="fill:rgb(83,212,212)"/><path d="M91.694924187603,-0.3831127108188336L81.42078865267953,-18.17965784365357L92.37697804209992,7.358170524714899z" style="fill:rgb(247,158,158)"/><path d="M56.42066114837097,12.406191522686825L44.72555922182316,-12.687324056283089L42.260914519049045,-4.288426964849262z" style="fill:rgb(243,133,180)"/><path d="M26.800907735921186,20.45306055465233L-12.581294815643487,-7.672131121632101L-13.26086273234385,-5.8016637930634545z" style="fill:rgb(83,212,212)"/><path d="M-0.7367743688843424,58.64434867780163L-21.005822689849012,30.025929902371978L-7.636789474994962,54.30126858836995z" style="fill:rgb(38,43,165)"/><path d="M26.507310082533362,33.36444870114594L14.017413308988388,8.652556859864772L6.4196520522208536,4.879051745155125z" style="fill:rgb(42,41,169)"/><path d="M26.800907735921186,20.45306055465233L47.33765795730405,-36.22323704567364L45.39567793250561,-36.7787304142936zM26.800907735921186,20.45306055465233L-13.26086273234385,-5.8016637930634545L-13.798943368301593,-3.935162799237413zM14.017413308988388,8.652556859864772L-30.695768470429634,14.372435141712655L-29.855353223451846,18.053155840960095zM26.800907735921186,20.45306055465233L49.19337674933743,-35.557229530806914L47.33765795730405,-36.22323704567364zM26.800907735921186,20.45306055465233L-13.798943368301593,-3.935162799237413L-14.19284891453873,-2.079698202359925zM26.800907735921186,20.45306055465233L50.955396772773746,-34.78270714123236L49.19337674933743,-35.557229530806914z" style="fill:rgb(83,212,212)"/><path d="M-10.591007437167855,13.856790397640165L-12.003569393609485,11.520862637952192L-11.52804906733032,12.414545656116339z" style="fill:rgb(17,63,135)"/><path d="M14.017413308988388,8.652556859864772L6.4196520522208536,4.879051745155125L-30.695768470429634,14.372435141712655zM14.017413308988388,8.652556859864772L-29.855353223451846,18.053155840960095L-29.01484478156336,19.5987624050933zM26.800907735921186,20.45306055465233L-14.19284891453873,-2.079698202359925L-14.44039044199105,-0.24236602421708642z" style="fill:rgb(83,212,212)"/><path d="M-7.636789474994962,54.30126858836995L-21.005822689849012,30.025929902371978L-26.32851604209678,24.53884589266363z" style="fill:rgb(25,53,148)"/><path d="M79.5447620618154,-29.38001849315098L78.26247344338255,-32.90340407945936L77.21633666238101,-34.3534402261203zM26.800907735921186,20.45306055465233L52.616556836264216,-33.90208630051897L50.955396772773746,-34.78270714123236z" style="fill:rgb(83,212,212)"/><path d="M60.88977188722188,-25.05682476469165L61.94160210212677,-22.53716604066513L61.30241905671534,-24.130575644074106z" style="fill:rgb(244,177,137)"/><path d="M-10.591007437167855,13.856790397640165L-11.066586872760407,12.962718926555741L-12.003569393609485,11.520862637952192z" style="fill:rgb(17,63,135)"/><path d="M26.800907735921186,20.45306055465233L-14.44039044199105,-0.24236602421708642L-14.539893811916379,1.5697330802763263z" style="fill:rgb(83,212,212)"/><path d="M60.88977188722188,-25.05682476469165L61.52875951387379,-23.463727332443348L61.94160210212677,-22.53716604066513z" style="fill:rgb(244,177,137)"/><path d="M-9.512996383242973,15.220136870501785L-11.066586872760407,12.962718926555741L-10.591007437167855,13.856790397640165z" style="fill:rgb(20,59,140)"/><path d="M26.800907735921186,20.45306055465233L54.169987075198826,-32.9182011197807L52.616556836264216,-33.90208630051897z" style="fill:rgb(83,212,212)"/><path d="M91.694924187603,-0.3831127108188336L80.804895695293,-25.91748167867463L81.42078865267953,-18.17965784365357z" style="fill:rgb(247,158,158)"/><path d="M26.800907735921186,20.45306055465233L-14.539893811916379,1.5697330802763263L-14.490221841762965,3.3495196356313763z" style="fill:rgb(83,212,212)"/><path d="M54.092482927203626,20.76994231811744L42.260914519049045,-4.288426964849262L34.824005346316206,3.359940687840761z" style="fill:rgb(212,85,213)"/><path d="M-9.512996383242973,15.220136870501785L-9.988506198560822,14.325618183681435L-11.066586872760407,12.962718926555741z" style="fill:rgb(20,59,140)"/><path d="M36.73809204694227,32.94905624987059L24.443069574865596,8.114073855998566L14.017413308988388,8.652556859864772z" style="fill:rgb(96,32,206)"/><path d="M61.94160210212677,-22.53716604066513L61.52875951387379,-23.463727332443348L62.01965645003843,-21.804506104706693z" style="fill:rgb(245,172,143)"/><path d="M81.11167304920654,-22.063258160305832L41.639196971095345,-19.541629526950157L44.72555922182316,-12.687324056283089zM26.800907735921186,20.45306055465233L55.609166601907695,-31.834298654042595L54.169987075198826,-32.9182011197807zM24.443069574865596,8.114073855998566L-29.01484478156336,19.5987624050933L-28.018247191751843,21.43153249690514z" style="fill:rgb(83,212,212)"/><path d="M61.94160210212677,-22.53716604066513L62.01965645003843,-21.804506104706693L62.43282793350534,-20.87770555393038z" style="fill:rgb(245,172,143)"/><path d="M81.11167304920654,-22.063258160305832L79.5447620618154,-29.38001849315098L41.639196971095345,-19.541629526950157z" style="fill:rgb(83,212,212)"/><path d="M-8.297560802465506,16.49869062145656L-9.988506198560822,14.325618183681435L-9.512996383242973,15.220136870501785z" style="fill:rgb(24,55,146)"/><path d="M26.800907735921186,20.45306055465233L-14.490221841762965,3.3495196356313763L-14.29078372933514,5.089962252619634z" style="fill:rgb(83,212,212)"/><path d="M92.37697804209992,7.358170524714899L80.04420150899541,-9.950364342921869L91.10929227025815,15.563772844987676z" style="fill:rgb(245,141,174)"/><path d="M26.800907735921186,20.45306055465233L56.92791645772147,-30.65403932308223L55.609166601907695,-31.834298654042595z" style="fill:rgb(83,212,212)"/><path d="M7.551295271012343,61.60741437650352L-14.033973528459873,34.29667485493537L-0.7367743688843424,58.64434867780163z" style="fill:rgb(55,36,180)"/><path d="M-8.297560802465506,16.49869062145656L-8.772871222952565,15.603666971958312L-9.988506198560822,14.325618183681435z" style="fill:rgb(24,55,146)"/><path d="M62.43282793350534,-20.87770555393038L62.01965645003843,-21.804506104706693L62.359684372747715,-20.08546899167787z" style="fill:rgb(246,166,149)"/><path d="M46.87607017486591,28.322674675339332L34.824005346316206,3.359940687840761L24.443069574865596,8.114073855998566z" style="fill:rgb(158,48,222)"/><path d="M26.800907735921186,20.45306055465233L-14.29078372933514,5.089962252619634L-13.941555394243654,6.784103361184594z" style="fill:rgb(83,212,212)"/><path d="M62.43282793350534,-20.87770555393038L62.359684372747715,-20.08546899167787L62.77330273135338,-19.15850105363255z" style="fill:rgb(246,166,149)"/><path d="M-6.948849366286491,17.68683888834833L-8.772871222952565,15.603666971958312L-8.297560802465506,16.49869062145656z" style="fill:rgb(28,51,152)"/><path d="M26.800907735921186,20.45306055465233L58.12047174957844,-29.3814972157979L56.92791645772147,-30.65403932308223zM24.443069574865596,8.114073855998566L14.017413308988388,8.652556859864772L-29.01484478156336,19.5987624050933zM26.800907735921186,20.45306055465233L-13.941555394243654,6.784103361184594L-13.443086504108853,8.42508924294524z" style="fill:rgb(83,212,212)"/><path d="M-6.948849366286491,17.68683888834833L-7.423830145875694,16.7912537566517L-8.772871222952565,15.603666971958312z" style="fill:rgb(28,51,152)"/><path d="M62.77330273135338,-19.15850105363255L62.359684372747715,-20.08546899167787L62.54665640768754,-18.3132339144416z" style="fill:rgb(247,161,155)"/><path d="M26.800907735921186,20.45306055465233L59.18147785948812,-28.021141616097825L58.12047174957844,-29.3814972157979z" style="fill:rgb(83,212,212)"/><path d="M62.77330273135338,-19.15850105363255L62.54665640768754,-18.3132339144416L62.960839193088674,-17.38617167083645z" style="fill:rgb(247,161,155)"/><path d="M-5.471609534822711,18.779286827757993L-7.423830145875694,16.7912537566517L-6.948849366286491,17.68683888834833z" style="fill:rgb(32,47,158)"/><path d="M26.800907735921186,20.45306055465233L-13.443086504108853,8.42508924294524L-12.796513166635172,10.006195871784872zM81.11167304920654,-22.063258160305832L80.804895695293,-25.91748167867463L79.5447620618154,-29.38001849315098zM26.800907735921186,20.45306055465233L60.106045809991414,-26.57783633931543L59.18147785948812,-28.021141616097825z" style="fill:rgb(83,212,212)"/><path d="M-0.7367743688843424,58.64434867780163L-14.033973528459873,34.29667485493537L-21.005822689849012,30.025929902371978z" style="fill:rgb(38,43,165)"/><path d="M-5.471609534822711,18.779286827757993L-5.946130558698449,17.883085134534774L-7.423830145875694,16.7912537566517z" style="fill:rgb(32,47,158)"/><path d="M62.960839193088674,-17.38617167083645L62.54665640768754,-18.3132339144416L62.57899068993134,-16.494711290497452z" style="fill:rgb(247,155,161)"/><path d="M26.800907735921186,20.45306055465233L-12.796513166635172,10.006195871784872L-12.003569393609485,11.520862637952192z" style="fill:rgb(83,212,212)"/><path d="M62.960839193088674,-17.38617167083645L62.57899068993134,-16.494711290497452L62.9938702219023,-15.567631285474707z" style="fill:rgb(247,155,161)"/><path d="M-3.871176153606907,19.771084242743274L-5.946130558698449,17.883085134534774L-5.471609534822711,18.779286827757993z" style="fill:rgb(37,44,163)"/><path d="M26.800907735921186,20.45306055465233L60.88977188722188,-25.05682476469165L60.106045809991414,-26.57783633931543z" style="fill:rgb(83,212,212)"/><path d="M92.37697804209992,7.358170524714899L81.42078865267953,-18.17965784365357L80.04420150899541,-9.950364342921869z" style="fill:rgb(245,141,174)"/><path d="M26.800907735921186,20.45306055465233L-12.003569393609485,11.520862637952192L-11.066586872760407,12.962718926555741z" style="fill:rgb(83,212,212)"/><path d="M-3.871176153606907,19.771084242743274L-4.345108387680371,18.87421256306694L-5.946130558698449,17.883085134534774z" style="fill:rgb(37,44,163)"/><path d="M62.9938702219023,-15.567631285474707L62.57899068993134,-16.494711290497452L62.45575582062609,-14.637081000166003z" style="fill:rgb(246,149,166)"/><path d="M91.10929227025815,15.563772844987676L76.68360725307282,-1.5204718736642715L87.89818791984801,23.943392913964498z" style="fill:rgb(239,123,188)"/><path d="M26.800907735921186,20.45306055465233L61.52875951387379,-23.463727332443348L60.88977188722188,-25.05682476469165z" style="fill:rgb(83,212,212)"/><path d="M62.9938702219023,-15.567631285474707L62.45575582062609,-14.637081000166003L62.87144725046065,-13.710058931682662z" style="fill:rgb(246,149,166)"/><path d="M80.74362839171918,-14.131537029938723L44.72555922182316,-12.687324056283089L42.260914519049045,-4.288426964849262z" style="fill:rgb(83,212,212)"/><path d="M-2.153462292803149,20.657651463243244L-4.345108387680371,18.87421256306694L-3.871176153606907,19.771084242743274z" style="fill:rgb(42,41,169)"/><path d="M16.949406781024614,63.054281635459965L-5.628824817053626,37.16954912092594L7.551295271012343,61.60741437650352z" style="fill:rgb(74,33,194)"/><path d="M26.800907735921186,20.45306055465233L-11.066586872760407,12.962718926555741L-9.988506198560822,14.325618183681435zM80.74362839171918,-14.131537029938723L81.11167304920654,-22.063258160305832L44.72555922182316,-12.687324056283089z" style="fill:rgb(83,212,212)"/><path d="M-2.153462292803149,20.657651463243244L-2.6266771049549407,19.760059571030794L-4.345108387680371,18.87421256306694z" style="fill:rgb(42,41,169)"/><path d="M26.800907735921186,20.45306055465233L62.01965645003843,-21.804506104706693L61.52875951387379,-23.463727332443348z" style="fill:rgb(83,212,212)"/><path d="M62.87144725046065,-13.710058931682662L62.45575582062609,-14.637081000166003L62.17666208908136,-12.747761876240002zM62.87144725046065,-13.710058931682662L62.17666208908136,-12.747761876240002L62.5932785054721,-11.820873516663955z" style="fill:rgb(245,143,172)"/><path d="M26.800907735921186,20.45306055465233L-9.988506198560822,14.325618183681435L-8.772871222952565,15.603666971958312z" style="fill:rgb(83,212,212)"/><path d="M-0.3249401655518371,21.434819566416095L-2.6266771049549407,19.760059571030794L-2.153462292803149,20.657651463243244z" style="fill:rgb(48,39,174)"/><path d="M26.800907735921186,20.45306055465233L62.359684372747715,-20.08546899167787L62.01965645003843,-21.804506104706693z" style="fill:rgb(83,212,212)"/><path d="M-0.3249401655518371,21.434819566416095L-0.7973121080850156,20.536455408791024L-2.6266771049549407,19.760059571030794z" style="fill:rgb(48,39,174)"/><path d="M26.800907735921186,20.45306055465233L-8.772871222952565,15.603666971958312L-7.423830145875694,16.7912537566517z" style="fill:rgb(83,212,212)"/><path d="M62.5932785054721,-11.820873516663955L62.17666208908136,-12.747761876240002L61.74208534938784,-10.834381794782855zM62.5932785054721,-11.820873516663955L61.74208534938784,-10.834381794782855L62.15975300327341,-9.907702584531107z" style="fill:rgb(244,137,177)"/><path d="M26.800907735921186,20.45306055465233L62.54665640768754,-18.3132339144416L62.359684372747715,-20.08546899167787z" style="fill:rgb(83,212,212)"/><path d="M1.6073759994456533,22.098845641784877L-0.7973121080850156,20.536455408791024L-0.3249401655518371,21.434819566416095z" style="fill:rgb(54,37,179)"/><path d="M26.800907735921186,20.45306055465233L-7.423830145875694,16.7912537566517L-5.946130558698449,17.883085134534774z" style="fill:rgb(83,212,212)"/><path d="M61.74208534938784,-10.834381794782855L61.57190879482998,-7.97835137748339L62.15975300327341,-9.907702584531107z" style="fill:rgb(242,131,182)"/><path d="M1.6073759994456533,22.098845641784877L1.1359704223721452,21.199663456592784L-0.7973121080850156,20.536455408791024z" style="fill:rgb(54,37,179)"/><path d="M35.92405908471244,32.899750108421365L-28.018247191751843,21.43153249690514L-26.32851604209678,24.53884589266363z" style="fill:rgb(83,212,212)"/><path d="M7.551295271012343,61.60741437650352L-5.628824817053626,37.16954912092594L-14.033973528459873,34.29667485493537z" style="fill:rgb(55,36,180)"/><path d="M26.800907735921186,20.45306055465233L62.57899068993134,-16.494711290497452L62.54665640768754,-18.3132339144416zM80.74362839171918,-14.131537029938723L81.42078865267953,-18.17965784365357L81.11167304920654,-22.063258160305832z" style="fill:rgb(83,212,212)"/><path d="M3.635955025275287,22.64644290388933L1.1359704223721452,21.199663456592784L1.6073759994456533,22.098845641784877z" style="fill:rgb(60,35,184)"/><path d="M61.74208534938784,-10.834381794782855L61.15308262029969,-8.90474672399755L61.57190879482998,-7.97835137748339z" style="fill:rgb(242,131,182)"/><path d="M79.24227426050598,-7.938828691526457L42.260914519049045,-4.288426964849262L34.824005346316206,3.359940687840761zM26.800907735921186,20.45306055465233L-5.946130558698449,17.883085134534774L-4.345108387680371,18.87421256306694z" style="fill:rgb(83,212,212)"/><path d="M87.89818791984801,23.943392913964498L71.42712152181288,6.799775598213232L82.8276015874985,32.188737418534046z" style="fill:rgb(229,106,201)"/><path d="M27.12482870849337,62.90519400745379L3.9283053018447602,38.510457655151306L16.949406781024614,63.054281635459965z" style="fill:rgb(94,32,205)"/><path d="M26.800907735921186,20.45306055465233L62.45575582062609,-14.637081000166003L62.57899068993134,-16.494711290497452z" style="fill:rgb(83,212,212)"/><path d="M3.635955025275287,22.64644290388933L3.165635713766685,21.74639951742744L1.1359704223721452,21.199663456592784z" style="fill:rgb(60,35,184)"/><path d="M91.10929227025815,15.563772844987676L80.04420150899541,-9.950364342921869L76.68360725307282,-1.5204718736642715z" style="fill:rgb(239,123,188)"/><path d="M61.57190879482998,-7.97835137748339L61.15308262029969,-8.90474672399755L60.41139804270774,-6.966806411323224zM61.57190879482998,-7.97835137748339L60.41139804270774,-6.966806411323224L60.8314914903956,-6.040768508445469z" style="fill:rgb(240,125,187)"/><path d="M26.800907735921186,20.45306055465233L-4.345108387680371,18.87421256306694L-2.6266771049549407,19.760059571030794z" style="fill:rgb(83,212,212)"/><path d="M5.752775446876026,23.07480909923573L3.165635713766685,21.74639951742744L3.635955025275287,22.64644290388933z" style="fill:rgb(66,34,189)"/><path d="M78.29227334950676,-5.555703959621685L34.824005346316206,3.359940687840761L24.443069574865596,8.114073855998566zM26.800907735921186,20.45306055465233L62.17666208908136,-12.747761876240002L62.45575582062609,-14.637081000166003zM79.24227426050598,-7.938828691526457L80.74362839171918,-14.131537029938723L42.260914519049045,-4.288426964849262z" style="fill:rgb(83,212,212)"/><path d="M5.752775446876026,23.07480909923573L5.2836582191795145,22.17386153110375L3.165635713766685,21.74639951742744z" style="fill:rgb(66,34,189)"/><path d="M26.800907735921186,20.45306055465233L-2.6266771049549407,19.760059571030794L-0.7973121080850156,20.536455408791024z" style="fill:rgb(83,212,212)"/><path d="M60.8314914903956,-6.040768508445469L60.41139804270774,-6.966806411323224L59.51945522703712,-5.028616982292278z" style="fill:rgb(237,120,191)"/><path d="M60.8314914903956,-6.040768508445469L59.51945522703712,-5.028616982292278L59.94091504300297,-4.103008572426322z" style="fill:rgb(237,119,191)"/><path d="M7.949357163326887,23.381643388955695L5.2836582191795145,22.17386153110375L5.752775446876026,23.07480909923573z" style="fill:rgb(73,33,193)"/><path d="M26.800907735921186,20.45306055465233L61.74208534938784,-10.834381794782855L62.17666208908136,-12.747761876240002zM35.92405908471244,32.899750108421365L-26.32851604209678,24.53884589266363L-21.005822689849012,30.025929902371978zM26.800907735921186,20.45306055465233L-0.7973121080850156,20.536455408791024L1.1359704223721452,21.199663456592784z" style="fill:rgb(83,212,212)"/><path d="M7.949357163326887,23.381643388955695L7.481553272385153,22.479751714725776L5.2836582191795145,22.17386153110375z" style="fill:rgb(73,33,193)"/><path d="M59.94091504300297,-4.103008572426322L59.51945522703712,-5.028616982292278L58.48036451229116,-3.098302634949292zM59.94091504300297,-4.103008572426322L58.48036451229116,-3.098302634949292L58.90329540847583,-2.1731940089671404z" style="fill:rgb(234,114,195)"/><path d="M26.800907735921186,20.45306055465233L61.15308262029969,-8.90474672399755L61.74208534938784,-10.834381794782855z" style="fill:rgb(83,212,212)"/><path d="M10.216795912668726,23.565161986332413L7.481553272385153,22.479751714725776L7.949357163326887,23.381643388955695z" style="fill:rgb(79,32,198)"/><path d="M26.800907735921186,20.45306055465233L1.1359704223721452,21.199663456592784L3.165635713766685,21.74639951742744z" style="fill:rgb(83,212,212)"/><path d="M82.8276015874985,32.188737418534046L64.4440525653695,14.69426076831785L76.06062310002181,39.98694735398084z" style="fill:rgb(216,89,211)"/><path d="M37.70249485758784,61.144099138927594L14.299129049573553,38.24257139150456L27.12482870849337,62.90519400745379z" style="fill:rgb(116,34,214)"/><path d="M10.216795912668726,23.565161986332413L9.750410672533887,22.662292223909883L7.481553272385153,22.479751714725776z" style="fill:rgb(79,32,198)"/><path d="M26.800907735921186,20.45306055465233L60.41139804270774,-6.966806411323224L61.15308262029969,-8.90474672399755z" style="fill:rgb(83,212,212)"/><path d="M58.90329540847583,-2.1731940089671404L58.48036451229116,-3.098302634949292L57.297927339861275,-1.1840185694879293zM58.90329540847583,-2.1731940089671404L57.297927339861275,-1.1840185694879293L57.722423209999846,-0.25947726489228623z" style="fill:rgb(230,108,199)"/><path d="M12.545799904300543,23.624125223630333L9.750410672533887,22.662292223909883L10.216795912668726,23.565161986332413z" style="fill:rgb(86,32,201)"/><path d="M26.800907735921186,20.45306055465233L3.165635713766685,21.74639951742744L5.2836582191795145,22.17386153110375zM78.29227334950676,-5.555703959621685L79.24227426050598,-7.938828691526457L34.824005346316206,3.359940687840761z" style="fill:rgb(83,212,212)"/><path d="M16.949406781024614,63.054281635459965L3.9283053018447602,38.510457655151306L-5.628824817053626,37.16954912092594z" style="fill:rgb(74,33,194)"/><path d="M26.800907735921186,20.45306055465233L59.51945522703712,-5.028616982292278L60.41139804270774,-6.966806411323224z" style="fill:rgb(83,212,212)"/><path d="M12.545799904300543,23.624125223630333L12.080934731446451,22.72024560157455L9.750410672533887,22.662292223909883z" style="fill:rgb(86,32,201)"/><path d="M57.722423209999846,-0.25947726489228623L57.297927339861275,-1.1840185694879293L55.97660307346878,0.7060926564142083z" style="fill:rgb(226,102,203)"/><path d="M79.24227426050598,-7.938828691526457L80.04420150899541,-9.950364342921869L80.74362839171918,-14.131537029938723z" style="fill:rgb(83,212,212)"/><path d="M57.722423209999846,-0.25947726489228623L55.97660307346878,0.7060926564142083L56.40275703914914,1.6300014441332276z" style="fill:rgb(226,102,203)"/><path d="M26.800907735921186,20.45306055465233L5.2836582191795145,22.17386153110375L7.481553272385153,22.479751714725776z" style="fill:rgb(83,212,212)"/><path d="M87.89818791984801,23.943392913964498L76.68360725307282,-1.5204718736642715L71.42712152181288,6.799775598213232z" style="fill:rgb(229,106,201)"/><path d="M26.800907735921186,20.45306055465233L58.48036451229116,-3.098302634949292L59.51945522703712,-5.028616982292278zM35.92405908471244,32.899750108421365L78.29227334950676,-5.555703959621685L-28.018247191751843,21.43153249690514z" style="fill:rgb(83,212,212)"/><path d="M14.463483617952791,22.652928898240702L12.080934731446451,22.72024560157455L12.545799904300543,23.624125223630333zM14.463483617952791,22.652928898240702L12.545799904300543,23.624125223630333L14.926735761995538,23.557846393637128z" style="fill:rgb(94,32,205)"/><path d="M26.800907735921186,20.45306055465233L7.481553272385153,22.479751714725776L9.750410672533887,22.662292223909883z" style="fill:rgb(83,212,212)"/><path d="M56.40275703914914,1.6300014441332276L55.97660307346878,0.7060926564142083L54.521530097731734,2.563940863680457zM56.40275703914914,1.6300014441332276L54.521530097731734,2.563940863680457L54.94941272273458,3.487154710656937z" style="fill:rgb(222,96,207)"/><path d="M76.06062310002181,39.98694735398084L55.98080705751802,21.856371293428484L67.83555564903581,47.03576742983372z" style="fill:rgb(199,74,218)"/><path d="M17.349668433646716,23.366196639405793L14.463483617952791,22.652928898240702L14.926735761995538,23.557846393637128z" style="fill:rgb(101,32,208)"/><path d="M26.800907735921186,20.45306055465233L57.297927339861275,-1.1840185694879293L58.48036451229116,-3.098302634949292z" style="fill:rgb(83,212,212)"/><path d="M48.28203400650552,57.822481209647776L25.100943637007656,36.353643260895154L37.70249485758784,61.144099138927594z" style="fill:rgb(138,40,220)"/><path d="M26.800907735921186,20.45306055465233L9.750410672533887,22.662292223909883L12.080934731446451,22.72024560157455zM35.92405908471244,32.899750108421365L-21.005822689849012,30.025929902371978L-14.033973528459873,34.29667485493537z" style="fill:rgb(83,212,212)"/><path d="M17.349668433646716,23.366196639405793L16.88811592421858,22.46021722511561L14.463483617952791,22.652928898240702z" style="fill:rgb(101,32,208)"/><path d="M54.94941272273458,3.487154710656937L54.521530097731734,2.563940863680457L52.9384654360461,4.381531142995456zM54.94941272273458,3.487154710656937L52.9384654360461,4.381531142995456L53.3681613935197,5.303991634988366z" style="fill:rgb(217,91,210)"/><path d="M26.800907735921186,20.45306055465233L55.97660307346878,0.7060926564142083L57.297927339861275,-1.1840185694879293z" style="fill:rgb(83,212,212)"/><path d="M19.804412776948855,23.049627335407965L16.88811592421858,22.46021722511561L17.349668433646716,23.366196639405793z" style="fill:rgb(108,33,211)"/><path d="M26.800907735921186,20.45306055465233L12.080934731446451,22.72024560157455L14.463483617952791,22.652928898240702z" style="fill:rgb(83,212,212)"/><path d="M52.9384654360461,4.381531142995456L51.66537255416947,7.072658050114188L53.3681613935197,5.303991634988366z" style="fill:rgb(212,85,213)"/><path d="M67.83555564903581,47.03576742983372L46.351622006876156,28.004996591547226L58.4570323657329,53.05922866744131z" style="fill:rgb(180,60,221)"/><path d="M58.4570323657329,53.05922866744131L35.92405908471244,32.899750108421365L48.28203400650552,57.822481209647776z" style="fill:rgb(160,49,222)"/><path d="M26.800907735921186,20.45306055465233L54.521530097731734,2.563940863680457L55.97660307346878,0.7060926564142083z" style="fill:rgb(83,212,212)"/><path d="M19.804412776948855,23.049627335407965L19.34463897193656,22.14256479262344L16.88811592421858,22.46021722511561z" style="fill:rgb(108,33,211)"/><path d="M22.280581000359227,22.609149984015186L19.34463897193656,22.14256479262344L19.804412776948855,23.049627335407965z" style="fill:rgb(116,34,214)"/><path d="M26.800907735921186,20.45306055465233L14.463483617952791,22.652928898240702L16.88811592421858,22.46021722511561z" style="fill:rgb(83,212,212)"/><path d="M52.9384654360461,4.381531142995456L51.23380215330679,6.151006210814944L51.66537255416947,7.072658050114188z" style="fill:rgb(212,85,213)"/><path d="M26.800907735921186,20.45306055465233L52.9384654360461,4.381531142995456L54.521530097731734,2.563940863680457z" style="fill:rgb(83,212,212)"/><path d="M22.280581000359227,22.609149984015186L21.82265697076071,21.700992786607177L19.34463897193656,22.14256479262344z" style="fill:rgb(116,34,214)"/><path d="M51.66537255416947,7.072658050114188L49.41451410580965,7.86468967733528L49.84801731385278,8.785481663069945zM51.66537255416947,7.072658050114188L51.23380215330679,6.151006210814944L49.41451410580965,7.86468967733528z" style="fill:rgb(206,80,215)"/><path d="M26.800907735921186,20.45306055465233L16.88811592421858,22.46021722511561L19.34463897193656,22.14256479262344z" style="fill:rgb(83,212,212)"/><path d="M24.767638789790336,22.046367557740584L21.82265697076071,21.700992786607177L22.280581000359227,22.609149984015186z" style="fill:rgb(123,36,216)"/><path d="M26.800907735921186,20.45306055465233L51.23380215330679,6.151006210814944L52.9384654360461,4.381531142995456z" style="fill:rgb(83,212,212)"/><path d="M27.12482870849337,62.90519400745379L14.299129049573553,38.24257139150456L3.9283053018447602,38.510457655151306z" style="fill:rgb(94,32,205)"/><path d="M24.767638789790336,22.046367557740584L24.31162718351359,21.137100722928988L21.82265697076071,21.700992786607177z" style="fill:rgb(123,36,216)"/><path d="M26.800907735921186,20.45306055465233L19.34463897193656,22.14256479262344L21.82265697076071,21.700992786607177z" style="fill:rgb(83,212,212)"/><path d="M49.84801731385278,8.785481663069945L47.4881418683074,9.51512592014765L47.923627783829254,10.435011042065529zM49.84801731385278,8.785481663069945L49.41451410580965,7.86468967733528L47.4881418683074,9.51512592014765z" style="fill:rgb(200,75,217)"/><path d="M27.254953068608106,21.363442011957694L24.31162718351359,21.137100722928988L24.767638789790336,22.046367557740584z" style="fill:rgb(131,38,218)"/><path d="M26.800907735921186,20.45306055465233L49.41451410580965,7.86468967733528L51.23380215330679,6.151006210814944zM26.800907735921186,20.45306055465233L21.82265697076071,21.700992786607177L24.31162718351359,21.137100722928988z" style="fill:rgb(83,212,212)"/><path d="M47.923627783829254,10.435011042065529L45.462742796069854,11.095124609356715L45.90024717311368,12.014060259097636z" style="fill:rgb(194,70,219)"/><path d="M27.254953068608106,21.363442011957694L26.800907735921186,20.45306055465233L24.31162718351359,21.137100722928988z" style="fill:rgb(131,38,218)"/><path d="M29.73185687493485,20.563103816974863L26.800907735921186,20.45306055465233L27.254953068608106,21.363442011957694z" style="fill:rgb(138,40,220)"/><path d="M47.923627783829254,10.435011042065529L47.4881418683074,9.51512592014765L45.462742796069854,11.095124609356715z" style="fill:rgb(194,70,219)"/><path d="M26.800907735921186,20.45306055465233L47.4881418683074,9.51512592014765L49.41451410580965,7.86468967733528z" style="fill:rgb(83,212,212)"/><path d="M82.8276015874985,32.188737418534046L71.42712152181288,6.799775598213232L64.4440525653695,14.69426076831785z" style="fill:rgb(216,89,211)"/><path d="M45.90024717311368,12.014060259097636L43.34686144805149,12.597796374509207L43.78642425154557,13.515744538713014z" style="fill:rgb(188,65,220)"/><path d="M32.187695118972734,19.648635632175655L29.27982256062707,19.65160622273588L29.73185687493485,20.563103816974863z" style="fill:rgb(146,43,221)"/><path d="M26.800907735921186,20.45306055465233L45.462742796069854,11.095124609356715L47.4881418683074,9.51512592014765z" style="fill:rgb(83,212,212)"/><path d="M29.73185687493485,20.563103816974863L29.27982256062707,19.65160622273588L26.800907735921186,20.45306055465233z" style="fill:rgb(138,40,220)"/><path d="M45.90024717311368,12.014060259097636L45.462742796069854,11.095124609356715L43.34686144805149,12.597796374509207z" style="fill:rgb(188,65,220)"/><path d="M43.78642425154557,13.515744538713014L41.149491833428414,14.016593903252366L41.59113299396271,14.933521318573499z" style="fill:rgb(181,61,221)"/><path d="M26.800907735921186,20.45306055465233L43.34686144805149,12.597796374509207L45.462742796069854,11.095124609356715z" style="fill:rgb(83,212,212)"/><path d="M34.16397458072447,17.710142393823922L32.187695118972734,19.648635632175655L34.61189026728348,18.623855772824903z" style="fill:rgb(153,46,222)"/><path d="M32.187695118972734,19.648635632175655L31.737707205818992,18.736025295819953L29.27982256062707,19.65160622273588z" style="fill:rgb(146,43,221)"/><path d="M41.59113299396271,14.933521318573499L38.88001662788486,15.345348382255281L39.32374918957477,16.26122666031297z" style="fill:rgb(175,57,222)"/><path d="M26.800907735921186,20.45306055465233L29.27982256062707,19.65160622273588L31.737707205818992,18.736025295819953z" style="fill:rgb(83,212,212)"/><path d="M43.78642425154557,13.515744538713014L43.34686144805149,12.597796374509207L41.149491833428414,14.016593903252366z" style="fill:rgb(181,61,221)"/><path d="M36.99399525740271,17.49310837674311L34.16397458072447,17.710142393823922L34.61189026728348,18.623855772824903z" style="fill:rgb(160,49,222)"/><path d="M39.32374918957477,16.26122666031297L36.54816793734369,16.578302671009848L36.99399525740271,17.49310837674311z" style="fill:rgb(168,53,222)"/><path d="M26.800907735921186,20.45306055465233L41.149491833428414,14.016593903252366L43.34686144805149,12.597796374509207z" style="fill:rgb(83,212,212)"/><path d="M34.16397458072447,17.710142393823922L31.737707205818992,18.736025295819953L32.187695118972734,19.648635632175655z" style="fill:rgb(153,46,222)"/><path d="M26.800907735921186,20.45306055465233L31.737707205818992,18.736025295819953L34.16397458072447,17.710142393823922z" style="fill:rgb(83,212,212)"/><path d="M41.59113299396271,14.933521318573499L41.149491833428414,14.016593903252366L38.88001662788486,15.345348382255281z" style="fill:rgb(175,57,222)"/><path d="M26.800907735921186,20.45306055465233L38.88001662788486,15.345348382255281L41.149491833428414,14.016593903252366zM26.800907735921186,20.45306055465233L34.16397458072447,17.710142393823922L36.54816793734369,16.578302671009848zM26.800907735921186,20.45306055465233L36.54816793734369,16.578302671009848L38.88001662788486,15.345348382255281z" style="fill:rgb(83,212,212)"/><path d="M36.99399525740271,17.49310837674311L36.54816793734369,16.578302671009848L34.16397458072447,17.710142393823922z" style="fill:rgb(160,49,222)"/><path d="M39.32374918957477,16.26122666031297L38.88001662788486,15.345348382255281L36.54816793734369,16.578302671009848z" style="fill:rgb(168,53,222)"/><path d="M35.92405908471244,32.899750108421365L-14.033973528459873,34.29667485493537L-5.628824817053626,37.16954912092594z" style="fill:rgb(83,212,212)"/><path d="M37.70249485758784,61.144099138927594L25.100943637007656,36.353643260895154L14.299129049573553,38.24257139150456z" style="fill:rgb(116,34,214)"/><path d="M76.06062310002181,39.98694735398084L64.4440525653695,14.69426076831785L55.98080705751802,21.856371293428484z" style="fill:rgb(199,74,218)"/><path d="M35.92405908471244,32.899750108421365L76.68360725307282,-1.5204718736642715L78.29227334950676,-5.555703959621685z" style="fill:rgb(83,212,212)"/><path d="M48.28203400650552,57.822481209647776L35.92405908471244,32.899750108421365L25.100943637007656,36.353643260895154z" style="fill:rgb(138,40,220)"/><path d="M35.92405908471244,32.899750108421365L-5.628824817053626,37.16954912092594L3.9283053018447602,38.510457655151306z" style="fill:rgb(83,212,212)"/><path d="M67.83555564903581,47.03576742983372L55.98080705751802,21.856371293428484L46.351622006876156,28.004996591547226z" style="fill:rgb(180,60,221)"/><path d="M58.4570323657329,53.05922866744131L46.351622006876156,28.004996591547226L35.92405908471244,32.899750108421365z" style="fill:rgb(160,49,222)"/><path d="M35.92405908471244,32.899750108421365L71.42712152181288,6.799775598213232L76.68360725307282,-1.5204718736642715zM35.92405908471244,32.899750108421365L3.9283053018447602,38.510457655151306L14.299129049573553,38.24257139150456zM35.92405908471244,32.899750108421365L64.4440525653695,14.69426076831785L71.42712152181288,6.799775598213232zM35.92405908471244,32.899750108421365L14.299129049573553,38.24257139150456L25.100943637007656,36.353643260895154zM35.92405908471244,32.899750108421365L55.98080705751802,21.856371293428484L64.4440525653695,14.69426076831785zM35.92405908471244,32.899750108421365L46.351622006876156,28.004996591547226L55.98080705751802,21.856371293428484z" style="fill:rgb(83,212,212)"/></svg>
