<?xml version="1.0" encoding="UTF-8"?>
<!-- Generated by jsxcad -->
<!DOCTYPE svg PUBLIC "-//W3C//DTD SVG 1.1 Tiny//EN" "http://www.w3.org/Graphics/SVG/1.1/DTD/svg11-tiny.dtd">
<svg viewBox="-250 -250 500 500" width="500" height="500" xmlns="http://www.w3.org/2000/svg"><path d="M41.917974978780855,5.991326647800866L8.926478542171418,-11.288019195943589L20.317286126313395,11.462503405978499z" style="fill:rgb(127,37,217)"/><path d="M66.91911892380088,-26.343399489271437L36.71736050241672,-42.70826210781962L2.310377558002097,-33.57195412704586zM66.91911892380088,-26.343399489271437L2.310377558002097,-33.57195412704586L-24.0354745414419,-10.45593228171769z" style="fill:rgb(83,212,212)"/><path d="M20.317286126313395,11.462503405978499L2.203411806133443,6.168963822515101L13.89217507190137,28.838362007543278z" style="fill:rgb(241,128,184)"/><path d="M41.917974978780855,5.991326647800866L30.94499494715804,-17.00421226671042L8.926478542171418,-11.288019195943589z" style="fill:rgb(127,37,217)"/><path d="M49.369990248672146,19.98989067385644L30.94499494715804,-17.00421226671042L41.917974978780855,5.991326647800866z" style="fill:rgb(13,70,126)"/><path d="M66.91911892380088,-26.343399489271437L-24.0354745414419,-10.45593228171769L-26.044751256322257,-2.2091928255001485z" style="fill:rgb(83,212,212)"/><path d="M20.317286126313395,11.462503405978499L8.926478542171418,-11.288019195943589L2.203411806133443,6.168963822515101z" style="fill:rgb(241,128,184)"/><path d="M-10.967463523992755,17.61688684730511L19.22116027953496,-29.510732314818718L-10.6927829149019,-8.899142919031542zM66.91911892380088,-26.343399489271437L64.51007942899196,-33.61315721999769L36.71736050241672,-42.70826210781962zM2.203411806133443,6.168963822515101L8.926478542171418,-11.288019195943589L-26.044751256322257,-2.2091928255001485z" style="fill:rgb(83,212,212)"/><path d="M-1.1792552321669876,58.824099712413336L-30.719762252157416,16.978415300004556L-18.381184339351933,39.282718980488454z" style="fill:rgb(23,55,145)"/><path d="M31.84826010308435,34.372951457527776L2.203411806133443,6.168963822515101L13.89217507190137,28.838362007543278z" style="fill:rgb(57,36,182)"/><path d="M2.203411806133443,6.168963822515101L-26.044751256322257,-2.2091928255001485L-30.098710193412852,14.429514048990818zM-10.967463523992755,17.61688684730511L50.074157696202,-24.715475385743677L19.22116027953496,-29.510732314818718z" style="fill:rgb(83,212,212)"/><path d="M74.76031837997589,-10.24216764896716L64.51007942899196,-33.61315721999769L72.5445661097129,-9.367682135434618z" style="fill:rgb(245,173,142)"/><path d="M49.369990248672146,19.98989067385644L38.37806256786704,-3.081899595068282L30.94499494715804,-17.00421226671042z" style="fill:rgb(13,70,126)"/><path d="M74.76031837997589,-10.24216764896716L72.5445661097129,-9.367682135434618L82.88878605096491,14.085337054976032z" style="fill:rgb(245,173,142)"/><path d="M49.369990248672146,19.98989067385644L20.403096480181958,11.511137043865315L31.84826010308435,34.372951457527776z" style="fill:rgb(197,72,218)"/><path d="M20.403096480181958,11.511137043865315L-30.098710193412852,14.429514048990818L-30.719762252157416,16.978415300004556z" style="fill:rgb(83,212,212)"/><path d="M31.84826010308435,34.372951457527776L20.403096480181958,11.511137043865315L2.203411806133443,6.168963822515101z" style="fill:rgb(57,36,182)"/><path d="M20.403096480181958,11.511137043865315L2.203411806133443,6.168963822515101L-30.098710193412852,14.429514048990818z" style="fill:rgb(83,212,212)"/><path d="M49.369990248672146,19.98989067385644L38.37806256786704,-3.081899595068282L20.403096480181958,11.511137043865315z" style="fill:rgb(197,72,218)"/><path d="M71.7956132451673,-11.627696241296547L66.91911892380088,-26.343399489271437L30.94499494715804,-17.00421226671042zM20.403096480181958,11.511137043865315L-30.719762252157416,16.978415300004556L-25.28425614622573,23.082362590213584z" style="fill:rgb(83,212,212)"/><path d="M50.074157696202,-24.715475385743677L51.77597190688243,2.6463221617116215L50.460762566555104,-23.867266463561357z" style="fill:rgb(247,158,158)"/><path d="M-1.1792552321669876,58.824099712413336L-13.45925849848124,36.36157683746327L-30.719762252157416,16.978415300004556z" style="fill:rgb(23,55,145)"/><path d="M71.7956132451673,-11.627696241296547L30.94499494715804,-17.00421226671042L38.37806256786704,-3.081899595068282zM-10.967463523992755,17.61688684730511L51.38035674110957,1.7976466371939401L50.074157696202,-24.715475385743677z" style="fill:rgb(83,212,212)"/><path d="M32.6188692127208,60.395786075529976L-13.45925849848124,36.36157683746327L-1.1792552321669876,58.824099712413336z" style="fill:rgb(86,32,201)"/><path d="M20.65258905967357,24.382852823750554L-10.967463523992755,17.61688684730511L-10.527747856120511,18.439944402374746z" style="fill:rgb(67,34,190)"/><path d="M50.074157696202,-24.715475385743677L51.38035674110957,1.7976466371939401L51.77597190688243,2.6463221617116215z" style="fill:rgb(247,158,158)"/><path d="M67.14053998579038,-0.32604739565680746L38.37806256786704,-3.081899595068282L20.403096480181958,11.511137043865315z" style="fill:rgb(83,212,212)"/><path d="M82.88878605096491,14.085337054976032L55.48283693503208,19.178819600585964L66.40160697063409,42.40700010447425z" style="fill:rgb(231,109,199)"/><path d="M67.14053998579038,-0.32604739565680746L71.7956132451673,-11.627696241296547L38.37806256786704,-3.081899595068282z" style="fill:rgb(83,212,212)"/><path d="M82.88878605096491,14.085337054976032L72.5445661097129,-9.367682135434618L55.48283693503208,19.178819600585964z" style="fill:rgb(231,109,199)"/><path d="M-10.967463523992755,17.61688684730511L20.22930042768402,23.54749179506692L51.38035674110957,1.7976466371939401z" style="fill:rgb(83,212,212)"/><path d="M20.65258905967357,24.382852823750554L20.22930042768402,23.54749179506692L-10.967463523992755,17.61688684730511z" style="fill:rgb(67,34,190)"/><path d="M55.48283693503208,19.178819600585964L-25.28425614622573,23.082362590213584L-13.45925849848124,36.36157683746327zM67.14053998579038,-0.32604739565680746L72.5445661097129,-9.367682135434618L71.7956132451673,-11.627696241296547zM55.48283693503208,19.178819600585964L67.14053998579038,-0.32604739565680746L-25.28425614622573,23.082362590213584z" style="fill:rgb(83,212,212)"/><path d="M51.38035674110957,1.7976466371939401L20.65258905967357,24.382852823750554L51.77597190688243,2.6463221617116215z" style="fill:rgb(187,64,221)"/><path d="M66.40160697063409,42.40700010447425L20.908258951418002,37.57325968005675L32.6188692127208,60.395786075529976z" style="fill:rgb(168,53,222)"/><path d="M51.38035674110957,1.7976466371939401L20.22930042768402,23.54749179506692L20.65258905967357,24.382852823750554z" style="fill:rgb(187,64,221)"/><path d="M32.6188692127208,60.395786075529976L20.908258951418002,37.57325968005675L-13.45925849848124,36.36157683746327z" style="fill:rgb(86,32,201)"/><path d="M66.40160697063409,42.40700010447425L55.48283693503208,19.178819600585964L20.908258951418002,37.57325968005675z" style="fill:rgb(168,53,222)"/><path d="M55.48283693503208,19.178819600585964L-13.45925849848124,36.36157683746327L20.908258951418002,37.57325968005675z" style="fill:rgb(83,212,212)"/></svg>
