<?xml version="1.0" encoding="UTF-8"?>
<!-- Generated by jsxcad -->
<!DOCTYPE svg PUBLIC "-//W3C//DTD SVG 1.1 Tiny//EN" "http://www.w3.org/Graphics/SVG/1.1/DTD/svg11-tiny.dtd">
<svg viewBox="-250 -250 500 500" width="500" height="500" xmlns="http://www.w3.org/2000/svg"><path d="M43.27327437067992,4.39776657358187L9.220045692968723,-13.47736112704121L20.970591351912365,10.053566054395105z" style="fill:rgb(127,37,217)"/><path d="M69.15258094014949,-29.06758107179161L37.904337558680155,-45.87596319366262L2.3843946032932237,-36.419314428187576zM69.15258094014949,-29.06758107179161L2.3843946032932237,-36.419314428187576L-24.81329470232385,-12.583096660529213z" style="fill:rgb(83,212,212)"/><path d="M20.970591351912365,10.053566054395105L2.2768706809454162,4.531197192001492L14.344977028604445,27.976548792522262z" style="fill:rgb(241,128,184)"/><path d="M43.27327437067992,4.39776657358187L31.96845661078588,-19.394893637563662L9.220045692968723,-13.47736112704121z" style="fill:rgb(127,37,217)"/><path d="M50.99374196097791,18.829275179976797L31.96845661078588,-19.394893637563662L43.27327437067992,4.39776657358187z" style="fill:rgb(13,70,126)"/><path d="M69.15258094014949,-29.06758107179161L-24.81329470232385,-12.583096660529213L-26.893756783867506,-4.083096592400856z" style="fill:rgb(83,212,212)"/><path d="M20.970591351912365,10.053566054395105L9.220045692968723,-13.47736112704121L2.2768706809454162,4.531197192001492z" style="fill:rgb(241,128,184)"/><path d="M69.15258094014949,-29.06758107179161L66.64509734472927,-36.555114957660436L37.904337558680155,-45.87596319366262zM2.2768706809454162,4.531197192001492L9.220045692968723,-13.47736112704121L-26.893756783867506,-4.083096592400856z" style="fill:rgb(83,212,212)"/><path d="M-1.218537917959725,58.94216212093039L-31.738089452378333,15.708864151582233L-18.9768148444145,38.76442899937053z" style="fill:rgb(23,55,145)"/><path d="M32.90106872718345,33.681885545346915L2.2768706809454162,4.531197192001492L14.344977028604445,27.976548792522262z" style="fill:rgb(57,36,182)"/><path d="M2.2768706809454162,4.531197192001492L-26.893756783867506,-4.083096592400856L-31.09424611092319,13.078463431960802zM24.455791253168762,21.44682565573763L8.357804005520931,-27.843975759379212L5.257669254936008,-26.13024860417463zM24.455791253168762,21.44682565573763L11.560672271211232,-29.367752267396188L8.357804005520931,-27.843975759379212zM24.455791253168762,21.44682565573763L5.257669254936008,-26.13024860417463L2.285343635800036,-24.240342258843143zM24.455791253168762,21.44682565573763L14.840441112700123,-30.689196880284676L11.560672271211232,-29.367752267396188zM24.455791253168762,21.44682565573763L2.285343635800036,-24.240342258843143L-0.5350036806477774,-22.189351667115883zM24.455791253168762,21.44682565573763L18.170674195094843,-31.79740889290604L14.840441112700123,-30.689196880284676zM24.455791253168762,21.44682565573763L-0.5350036806477774,-22.189351667115883L-3.1802575613051527,-19.99361274553932zM24.455791253168762,21.44682565573763L21.524479206042603,-32.68302804669175L18.170674195094843,-31.79740889290604zM24.455791253168762,21.44682565573763L-3.1802575613051527,-19.99361274553932L-5.628504653622404,-17.670598994802212zM24.455791253168762,21.44682565573763L24.87467561680741,-33.3383105358304L21.524479206042603,-32.68302804669175z" style="fill:rgb(83,212,212)"/><path d="M77.17905641119887,-12.361970948869638L66.64509734472927,-36.555114957660436L75.01319826290964,-11.56753559735978z" style="fill:rgb(245,173,142)"/><path d="M24.455791253168762,21.44682565573763L-5.628504653622404,-17.670598994802212L-7.85918098287545,-15.238842735782459zM24.455791253168762,21.44682565573763L28.193950584222858,-33.75719548826057L24.87467561680741,-33.3383105358304zM24.455791253168762,21.44682565573763L-7.85918098287545,-15.238842735782459L-9.853218012590283,-12.717826961490337zM24.455791253168762,21.44682565573763L31.455032563924657,-33.935359551081106L28.193950584222858,-33.75719548826057z" style="fill:rgb(83,212,212)"/><path d="M50.99374196097791,18.829275179976797L39.66975761416513,-5.046155744526938L31.96845661078588,-19.394893637563662z" style="fill:rgb(13,70,126)"/><path d="M77.17905641119887,-12.361970948869638L75.01319826290964,-11.56753559735978L85.64439102829766,12.715900678683425z" style="fill:rgb(245,173,142)"/><path d="M24.455791253168762,21.44682565573763L-9.853218012590283,-12.717826961490337L-11.593193264586683,-10.127878982947278zM24.455791253168762,21.44682565573763L34.630859171174215,-33.870278733756L31.455032563924657,-33.935359551081106z" style="fill:rgb(83,212,212)"/><path d="M50.99374196097791,18.829275179976797L21.09337937007374,10.030358785231197L32.90106872718345,33.681885545346915z" style="fill:rgb(197,72,218)"/><path d="M24.455791253168762,21.44682565573763L-11.593193264586683,-10.127878982947278L-13.063471081089423,-7.490050500405314zM24.455791253168762,21.44682565573763L37.694769730973064,-33.561282262840315L34.630859171174215,-33.870278733756zM24.455791253168762,21.44682565573763L-13.063471081089423,-7.490050500405314L-14.250355229828049,-4.825992736415733zM24.455791253168762,21.44682565573763L40.62069126974347,-33.009592597335605L37.694769730973064,-33.561282262840315zM21.09337937007374,10.030358785231197L-31.09424611092319,13.078463431960802L-31.738089452378333,15.708864151582233zM24.455791253168762,21.44682565573763L-14.250355229828049,-4.825992736415733L-15.142223856120397,-2.157818607633448zM24.455791253168762,21.44682565573763L43.38332950652376,-32.21836206379234L40.62069126974347,-33.009592597335605zM24.455791253168762,21.44682565573763L-15.142223856120397,-2.157818607633448L-15.72967409385789,0.4920457554671772zM24.455791253168762,21.44682565573763L45.95837621426323,-31.19270918703405L43.38332950652376,-32.21836206379234z" style="fill:rgb(83,212,212)"/><path d="M32.90106872718345,33.681885545346915L21.09337937007374,10.030358785231197L2.2768706809454162,4.531197192001492z" style="fill:rgb(57,36,182)"/><path d="M-12.190320673593684,15.60505045803856L-13.942390331572517,12.680882476779365L-13.487631379975426,13.531572730604529z" style="fill:rgb(17,64,134)"/><path d="M21.09337937007374,10.030358785231197L2.2768706809454162,4.531197192001492L-31.09424611092319,13.078463431960802z" style="fill:rgb(83,212,212)"/><path d="M-12.190320673593684,15.60505045803856L-12.645192825745632,14.753854219737674L-13.942390331572517,12.680882476779365z" style="fill:rgb(17,64,134)"/><path d="M24.455791253168762,21.44682565573763L-15.72967409385789,0.4920457554671772L-16.005648231261357,3.1010201099868278zM24.455791253168762,21.44682565573763L48.32272927769421,-29.939720768224912L45.95837621426323,-31.19270918703405z" style="fill:rgb(83,212,212)"/><path d="M50.99374196097791,18.829275179976797L39.66975761416513,-5.046155744526938L21.09337937007374,10.030358785231197z" style="fill:rgb(197,72,218)"/><path d="M74.23250805332289,-13.898631783304646L69.15258094014949,-29.06758107179161L31.96845661078588,-19.394893637563662zM21.09337937007374,10.030358785231197L-31.738089452378333,15.708864151582233L-26.12980394346234,22.005727868371704z" style="fill:rgb(83,212,212)"/><path d="M-10.594658411541637,17.509317337935865L-12.645192825745632,14.753854219737674L-12.190320673593684,15.60505045803856z" style="fill:rgb(21,57,142)"/><path d="M-1.218537917959725,58.94216212093039L-13.917944874753124,35.7169551941831L-31.738089452378333,15.708864151582233z" style="fill:rgb(23,55,145)"/><path d="M56.286208732964745,-20.650183188269587L57.39347211205278,-17.409981296372443L56.683962319866154,-19.76957415414516z" style="fill:rgb(245,172,143)"/><path d="M24.455791253168762,21.44682565573763L-16.005648231261357,3.1010201099868278L-15.965564022358599,5.646540446381235zM24.455791253168762,21.44682565573763L50.454689291078886,-28.468470796009676L48.32272927769421,-29.939720768224912z" style="fill:rgb(83,212,212)"/><path d="M-10.594658411541637,17.509317337935865L-11.049384434903208,16.657493525027462L-12.645192825745632,14.753854219737674z" style="fill:rgb(21,57,142)"/><path d="M56.286208732964745,-20.650183188269587L56.99527624249198,-18.29091210648095L57.39347211205278,-17.409981296372443z" style="fill:rgb(245,172,143)"/><path d="M74.23250805332289,-13.898631783304646L31.96845661078588,-19.394893637563662L39.66975761416513,-5.046155744526938zM24.455791253168762,21.44682565573763L-15.965564022358599,5.646540446381235L-15.607414934006636,8.106242435505939zM24.455791253168762,21.44682565573763L52.33419073725041,-26.78998722195797L50.454689291078886,-28.468470796009676z" style="fill:rgb(83,212,212)"/><path d="M-8.712591241380094,19.22602883965024L-11.049384434903208,16.657493525027462L-10.594658411541637,17.509317337935865z" style="fill:rgb(27,51,151)"/><path d="M57.39347211205278,-17.409981296372443L56.99527624249198,-18.29091210648095L57.38340897190538,-15.807251886985531zM57.39347211205278,-17.409981296372443L57.38340897190538,-15.807251886985531L57.78229611186032,-14.92614467516996z" style="fill:rgb(247,164,151)"/><path d="M24.455791253168762,21.44682565573763L-15.607414934006636,8.106242435505939L-14.931879061959066,10.458150723975992zM24.455791253168762,21.44682565573763L53.94300649323093,-24.917242377314864L52.33419073725041,-26.78998722195797z" style="fill:rgb(83,212,212)"/><path d="M-8.712591241380094,19.22602883965024L-9.166908115410141,18.373462914035194L-11.049384434903208,16.657493525027462z" style="fill:rgb(27,51,151)"/><path d="M-6.558885644966951,20.73828129811169L-9.166908115410141,18.373462914035194L-8.712591241380094,19.22602883965024z" style="fill:rgb(34,46,160)"/><path d="M24.455791253168762,21.44682565573763L-14.931879061959066,10.458150723975992L-13.942390331572517,12.680882476779365zM24.455791253168762,21.44682565573763L55.26497501085246,-22.865085150410955L53.94300649323093,-24.917242377314864z" style="fill:rgb(83,212,212)"/><path d="M57.78229611186032,-14.92614467516996L57.38340897190538,-15.807251886985531L57.44464899342176,-13.220631172130616zM57.78229611186032,-14.92614467516996L57.44464899342176,-13.220631172130616L57.844479186373164,-12.339499702700953z" style="fill:rgb(247,156,160)"/><path d="M-6.558885644966951,20.73828129811169L-7.012530539845643,19.88486176340408L-9.166908115410141,18.373462914035194z" style="fill:rgb(34,46,160)"/><path d="M24.455791253168762,21.44682565573763L-13.942390331572517,12.680882476779365L-12.645192825745632,14.753854219737674zM24.455791253168762,21.44682565573763L56.286208732964745,-20.650183188269587L55.26497501085246,-22.865085150410955z" style="fill:rgb(83,212,212)"/><path d="M33.724126869261035,60.569210480315945L-13.917944874753124,35.7169551941831L-1.218537917959725,58.94216212093039z" style="fill:rgb(86,32,201)"/><path d="M-4.151065865002129,22.030832153366454L-7.012530539845643,19.88486176340408L-6.558885644966951,20.73828129811169z" style="fill:rgb(41,42,168)"/><path d="M57.844479186373164,-12.339499702700953L57.44464899342176,-13.220631172130616L57.176014260848,-10.553765056055408zM57.844479186373164,-12.339499702700953L57.176014260848,-10.553765056055408L57.57702467999282,-9.672761583329068z" style="fill:rgb(246,147,168)"/><path d="M-4.151065865002129,22.030832153366454L-4.6037792300131635,21.17645279256829L-7.012530539845643,19.88486176340408z" style="fill:rgb(41,42,168)"/><path d="M24.455791253168762,21.44682565573763L-12.645192825745632,14.753854219737674L-11.049384434903208,16.657493525027462zM24.455791253168762,21.44682565573763L56.99527624249198,-18.29091210648095L56.286208732964745,-20.650183188269587z" style="fill:rgb(83,212,212)"/><path d="M-1.509315516052614,23.090290854630933L-4.6037792300131635,21.17645279256829L-4.151065865002129,22.030832153366454z" style="fill:rgb(50,38,176)"/><path d="M57.57702467999282,-9.672761583329068L57.176014260848,-10.553765056055408L56.57759521866827,-7.830454741581925z" style="fill:rgb(244,138,176)"/><path d="M24.455791253168762,21.44682565573763L-11.049384434903208,16.657493525027462L-9.166908115410141,18.373462914035194zM24.455791253168762,21.44682565573763L57.38340897190538,-15.807251886985531L56.99527624249198,-18.29091210648095z" style="fill:rgb(83,212,212)"/><path d="M57.57702467999282,-9.672761583329068L56.57759521866827,-7.830454741581925L56.98002087047312,-6.949731136271682z" style="fill:rgb(244,138,176)"/><path d="M-1.509315516052614,23.090290854630933L-1.9608428494115402,22.234851753966247L-4.6037792300131635,21.17645279256829z" style="fill:rgb(50,38,176)"/><path d="M69.43911760410785,-2.2296782843085783L39.66975761416513,-5.046155744526938L21.09337937007374,10.030358785231197zM24.455791253168762,21.44682565573763L-9.166908115410141,18.373462914035194L-7.012530539845643,19.88486176340408zM24.455791253168762,21.44682565573763L57.44464899342176,-13.220631172130616L57.38340897190538,-15.807251886985531z" style="fill:rgb(83,212,212)"/><path d="M1.3436605631122547,23.90532100830204L-1.9608428494115402,22.234851753966247L-1.509315516052614,23.090290854630933z" style="fill:rgb(58,35,183)"/><path d="M56.98002087047312,-6.949731136271682L56.57759521866827,-7.830454741581925L55.65264535868226,-5.075374895408983z" style="fill:rgb(241,129,183)"/><path d="M85.64439102829766,12.715900678683425L57.406983041462986,17.92689148830781L68.65032853781936,41.971120096076845z" style="fill:rgb(231,109,199)"/><path d="M56.98002087047312,-6.949731136271682L55.65264535868226,-5.075374895408983L56.056706489092,-4.195080865401693z" style="fill:rgb(241,129,183)"/><path d="M69.43911760410785,-2.2296782843085783L74.23250805332289,-13.898631783304646L39.66975761416513,-5.046155744526938z" style="fill:rgb(83,212,212)"/><path d="M1.3436605631122547,23.90532100830204L0.8935644731703338,23.048729614994876L-1.9608428494115402,22.234851753966247z" style="fill:rgb(58,35,183)"/><path d="M24.455791253168762,21.44682565573763L-7.012530539845643,19.88486176340408L-4.6037792300131635,21.17645279256829zM24.455791253168762,21.44682565573763L57.176014260848,-10.553765056055408L57.44464899342176,-13.220631172130616z" style="fill:rgb(83,212,212)"/><path d="M4.382810822028465,24.466800137532065L0.8935644731703338,23.048729614994876L1.3436605631122547,23.90532100830204z" style="fill:rgb(68,33,190)"/><path d="M85.64439102829766,12.715900678683425L75.01319826290964,-11.56753559735978L57.406983041462986,17.92689148830781z" style="fill:rgb(231,109,199)"/><path d="M56.056706489092,-4.195080865401693L55.65264535868226,-5.075374895408983L54.40762475449363,-2.313831289057021zM56.056706489092,-4.195080865401693L54.40762475449363,-2.313831289057021L54.81353932093529,-1.4341126049540214z" style="fill:rgb(237,120,190)"/><path d="M4.382810822028465,24.466800137532065L3.93437961452163,23.608972319288238L0.8935644731703338,23.048729614994876z" style="fill:rgb(68,33,190)"/><path d="M24.455791253168762,21.44682565573763L-4.6037792300131635,21.17645279256829L-1.9608428494115402,22.234851753966247zM24.455791253168762,21.44682565573763L56.57759521866827,-7.830454741581925L57.176014260848,-10.553765056055408z" style="fill:rgb(83,212,212)"/><path d="M7.58095183173967,24.767985033751046L3.93437961452163,23.608972319288238L4.382810822028465,24.466800137532065z" style="fill:rgb(78,32,197)"/><path d="M54.81353932093529,-1.4341126049540214L54.40762475449363,-2.313831289057021L52.852218522197575,0.42849783580800405z" style="fill:rgb(233,112,197)"/><path d="M57.406983041462986,17.92689148830781L-26.12980394346234,22.005727868371704L-13.917944874753124,35.7169551941831zM24.455791253168762,21.44682565573763L-1.9608428494115402,22.234851753966247L0.8935644731703338,23.048729614994876zM69.43911760410785,-2.2296782843085783L75.01319826290964,-11.56753559735978L74.23250805332289,-13.898631783304646zM24.455791253168762,21.44682565573763L55.65264535868226,-5.075374895408983L56.57759521866827,-7.830454741581925z" style="fill:rgb(83,212,212)"/><path d="M54.81353932093529,-1.4341126049540214L52.852218522197575,0.42849783580800405L53.26018958439078,1.3075010646482912z" style="fill:rgb(233,112,197)"/><path d="M7.58095183173967,24.767985033751046L7.1344039298771715,23.908846138675184L3.93437961452163,23.608972319288238z" style="fill:rgb(78,32,197)"/><path d="M10.909017748819453,24.804637359693267L7.1344039298771715,23.908846138675184L7.58095183173967,24.767985033751046z" style="fill:rgb(88,32,202)"/><path d="M24.455791253168762,21.44682565573763L0.8935644731703338,23.048729614994876L3.93437961452163,23.608972319288238zM24.455791253168762,21.44682565573763L54.40762475449363,-2.313831289057021L55.65264535868226,-5.075374895408983zM57.406983041462986,17.92689148830781L69.43911760410785,-2.2296782843085783L-26.12980394346234,22.005727868371704z" style="fill:rgb(83,212,212)"/><path d="M53.26018958439078,1.3075010646482912L52.852218522197575,0.42849783580800405L50.99930029047828,3.125836007560138zM53.26018958439078,1.3075010646482912L50.99930029047828,3.125836007560138L51.40950336578696,4.003990760221224z" style="fill:rgb(227,103,203)"/><path d="M10.909017748819453,24.804637359693267L10.464556298680833,23.94412324891016L7.1344039298771715,23.908846138675184z" style="fill:rgb(88,32,202)"/><path d="M68.65032853781936,41.971120096076845L21.63375489225581,36.95890839455203L33.724126869261035,60.569210480315945z" style="fill:rgb(168,53,222)"/><path d="M24.455791253168762,21.44682565573763L3.93437961452163,23.608972319288238L7.1344039298771715,23.908846138675184zM24.455791253168762,21.44682565573763L52.852218522197575,0.42849783580800405L54.40762475449363,-2.313831289057021z" style="fill:rgb(83,212,212)"/><path d="M14.336351118161067,24.575117049613834L10.464556298680833,23.94412324891016L10.909017748819453,24.804637359693267z" style="fill:rgb(99,32,208)"/><path d="M51.40950336578696,4.003990760221224L50.99930029047828,3.125836007560138L48.86484063588393,5.752594403387426zM51.40950336578696,4.003990760221224L48.86484063588393,5.752594403387426L49.27743643988284,6.629777480526968z" style="fill:rgb(220,94,208)"/><path d="M14.336351118161067,24.575117049613834L13.8941575507602,23.713175084895376L10.464556298680833,23.94412324891016z" style="fill:rgb(99,32,208)"/><path d="M24.455791253168762,21.44682565573763L7.1344039298771715,23.908846138675184L10.464556298680833,23.94412324891016zM24.455791253168762,21.44682565573763L50.99930029047828,3.125836007560138L52.852218522197575,0.42849783580800405z" style="fill:rgb(83,212,212)"/><path d="M17.8310169059462,24.080445598947254L13.8941575507602,23.713175084895376L14.336351118161067,24.575117049613834z" style="fill:rgb(110,33,212)"/><path d="M49.27743643988284,6.629777480526968L48.86484063588393,5.752594403387426L46.46778874718139,8.283665833585333z" style="fill:rgb(213,86,212)"/><path d="M33.724126869261035,60.569210480315945L21.63375489225581,36.95890839455203L-13.917944874753124,35.7169551941831z" style="fill:rgb(86,32,201)"/><path d="M49.27743643988284,6.629777480526968L46.46778874718139,8.283665833585333L46.88291592436708,9.159763470019461z" style="fill:rgb(213,86,212)"/><path d="M24.455791253168762,21.44682565573763L10.464556298680833,23.94412324891016L13.8941575507602,23.713175084895376z" style="fill:rgb(83,212,212)"/><path d="M17.8310169059462,24.080445598947254L17.39125111403508,23.217035560987373L13.8941575507602,23.713175084895376z" style="fill:rgb(110,33,212)"/><path d="M24.455791253168762,21.44682565573763L48.86484063588393,5.752594403387426L50.99930029047828,3.125836007560138z" style="fill:rgb(83,212,212)"/><path d="M21.360150058077416,23.324349849977377L17.39125111403508,23.217035560987373L17.8310169059462,24.080445598947254z" style="fill:rgb(121,36,216)"/><path d="M46.88291592436708,9.159763470019461L46.46778874718139,8.283665833585333L43.82991112980307,10.694720111702999zM46.88291592436708,9.159763470019461L43.82991112980307,10.694720111702999L44.247684244643615,11.569629866423831z" style="fill:rgb(204,78,216)"/><path d="M24.455791253168762,21.44682565573763L13.8941575507602,23.713175084895376L17.39125111403508,23.217035560987373zM24.455791253168762,21.44682565573763L46.46778874718139,8.283665833585333L48.86484063588393,5.752594403387426z" style="fill:rgb(83,212,212)"/><path d="M21.360150058077416,23.324349849977377L20.922947680082085,22.45944474896652L17.39125111403508,23.217035560987373z" style="fill:rgb(121,36,216)"/><path d="M24.890320585528617,22.31323887949844L20.922947680082085,22.45944474896652L21.360150058077416,23.324349849977377z" style="fill:rgb(133,38,219)"/><path d="M24.455791253168762,21.44682565573763L17.39125111403508,23.217035560987373L20.922947680082085,22.45944474896652zM24.455791253168762,21.44682565573763L43.82991112980307,10.694720111702999L46.46778874718139,8.283665833585333z" style="fill:rgb(83,212,212)"/><path d="M44.247684244643615,11.569629866423831L40.975566968229124,12.962493988073918L41.396072243659766,13.836128071363179zM44.247684244643615,11.569629866423831L43.82991112980307,10.694720111702999L40.975566968229124,12.962493988073918z" style="fill:rgb(196,71,219)"/><path d="M24.890320585528617,22.31323887949844L24.455791253168762,21.44682565573763L20.922947680082085,22.45944474896652z" style="fill:rgb(133,38,219)"/><path d="M28.387923515475862,21.056165745079994L24.455791253168762,21.44682565573763L24.890320585528617,22.31323887949844z" style="fill:rgb(144,42,221)"/><path d="M40.975566968229124,12.962493988073918L38.354749521893474,15.937355685776085L41.396072243659766,13.836128071363179z" style="fill:rgb(186,64,221)"/><path d="M24.455791253168762,21.44682565573763L40.975566968229124,12.962493988073918L43.82991112980307,10.694720111702999z" style="fill:rgb(83,212,212)"/><path d="M31.819556786250107,19.56474736979282L27.956149458023376,20.188245809968294L28.387923515475862,21.056165745079994z" style="fill:rgb(155,46,222)"/><path d="M28.387923515475862,21.056165745079994L27.956149458023376,20.188245809968294L24.455791253168762,21.44682565573763z" style="fill:rgb(144,42,221)"/><path d="M40.975566968229124,12.962493988073918L37.93144799499562,15.065073329225871L38.354749521893474,15.937355685776085z" style="fill:rgb(186,64,221)"/><path d="M38.354749521893474,15.937355685776085L34.726302720323304,16.982165267594787L35.15243378631179,17.85303479764335z" style="fill:rgb(176,57,222)"/><path d="M24.455791253168762,21.44682565573763L37.93144799499562,15.065073329225871L40.975566968229124,12.962493988073918z" style="fill:rgb(83,212,212)"/><path d="M35.15243378631179,17.85303479764335L31.390591817977036,18.695336987847437L31.819556786250107,19.56474736979282z" style="fill:rgb(166,52,222)"/><path d="M38.354749521893474,15.937355685776085L37.93144799499562,15.065073329225871L34.726302720323304,16.982165267594787z" style="fill:rgb(176,57,222)"/><path d="M31.819556786250107,19.56474736979282L31.390591817977036,18.695336987847437L27.956149458023376,20.188245809968294z" style="fill:rgb(155,46,222)"/><path d="M24.455791253168762,21.44682565573763L27.956149458023376,20.188245809968294L31.390591817977036,18.695336987847437zM24.455791253168762,21.44682565573763L34.726302720323304,16.982165267594787L37.93144799499562,15.065073329225871z" style="fill:rgb(83,212,212)"/><path d="M35.15243378631179,17.85303479764335L34.726302720323304,16.982165267594787L31.390591817977036,18.695336987847437z" style="fill:rgb(166,52,222)"/><path d="M24.455791253168762,21.44682565573763L31.390591817977036,18.695336987847437L34.726302720323304,16.982165267594787z" style="fill:rgb(83,212,212)"/><path d="M68.65032853781936,41.971120096076845L57.406983041462986,17.92689148830781L21.63375489225581,36.95890839455203z" style="fill:rgb(168,53,222)"/><path d="M57.406983041462986,17.92689148830781L-13.917944874753124,35.7169551941831L21.63375489225581,36.95890839455203z" style="fill:rgb(83,212,212)"/></svg>
