<?xml version="1.0" encoding="UTF-8"?>
<!-- Generated by jsxcad -->
<!DOCTYPE svg PUBLIC "-//W3C//DTD SVG 1.1 Tiny//EN" "http://www.w3.org/Graphics/SVG/1.1/DTD/svg11-tiny.dtd">
<svg viewBox="-250 -250 500 500" width="500" height="500" xmlns="http://www.w3.org/2000/svg"><path d="M27.69007046599175,3.289264180429907L14.218409200173223,-21.13822176875053L26.51801761406895,3.908707047096893z" style="fill:rgb(168,53,222)"/><path d="M28.888015090310915,2.7198162927419673L15.41894765845293,-21.772225159675457L27.69007046599175,3.289264180429907z" style="fill:rgb(160,49,222)"/><path d="M26.51801761406895,3.908707047096893L13.048139227675305,-20.456947831272984L25.37625576919461,4.5758020664971175z" style="fill:rgb(175,57,222)"/><path d="M30.10730329190552,2.20246307715389L16.64525202128165,-22.356559119574563L28.888015090310915,2.7198162927419673z" style="fill:rgb(153,46,222)"/><path d="M25.37625576919461,4.5758020664971175L11.912600890012678,-19.73099227583768L24.269145555850617,5.288010607533705z" style="fill:rgb(181,61,221)"/><path d="M31.343431802409615,1.739199254484009L17.892668730693533,-22.889077330235857L30.10730329190552,2.20246307715389z" style="fill:rgb(146,43,221)"/><path d="M24.269145555850617,5.288010607533705L10.815962887874754,-18.96300024545995L23.200755889996636,6.042734222252553z" style="fill:rgb(188,65,220)"/><path d="M32.59164880644671,1.3318049915279657L19.156602847173136,-23.36772312185739L31.343431802409615,1.739199254484009z" style="fill:rgb(138,40,220)"/><path d="M23.200755889996636,6.042734222252553L9.76251695311544,-18.15593151023339L22.175271780429558,6.837059663863036z" style="fill:rgb(194,70,219)"/><path d="M33.84728493033008,0.981870497758777L20.432194767699297,-23.790665155323953L32.59164880644671,1.3318049915279657z" style="fill:rgb(131,38,218)"/><path d="M22.175271780429558,6.837059663863036L8.756163990319966,-17.312709560608795L21.19649613713903,7.668109538355135z" style="fill:rgb(200,75,217)"/><path d="M35.105613908541514,0.6907223849619515L21.714683968770988,-24.156249222905767L33.84728493033008,0.981870497758777z" style="fill:rgb(123,36,216)"/><path d="M21.19649613713903,7.668109538355135L7.8008322051776116,-16.436548844790675L20.268252710026683,8.532711407103434z" style="fill:rgb(206,80,215)"/><path d="M36.36188317874333,0.4595608372565766L22.99923925744539,-24.463097212526446L35.105613908541514,0.6907223849619515z" style="fill:rgb(116,34,214)"/><path d="M20.268252710026683,8.532711407103434L6.900167712865112,-15.530735243797482L19.394086681302376,9.427619866177508z" style="fill:rgb(212,85,213)"/><path d="M37.61137657133089,0.28929699310144197L24.281023532721928,-24.70994558611925L36.36188317874333,0.4595608372565766z" style="fill:rgb(108,33,211)"/><path d="M19.394086681302376,9.427619866177508L6.05759348931198,-14.598599270770418L18.577325197023526,10.34953952829674z" style="fill:rgb(217,91,210)"/><path d="M38.84924097082087,0.18070311871859757L25.55521888400597,-24.895822790570403L37.61137657133089,0.28929699310144197z" style="fill:rgb(101,32,208)"/><path d="M18.577325197023526,10.34953952829674L5.2764075837765505,-13.643628393830966L17.821166122442186,11.295021776522669z" style="fill:rgb(222,96,207)"/><path d="M40.0708525213078,0.13420964696916488L26.8168898167356,-25.019896728775855L38.84924097082087,0.18070311871859757z" style="fill:rgb(94,32,205)"/><path d="M74.75313349352083,-38.049962852513936L4.315894158646536,-43.211174706214564L1.1011412721236944,-41.514615196040005zM74.75313349352083,-38.049962852513936L7.5979747529258574,-44.778414354598524L4.315894158646536,-43.211174706214564zM74.75313349352083,-38.049962852513936L1.1011412721236944,-41.514615196040005L-2.0351953663001803,-39.69458539359689zM74.75313349352083,-38.049962852513936L10.93605718037145,-46.21089416346235L7.5979747529258574,-44.778414354598524zM74.75313349352083,-38.049962852513936L-2.0351953663001803,-39.69458539359689L-5.082236417229096,-37.75725546983108z" style="fill:rgb(83,212,212)"/><path d="M17.821166122442186,11.295021776522669L4.559735989131921,-12.669486949013132L17.12863913231049,12.260432738180155z" style="fill:rgb(226,102,203)"/><path d="M74.75313349352083,-38.049962852513936L14.31854796058365,-47.50346907050014L10.93605718037145,-46.21089416346235z" style="fill:rgb(83,212,212)"/><path d="M41.27149746394468,0.1501677137605782L28.06131721385429,-25.081674061678008L40.0708525213078,0.13420964696916488z" style="fill:rgb(86,32,201)"/><path d="M74.75313349352083,-38.049962852513936L-5.082236417229096,-37.75725546983108L-8.029283795139564,-35.709297254033125zM74.75313349352083,-38.049962852513936L17.733905864551524,-48.6515303058631L14.31854796058365,-47.50346907050014zM74.75313349352083,-38.049962852513936L-8.029283795139564,-35.709297254033125L-10.866044554421563,-33.557545303973015z" style="fill:rgb(83,212,212)"/><path d="M17.12863913231049,12.260432738180155L3.9103294178999772,-11.679745423316023L16.502402101391926,13.242231272965483z" style="fill:rgb(230,108,199)"/><path d="M42.44658102005656,0.2286090814268889L29.283708707373403,-25.080748563726956L41.27149746394468,0.1501677137605782z" style="fill:rgb(79,32,198)"/><path d="M74.75313349352083,-38.049962852513936L21.170309734417636,-49.65084576463707L17.733905864551524,-48.6515303058631zM74.75313349352083,-38.049962852513936L-10.866044554421563,-33.557545303973015L-13.58230952077237,-31.309323841886957z" style="fill:rgb(83,212,212)"/><path d="M16.502402101391926,13.242231272965483L3.3308672100449623,-10.678267497717348L15.945042684533977,14.236585050245665z" style="fill:rgb(234,114,195)"/><path d="M74.75313349352083,-38.049962852513936L24.615825033445873,-50.49753097464202L21.170309734417636,-49.65084576463707z" style="fill:rgb(83,212,212)"/><path d="M43.591522918803385,0.36934442688232483L30.479388344307733,-25.0170242947132L42.44658102005656,0.2286090814268889z" style="fill:rgb(73,33,193)"/><path d="M74.75313349352083,-38.049962852513936L-13.58230952077237,-31.309323841886957L-16.168426677275697,-28.972146326531718z" style="fill:rgb(83,212,212)"/><path d="M15.945042684533977,14.236585050245665L2.8236533498473917,-9.66874928019952L15.458778171766351,15.239821952063346z" style="fill:rgb(237,119,191)"/><path d="M74.75313349352083,-38.049962852513936L28.05843271063906,-51.18825830435493L24.615825033445873,-50.49753097464202z" style="fill:rgb(83,212,212)"/><path d="M44.70199636662761,0.57197171730128L31.643689099013432,-24.890628616848794L43.591522918803385,0.36934442688232483z" style="fill:rgb(66,34,189)"/><path d="M74.75313349352083,-38.049962852513936L-16.168426677275697,-28.972146326531718L-18.614841746845805,-26.554049244156367z" style="fill:rgb(83,212,212)"/><path d="M15.458778171766351,15.239821952063346L2.3908165811487008,-8.655080980190702L15.04565108952132,16.248072769722395z" style="fill:rgb(240,125,187)"/><path d="M74.75313349352083,-38.049962852513936L31.486035632292396,-51.720075889228376L28.05843271063906,-51.18825830435493z" style="fill:rgb(83,212,212)"/><path d="M45.77353393764708,0.8358260898427615L32.772219184507854,-24.70190772725366L44.70199636662761,0.57197171730128z" style="fill:rgb(60,35,184)"/><path d="M74.75313349352083,-38.049962852513936L-18.614841746845805,-26.554049244156367L-20.912626086572796,-24.063095690383495z" style="fill:rgb(83,212,212)"/><path d="M15.04565108952132,16.248072769722395L2.0342091457104745,-7.641135961754542L14.707431551563586,17.2574867681648z" style="fill:rgb(242,131,182)"/><path d="M46.80203488706139,1.1600736705266852L33.860435521698165,-24.4514672985594L45.77353393764708,0.8358260898427615z" style="fill:rgb(54,37,179)"/><path d="M74.75313349352083,-38.049962852513936L34.88664507426173,-52.09053488664414L31.486035632292396,-51.720075889228376zM74.75313349352083,-38.049962852513936L-20.912626086572796,-24.063095690383495L-23.05296835878343,-21.507904889914794z" style="fill:rgb(83,212,212)"/><path d="M14.707431551563586,17.2574867681648L1.7553005063216023,-6.630818896172539L14.445513440658655,18.264173442084456z" style="fill:rgb(244,137,177)"/><path d="M47.78334544691236,1.5435857902588002L34.9041720764144,-24.140085611440462L46.80203488706139,1.1600736705266852z" style="fill:rgb(48,39,174)"/><path d="M74.75313349352083,-38.049962852513936L38.24804403588978,-52.29768295703074L34.88664507426173,-52.09053488664414z" style="fill:rgb(83,212,212)"/><path d="M27.69007046599175,3.289264180429907L15.41894765845293,-21.772225159675457L14.218409200173223,-21.13822176875053z" style="fill:rgb(168,53,222)"/><path d="M28.888015090310915,2.7198162927419673L16.64525202128165,-22.356559119574563L15.41894765845293,-21.772225159675457z" style="fill:rgb(160,49,222)"/><path d="M26.51801761406895,3.908707047096893L14.218409200173223,-21.13822176875053L13.048139227675305,-20.456947831272984z" style="fill:rgb(175,57,222)"/><path d="M19.156602847173136,-23.36772312185739L-29.990958324645746,-10.582409434461006L-30.035974401391986,-10.482890722733064zM17.892668730693533,-22.889077330235857L-30.035974401391986,-10.482890722733064L-30.110755978909634,-10.317456505302262z" style="fill:rgb(83,212,212)"/><path d="M30.10730329190552,2.20246307715389L17.892668730693533,-22.889077330235857L16.64525202128165,-22.356559119574563z" style="fill:rgb(153,46,222)"/><path d="M20.432194767699297,-23.790665155323953L-29.975952900662023,-10.61560379488479L-29.990958324645746,-10.582409434461006z" style="fill:rgb(83,212,212)"/><path d="M25.37625576919461,4.5758020664971175L13.048139227675305,-20.456947831272984L11.912600890012678,-19.73099227583768z" style="fill:rgb(181,61,221)"/><path d="M16.64525202128165,-22.356559119574563L-30.110755978909634,-10.317456505302262L-30.215109216130337,-10.086671333045198z" style="fill:rgb(83,212,212)"/><path d="M31.343431802409615,1.739199254484009L19.156602847173136,-23.36772312185739L17.892668730693533,-22.889077330235857z" style="fill:rgb(146,43,221)"/><path d="M15.41894765845293,-21.772225159675457L-30.215109216130337,-10.086671333045198L-30.348592094631265,-9.791445167903445z" style="fill:rgb(83,212,212)"/><path d="M24.269145555850617,5.288010607533705L11.912600890012678,-19.73099227583768L10.815962887874754,-18.96300024545995z" style="fill:rgb(188,65,220)"/><path d="M74.75313349352083,-38.049962852513936L-23.05296835878343,-21.507904889914794L-25.027661922642096,-18.89713988774291z" style="fill:rgb(83,212,212)"/><path d="M14.445513440658655,18.264173442084456L1.5554309563098212,-5.627983707943213L14.261162917850688,19.26429389417224z" style="fill:rgb(245,143,172)"/><path d="M14.218409200173223,-21.13822176875053L-30.348592094631265,-9.791445167903445L-30.510716439017514,-9.43279524247573z" style="fill:rgb(83,212,212)"/><path d="M32.59164880644671,1.3318049915279657L20.432194767699297,-23.790665155323953L19.156602847173136,-23.36772312185739z" style="fill:rgb(138,40,220)"/><path d="M48.71358268460395,1.985008876638863L35.89921396644247,-23.76883344007937L47.78334544691236,1.5435857902588002z" style="fill:rgb(42,41,169)"/><path d="M23.200755889996636,6.042734222252553L10.815962887874754,-18.96300024545995L9.76251695311544,-18.15593151023339z" style="fill:rgb(194,70,219)"/><path d="M13.048139227675305,-20.456947831272984L-30.510716439017514,-9.43279524247573L-30.700939327900013,-9.012036303586202z" style="fill:rgb(83,212,212)"/><path d="M33.84728493033008,0.981870497758777L21.714683968770988,-24.156249222905767L20.432194767699297,-23.790665155323953z" style="fill:rgb(131,38,218)"/><path d="M22.175271780429558,6.837059663863036L9.76251695311544,-18.15593151023339L8.756163990319966,-17.312709560608795z" style="fill:rgb(200,75,217)"/><path d="M74.75313349352083,-38.049962852513936L41.558118912229965,-52.3400150811602L38.24804403588978,-52.29768295703074zM11.912600890012678,-19.73099227583768L-30.700939327900013,-9.012036303586202L-30.918525168751856,-8.530746732894977z" style="fill:rgb(83,212,212)"/><path d="M35.105613908541514,0.6907223849619515L22.99923925744539,-24.463097212526446L21.714683968770988,-24.156249222905767z" style="fill:rgb(123,36,216)"/><path d="M21.19649613713903,7.668109538355135L8.756163990319966,-17.312709560608795L7.8008322051776116,-16.436548844790675z" style="fill:rgb(206,80,215)"/><path d="M10.815962887874754,-18.96300024545995L-30.918525168751856,-8.530746732894977L-31.120938635934422,-8.08305766146882z" style="fill:rgb(83,212,212)"/><path d="M14.261162917850688,19.26429389417224L1.4355527591893869,-4.636597344801614L14.155264364633034,20.253894440821952z" style="fill:rgb(246,149,166)"/><path d="M49.58907076181147,2.482811206057082L36.841616046075686,-23.33901299736234L48.71358268460395,1.985008876638863z" style="fill:rgb(37,44,164)"/><path d="M10.815962887874754,-18.96300024545995L-31.120938635934422,-8.08305766146882L-31.155148579858622,-7.992624122107408zM74.75313349352083,-38.049962852513936L-25.027661922642096,-18.89713988774291L-26.828860695804444,-16.23992891327175z" style="fill:rgb(83,212,212)"/><path d="M36.36188317874333,0.4595608372565766L24.281023532721928,-24.70994558611925L22.99923925744539,-24.463097212526446z" style="fill:rgb(116,34,214)"/><path d="M20.268252710026683,8.532711407103434L7.8008322051776116,-16.436548844790675L6.900167712865112,-15.530735243797482z" style="fill:rgb(212,85,213)"/><path d="M9.76251695311544,-18.15593151023339L-31.155148579858622,-7.992624122107408L-31.375965667184367,-7.4085814772703555z" style="fill:rgb(83,212,212)"/><path d="M37.61137657133089,0.28929699310144197L25.55521888400597,-24.895822790570403L24.281023532721928,-24.70994558611925z" style="fill:rgb(108,33,211)"/><path d="M19.394086681302376,9.427619866177508L6.900167712865112,-15.530735243797482L6.05759348931198,-14.598599270770418z" style="fill:rgb(217,91,210)"/><path d="M74.75313349352083,-38.049962852513936L44.8048329991037,-52.21659372500896L41.558118912229965,-52.3400150811602zM8.756163990319966,-17.312709560608795L-31.375965667184367,-7.4085814772703555L-31.617033451120825,-6.771066566492006z" style="fill:rgb(83,212,212)"/><path d="M14.155264364633034,20.253894440821952L1.3963796495248915,-3.66051376360474L14.12846688799113,21.22912743460006z" style="fill:rgb(247,155,161)"/><path d="M50.40624118527698,3.0352300780830492L37.72765323736395,-22.8521074686667L49.58907076181147,2.482811206057082z" style="fill:rgb(32,47,158)"/><path d="M38.84924097082087,0.18070311871859757L26.8168898167356,-25.019896728775855L25.55521888400597,-24.895822790570403z" style="fill:rgb(101,32,208)"/><path d="M18.577325197023526,10.34953952829674L6.05759348931198,-14.598599270770418L5.2764075837765505,-13.643628393830966z" style="fill:rgb(222,96,207)"/><path d="M7.8008322051776116,-16.436548844790675L-31.617033451120825,-6.771066566492006L-31.877339456541026,-6.0825136971404zM74.75313349352083,-38.049962852513936L-26.828860695804444,-16.23992891327175L-28.449315370274967,-13.545452822438492z" style="fill:rgb(83,212,212)"/><path d="M40.0708525213078,0.13420964696916488L28.06131721385429,-25.081674061678008L26.8168898167356,-25.019896728775855z" style="fill:rgb(94,32,205)"/><path d="M17.821166122442186,11.295021776522669L5.2764075837765505,-13.643628393830966L4.559735989131921,-12.669486949013132z" style="fill:rgb(226,102,203)"/><path d="M6.900167712865112,-15.530735243797482L-31.877339456541026,-6.0825136971404L-32.156024420879355,-5.345468835176135z" style="fill:rgb(83,212,212)"/><path d="M14.12846688799113,21.22912743460006L1.438230081994111,-2.7035494222688614L14.18103485291938,22.186181802232394z" style="fill:rgb(247,161,155)"/><path d="M74.75313349352083,-38.049962852513936L47.97621007292593,-51.92692798488292L44.8048329991037,-52.21659372500896z" style="fill:rgb(83,212,212)"/><path d="M51.16168814729187,3.640218174169518L38.55370600185042,-22.309826208587168L50.40624118527698,3.0352300780830492z" style="fill:rgb(28,51,152)"/><path d="M6.05759348931198,-14.598599270770418L-32.156024420879355,-5.345468835176135L-32.16012618770411,-5.334671266172497z" style="fill:rgb(83,212,212)"/><path d="M41.27149746394468,0.1501677137605782L29.283708707373403,-25.080748563726956L28.06131721385429,-25.081674061678008z" style="fill:rgb(86,32,201)"/><path d="M17.12863913231049,12.260432738180155L4.559735989131921,-12.669486949013132L3.9103294178999772,-11.679745423316023z" style="fill:rgb(230,108,199)"/><path d="M6.05759348931198,-14.598599270770418L-32.16012618770411,-5.334671266172497L-32.38974407469987,-4.578872015703073zM74.75313349352083,-38.049962852513936L-28.449315370274967,-13.545452822438492L-29.88208445862521,-10.823272913874305z" style="fill:rgb(83,212,212)"/><path d="M14.18103485291938,22.186181802232394L1.5612268740046753,-1.7694986456084834L14.313035693689542,23.121267766028943z" style="fill:rgb(246,166,149)"/><path d="M16.64525202128165,-22.356559119574563L17.892668730693533,-22.889077330235857L-30.110755978909634,-10.317456505302262zM15.41894765845293,-21.772225159675457L16.64525202128165,-22.356559119574563L-30.215109216130337,-10.086671333045198zM17.892668730693533,-22.889077330235857L19.156602847173136,-23.36772312185739L-30.035974401391986,-10.482890722733064z" style="fill:rgb(83,212,212)"/><path d="M42.44658102005656,0.2286090814268889L30.479388344307733,-25.0170242947132L29.283708707373403,-25.080748563726956z" style="fill:rgb(79,32,198)"/><path d="M14.218409200173223,-21.13822176875053L15.41894765845293,-21.772225159675457L-30.348592094631265,-9.791445167903445z" style="fill:rgb(83,212,212)"/><path d="M51.85238821251089,4.295613540222915L39.316333816149374,-21.714170826764427L51.16168814729187,3.640218174169518z" style="fill:rgb(24,55,146)"/><path d="M19.156602847173136,-23.36772312185739L20.432194767699297,-23.790665155323953L-29.990958324645746,-10.582409434461006zM5.2764075837765505,-13.643628393830966L-32.38974407469987,-4.578872015703073L-32.63537066854484,-3.770502910404303z" style="fill:rgb(83,212,212)"/><path d="M16.502402101391926,13.242231272965483L3.9103294178999772,-11.679745423316023L3.3308672100449623,-10.678267497717348z" style="fill:rgb(234,114,195)"/><path d="M13.048139227675305,-20.456947831272984L14.218409200173223,-21.13822176875053L-30.510716439017514,-9.43279524247573zM20.432194767699297,-23.790665155323953L21.714683968770988,-24.156249222905767L-29.975952900662023,-10.61560379488479zM11.912600890012678,-19.73099227583768L13.048139227675305,-20.456947831272984L-30.700939327900013,-9.012036303586202zM74.75313349352083,-38.049962852513936L51.060313937463754,-51.471188560720535L47.97621007292593,-51.92692798488292zM74.75313349352083,-38.049962852513936L-29.88208445862521,-10.823272913874305L-29.975952900662023,-10.61560379488479zM10.815962887874754,-18.96300024545995L11.912600890012678,-19.73099227583768L-30.918525168751856,-8.530746732894977z" style="fill:rgb(83,212,212)"/><path d="M43.591522918803385,0.36934442688232483L31.643689099013432,-24.890628616848794L30.479388344307733,-25.0170242947132z" style="fill:rgb(73,33,193)"/><path d="M4.559735989131921,-12.669486949013132L-32.63537066854484,-3.770502910404303L-32.892753021864586,-2.9232515889354986z" style="fill:rgb(83,212,212)"/><path d="M15.945042684533977,14.236585050245665L3.3308672100449623,-10.678267497717348L2.8236533498473917,-9.66874928019952z" style="fill:rgb(237,119,191)"/><path d="M9.76251695311544,-18.15593151023339L10.815962887874754,-18.96300024545995L-31.155148579858622,-7.992624122107408z" style="fill:rgb(83,212,212)"/><path d="M14.313035693689542,23.121267766028943L1.765088885178569,-0.8620407861860179L14.524144710670218,24.03070310758197z" style="fill:rgb(245,172,143)"/><path d="M52.47536344185955,4.998912490558444L40.012467566439135,-21.067264855534294L51.85238821251089,4.295613540222915z" style="fill:rgb(20,59,140)"/><path d="M8.756163990319966,-17.312709560608795L9.76251695311544,-18.15593151023339L-31.375965667184367,-7.4085814772703555zM3.9103294178999772,-11.679745423316023L-32.892753021864586,-2.9232515889354986L-32.99458137120686,-2.588141404659478z" style="fill:rgb(83,212,212)"/><path d="M44.70199636662761,0.57197171730128L32.772219184507854,-24.70190772725366L31.643689099013432,-24.890628616848794z" style="fill:rgb(66,34,189)"/><path d="M3.9103294178999772,-11.679745423316023L-32.99458137120686,-2.588141404659478L-33.11724260561846,-2.051589468868504z" style="fill:rgb(83,212,212)"/><path d="M15.458778171766351,15.239821952063346L2.8236533498473917,-9.66874928019952L2.3908165811487008,-8.655080980190702z" style="fill:rgb(240,125,187)"/><path d="M7.8008322051776116,-16.436548844790675L8.756163990319966,-17.312709560608795L-31.617033451120825,-6.771066566492006zM74.75313349352083,-38.049962852513936L54.045510925411854,-50.849980066493075L51.060313937463754,-51.471188560720535z" style="fill:rgb(83,212,212)"/><path d="M14.524144710670218,24.03070310758197L2.049279062905336,0.015102487762681952L14.81378338208294,24.91076270339653z" style="fill:rgb(244,177,137)"/><path d="M53.02803819360827,5.747567261805192L40.63910874806926,-20.371567091440085L52.47536344185955,4.998912490558444z" style="fill:rgb(17,63,135)"/><path d="M6.900167712865112,-15.530735243797482L7.8008322051776116,-16.436548844790675L-31.877339456541026,-6.0825136971404z" style="fill:rgb(83,212,212)"/><path d="M45.77353393764708,0.8358260898427615L33.860435521698165,-24.4514672985594L32.772219184507854,-24.70190772725366z" style="fill:rgb(60,35,184)"/><path d="M3.3308672100449623,-10.678267497717348L-33.11724260561846,-2.051589468868504L-33.322178393711,-1.1551984391866048z" style="fill:rgb(83,212,212)"/><path d="M15.04565108952132,16.248072769722395L2.3908165811487008,-8.655080980190702L2.0342091457104745,-7.641135961754542z" style="fill:rgb(242,131,182)"/><path d="M6.05759348931198,-14.598599270770418L6.900167712865112,-15.530735243797482L-32.156024420879355,-5.345468835176135z" style="fill:rgb(83,212,212)"/><path d="M14.81378338208294,24.91076270339653L2.41284662988029,0.8584801702881143L15.180971330072202,25.75798788973563z" style="fill:rgb(242,182,131)"/><path d="M53.507995496192045,6.538730529764225L41.193650208778564,-19.629593419039765L53.02803819360827,5.747567261805192z" style="fill:rgb(14,67,129)"/><path d="M2.8236533498473917,-9.66874928019952L-33.322178393711,-1.1551984391866048L-33.533627848468136,-0.2304053775821793z" style="fill:rgb(83,212,212)"/><path d="M46.80203488706139,1.1600736705266852L34.9041720764144,-24.140085611440462L33.860435521698165,-24.4514672985594z" style="fill:rgb(54,37,179)"/><path d="M5.2764075837765505,-13.643628393830966L6.05759348931198,-14.598599270770418L-32.38974407469987,-4.578872015703073z" style="fill:rgb(83,212,212)"/><path d="M14.707431551563586,17.2574867681648L2.0342091457104745,-7.641135961754542L1.7553005063216023,-6.630818896172539z" style="fill:rgb(244,137,177)"/><path d="M74.75313349352083,-38.049962852513936L56.92011669315356,-50.0645088579311L54.045510925411854,-50.849980066493075z" style="fill:rgb(83,212,212)"/><path d="M15.624568413693163,26.5688934425329L2.41284662988029,0.8584801702881143L15.180971330072202,25.75798788973563z" style="fill:rgb(14,67,129)"/><path d="M2.3908165811487008,-8.655080980190702L-33.533627848468136,-0.2304053775821793L-33.61974344713618,0.14627479422870737zM4.559735989131921,-12.669486949013132L5.2764075837765505,-13.643628393830966L-32.63537066854484,-3.770502910404303z" style="fill:rgb(83,212,212)"/><path d="M47.78334544691236,1.5435857902588002L35.89921396644247,-23.76883344007937L34.9041720764144,-24.140085611440462z" style="fill:rgb(48,39,174)"/><path d="M2.3908165811487008,-8.655080980190702L-33.61974344713618,0.14627479422870737L-33.7049969716807,0.7073505545775307z" style="fill:rgb(83,212,212)"/><path d="M53.913114114189234,7.369418997541769L41.673659677292505,-18.84415540669169L53.507995496192045,6.538730529764225z" style="fill:rgb(12,72,123)"/><path d="M14.445513440658655,18.264173442084456L1.7553005063216023,-6.630818896172539L1.5554309563098212,-5.627983707943213z" style="fill:rgb(245,143,172)"/><path d="M3.9103294178999772,-11.679745423316023L4.559735989131921,-12.669486949013132L-32.892753021864586,-2.9232515889354986z" style="fill:rgb(83,212,212)"/><path d="M16.143021339700564,27.340183015420852L2.8546791411818586,1.6646143669434972L15.624568413693163,26.5688934425329z" style="fill:rgb(17,63,135)"/><path d="M2.0342091457104745,-7.641135961754542L-33.7049969716807,0.7073505545775307L-33.849458104352905,1.6581027224367448zM74.75313349352083,-38.049962852513936L59.67293141432627,-49.116575340220244L56.92011669315356,-50.0645088579311z" style="fill:rgb(83,212,212)"/><path d="M48.71358268460395,1.985008876638863L36.841616046075686,-23.33901299736234L35.89921396644247,-23.76883344007937z" style="fill:rgb(42,41,169)"/><path d="M14.261162917850688,19.26429389417224L1.5554309563098212,-5.627983707943213L1.4355527591893869,-4.636597344801614z" style="fill:rgb(246,149,166)"/><path d="M3.3308672100449623,-10.678267497717348L3.9103294178999772,-11.679745423316023L-33.11724260561846,-2.051589468868504z" style="fill:rgb(83,212,212)"/><path d="M53.913114114189234,7.369418997541769L42.40193344110952,-17.15496003560176L54.24164688214477,8.236405578310013z" style="fill:rgb(244,177,137)"/><path d="M16.73445924783332,28.068650379478253L3.373240088246403,2.430222958329915L16.143021339700564,27.340183015420852z" style="fill:rgb(20,59,140)"/><path d="M1.7553005063216023,-6.630818896172539L-33.849458104352905,1.6581027224367448L-33.996518868910876,2.6259668538346053z" style="fill:rgb(83,212,212)"/><path d="M49.58907076181147,2.482811206057082L37.72765323736395,-22.8521074686667L36.841616046075686,-23.33901299736234z" style="fill:rgb(37,44,164)"/><path d="M2.8236533498473917,-9.66874928019952L3.3308672100449623,-10.678267497717348L-33.322178393711,-1.1551984391866048z" style="fill:rgb(83,212,212)"/><path d="M14.155264364633034,20.253894440821952L1.4355527591893869,-4.636597344801614L1.3963796495248915,-3.66051376360474z" style="fill:rgb(247,155,161)"/><path d="M1.5554309563098212,-5.627983707943213L-33.996518868910876,2.6259668538346053L-34.03183194799646,2.858404244363657z" style="fill:rgb(83,212,212)"/><path d="M54.24164688214477,8.236405578310013L42.646868409242984,-16.257637465446066L54.49200970483086,9.136437375562732z" style="fill:rgb(245,172,143)"/><path d="M74.75313349352083,-38.049962852513936L62.2927651368532,-48.008614109303L59.67293141432627,-49.116575340220244z" style="fill:rgb(83,212,212)"/><path d="M-15.850651676621252,47.01350648568227L-30.786200455091457,20.34941143760211L-17.193240987079243,44.83753037464658z" style="fill:rgb(17,63,135)"/><path d="M17.396792914624953,28.751354040547515L3.966668442383872,3.1521184678810705L16.73445924783332,28.068650379478253z" style="fill:rgb(24,55,146)"/><path d="M1.5554309563098212,-5.627983707943213L-34.03183194799646,2.858404244363657L-34.08544292460581,3.591702979909797zM2.3908165811487008,-8.655080980190702L2.8236533498473917,-9.66874928019952L-33.533627848468136,-0.2304053775821793z" style="fill:rgb(83,212,212)"/><path d="M50.40624118527698,3.0352300780830492L38.55370600185042,-22.309826208587168L37.72765323736395,-22.8521074686667z" style="fill:rgb(32,47,158)"/><path d="M14.12846688799113,21.22912743460006L1.3963796495248915,-3.66051376360474L1.438230081994111,-2.7035494222688614z" style="fill:rgb(247,161,155)"/><path d="M54.49200970483086,9.136437375562732L42.81061351149639,-15.329804410000392L54.662997506214694,10.065938194206305z" style="fill:rgb(246,166,149)"/><path d="M1.4355527591893869,-4.636597344801614L-34.08544292460581,3.591702979909797L-34.15643211453612,4.561997837389252z" style="fill:rgb(83,212,212)"/><path d="M18.127501478330778,29.385359462433478L4.632876691670243,3.8273782747519904L17.396792914624953,28.751354040547515z" style="fill:rgb(28,51,152)"/><path d="M2.0342091457104745,-7.641135961754542L2.3908165811487008,-8.655080980190702L-33.7049969716807,0.7073505545775307z" style="fill:rgb(83,212,212)"/><path d="M51.16168814729187,3.640218174169518L39.316333816149374,-21.714170826764427L38.55370600185042,-22.309826208587168z" style="fill:rgb(28,51,152)"/><path d="M14.18103485291938,22.186181802232394L1.438230081994111,-2.7035494222688614L1.5612268740046753,-1.7694986456084834z" style="fill:rgb(246,166,149)"/><path d="M74.75313349352083,-38.049962852513936L64.76901743189133,-46.74355905317253L62.2927651368532,-48.008614109303z" style="fill:rgb(83,212,212)"/><path d="M54.662997506214694,10.065938194206305L42.89225091456687,-14.37504024649149L54.75367262676902,11.021315043982423z" style="fill:rgb(247,161,155)"/><path d="M1.7553005063216023,-6.630818896172539L2.0342091457104745,-7.641135961754542L-33.849458104352905,1.6581027224367448zM1.3963796495248915,-3.66051376360474L-34.15643211453612,4.561997837389252L-34.22777230159919,5.537894226571712z" style="fill:rgb(83,212,212)"/><path d="M18.923945349979686,29.968046732065332L5.369340097804854,4.453088732757555L18.127501478330778,29.385359462433478z" style="fill:rgb(32,47,158)"/><path d="M51.85238821251089,4.295613540222915L40.012467566439135,-21.067264855534294L39.316333816149374,-21.714170826764427z" style="fill:rgb(24,55,146)"/><path d="M88.27964929840128,-8.048622908914343L78.25628916180631,-31.53032173465302L89.27786513574003,-5.696236724639329z" style="fill:rgb(244,177,137)"/><path d="M14.313035693689542,23.121267766028943L1.5612268740046753,-1.7694986456084834L1.765088885178569,-0.8620407861860179z" style="fill:rgb(245,172,143)"/><path d="M-14.301338373413886,49.07837335093399L-29.447607113678135,22.512212426300692L-15.850651676621252,47.01350648568227z" style="fill:rgb(20,59,140)"/><path d="M54.75367262676902,11.021315043982423L42.89127349309404,-13.397108547119307L54.76350928203192,11.998803743996223z" style="fill:rgb(247,155,161)"/><path d="M1.5554309563098212,-5.627983707943213L1.7553005063216023,-6.630818896172539L-33.996518868910876,2.6259668538346053zM1.438230081994111,-2.7035494222688614L-34.22777230159919,5.537894226571712L-34.21957311722625,6.49502178872331zM74.77022092883468,-38.02441422388635L21.714683968770988,-24.156249222905767L22.99923925744539,-24.463097212526446z" style="fill:rgb(83,212,212)"/><path d="M19.78304622539332,30.496890495879793L6.1734042504262225,5.026659928719782L18.923945349979686,29.968046732065332z" style="fill:rgb(37,44,164)"/><path d="M74.82148968401481,-37.94782596782717L22.99923925744539,-24.463097212526446L24.281023532721928,-24.70994558611925z" style="fill:rgb(83,212,212)"/><path d="M52.47536344185955,4.998912490558444L40.63910874806926,-20.371567091440085L40.012467566439135,-21.067264855534294z" style="fill:rgb(20,59,140)"/><path d="M74.75313349352083,-38.049962852513936L67.09114919713807,-45.3250612913686L64.76901743189133,-46.74355905317253z" style="fill:rgb(83,212,212)"/><path d="M14.524144710670218,24.03070310758197L1.765088885178569,-0.8620407861860179L2.049279062905336,0.015102487762681952z" style="fill:rgb(244,177,137)"/><path d="M74.90667126929672,-37.820475384691456L24.281023532721928,-24.70994558611925L25.55521888400597,-24.895822790570403zM1.4355527591893869,-4.636597344801614L1.5554309563098212,-5.627983707943213L-34.08544292460581,3.591702979909797z" style="fill:rgb(83,212,212)"/><path d="M54.76350928203192,11.998803743996223L42.807400296357216,-12.399849890224887L54.69218688429459,12.994556815487705z" style="fill:rgb(246,149,166)"/><path d="M1.5612268740046753,-1.7694986456084834L-34.21957311722625,6.49502178872331L-34.211331258969324,7.450142089539919z" style="fill:rgb(83,212,212)"/><path d="M20.701499536590358,30.969635606364175L7.041969778184023,5.5455938413927495L19.78304622539332,30.496890495879793z" style="fill:rgb(42,41,169)"/><path d="M75.02553899406556,-37.642820098329274L25.55521888400597,-24.895822790570403L26.8168898167356,-25.019896728775855z" style="fill:rgb(83,212,212)"/><path d="M53.02803819360827,5.747567261805192L41.193650208778564,-19.629593419039765L40.63910874806926,-20.371567091440085z" style="fill:rgb(17,63,135)"/><path d="M14.81378338208294,24.91076270339653L2.049279062905336,0.015102487762681952L2.41284662988029,0.8584801702881143z" style="fill:rgb(242,182,131)"/><path d="M75.1776111758556,-37.415523329380775L26.8168898167356,-25.019896728775855L28.06131721385429,-25.081674061678008z" style="fill:rgb(83,212,212)"/><path d="M54.69218688429459,12.994556815487705L42.640773918583356,-11.387214402835381L54.53980979293343,14.004633708442318z" style="fill:rgb(245,143,172)"/><path d="M1.3963796495248915,-3.66051376360474L1.4355527591893869,-4.636597344801614L-34.15643211453612,4.561997837389252zM1.765088885178569,-0.8620407861860179L-34.211331258969324,7.450142089539919L-34.205122124156176,8.174328324424561z" style="fill:rgb(83,212,212)"/><path d="M21.67581217505856,31.384264431269322L7.971698802351441,6.007673554207978L20.701499536590358,30.969635606364175z" style="fill:rgb(48,39,174)"/><path d="M75.36234559046558,-37.13933592674973L28.06131721385429,-25.081674061678008L29.283708707373403,-25.080748563726956z" style="fill:rgb(83,212,212)"/><path d="M89.27786513574003,-5.696236724639329L79.03065738469047,-29.087801630298248L90.06264187641868,-3.2444517716860175z" style="fill:rgb(245,172,143)"/><path d="M1.765088885178569,-0.8620407861860179L-34.205122124156176,8.174328324424561L-34.184415868597874,8.394678445892552zM74.75313349352083,-38.049962852513936L69.24922435654759,-43.757247205289985L67.09114919713807,-45.3250612913686z" style="fill:rgb(83,212,212)"/><path d="M53.507995496192045,6.538730529764225L41.673659677292505,-18.84415540669169L41.193650208778564,-19.629593419039765z" style="fill:rgb(14,67,129)"/><path d="M-12.550015919077813,51.022887244606565L-27.896947187211502,24.56154531216708L-14.301338373413886,49.07837335093399z" style="fill:rgb(24,55,146)"/><path d="M54.53980979293343,14.004633708442318L42.391824907744116,-10.363321176708597L54.306759613519816,15.024919408438537z" style="fill:rgb(244,137,177)"/><path d="M75.5791350889616,-36.81527402994563L29.283708707373403,-25.080748563726956L30.479388344307733,-25.0170242947132zM38.472053000246866,13.036585448268543L13.150562219538777,-35.30232795879233L-1.141450725622441,-26.865302954132677zM1.438230081994111,-2.7035494222688614L1.3963796495248915,-3.66051376360474L-34.22777230159919,5.537894226571712z" style="fill:rgb(83,212,212)"/><path d="M22.702208861879,31.73892800561412L8.959062120700079,6.410909707934113L21.67581217505856,31.384264431269322z" style="fill:rgb(54,37,179)"/><path d="M15.624568413693163,26.5688934425329L2.8546791411818586,1.6646143669434972L2.41284662988029,0.8584801702881143z" style="fill:rgb(14,67,129)"/><path d="M2.049279062905336,0.015102487762681952L-34.184415868597874,8.394678445892552L-34.097984186447086,9.314259085185084zM75.82716250207643,-36.44451002530372L30.479388344307733,-25.0170242947132L31.643689099013432,-24.890628616848794z" style="fill:rgb(83,212,212)"/><path d="M53.913114114189234,7.369418997541769L42.077002054355006,-18.01820964345376L41.673659677292505,-18.84415540669169z" style="fill:rgb(12,72,123)"/><path d="M54.306759613519816,15.024919408438537L42.06141962126158,-9.332239557551242L53.99384399375085,16.051361195840645z" style="fill:rgb(242,131,182)"/><path d="M23.776571751363804,32.032017223166385L10.000237440590094,6.753498438055433L22.702208861879,31.73892800561412z" style="fill:rgb(60,35,184)"/><path d="M38.472053000246866,13.036585448268543L28.90553304489345,-39.48139148971611L13.150562219538777,-35.30232795879233zM1.5612268740046753,-1.7694986456084834L1.438230081994111,-2.7035494222688614L-34.21957311722625,6.49502178872331z" style="fill:rgb(83,212,212)"/><path d="M16.143021339700564,27.340183015420852L3.373240088246403,2.430222958329915L2.8546791411818586,1.6646143669434972z" style="fill:rgb(17,63,135)"/><path d="M2.41284662988029,0.8584801702881143L-34.097984186447086,9.314259085185084L-34.01277579398715,10.220817301613886zM76.09760590090508,-36.02626323430224L31.643689099013432,-24.890628616848794L32.772219184507854,-24.70190772725366z" style="fill:rgb(83,212,212)"/><path d="M53.913114114189234,7.369418997541769L42.077002054355006,-18.01820964345376L42.40193344110952,-17.15496003560176z" style="fill:rgb(244,177,137)"/><path d="M74.75313349352083,-38.049962852513936L71.23366584291217,-42.045044848437854L69.24922435654759,-43.757247205289985z" style="fill:rgb(83,212,212)"/><path d="M53.99384399375085,16.051361195840645L41.650615108136456,-8.298144282139189L53.60206318068482,17.079803965733653z" style="fill:rgb(240,125,187)"/><path d="M74.77022092883468,-38.02441422388635L74.75313349352083,-38.049962852513936L21.714683968770988,-24.156249222905767z" style="fill:rgb(83,212,212)"/><path d="M24.894755812181646,32.26224077545242L11.09104989628869,7.033871773060821L23.776571751363804,32.032017223166385z" style="fill:rgb(66,34,189)"/><path d="M74.82148968401481,-37.94782596782717L74.77022092883468,-38.02441422388635L22.99923925744539,-24.463097212526446zM76.35366506937726,-35.552741862002186L32.772219184507854,-24.70190772725366L33.860435521698165,-24.4514672985594zM1.765088885178569,-0.8620407861860179L1.5612268740046753,-1.7694986456084834L-34.211331258969324,7.450142089539919zM74.90667126929672,-37.820475384691456L74.82148968401481,-37.94782596782717L24.281023532721928,-24.70994558611925zM2.8546791411818586,1.6646143669434972L-34.01277579398715,10.220817301613886L-33.96234734250863,10.757324219977987z" style="fill:rgb(83,212,212)"/><path d="M90.06264187641868,-3.2444517716860175L79.58168410037307,-26.55184659173914L90.62917087597289,-0.702326333521808z" style="fill:rgb(246,166,149)"/><path d="M16.73445924783332,28.068650379478253L3.966668442383872,3.1521184678810705L3.373240088246403,2.430222958329915z" style="fill:rgb(20,59,140)"/><path d="M54.24164688214477,8.236405578310013L42.40193344110952,-17.15496003560176L42.646868409242984,-16.257637465446066z" style="fill:rgb(245,172,143)"/><path d="M75.02553899406556,-37.642820098329274L74.90667126929672,-37.820475384691456L25.55521888400597,-24.895822790570403z" style="fill:rgb(83,212,212)"/><path d="M53.60206318068482,17.079803965733653L41.160913801927904,-7.265228620220635L53.13284630164141,18.10607372758929z" style="fill:rgb(237,119,191)"/><path d="M38.472053000246866,13.036585448268543L-1.141450725622441,-26.865302954132677L-11.688021965178113,-15.502185945872652zM2.8546791411818586,1.6646143669434972L-33.96234734250863,10.757324219977987L-33.89874499965961,11.10285711474084z" style="fill:rgb(83,212,212)"/><path d="M26.05216867137573,32.42849472454114L12.227294072971114,7.250782891739148L24.894755812181646,32.26224077545242z" style="fill:rgb(73,33,193)"/><path d="M-10.60211460646456,52.83825721909338L-26.13886046262386,26.4881961989541L-12.550015919077813,51.022887244606565z" style="fill:rgb(28,51,152)"/><path d="M75.1776111758556,-37.415523329380775L75.02553899406556,-37.642820098329274L26.8168898167356,-25.019896728775855zM76.63326863046338,-35.035760774772434L33.860435521698165,-24.4514672985594L34.9041720764144,-24.140085611440462zM2.049279062905336,0.015102487762681952L1.765088885178569,-0.8620407861860179L-34.184415868597874,8.394678445892552z" style="fill:rgb(83,212,212)"/><path d="M53.13284630164141,18.10607372758929L40.59417005281813,-6.237754760639552L52.58797159300904,19.125940848377343z" style="fill:rgb(234,114,195)"/><path d="M75.36234559046558,-37.13933592674973L75.1776111758556,-37.415523329380775L28.06131721385429,-25.081674061678008zM3.373240088246403,2.430222958329915L-33.89874499965961,11.10285711474084L-33.742194116075375,11.953193273145436zM74.75313349352083,-38.049962852513936L73.03553541374028,-40.19386780402237L71.23366584291217,-42.045044848437854z" style="fill:rgb(83,212,212)"/><path d="M17.396792914624953,28.751354040547515L4.632876691670243,3.8273782747519904L3.966668442383872,3.1521184678810705z" style="fill:rgb(24,55,146)"/><path d="M27.244295927405798,32.529975042237716L13.404303766632003,7.403178834618167L26.05216867137573,32.42849472454114z" style="fill:rgb(79,32,198)"/><path d="M54.49200970483086,9.136437375562732L42.646868409242984,-16.257637465446066L42.81061351149639,-15.329804410000392z" style="fill:rgb(246,166,149)"/><path d="M76.93527321235022,-34.477211362962386L34.9041720764144,-24.140085611440462L35.89921396644247,-23.76883344007937zM75.5791350889616,-36.81527402994563L75.36234559046558,-37.13933592674973L29.283708707373403,-25.080748563726956z" style="fill:rgb(83,212,212)"/><path d="M-15.850651676621252,47.01350648568227L-29.447607113678135,22.512212426300692L-30.786200455091457,20.34941143760211z" style="fill:rgb(17,63,135)"/><path d="M52.58797159300904,19.125940848377343L39.952487964897784,-5.21982618134696L51.96945303702126,20.13533368027712z" style="fill:rgb(230,108,199)"/><path d="M28.46628061826074,32.56613153841738L14.617488328200784,7.4903068830284285L27.244295927405798,32.529975042237716z" style="fill:rgb(86,32,201)"/><path d="M2.41284662988029,0.8584801702881143L2.049279062905336,0.015102487762681952L-34.097984186447086,9.314259085185084zM3.966668442383872,3.1521184678810705L-33.742194116075375,11.953193273145436L-33.58996316602982,12.780184335245197zM75.82716250207643,-36.44451002530372L75.5791350889616,-36.81527402994563L30.479388344307733,-25.0170242947132z" style="fill:rgb(83,212,212)"/><path d="M88.27964929840128,-8.048622908914343L77.26344634112023,-33.87042535425867L78.25628916180631,-31.53032173465302z" style="fill:rgb(244,177,137)"/><path d="M18.127501478330778,29.385359462433478L5.369340097804854,4.453088732757555L4.632876691670243,3.8273782747519904z" style="fill:rgb(28,51,152)"/><path d="M54.662997506214694,10.065938194206305L42.81061351149639,-15.329804410000392L42.89225091456687,-14.37504024649149z" style="fill:rgb(247,161,155)"/><path d="M51.96945303702126,20.13533368027712L39.23842226797959,-4.215752144377942L51.279761840223735,21.129978961248167z" style="fill:rgb(226,102,203)"/><path d="M77.25868508466073,-33.879176241275225L35.89921396644247,-23.76883344007937L36.841616046075686,-23.33901299736234z" style="fill:rgb(83,212,212)"/><path d="M29.71319200504478,32.53667258950326L15.861905696640928,7.511668461242701L28.46628061826074,32.56613153841738z" style="fill:rgb(94,32,205)"/><path d="M76.09760590090508,-36.02626323430224L75.82716250207643,-36.44451002530372L31.643689099013432,-24.890628616848794z" style="fill:rgb(83,212,212)"/><path d="M90.62917087597289,-0.702326333521808L79.90534747980351,-23.932083640886052L90.9734413364749,1.9204497440249664z" style="fill:rgb(247,161,155)"/><path d="M4.632876691670243,3.8273782747519904L-33.58996316602982,12.780184335245197L-33.498609309647236,13.276506238050295z" style="fill:rgb(83,212,212)"/><path d="M51.279761840223735,21.129978961248167L38.454686442907466,-3.229572839743573L50.521506701923684,22.10587739061789z" style="fill:rgb(222,96,207)"/><path d="M2.8546791411818586,1.6646143669434972L2.41284662988029,0.8584801702881143L-34.01277579398715,10.220817301613886zM74.75313349352083,-38.049962852513936L74.64622703663768,-38.209804042307915L73.03553541374028,-40.19386780402237z" style="fill:rgb(83,212,212)"/><path d="M30.97992356534596,32.44168570822259L17.132531781713446,7.467032207952519L29.71319200504478,32.53667258950326z" style="fill:rgb(101,32,208)"/><path d="M38.472053000246866,13.036585448268543L43.60769273877426,-38.68378492115147L28.90553304489345,-39.48139148971611z" style="fill:rgb(83,212,212)"/><path d="M18.923945349979686,29.968046732065332L6.1734042504262225,5.026659928719782L5.369340097804854,4.453088732757555z" style="fill:rgb(32,47,158)"/><path d="M4.632876691670243,3.8273782747519904L-33.498609309647236,13.276506238050295L-33.41541565922137,13.57354069579698z" style="fill:rgb(83,212,212)"/><path d="M54.75367262676902,11.021315043982423L42.89225091456687,-14.37504024649149L42.89127349309404,-13.397108547119307z" style="fill:rgb(247,155,161)"/><path d="M77.536560608892,-33.22667077311404L36.841616046075686,-23.33901299736234L37.72765323736395,-22.8521074686667z" style="fill:rgb(83,212,212)"/><path d="M-8.464117345873005,54.51593550737543L-24.178730574564845,28.283387374994327L-10.60211460646456,52.83825721909338z" style="fill:rgb(32,47,158)"/><path d="M76.35366506937726,-35.552741862002186L76.09760590090508,-36.02626323430224L32.772219184507854,-24.70190772725366z" style="fill:rgb(83,212,212)"/><path d="M50.521506701923684,22.10587739061789L37.60443896350088,-2.265449444821466L49.697748967798326,23.058916106256124z" style="fill:rgb(217,91,210)"/><path d="M32.261388826962076,32.281384387389785L18.424155849945066,7.35654332722485L30.97992356534596,32.44168570822259z" style="fill:rgb(108,33,211)"/><path d="M5.369340097804854,4.453088732757555L-33.41541565922137,13.57354069579698L-33.20470002395636,14.32617005727279z" style="fill:rgb(83,212,212)"/><path d="M49.697748967798326,23.058916106256124L36.69110715237784,-1.327371222417184L48.81180430163396,23.98515277350082z" style="fill:rgb(212,85,213)"/><path d="M3.373240088246403,2.430222958329915L2.8546791411818586,1.6646143669434972L-33.89874499965961,11.10285711474084z" style="fill:rgb(83,212,212)"/><path d="M33.552237871962625,32.05638263369477L19.73159696795045,7.180473855278423L32.261388826962076,32.281384387389785z" style="fill:rgb(116,34,214)"/><path d="M76.63326863046338,-35.035760774772434L76.35366506937726,-35.552741862002186L33.860435521698165,-24.4514672985594z" style="fill:rgb(83,212,212)"/><path d="M19.78304622539332,30.496890495879793L7.041969778184023,5.5455938413927495L6.1734042504262225,5.026659928719782z" style="fill:rgb(37,44,164)"/><path d="M77.82878266841949,-32.53798651423803L37.72765323736395,-22.8521074686667L38.55370600185042,-22.309826208587168z" style="fill:rgb(83,212,212)"/><path d="M54.76350928203192,11.998803743996223L42.89127349309404,-13.397108547119307L42.807400296357216,-12.399849890224887z" style="fill:rgb(246,149,166)"/><path d="M48.81180430163396,23.98515277350082L35.71830944754694,-0.4191772443422212L47.86718230012901,24.880803123982673z" style="fill:rgb(206,80,215)"/><path d="M34.847199795363146,31.76749618352314L21.04938610655176,6.939504736886481L33.552237871962625,32.05638263369477z" style="fill:rgb(123,36,216)"/><path d="M-14.301338373413886,49.07837335093399L-27.896947187211502,24.56154531216708L-29.447607113678135,22.512212426300692z" style="fill:rgb(20,59,140)"/><path d="M47.86718230012901,24.880803123982673L34.689966596955024,0.4553419711280743L46.86768117528502,25.74212691110178z" style="fill:rgb(200,75,217)"/><path d="M36.14095474497749,31.415888098218012L22.372144797239976,6.634512474130594L34.847199795363146,31.76749618352314z" style="fill:rgb(131,38,218)"/><path d="M76.93527321235022,-34.477211362962386L76.63326863046338,-35.035760774772434L34.9041720764144,-24.140085611440462zM6.1734042504262225,5.026659928719782L-33.20470002395636,14.32617005727279L-33.00299419796739,15.0463811879767z" style="fill:rgb(83,212,212)"/><path d="M89.27786513574003,-5.696236724639329L78.25628916180631,-31.53032173465302L79.03065738469047,-29.087801630298248z" style="fill:rgb(245,172,143)"/><path d="M3.966668442383872,3.1521184678810705L3.373240088246403,2.430222958329915L-33.742194116075375,11.953193273145436z" style="fill:rgb(83,212,212)"/><path d="M46.86768117528502,25.74212691110178L33.61035494528251,1.292474003352978L45.81745589732223,26.565476795136274z" style="fill:rgb(194,70,219)"/><path d="M20.701499536590358,30.969635606364175L7.971698802351441,6.007673554207978L7.041969778184023,5.5455938413927495z" style="fill:rgb(42,41,169)"/><path d="M37.428164883270775,31.00290939671812L23.694424566256032,6.266729968053955L36.14095474497749,31.415888098218012z" style="fill:rgb(138,40,220)"/><path d="M78.1350846469319,-31.81594739149164L38.55370600185042,-22.309826208587168L39.316333816149374,-21.714170826764427z" style="fill:rgb(83,212,212)"/><path d="M54.69218688429459,12.994556815487705L42.807400296357216,-12.399849890224887L42.640773918583356,-11.387214402835381z" style="fill:rgb(245,143,172)"/><path d="M45.81745589732223,26.565476795136274L32.4837871224572,2.0888270538329743L44.72069753977789,27.347516815386783z" style="fill:rgb(188,65,220)"/><path d="M38.703557380493564,30.530243999180303L25.010775712375892,5.837574386424331L37.428164883270775,31.00290939671812z" style="fill:rgb(146,43,221)"/><path d="M44.72069753977789,27.347516815386783L31.315030006330783,2.8409896486637L43.5820394895549,28.08490114604118z" style="fill:rgb(181,61,221)"/><path d="M39.961747184845414,29.999815214157596L26.31578950370445,5.348791610481335L38.703557380493564,30.530243999180303z" style="fill:rgb(153,46,222)"/><path d="M43.5820394895549,28.08490114604118L30.10877260280767,3.545905141592174L42.40605263086116,28.77463804042504z" style="fill:rgb(175,57,222)"/><path d="M41.19763106099171,29.413827045854827L27.6039611909553,4.802379883624563L39.961747184845414,29.999815214157596z" style="fill:rgb(160,49,222)"/><path d="M90.9734413364749,1.9204497440249664L79.99844860424602,-21.238631347887L91.09224495254843,4.613720747501974z" style="fill:rgb(247,155,161)"/><path d="M42.40605263086116,28.77463804042504L28.870048626102328,4.200609226412351L41.19763106099171,29.413827045854827z" style="fill:rgb(168,53,222)"/><path d="M77.25868508466073,-33.879176241275225L76.93527321235022,-34.477211362962386L35.89921396644247,-23.76883344007937zM38.472053000246866,13.036585448268543L-11.688021965178113,-15.502185945872652L-16.716411478082968,-3.006620905158293zM7.041969778184023,5.5455938413927495L-33.00299419796739,15.0463811879767L-32.81390762844664,15.721684080244794z" style="fill:rgb(83,212,212)"/><path d="M21.67581217505856,31.384264431269322L8.959062120700079,6.410909707934113L7.971698802351441,6.007673554207978z" style="fill:rgb(48,39,174)"/><path d="M7.041969778184023,5.5455938413927495L-32.81390762844664,15.721684080244794L-32.81035071662479,15.730903107194507zM4.632876691670243,3.8273782747519904L3.966668442383872,3.1521184678810705L-33.58996316602982,12.780184335245197z" style="fill:rgb(83,212,212)"/><path d="M-6.143330836043111,56.04804198938201L-22.023007644333415,29.93861404141328L-8.464117345873005,54.51593550737543z" style="fill:rgb(37,44,164)"/><path d="M54.53980979293343,14.004633708442318L42.640773918583356,-11.387214402835381L42.391824907744116,-10.363321176708597z" style="fill:rgb(244,137,177)"/><path d="M78.4081834794598,-31.051174137948113L39.316333816149374,-21.714170826764427L40.012467566439135,-21.067264855534294zM77.536560608892,-33.22667077311404L77.25868508466073,-33.879176241275225L36.841616046075686,-23.33901299736234zM7.971698802351441,6.007673554207978L-32.81035071662479,15.730903107194507L-32.568587594271044,16.36181399242425zM76.09760590090508,-36.02626323430224L76.05794402123368,-36.099562475485484L75.82716250207643,-36.44451002530372z" style="fill:rgb(83,212,212)"/><path d="M22.702208861879,31.73892800561412L10.000237440590094,6.753498438055433L8.959062120700079,6.410909707934113z" style="fill:rgb(54,37,179)"/><path d="M5.369340097804854,4.453088732757555L4.632876691670243,3.8273782747519904L-33.41541565922137,13.57354069579698z" style="fill:rgb(83,212,212)"/><path d="M54.306759613519816,15.024919408438537L42.391824907744116,-10.363321176708597L42.06141962126158,-9.332239557551242z" style="fill:rgb(242,131,182)"/><path d="M78.66200792152286,-30.250547311157725L40.012467566439135,-21.067264855534294L40.63910874806926,-20.371567091440085zM77.82878266841949,-32.53798651423803L77.536560608892,-33.22667077311404L37.72765323736395,-22.8521074686667z" style="fill:rgb(83,212,212)"/><path d="M-12.550015919077813,51.022887244606565L-26.13886046262386,26.4881961989541L-27.896947187211502,24.56154531216708z" style="fill:rgb(24,55,146)"/><path d="M8.959062120700079,6.410909707934113L-32.568587594271044,16.36181399242425L-32.34220316632764,16.952733128037416z" style="fill:rgb(83,212,212)"/><path d="M23.776571751363804,32.032017223166385L11.09104989628869,7.033871773060821L10.000237440590094,6.753498438055433z" style="fill:rgb(60,35,184)"/><path d="M90.06264187641868,-3.2444517716860175L79.03065738469047,-29.087801630298248L79.58168410037307,-26.55184659173914z" style="fill:rgb(246,166,149)"/><path d="M53.99384399375085,16.051361195840645L42.06141962126158,-9.332239557551242L41.650615108136456,-8.298144282139189z" style="fill:rgb(240,125,187)"/><path d="M6.1734042504262225,5.026659928719782L5.369340097804854,4.453088732757555L-33.20470002395636,14.32617005727279zM10.000237440590094,6.753498438055433L-32.34220316632764,16.952733128037416L-32.13204538439222,17.501113047293956zM78.92395879256189,-29.424375023747547L40.63910874806926,-20.371567091440085L41.193650208778564,-19.629593419039765z" style="fill:rgb(83,212,212)"/><path d="M91.09224495254843,4.613720747501974L79.85886913416036,-18.482117066731103L90.98344921337029,7.366833110228136z" style="fill:rgb(246,149,166)"/><path d="M78.1350846469319,-31.81594739149164L77.82878266841949,-32.53798651423803L38.55370600185042,-22.309826208587168z" style="fill:rgb(83,212,212)"/><path d="M24.894755812181646,32.26224077545242L12.227294072971114,7.250782891739148L11.09104989628869,7.033871773060821z" style="fill:rgb(66,34,189)"/><path d="M53.60206318068482,17.079803965733653L41.650615108136456,-8.298144282139189L41.160913801927904,-7.265228620220635z" style="fill:rgb(237,119,191)"/><path d="M-3.648165663867342,57.427048806009466L-19.67900695789542,31.446028881718867L-6.143330836043111,56.04804198938201z" style="fill:rgb(42,41,169)"/><path d="M11.09104989628869,7.033871773060821L-32.13204538439222,17.501113047293956L-31.93912765879626,18.004608332115286zM7.041969778184023,5.5455938413927495L6.1734042504262225,5.026659928719782L-33.00299419796739,15.0463811879767zM78.4081834794598,-31.051174137948113L78.1350846469319,-31.81594739149164L39.316333816149374,-21.714170826764427zM79.1446322074737,-28.563272722802154L41.193650208778564,-19.629593419039765L41.673659677292505,-18.84415540669169z" style="fill:rgb(83,212,212)"/><path d="M26.05216867137573,32.42849472454114L13.404303766632003,7.403178834618167L12.227294072971114,7.250782891739148z" style="fill:rgb(73,33,193)"/><path d="M12.227294072971114,7.250782891739148L-31.93912765879626,18.004608332115286L-31.90920096665871,18.082653946992036z" style="fill:rgb(83,212,212)"/><path d="M53.13284630164141,18.10607372758929L41.160913801927904,-7.265228620220635L40.59417005281813,-6.237754760639552z" style="fill:rgb(234,114,195)"/><path d="M12.227294072971114,7.250782891739148L-31.90920096665871,18.082653946992036L-31.726449480342332,18.451500627605974zM38.472053000246866,13.036585448268543L54.81174064625274,-32.92374476020252L43.60769273877426,-38.68378492115147zM7.971698802351441,6.007673554207978L7.041969778184023,5.5455938413927495L-32.81035071662479,15.730903107194507zM77.536560608892,-33.22667077311404L77.26344634112023,-33.87042535425867L77.25868508466073,-33.879176241275225z" style="fill:rgb(83,212,212)"/><path d="M27.244295927405798,32.529975042237716L14.617488328200784,7.4903068830284285L13.404303766632003,7.403178834618167z" style="fill:rgb(79,32,198)"/><path d="M13.404303766632003,7.403178834618167L-31.726449480342332,18.451500627605974L-31.52968311346025,18.848685991758zM78.66200792152286,-30.250547311157725L78.4081834794598,-31.051174137948113L40.012467566439135,-21.067264855534294z" style="fill:rgb(83,212,212)"/><path d="M52.58797159300904,19.125940848377343L40.59417005281813,-6.237754760639552L39.952487964897784,-5.21982618134696z" style="fill:rgb(230,108,199)"/><path d="M-10.60211460646456,52.83825721909338L-24.178730574564845,28.283387374994327L-26.13886046262386,26.4881961989541z" style="fill:rgb(28,51,152)"/><path d="M-6.79307097004667,18.099558425324492L-15.234327431443337,8.568249314313565L-14.75179779930155,9.472375320338266z" style="fill:rgb(23,55,145)"/><path d="M79.33778993593367,-27.674329754800645L41.673659677292505,-18.84415540669169L42.077002054355006,-18.01820964345376z" style="fill:rgb(83,212,212)"/><path d="M90.62917087597289,-0.702326333521808L79.58168410037307,-26.55184659173914L79.90534747980351,-23.932083640886052z" style="fill:rgb(247,161,155)"/><path d="M14.617488328200784,7.4903068830284285L-31.52968311346025,18.848685991758L-31.357389691112665,19.196462517871336zM8.959062120700079,6.410909707934113L7.971698802351441,6.007673554207978L-32.568587594271044,16.36181399242425z" style="fill:rgb(83,212,212)"/><path d="M28.46628061826074,32.56613153841738L15.861905696640928,7.511668461242701L14.617488328200784,7.4903068830284285z" style="fill:rgb(86,32,201)"/><path d="M51.96945303702126,20.13533368027712L39.952487964897784,-5.21982618134696L39.23842226797959,-4.215752144377942z" style="fill:rgb(226,102,203)"/><path d="M90.98344921337029,7.366833110228136L79.48539591942647,-15.67358553444536L90.64580300989428,10.16873635544951z" style="fill:rgb(245,143,172)"/><path d="M78.92395879256189,-29.424375023747547L78.66200792152286,-30.250547311157725L40.63910874806926,-20.371567091440085zM15.861905696640928,7.511668461242701L-31.357389691112665,19.196462517871336L-31.210348731531422,19.49332095001526z" style="fill:rgb(83,212,212)"/><path d="M-0.9876459849567554,58.64613365829262L-17.155171696766573,32.7981554880593L-3.648165663867342,57.427048806009466z" style="fill:rgb(48,39,174)"/><path d="M79.53445129073619,-26.769232965571586L42.077002054355006,-18.01820964345376L42.40193344110952,-17.15496003560176z" style="fill:rgb(83,212,212)"/><path d="M29.71319200504478,32.53667258950326L17.132531781713446,7.467032207952519L15.861905696640928,7.511668461242701z" style="fill:rgb(94,32,205)"/><path d="M51.279761840223735,21.129978961248167L39.23842226797959,-4.215752144377942L38.454686442907466,-3.229572839743573z" style="fill:rgb(222,96,207)"/><path d="M10.000237440590094,6.753498438055433L8.959062120700079,6.410909707934113L-32.34220316632764,16.952733128037416zM17.132531781713446,7.467032207952519L-31.210348731531422,19.49332095001526L-31.08914202540543,19.737946030474923z" style="fill:rgb(83,212,212)"/><path d="M30.97992356534596,32.44168570822259L18.424155849945066,7.35654332722485L17.132531781713446,7.467032207952519z" style="fill:rgb(101,32,208)"/><path d="M18.424155849945066,7.35654332722485L-31.08914202540543,19.737946030474923L-30.994297693527475,19.929347990275506z" style="fill:rgb(83,212,212)"/><path d="M50.521506701923684,22.10587739061789L38.454686442907466,-3.229572839743573L37.60443896350088,-2.265449444821466z" style="fill:rgb(217,91,210)"/><path d="M79.1446322074737,-28.563272722802154L78.92395879256189,-29.424375023747547L41.193650208778564,-19.629593419039765zM19.73159696795045,7.180473855278423L-30.994297693527475,19.929347990275506L-30.92628619564125,20.066657692657877zM79.67023862461559,-25.834954269941857L42.40193344110952,-17.15496003560176L42.646868409242984,-16.257637465446066zM11.09104989628869,7.033871773060821L10.000237440590094,6.753498438055433L-32.13204538439222,17.501113047293956z" style="fill:rgb(83,212,212)"/><path d="M32.261388826962076,32.281384387389785L19.73159696795045,7.180473855278423L18.424155849945066,7.35654332722485z" style="fill:rgb(108,33,211)"/><path d="M49.697748967798326,23.058916106256124L37.60443896350088,-2.265449444821466L36.69110715237784,-1.327371222417184z" style="fill:rgb(212,85,213)"/><path d="M21.04938610655176,6.939504736886481L-30.92628619564125,20.066657692657877L-30.88532235860393,20.1492795565156zM78.4081834794598,-31.051174137948113L78.25628916180631,-31.53032173465302L78.1350846469319,-31.81594739149164zM22.372144797239976,6.634512474130594L-30.88532235860393,20.1492795565156L-30.871665830310647,20.17684967022187z" style="fill:rgb(83,212,212)"/><path d="M33.552237871962625,32.05638263369477L21.04938610655176,6.939504736886481L19.73159696795045,7.180473855278423z" style="fill:rgb(116,34,214)"/><path d="M-8.464117345873005,54.51593550737543L-22.023007644333415,29.93861404141328L-24.178730574564845,28.283387374994327z" style="fill:rgb(32,47,158)"/><path d="M48.81180430163396,23.98515277350082L36.69110715237784,-1.327371222417184L35.71830944754694,-0.4191772443422212z" style="fill:rgb(206,80,215)"/><path d="M12.227294072971114,7.250782891739148L11.09104989628869,7.033871773060821L-31.93912765879626,18.004608332115286zM79.33778993593367,-27.674329754800645L79.1446322074737,-28.563272722802154L41.673659677292505,-18.84415540669169zM38.472053000246866,13.036585448268543L-16.716411478082968,-3.006620905158293L-15.234327431443337,8.568249314313565z" style="fill:rgb(83,212,212)"/><path d="M34.847199795363146,31.76749618352314L22.372144797239976,6.634512474130594L21.04938610655176,6.939504736886481z" style="fill:rgb(123,36,216)"/><path d="M47.86718230012901,24.880803123982673L35.71830944754694,-0.4191772443422212L34.689966596955024,0.4553419711280743z" style="fill:rgb(200,75,217)"/><path d="M90.64580300989428,10.16873635544951L78.87783934423572,-12.824364002149851L90.07902874040471,13.008114890395042z" style="fill:rgb(244,137,177)"/><path d="M79.787479940559,-24.886314831702904L42.646868409242984,-16.257637465446066L42.81061351149639,-15.329804410000392z" style="fill:rgb(83,212,212)"/><path d="M90.9734413364749,1.9204497440249664L79.90534747980351,-23.932083640886052L79.99844860424602,-21.238631347887z" style="fill:rgb(247,155,161)"/><path d="M36.14095474497749,31.415888098218012L23.694424566256032,6.266729968053955L22.372144797239976,6.634512474130594z" style="fill:rgb(131,38,218)"/><path d="M46.86768117528502,25.74212691110178L34.689966596955024,0.4553419711280743L33.61035494528251,1.292474003352978z" style="fill:rgb(194,70,219)"/><path d="M1.8280618364644707,59.69896270452759L-14.460587612457585,33.988237850678004L-0.9876459849567554,58.64613365829262z" style="fill:rgb(54,37,179)"/><path d="M13.404303766632003,7.403178834618167L12.227294072971114,7.250782891739148L-31.726449480342332,18.451500627605974z" style="fill:rgb(83,212,212)"/><path d="M37.428164883270775,31.00290939671812L25.010775712375892,5.837574386424331L23.694424566256032,6.266729968053955z" style="fill:rgb(138,40,220)"/><path d="M45.81745589732223,26.565476795136274L33.61035494528251,1.292474003352978L32.4837871224572,2.0888270538329743z" style="fill:rgb(188,65,220)"/><path d="M38.703557380493564,30.530243999180303L26.31578950370445,5.348791610481335L25.010775712375892,5.837574386424331z" style="fill:rgb(146,43,221)"/><path d="M44.72069753977789,27.347516815386783L32.4837871224572,2.0888270538329743L31.315030006330783,2.8409896486637z" style="fill:rgb(181,61,221)"/><path d="M79.53445129073619,-26.769232965571586L79.33778993593367,-27.674329754800645L42.077002054355006,-18.01820964345376z" style="fill:rgb(83,212,212)"/><path d="M39.961747184845414,29.999815214157596L27.6039611909553,4.802379883624563L26.31578950370445,5.348791610481335z" style="fill:rgb(153,46,222)"/><path d="M43.5820394895549,28.08490114604118L31.315030006330783,2.8409896486637L30.10877260280767,3.545905141592174z" style="fill:rgb(175,57,222)"/><path d="M41.19763106099171,29.413827045854827L28.870048626102328,4.200609226412351L27.6039611909553,4.802379883624563z" style="fill:rgb(160,49,222)"/><path d="M42.40605263086116,28.77463804042504L30.10877260280767,3.545905141592174L28.870048626102328,4.200609226412351z" style="fill:rgb(168,53,222)"/><path d="M79.90534747980351,-23.932083640886052L42.81061351149639,-15.329804410000392L42.89225091456687,-14.37504024649149zM14.617488328200784,7.4903068830284285L13.404303766632003,7.403178834618167L-31.52968311346025,18.848685991758z" style="fill:rgb(83,212,212)"/><path d="M-6.79307097004667,18.099558425324492L-7.274434853226679,17.192043350981585L-15.234327431443337,8.568249314313565z" style="fill:rgb(23,55,145)"/><path d="M15.861905696640928,7.511668461242701L14.617488328200784,7.4903068830284285L-31.357389691112665,19.196462517871336zM79.67023862461559,-25.834954269941857L79.53445129073619,-26.769232965571586L42.40193344110952,-17.15496003560176zM79.9391701738411,-22.954279579299804L42.89225091456687,-14.37504024649149L42.89127349309404,-13.397108547119307zM79.1446322074737,-28.563272722802154L79.03065738469047,-29.087801630298248L78.92395879256189,-29.424375023747547z" style="fill:rgb(83,212,212)"/><path d="M-6.143330836043111,56.04804198938201L-19.67900695789542,31.446028881718867L-22.023007644333415,29.93861404141328z" style="fill:rgb(37,44,164)"/><path d="M17.132531781713446,7.467032207952519L15.861905696640928,7.511668461242701L-31.210348731531422,19.49332095001526z" style="fill:rgb(83,212,212)"/><path d="M90.07902874040471,13.008114890395042L78.03717585815691,-9.946322572749859L89.2840043078837,15.873131855912717z" style="fill:rgb(242,131,182)"/><path d="M91.09224495254843,4.613720747501974L79.99844860424602,-21.238631347887L79.85886913416036,-18.482117066731103z" style="fill:rgb(246,149,166)"/><path d="M18.424155849945066,7.35654332722485L17.132531781713446,7.467032207952519L-31.08914202540543,19.737946030474923z" style="fill:rgb(83,212,212)"/><path d="M4.788202748845146,60.57993710923497L-11.6055128373316,35.010003182323544L1.8280618364644707,59.69896270452759z" style="fill:rgb(60,35,184)"/><path d="M79.787479940559,-24.886314831702904L79.67023862461559,-25.834954269941857L42.646868409242984,-16.257637465446066zM79.97285994662556,-21.97848270838208L42.89127349309404,-13.397108547119307L42.807400296357216,-12.399849890224887zM19.73159696795045,7.180473855278423L18.424155849945066,7.35654332722485L-30.994297693527475,19.929347990275506zM21.04938610655176,6.939504736886481L19.73159696795045,7.180473855278423L-30.92628619564125,20.066657692657877zM79.90534747980351,-23.932083640886052L79.787479940559,-24.886314831702904L42.81061351149639,-15.329804410000392zM22.372144797239976,6.634512474130594L21.04938610655176,6.939504736886481L-30.88532235860393,20.1492795565156zM79.98654237020507,-21.00346053599978L42.807400296357216,-12.399849890224887L42.640773918583356,-11.387214402835381z" style="fill:rgb(83,212,212)"/><path d="M60.49924209931873,-23.02133486103062L59.89773862098916,-9.636702333336741L60.91843632064859,-22.08295682698528z" style="fill:rgb(246,148,167)"/><path d="M38.472053000246866,13.036585448268543L60.49924209931873,-23.02133486103062L54.81174064625274,-32.92374476020252z" style="fill:rgb(83,212,212)"/><path d="M89.2840043078837,15.873131855912717L76.9653338320736,-7.051522021480855L88.26253090896303,18.75177801526655z" style="fill:rgb(240,125,187)"/><path d="M79.9391701738411,-22.954279579299804L79.90534747980351,-23.932083640886052L42.89225091456687,-14.37504024649149zM79.93685107597638,-20.022062894410745L42.640773918583356,-11.387214402835381L42.391824907744116,-10.363321176708597z" style="fill:rgb(83,212,212)"/><path d="M-3.648165663867342,57.427048806009466L-17.155171696766573,32.7981554880593L-19.67900695789542,31.446028881718867z" style="fill:rgb(42,41,169)"/><path d="M7.880960880000131,61.28417517080381L-8.600826892648103,35.857940241437845L4.788202748845146,60.57993710923497z" style="fill:rgb(66,34,189)"/><path d="M79.67023862461559,-25.834954269941857L79.58168410037307,-26.55184659173914L79.53445129073619,-26.769232965571586z" style="fill:rgb(83,212,212)"/><path d="M90.98344921337029,7.366833110228136L79.85886913416036,-18.482117066731103L79.48539591942647,-15.67358553444536z" style="fill:rgb(245,143,172)"/><path d="M79.88786060687403,-19.054624557380752L42.391824907744116,-10.363321176708597L42.06141962126158,-9.332239557551242zM79.97285994662556,-21.97848270838208L79.9391701738411,-22.954279579299804L42.89127349309404,-13.397108547119307zM79.80764107865733,-18.096830078965024L42.06141962126158,-9.332239557551242L41.650615108136456,-8.298144282139189zM79.98654237020507,-21.00346053599978L79.97285994662556,-21.97848270838208L42.807400296357216,-12.399849890224887z" style="fill:rgb(83,212,212)"/><path d="M88.26253090896303,18.75177801526655L75.66542691469226,-4.15225525320957L87.01756433913735,21.6318335071445z" style="fill:rgb(237,120,191)"/><path d="M11.093974170679088,61.80760823182854L-5.458503844004516,36.52726117066124L7.880960880000131,61.28417517080381z" style="fill:rgb(73,33,193)"/><path d="M79.6815440267518,-17.148740470630287L41.650615108136456,-8.298144282139189L41.160913801927904,-7.265228620220635z" style="fill:rgb(83,212,212)"/><path d="M-0.9876459849567554,58.64613365829262L-14.460587612457585,33.988237850678004L-17.155171696766573,32.7981554880593z" style="fill:rgb(48,39,174)"/><path d="M79.93685107597638,-20.022062894410745L79.98654237020507,-21.00346053599978L42.640773918583356,-11.387214402835381z" style="fill:rgb(83,212,212)"/><path d="M90.64580300989428,10.16873635544951L79.48539591942647,-15.67358553444536L78.87783934423572,-12.824364002149851z" style="fill:rgb(244,137,177)"/><path d="M79.55895135603933,-16.226816437861938L41.160913801927904,-7.265228620220635L40.59417005281813,-6.237754760639552zM38.472053000246866,13.036585448268543L-15.234327431443337,8.568249314313565L-7.274434853226679,17.192043350981585z" style="fill:rgb(83,212,212)"/><path d="M60.49924209931873,-23.02133486103062L59.47287194727933,-10.574634117832195L59.89773862098916,-9.636702333336741z" style="fill:rgb(246,148,167)"/><path d="M79.88786060687403,-19.054624557380752L79.93685107597638,-20.022062894410745L42.391824907744116,-10.363321176708597z" style="fill:rgb(83,212,212)"/><path d="M87.01756433913735,21.6318335071445L74.14156427579346,-1.2609740425579297L85.55303024102065,24.50093211089613z" style="fill:rgb(234,114,195)"/><path d="M79.411549624058,-15.327360089770888L40.59417005281813,-6.237754760639552L39.952487964897784,-5.21982618134696z" style="fill:rgb(83,212,212)"/><path d="M14.41402902136386,62.14682218843002L-2.1910906079053474,37.013992482765794L11.093974170679088,61.80760823182854z" style="fill:rgb(79,32,198)"/><path d="M5.966633578192199,21.22067209197058L-7.274434853226679,17.192043350981585L-6.79307097004667,18.099558425324492z" style="fill:rgb(57,36,182)"/><path d="M26.718772942642378,34.13178519843694L-30.871665830310647,20.17684967022187L-30.786200455091457,20.34941143760211zM79.80764107865733,-18.096830078965024L79.88786060687403,-19.054624557380752L42.06141962126158,-9.332239557551242zM79.22455439931134,-14.45025970798237L39.952487964897784,-5.21982618134696L39.23842226797959,-4.215752144377942z" style="fill:rgb(83,212,212)"/><path d="M1.8280618364644707,59.69896270452759L-11.6055128373316,35.010003182323544L-14.460587612457585,33.988237850678004z" style="fill:rgb(54,37,179)"/><path d="M79.98654237020507,-21.00346053599978L79.99844860424602,-21.238631347887L79.97285994662556,-21.97848270838208z" style="fill:rgb(83,212,212)"/><path d="M90.07902874040471,13.008114890395042L78.87783934423572,-12.824364002149851L78.03717585815691,-9.946322572749859z" style="fill:rgb(242,131,182)"/><path d="M79.04558101035433,-13.611064894893403L39.23842226797959,-4.215752144377942L38.454686442907466,-3.229572839743573zM26.718772942642378,34.13178519843694L-30.786200455091457,20.34941143760211L-29.447607113678135,22.512212426300692zM79.6815440267518,-17.148740470630287L79.80764107865733,-18.096830078965024L41.650615108136456,-8.298144282139189z" style="fill:rgb(83,212,212)"/><path d="M85.55303024102065,24.50093211089613L72.3991652636303,1.6096599928219903L83.87413092692911,27.346525465017486z" style="fill:rgb(230,108,199)"/><path d="M78.87452729735105,-12.813107085645868L38.454686442907466,-3.229572839743573L37.60443896350088,-2.265449444821466z" style="fill:rgb(83,212,212)"/><path d="M17.8273214918317,62.29938131083108L1.1879781974077126,37.314847096643746L14.41402902136386,62.14682218843002z" style="fill:rgb(86,32,201)"/><path d="M79.55895135603933,-16.226816437861938L79.6815440267518,-17.148740470630287L41.160913801927904,-7.265228620220635zM78.64981141612196,-12.043781387005193L37.60443896350088,-2.265449444821466L36.69110715237784,-1.327371222417184zM78.439440227023,-11.323409057333036L36.69110715237784,-1.327371222417184L35.71830944754694,-0.4191772443422212zM79.411549624058,-15.327360089770888L79.55895135603933,-16.226816437861938L40.59417005281813,-6.237754760639552zM26.718772942642378,34.13178519843694L-29.447607113678135,22.512212426300692L-27.896947187211502,24.56154531216708z" style="fill:rgb(83,212,212)"/><path d="M4.788202748845146,60.57993710923497L-8.600826892648103,35.857940241437845L-11.6055128373316,35.010003182323544z" style="fill:rgb(60,35,184)"/><path d="M78.24418048832635,-10.654995790889924L35.71830944754694,-0.4191772443422212L34.689966596955024,0.4553419711280743z" style="fill:rgb(83,212,212)"/><path d="M5.966633578192199,21.22067209197058L-6.79307097004667,18.099558425324492L6.4410912070619135,22.13390449097511z" style="fill:rgb(57,36,182)"/><path d="M89.2840043078837,15.873131855912717L78.03717585815691,-9.946322572749859L76.9653338320736,-7.051522021480855z" style="fill:rgb(240,125,187)"/><path d="M83.87413092692911,27.346525465017486L70.44453341116363,4.447109527357289L81.98693085561719,30.156197077165007z" style="fill:rgb(226,102,203)"/><path d="M78.06497446755918,-10.041430862942965L34.689966596955024,0.4553419711280743L33.61035494528251,1.292474003352978zM79.22455439931134,-14.45025970798237L79.411549624058,-15.327360089770888L39.952487964897784,-5.21982618134696zM38.472053000246866,13.036585448268543L59.47287194727933,-10.574634117832195L60.49924209931873,-23.02133486103062z" style="fill:rgb(83,212,212)"/><path d="M21.3194781595301,62.26362619473776L4.664652663830075,37.42750971183424L17.8273214918317,62.29938131083108z" style="fill:rgb(94,32,205)"/><path d="M79.80764107865733,-18.096830078965024L79.85886913416036,-18.482117066731103L79.88786060687403,-19.054624557380752zM77.86266904366022,-9.475058078668493L33.61035494528251,1.292474003352978L32.4837871224572,2.0888270538329743zM77.67481646561166,-8.967694240998549L32.4837871224572,2.0888270538329743L31.315030006330783,2.8409896486637zM77.04686573604303,-7.271770637547409L23.694424566256032,6.266729968053955L22.372144797239976,6.634512474130594zM77.51035718990649,-8.52351985596723L31.315030006330783,2.8409896486637L30.10877260280767,3.545905141592174zM79.04558101035433,-13.611064894893403L79.22455439931134,-14.45025970798237L39.23842226797959,-4.215752144377942zM77.05989126624323,-7.306963214639602L25.010775712375892,5.837574386424331L23.694424566256032,6.266729968053955zM77.37002609201933,-8.144451918895909L30.10877260280767,3.545905141592174L28.870048626102328,4.200609226412351zM77.09897507664972,-7.412448865611765L26.31578950370445,5.348791610481335L25.010775712375892,5.837574386424331zM77.25436162590213,-7.832100704496714L28.870048626102328,4.200609226412351L27.6039611909553,4.802379883624563zM77.16386562157442,-7.587729380612361L27.6039611909553,4.802379883624563L26.31578950370445,5.348791610481335zM26.718772942642378,34.13178519843694L-27.896947187211502,24.56154531216708L-26.13886046262386,26.4881961989541zM78.87452729735105,-12.813107085645868L79.04558101035433,-13.611064894893403L38.454686442907466,-3.229572839743573z" style="fill:rgb(83,212,212)"/><path d="M81.98693085561719,30.156197077165007L68.2851781306427,7.238664468432659L79.89866776607931,32.91738281095151z" style="fill:rgb(222,96,207)"/><path d="M7.880960880000131,61.28417517080381L-5.458503844004516,36.52726117066124L-8.600826892648103,35.857940241437845z" style="fill:rgb(66,34,189)"/><path d="M24.87557133232727,62.03885286240742L8.22428118351469,37.35045751464884L21.3194781595301,62.26362619473776z" style="fill:rgb(101,32,208)"/><path d="M78.64981141612196,-12.043781387005193L78.87452729735105,-12.813107085645868L37.60443896350088,-2.265449444821466z" style="fill:rgb(83,212,212)"/><path d="M59.47287194727933,-10.574634117832195L52.13721386957822,3.169926670410306L59.89773862098916,-9.636702333336741z" style="fill:rgb(231,109,199)"/><path d="M88.26253090896303,18.75177801526655L76.9653338320736,-7.051522021480855L75.66542691469226,-4.15225525320957z" style="fill:rgb(237,120,191)"/><path d="M78.439440227023,-11.323409057333036L78.64981141612196,-12.043781387005193L36.69110715237784,-1.327371222417184zM79.411549624058,-15.327360089770888L79.48539591942647,-15.67358553444536L79.55895135603933,-16.226816437861938z" style="fill:rgb(83,212,212)"/><path d="M79.89866776607931,32.91738281095151L65.92959925568618,9.971942216756686L77.61754811858927,35.61785689780815z" style="fill:rgb(217,91,210)"/><path d="M78.24418048832635,-10.654995790889924L78.439440227023,-11.323409057333036L35.71830944754694,-0.4191772443422212zM26.718772942642378,34.13178519843694L-26.13886046262386,26.4881961989541L-24.178730574564845,28.283387374994327zM38.472053000246866,13.036585448268543L-7.274434853226679,17.192043350981585L5.966633578192199,21.22067209197058z" style="fill:rgb(83,212,212)"/><path d="M28.48013663370441,61.625202626394014L11.851629713777228,37.083152527061245L24.87557133232727,62.03885286240742z" style="fill:rgb(108,33,211)"/><path d="M78.06497446755918,-10.041430862942965L78.24418048832635,-10.654995790889924L34.689966596955024,0.4553419711280743z" style="fill:rgb(83,212,212)"/><path d="M11.093974170679088,61.80760823182854L-2.1910906079053474,37.013992482765794L-5.458503844004516,36.52726117066124z" style="fill:rgb(73,33,193)"/><path d="M77.86266904366022,-9.475058078668493L78.06497446755918,-10.041430862942965L33.61035494528251,1.292474003352978z" style="fill:rgb(83,212,212)"/><path d="M87.01756433913735,21.6318335071445L75.66542691469226,-4.15225525320957L74.14156427579346,-1.2609740425579297z" style="fill:rgb(234,114,195)"/><path d="M77.61754811858927,35.61785689780815L63.387514392262176,12.634488115318634L75.15296387744505,38.245337152788096z" style="fill:rgb(212,85,213)"/><path d="M77.67481646561166,-8.967694240998549L77.86266904366022,-9.475058078668493L32.4837871224572,2.0888270538329743z" style="fill:rgb(83,212,212)"/><path d="M32.11757902831118,61.02376883063554L15.530901326913693,36.62589290646926L28.48013663370441,61.625202626394014z" style="fill:rgb(116,34,214)"/><path d="M77.51035718990649,-8.52351985596723L77.67481646561166,-8.967694240998549L31.315030006330783,2.8409896486637zM77.37002609201933,-8.144451918895909L77.51035718990649,-8.52351985596723L30.10877260280767,3.545905141592174zM26.718772942642378,34.13178519843694L-24.178730574564845,28.283387374994327L-22.023007644333415,29.93861404141328zM78.87452729735105,-12.813107085645868L78.87783934423572,-12.824364002149851L79.04558101035433,-13.611064894893403zM77.25436162590213,-7.832100704496714L77.37002609201933,-8.144451918895909L28.870048626102328,4.200609226412351zM77.16386562157442,-7.587729380612361L77.25436162590213,-7.832100704496714L27.6039611909553,4.802379883624563z" style="fill:rgb(83,212,212)"/><path d="M59.47287194727933,-10.574634117832195L51.70184288569713,2.235729285358216L52.13721386957822,3.169926670410306z" style="fill:rgb(231,109,199)"/><path d="M77.04686573604303,-7.271770637547409L77.05989126624323,-7.306963214639602L23.694424566256032,6.266729968053955zM77.09897507664972,-7.412448865611765L77.16386562157442,-7.587729380612361L26.31578950370445,5.348791610481335zM77.05989126624323,-7.306963214639602L77.09897507664972,-7.412448865611765L25.010775712375892,5.837574386424331z" style="fill:rgb(83,212,212)"/><path d="M75.15296387744505,38.245337152788096L60.66934657032906,15.21438652581939L72.5149976894445,40.78809703953584z" style="fill:rgb(206,80,215)"/><path d="M35.77187432182162,60.23660589434891L19.24614692214318,35.97993996735571L32.11757902831118,61.02376883063554z" style="fill:rgb(123,36,216)"/><path d="M26.718772942642378,34.13178519843694L77.04686573604303,-7.271770637547409L-30.871665830310647,20.17684967022187z" style="fill:rgb(83,212,212)"/><path d="M14.41402902136386,62.14682218843002L1.1879781974077126,37.314847096643746L-2.1910906079053474,37.013992482765794z" style="fill:rgb(79,32,198)"/><path d="M22.209566490042125,19.779189420941048L5.966633578192199,21.22067209197058L6.4410912070619135,22.13390449097511z" style="fill:rgb(102,32,209)"/><path d="M85.55303024102065,24.50093211089613L74.14156427579346,-1.2609740425579297L72.3991652636303,1.6096599928219903z" style="fill:rgb(230,108,199)"/><path d="M72.5149976894445,40.78809703953584L57.786730613900154,17.69975565565218L69.71491401271639,43.23444880902661z" style="fill:rgb(200,75,217)"/><path d="M39.426828587386055,59.26660388054786L22.98097026085851,35.14754230382057L35.77187432182162,60.23660589434891z" style="fill:rgb(131,38,218)"/><path d="M26.718772942642378,34.13178519843694L-22.023007644333415,29.93861404141328L-19.67900695789542,31.446028881718867zM38.472053000246866,13.036585448268543L51.70184288569713,2.235729285358216L59.47287194727933,-10.574634117832195z" style="fill:rgb(83,212,212)"/><path d="M69.71491401271639,43.23444880902661L54.751930897691395,20.07933749890139L66.76459427847436,45.573343169732084z" style="fill:rgb(194,70,219)"/><path d="M43.06615376026184,58.11770644710645L26.718772942642378,34.13178519843694L39.426828587386055,59.26660388054786z" style="fill:rgb(138,40,220)"/><path d="M17.8273214918317,62.29938131083108L4.664652663830075,37.42750971183424L1.1879781974077126,37.314847096643746z" style="fill:rgb(86,32,201)"/><path d="M77.86266904366022,-9.475058078668493L78.03717585815691,-9.946322572749859L78.06497446755918,-10.041430862942965z" style="fill:rgb(83,212,212)"/><path d="M22.209566490042125,19.779189420941048L6.4410912070619135,22.13390449097511L22.672471086634122,20.699645300100393z" style="fill:rgb(102,32,209)"/><path d="M66.76459427847436,45.573343169732084L51.57830088147569,22.34219921754296L63.67698035538809,47.7940582076571z" style="fill:rgb(188,65,220)"/><path d="M83.87413092692911,27.346525465017486L72.3991652636303,1.6096599928219903L70.44453341116363,4.447109527357289z" style="fill:rgb(226,102,203)"/><path d="M46.673574972231464,56.79466623974972L30.442865346081085,32.936811219722046L43.06615376026184,58.11770644710645z" style="fill:rgb(146,43,221)"/><path d="M63.67698035538809,47.7940582076571L48.27969715293038,24.47811570356891L60.465526020913615,49.88658665435751z" style="fill:rgb(181,61,221)"/><path d="M26.718772942642378,34.13178519843694L-19.67900695789542,31.446028881718867L-17.155171696766573,32.7981554880593z" style="fill:rgb(83,212,212)"/><path d="M50.233065538474904,55.30308019093885L34.13653826384203,31.5675852192406L46.673574972231464,56.79466623974972z" style="fill:rgb(153,46,222)"/><path d="M60.465526020913615,49.88658665435751L44.87079608350172,26.477263424538126L57.14447436334473,51.84134080734209z" style="fill:rgb(175,57,222)"/><path d="M53.728583853907885,53.649545119599395L37.78334018362921,30.029925252370507L50.233065538474904,55.30308019093885z" style="fill:rgb(160,49,222)"/><path d="M57.14447436334473,51.84134080734209L41.36679075969405,28.330646817199465L53.728583853907885,53.649545119599395z" style="fill:rgb(168,53,222)"/><path d="M38.472053000246866,13.036585448268543L5.966633578192199,21.22067209197058L22.209566490042125,19.779189420941048z" style="fill:rgb(83,212,212)"/><path d="M51.70184288569713,2.235729285358216L38.92098570911435,13.964520301618384L52.13721386957822,3.169926670410306z" style="fill:rgb(197,72,218)"/><path d="M21.3194781595301,62.26362619473776L8.22428118351469,37.35045751464884L4.664652663830075,37.42750971183424z" style="fill:rgb(94,32,205)"/><path d="M81.98693085561719,30.156197077165007L70.44453341116363,4.447109527357289L68.2851781306427,7.238664468432659z" style="fill:rgb(222,96,207)"/><path d="M26.718772942642378,34.13178519843694L-17.155171696766573,32.7981554880593L-14.460587612457585,33.988237850678004z" style="fill:rgb(83,212,212)"/><path d="M51.70184288569713,2.235729285358216L38.472053000246866,13.036585448268543L38.92098570911435,13.964520301618384z" style="fill:rgb(197,72,218)"/><path d="M38.472053000246866,13.036585448268543L22.209566490042125,19.779189420941048L22.672471086634122,20.699645300100393z" style="fill:rgb(152,45,222)"/><path d="M24.87557133232727,62.03885286240742L11.851629713777228,37.083152527061245L8.22428118351469,37.35045751464884z" style="fill:rgb(101,32,208)"/><path d="M38.472053000246866,13.036585448268543L22.672471086634122,20.699645300100393L38.92098570911435,13.964520301618384z" style="fill:rgb(152,45,222)"/><path d="M79.89866776607931,32.91738281095151L68.2851781306427,7.238664468432659L65.92959925568618,9.971942216756686z" style="fill:rgb(217,91,210)"/><path d="M26.718772942642378,34.13178519843694L-14.460587612457585,33.988237850678004L-11.6055128373316,35.010003182323544z" style="fill:rgb(83,212,212)"/><path d="M28.48013663370441,61.625202626394014L15.530901326913693,36.62589290646926L11.851629713777228,37.083152527061245z" style="fill:rgb(108,33,211)"/><path d="M77.61754811858927,35.61785689780815L65.92959925568618,9.971942216756686L63.387514392262176,12.634488115318634z" style="fill:rgb(212,85,213)"/><path d="M26.718772942642378,34.13178519843694L-11.6055128373316,35.010003182323544L-8.600826892648103,35.857940241437845z" style="fill:rgb(83,212,212)"/><path d="M32.11757902831118,61.02376883063554L19.24614692214318,35.97993996735571L15.530901326913693,36.62589290646926z" style="fill:rgb(116,34,214)"/><path d="M75.15296387744505,38.245337152788096L63.387514392262176,12.634488115318634L60.66934657032906,15.21438652581939z" style="fill:rgb(206,80,215)"/><path d="M35.77187432182162,60.23660589434891L22.98097026085851,35.14754230382057L19.24614692214318,35.97993996735571z" style="fill:rgb(123,36,216)"/><path d="M26.718772942642378,34.13178519843694L76.9653338320736,-7.051522021480855L77.04686573604303,-7.271770637547409zM26.718772942642378,34.13178519843694L-8.600826892648103,35.857940241437845L-5.458503844004516,36.52726117066124z" style="fill:rgb(83,212,212)"/><path d="M72.5149976894445,40.78809703953584L60.66934657032906,15.21438652581939L57.786730613900154,17.69975565565218z" style="fill:rgb(200,75,217)"/><path d="M26.718772942642378,34.13178519843694L75.66542691469226,-4.15225525320957L76.9653338320736,-7.051522021480855z" style="fill:rgb(83,212,212)"/><path d="M39.426828587386055,59.26660388054786L26.718772942642378,34.13178519843694L22.98097026085851,35.14754230382057z" style="fill:rgb(131,38,218)"/><path d="M69.71491401271639,43.23444880902661L57.786730613900154,17.69975565565218L54.751930897691395,20.07933749890139z" style="fill:rgb(194,70,219)"/><path d="M26.718772942642378,34.13178519843694L-5.458503844004516,36.52726117066124L-2.1910906079053474,37.013992482765794z" style="fill:rgb(83,212,212)"/><path d="M43.06615376026184,58.11770644710645L30.442865346081085,32.936811219722046L26.718772942642378,34.13178519843694z" style="fill:rgb(138,40,220)"/><path d="M66.76459427847436,45.573343169732084L54.751930897691395,20.07933749890139L51.57830088147569,22.34219921754296z" style="fill:rgb(188,65,220)"/><path d="M26.718772942642378,34.13178519843694L74.14156427579346,-1.2609740425579297L75.66542691469226,-4.15225525320957z" style="fill:rgb(83,212,212)"/><path d="M46.673574972231464,56.79466623974972L34.13653826384203,31.5675852192406L30.442865346081085,32.936811219722046z" style="fill:rgb(146,43,221)"/><path d="M63.67698035538809,47.7940582076571L51.57830088147569,22.34219921754296L48.27969715293038,24.47811570356891z" style="fill:rgb(181,61,221)"/><path d="M50.233065538474904,55.30308019093885L37.78334018362921,30.029925252370507L34.13653826384203,31.5675852192406z" style="fill:rgb(153,46,222)"/><path d="M60.465526020913615,49.88658665435751L48.27969715293038,24.47811570356891L44.87079608350172,26.477263424538126z" style="fill:rgb(175,57,222)"/><path d="M53.728583853907885,53.649545119599395L41.36679075969405,28.330646817199465L37.78334018362921,30.029925252370507z" style="fill:rgb(160,49,222)"/><path d="M57.14447436334473,51.84134080734209L44.87079608350172,26.477263424538126L41.36679075969405,28.330646817199465z" style="fill:rgb(168,53,222)"/><path d="M26.718772942642378,34.13178519843694L-2.1910906079053474,37.013992482765794L1.1879781974077126,37.314847096643746zM26.718772942642378,34.13178519843694L72.3991652636303,1.6096599928219903L74.14156427579346,-1.2609740425579297zM26.718772942642378,34.13178519843694L1.1879781974077126,37.314847096643746L4.664652663830075,37.42750971183424zM26.718772942642378,34.13178519843694L70.44453341116363,4.447109527357289L72.3991652636303,1.6096599928219903zM26.718772942642378,34.13178519843694L4.664652663830075,37.42750971183424L8.22428118351469,37.35045751464884zM26.718772942642378,34.13178519843694L68.2851781306427,7.238664468432659L70.44453341116363,4.447109527357289zM26.718772942642378,34.13178519843694L8.22428118351469,37.35045751464884L11.851629713777228,37.083152527061245zM26.718772942642378,34.13178519843694L65.92959925568618,9.971942216756686L68.2851781306427,7.238664468432659zM26.718772942642378,34.13178519843694L11.851629713777228,37.083152527061245L15.530901326913693,36.62589290646926zM26.718772942642378,34.13178519843694L63.387514392262176,12.634488115318634L65.92959925568618,9.971942216756686zM26.718772942642378,34.13178519843694L15.530901326913693,36.62589290646926L19.24614692214318,35.97993996735571zM26.718772942642378,34.13178519843694L60.66934657032906,15.21438652581939L63.387514392262176,12.634488115318634zM26.718772942642378,34.13178519843694L19.24614692214318,35.97993996735571L22.98097026085851,35.14754230382057zM26.718772942642378,34.13178519843694L57.786730613900154,17.69975565565218L60.66934657032906,15.21438652581939zM26.718772942642378,34.13178519843694L54.751930897691395,20.07933749890139L57.786730613900154,17.69975565565218zM26.718772942642378,34.13178519843694L51.57830088147569,22.34219921754296L54.751930897691395,20.07933749890139zM26.718772942642378,34.13178519843694L30.442865346081085,32.936811219722046L34.13653826384203,31.5675852192406zM26.718772942642378,34.13178519843694L48.27969715293038,24.47811570356891L51.57830088147569,22.34219921754296zM26.718772942642378,34.13178519843694L34.13653826384203,31.5675852192406L37.78334018362921,30.029925252370507zM26.718772942642378,34.13178519843694L44.87079608350172,26.477263424538126L48.27969715293038,24.47811570356891zM26.718772942642378,34.13178519843694L37.78334018362921,30.029925252370507L41.36679075969405,28.330646817199465zM26.718772942642378,34.13178519843694L41.36679075969405,28.330646817199465L44.87079608350172,26.477263424538126z" style="fill:rgb(83,212,212)"/></svg>
