<?xml version="1.0" encoding="UTF-8"?>
<!-- Generated by jsxcad -->
<!DOCTYPE svg PUBLIC "-//W3C//DTD SVG 1.1 Tiny//EN" "http://www.w3.org/Graphics/SVG/1.1/DTD/svg11-tiny.dtd">
<svg viewBox="-250 -250 500 500" width="500" height="500" xmlns="http://www.w3.org/2000/svg"><path d="M-176.32747329496328,-92.39922906628497L-156.23628579242947,-52.30084924642227L-149.82737889323792,-50.21787297838123zM-148.6618402553052,-49.83908994054706L-176.32747329496328,-92.39922906628497L-149.82737889323792,-50.21787297838123z" style="fill:rgb(54,37,179)"/><path d="M-163.65283026759593,-89.59759938533735L-148.6618402553052,-49.83908994054706L-137.35194760645805,-47.08032043390318z" style="fill:rgb(60,35,184)"/><path d="M-176.32747329496328,-92.39922906628497L-182.82042586811275,-94.30424126697858L-156.23628579242947,-52.30084924642227zM-148.6618402553052,-49.83908994054706L-175.14634124021046,-92.05272802634111L-176.32747329496328,-92.39922906628497z" style="fill:rgb(54,37,179)"/><path d="M-156.69316873617146,-88.602890661181L-137.35194760645805,-47.08032043390318L-130.52166879109936,-45.907307401764434z" style="fill:rgb(66,34,189)"/><path d="M-179.6866755712035,-74.32528427402545L-155.19081409273664,-34.91748478885293L-152.57360334702133,-32.055429555369926z" style="fill:rgb(26,52,150)"/><path d="M-125.2476241636663,-45.00156536465028L-156.69316873617146,-88.602890661181L-130.52166879109936,-45.907307401764434z" style="fill:rgb(66,34,189)"/><path d="M-163.65283026759593,-89.59759938533735L-175.14634124021046,-92.05272802634111L-148.6618402553052,-49.83908994054706z" style="fill:rgb(60,35,184)"/><path d="M-124.38241299902057,-44.90941538665529L-151.31732997238066,-87.83456560142967L-125.2476241636663,-45.00156536465028zM-120.54710363852752,-44.500971197927086L-150.43362294479994,-87.764465459242L-124.38241299902057,-44.90941538665529z" style="fill:rgb(73,33,193)"/><path d="M-176.05051237309357,-70.43227452416522L-152.5735250856314,-32.05548559370651L-148.9040900808622,-28.04275802359902z" style="fill:rgb(26,52,150)"/><path d="M-156.69316873617146,-88.602890661181L-163.65283026759593,-89.59759938533735L-137.35194760645805,-47.08032043390318z" style="fill:rgb(66,34,189)"/><path d="M-179.6866755712035,-74.32528427402545L-182.2790013148566,-77.10080195056777L-155.19081409273664,-34.91748478885293zM-171.91613700115067,-66.00557503309955L-148.90417826843952,-28.0426968083019L-144.7340530143349,-23.48243574253064z" style="fill:rgb(26,52,150)"/><path d="M-125.2476241636663,-45.00156536465028L-151.31732997238066,-87.83456560142967L-156.69316873617146,-88.602890661181z" style="fill:rgb(66,34,189)"/><path d="M-124.38241299902057,-44.90941538665529L-150.43362294479994,-87.764465459242L-151.31732997238066,-87.83456560142967z" style="fill:rgb(73,33,193)"/><path d="M-176.05051237309357,-70.43227452416522L-179.68659371754762,-74.32534172219484L-152.5735250856314,-32.05548559370651z" style="fill:rgb(26,52,150)"/><path d="M-120.54710363852752,-44.500971197927086L-146.5158393804628,-87.45371889648558L-150.43362294479994,-87.764465459242z" style="fill:rgb(73,33,193)"/><path d="M-167.27862626757135,-61.04046758729799L-144.73396427187583,-23.482492697669564L-140.05933413421673,-18.37052274815653zM-171.91613700115067,-66.00557503309955L-176.05059469753922,-70.4322116868563L-148.90417826843952,-28.0426968083019z" style="fill:rgb(26,52,150)"/><path d="M63.81388099807274,29.76488164334609L74.61232439460976,52.90029315543675L71.58819668658317,46.18991580295638zM63.81388099807274,29.76488164334609L74.61232439460976,52.90029315543675L71.58819668658317,46.18991580295638z" style="fill:rgb(243,180,133)"/><path d="M-162.1336095561523,-55.5316271394446L-140.0594633587075,-18.370428056561146L-134.87651765500834,-12.702611059034854z" style="fill:rgb(26,52,150)"/><path d="M-150.43362294479994,-87.764465459242L-146.5158393804628,-87.45371889648558L-151.31732997238066,-87.83456560142967z" style="fill:rgb(104,238,185)"/><path d="M25.415775784738937,39.216727004349586L43.921951694274085,19.95111473419794L34.53835497545888,24.23810175636674zM25.415775784738937,39.216727004349586L43.921951694274085,19.95111473419794L34.53835497545888,24.23810175636674z" style="fill:rgb(83,212,212)"/><path d="M28.157962976707744,46.0187056249867L39.750163080197325,68.74017839171451L46.87089321292257,72.59132975880456zM28.157962976707744,46.0187056249867L39.750163080197325,68.74017839171451L46.87089321292257,72.59132975880456z" style="fill:rgb(42,41,169)"/><path d="M-167.27862626757135,-61.04046758729799L-171.91605455319905,-66.00563360756979L-144.73396427187583,-23.482492697669564z" style="fill:rgb(26,52,150)"/><path d="M25.415775784738937,39.216727004349586L34.53835497545888,24.23810175636674L27.775705640693225,31.260343505547684zM25.415775784738937,39.216727004349586L34.53835497545888,24.23810175636674L27.775705640693225,31.260343505547684zM25.415775784738937,39.216727004349586L53.509160483953124,19.509173581318947L43.921951694274085,19.95111473419794zM25.415775784738937,39.216727004349586L53.509160483953124,19.509173581318947L43.921951694274085,19.95111473419794z" style="fill:rgb(83,212,212)"/><path d="M63.81388099807274,29.76488164334609L71.58819668658317,46.18991580295638L60.800169346119034,23.071459936022904zM63.81388099807274,29.76488164334609L71.58819668658317,46.18991580295638L60.800169346119034,23.071459936022904z" style="fill:rgb(243,180,133)"/><path d="M61.64379535885741,37.83748355102441L72.55865741603493,60.92961584548805L74.61232439460976,52.90029315543675zM61.64379535885741,37.83748355102441L72.55865741603493,60.92961584548805L74.61232439460976,52.90029315543675z" style="fill:rgb(243,133,180)"/><path d="M25.415775784738937,39.216727004349586L60.800169346119034,23.071459936022904L53.509160483953124,19.509173581318947zM25.415775784738937,39.216727004349586L60.800169346119034,23.071459936022904L53.509160483953124,19.509173581318947z" style="fill:rgb(83,212,212)"/><path d="M35.367248467008174,49.80578578010861L46.87089321292257,72.59132975880456L56.4700453291414,72.36761680736811zM35.367248467008174,49.80578578010861L46.87089321292257,72.59132975880456L56.4700453291414,72.36761680736811z" style="fill:rgb(96,32,206)"/><path d="M54.799451951544164,45.08454110731914L65.90805388672771,68.08503759005282L72.55865741603493,60.92961584548805zM54.799451951544164,45.08454110731914L65.90805388672771,68.08503759005282L72.55865741603493,60.92961584548805z" style="fill:rgb(212,85,213)"/><path d="M-162.1336095561523,-55.5316271394446L-167.2787614810792,-61.040374077765534L-140.0594633587075,-18.370428056561146z" style="fill:rgb(26,52,150)"/><path d="M45.14427765708398,49.48010352598183L56.4700453291414,72.36761680736811L65.90805388672771,68.08503759005282zM45.14427765708398,49.48010352598183L56.4700453291414,72.36761680736811L65.90805388672771,68.08503759005282z" style="fill:rgb(158,48,222)"/><path d="M25.415775784738937,39.216727004349586L63.81388099807274,29.76488164334609L60.800169346119034,23.071459936022904zM25.415775784738937,39.216727004349586L63.81388099807274,29.76488164334609L60.800169346119034,23.071459936022904z" style="fill:rgb(83,212,212)"/><path d="M61.64379535885741,37.83748355102441L74.61232439460976,52.90029315543675L63.81388099807274,29.76488164334609zM61.64379535885741,37.83748355102441L74.61232439460976,52.90029315543675L63.81388099807274,29.76488164334609z" style="fill:rgb(243,133,180)"/><path d="M28.157962976707744,46.0187056249867L46.87089321292257,72.59132975880456L35.367248467008174,49.80578578010861zM28.157962976707744,46.0187056249867L46.87089321292257,72.59132975880456L35.367248467008174,49.80578578010861z" style="fill:rgb(42,41,169)"/><path d="M25.415775784738937,39.216727004349586L28.157962976707744,46.0187056249867L35.367248467008174,49.80578578010861zM25.415775784738937,39.216727004349586L28.157962976707744,46.0187056249867L35.367248467008174,49.80578578010861zM25.415775784738937,39.216727004349586L61.64379535885741,37.83748355102441L63.81388099807274,29.76488164334609zM25.415775784738937,39.216727004349586L61.64379535885741,37.83748355102441L63.81388099807274,29.76488164334609z" style="fill:rgb(83,212,212)"/><path d="M54.799451951544164,45.08454110731914L72.55865741603493,60.92961584548805L61.64379535885741,37.83748355102441zM54.799451951544164,45.08454110731914L72.55865741603493,60.92961584548805L61.64379535885741,37.83748355102441z" style="fill:rgb(212,85,213)"/><path d="M35.367248467008174,49.80578578010861L56.4700453291414,72.36761680736811L45.14427765708398,49.48010352598183zM35.367248467008174,49.80578578010861L56.4700453291414,72.36761680736811L45.14427765708398,49.48010352598183z" style="fill:rgb(96,32,206)"/><path d="M25.415775784738937,39.216727004349586L35.367248467008174,49.80578578010861L45.14427765708398,49.48010352598183zM25.415775784738937,39.216727004349586L35.367248467008174,49.80578578010861L45.14427765708398,49.48010352598183z" style="fill:rgb(83,212,212)"/><path d="M45.14427765708398,49.48010352598183L65.90805388672771,68.08503759005282L54.799451951544164,45.08454110731914zM45.14427765708398,49.48010352598183L65.90805388672771,68.08503759005282L54.799451951544164,45.08454110731914z" style="fill:rgb(158,48,222)"/><path d="M-145.3177231959495,-37.52749448053199L-146.5158393804628,-87.45371889648558L-182.2790013148566,-77.10080195056777zM25.415775784738937,39.216727004349586L54.799451951544164,45.08454110731914L61.64379535885741,37.83748355102441zM25.415775784738937,39.216727004349586L54.799451951544164,45.08454110731914L61.64379535885741,37.83748355102441zM25.415775784738937,39.216727004349586L45.14427765708398,49.48010352598183L54.799451951544164,45.08454110731914zM25.415775784738937,39.216727004349586L45.14427765708398,49.48010352598183L54.799451951544164,45.08454110731914zM-145.3177231959495,-37.52749448053199L-138.18419349780592,-86.79288065005197L-146.5158393804628,-87.45371889648558z" style="fill:rgb(83,212,212)"/><path d="M-143.6023624879001,-35.69088754424848L-134.87646776715698,-12.702648625826146L-116.23943545945886,7.677929340685917zM-143.6023624879001,-35.69088754424848L-162.1335571304042,-55.531661936286234L-134.87646776715698,-12.702648625826146z" style="fill:rgb(26,52,150)"/><path d="M-145.3177231959495,-37.52749448053199L-124.3059538464981,-86.49784964307305L-138.18419349780592,-86.79288065005197z" style="fill:rgb(83,212,212)"/><path d="M-4.776025140934904,-81.70101389404252L-1.718394051109073,-50.72394724180047L7.937405698274452,-55.29702727598497z" style="fill:rgb(160,49,222)"/><path d="M-14.658956477621922,-77.00705915058L-10.71280230110932,-45.091584019301266L-1.718394051109073,-50.72394724180047z" style="fill:rgb(180,60,221)"/><path d="M5.471611603158966,-85.20702378982816L7.937405698274452,-55.29702727598497L17.96663060037561,-58.67281727173147z" style="fill:rgb(138,40,220)"/><path d="M-23.883438443456594,-71.26631965261876L-18.774533256035934,-38.565365133193524L-10.71280230110932,-45.091584019301266z" style="fill:rgb(199,74,218)"/><path d="M15.778873071799396,-87.41343897100467L17.96663060037561,-58.67281727173147L28.069830922135445,-60.743377886743275z" style="fill:rgb(116,34,214)"/><path d="M-32.17221742298625,-64.64683287735275L-25.65360607586162,-31.33587235615652L-18.774533256035934,-38.565365133193524z" style="fill:rgb(216,89,211)"/><path d="M44.722669584391596,-23.153587416006935L69.44002311102955,30.407225374069792L67.84774763533451,22.82428932633012zM44.722669584391596,-23.153587416006935L69.44002311102955,30.407225374069792L67.84774763533451,22.82428932633012z" style="fill:rgb(246,167,148)"/><path d="M-3.645309702189024,-2.948355935197604L23.389107332466978,49.371182746537144L30.450193863872283,53.713576282419716zM-3.645309702189024,-2.948355935197604L23.389107332466978,49.371182746537144L30.450193863872283,53.713576282419716z" style="fill:rgb(38,44,164)"/><path d="M-4.776025140934904,-81.70101389404252L-14.658956477621922,-77.00705915058L-1.718394051109073,-50.72394724180047z" style="fill:rgb(160,49,222)"/><path d="M25.834350610496422,-88.24100838244108L28.069830922135445,-60.743377886743275L37.94097153059125,-61.433624043395845z" style="fill:rgb(94,32,205)"/><path d="M-14.658956477621922,-77.00705915058L-23.883438443456594,-71.26631965261876L-10.71280230110932,-45.091584019301266z" style="fill:rgb(180,60,221)"/><path d="M-39.269008418435874,-57.34136467517243L-31.12685970115761,-23.616099759702408L-25.65360607586162,-31.33587235615652z" style="fill:rgb(229,106,201)"/><path d="M5.471611603158966,-85.20702378982816L-4.776025140934904,-81.70101389404252L7.937405698274452,-55.29702727598497z" style="fill:rgb(138,40,220)"/><path d="M-23.883438443456594,-71.26631965261876L-32.17221742298625,-64.64683287735275L-18.774533256035934,-38.565365133193524z" style="fill:rgb(199,74,218)"/><path d="M15.778873071799396,-87.41343897100467L5.471611603158966,-85.20702378982816L17.96663060037561,-58.67281727173147z" style="fill:rgb(116,34,214)"/><path d="M-132.4733698710118,-23.7754320694327L-109.7435332540389,-86.9701239743636L-124.3059538464981,-86.49784964307305z" style="fill:rgb(83,212,212)"/><path d="M41.656268021021035,-14.652149782433415L66.68491841945276,38.81646469267862L69.44002311102955,30.407225374069792zM41.656268021021035,-14.652149782433415L66.68491841945276,38.81646469267862L69.44002311102955,30.407225374069792z" style="fill:rgb(241,128,184)"/><path d="M3.5849832479758073,1.2261333816548166L30.450193863872283,53.713576282419716L40.073984679804504,54.736770932380864zM3.5849832479758073,1.2261333816548166L30.450193863872283,53.713576282419716L40.073984679804504,54.736770932380864z" style="fill:rgb(78,32,197)"/><path d="M-136.37788638718908,-27.955933042247743L-116.23943545945886,7.677929340685917L-108.98652580527082,15.609315571427988z" style="fill:rgb(26,52,150)"/><path d="M35.32573612554878,-87.64571853450809L37.94097153059125,-61.433624043395845L47.27291478834142,-60.7041083951469z" style="fill:rgb(74,33,194)"/><path d="M-32.17221742298625,-64.64683287735275L-39.269008418435874,-57.34136467517243L-25.65360607586162,-31.33587235615652z" style="fill:rgb(216,89,211)"/><path d="M-44.94421813523935,-49.56456971861248L-35.00385953441867,-15.638285143863829L-31.12685970115761,-23.616099759702408z" style="fill:rgb(239,123,188)"/><path d="M25.834350610496422,-88.24100838244108L15.778873071799396,-87.41343897100467L28.069830922135445,-60.743377886743275z" style="fill:rgb(94,32,205)"/><path d="M137.56567597553143,-169.69120545055756L150.6856851495079,-115.66673817159148L153.78580451902542,-120.38966336021639z" style="fill:rgb(228,104,202)"/><path d="M34.512011770117894,-6.717813488562377L60.00024621179891,46.5537701386056L66.68491841945276,38.81646469267862zM34.512011770117894,-6.717813488562377L60.00024621179891,46.5537701386056L66.68491841945276,38.81646469267862z" style="fill:rgb(216,90,210)"/><path d="M13.570723330890957,2.006439579842315L40.073984679804504,54.736770932380864L50.55853367159046,52.20503157850449zM13.570723330890957,2.006439579842315L40.073984679804504,54.736770932380864L50.55853367159046,52.20503157850449z" style="fill:rgb(127,37,217)"/><path d="M-39.269008418435874,-57.34136467517243L-44.94421813523935,-49.56456971861248L-31.12685970115761,-23.616099759702408z" style="fill:rgb(229,106,201)"/><path d="M24.545400065353824,-0.8034837696404155L50.55853367159046,52.20503157850449L60.00024621179891,46.5537701386056zM24.545400065353824,-0.8034837696404155L50.55853367159046,52.20503157850449L60.00024621179891,46.5537701386056z" style="fill:rgb(176,57,222)"/><path d="M35.32573612554878,-87.64571853450809L25.834350610496422,-88.24100838244108L37.94097153059125,-61.433624043395845z" style="fill:rgb(74,33,194)"/><path d="M43.946754144138445,-85.62206626809851L47.27291478834142,-60.7041083951469L55.76443668971025,-58.554208992225234z" style="fill:rgb(55,36,180)"/><path d="M-6.915025020816595,-9.715534298460716L18.36112026891826,-37.10149727568248L8.055556410037138,-32.772439706979675zM-6.915025020816595,-9.715534298460716L18.36112026891826,-37.10149727568248L8.055556410037138,-32.772439706979675z" style="fill:rgb(83,212,212)"/><path d="M-49.00080963720516,-41.55001409916387L-37.13371439522443,-7.649918440511767L-35.00385953441867,-15.638285143863829z" style="fill:rgb(245,141,174)"/><path d="M44.722669584391596,-23.153587416006935L67.84774763533451,22.82428932633012L43.24414881206436,-30.707190980214097zM44.722669584391596,-23.153587416006935L67.84774763533451,22.82428932633012L43.24414881206436,-30.707190980214097z" style="fill:rgb(246,167,148)"/><path d="M-6.915025020816595,-9.715534298460716L8.055556410037138,-32.772439706979675L-0.4545462133201226,-25.992220139866298zM-6.915025020816595,-9.715534298460716L8.055556410037138,-32.772439706979675L-0.4545462133201226,-25.992220139866298zM-6.915025020816595,-9.715534298460716L28.777685302080172,-38.263040111945145L18.36112026891826,-37.10149727568248zM-6.915025020816595,-9.715534298460716L28.777685302080172,-38.263040111945145L18.36112026891826,-37.10149727568248z" style="fill:rgb(83,212,212)"/><path d="M-136.37788638718908,-27.955933042247743L-143.6023624879001,-35.69088754424848L-116.23943545945886,7.677929340685917z" style="fill:rgb(26,52,150)"/><path d="M-145.3177231959495,-37.52749448053199L-132.4733698710118,-23.7754320694327L-124.3059538464981,-86.49784964307305zM-6.915025020816595,-9.715534298460716L-0.4545462133201226,-25.992220139866298L-5.756365515870367,-17.860318531256322zM-6.915025020816595,-9.715534298460716L-0.4545462133201226,-25.992220139866298L-5.756365515870367,-17.860318531256322z" style="fill:rgb(83,212,212)"/><path d="M-44.94421813523935,-49.56456971861248L-49.00080963720516,-41.55001409916387L-35.00385953441867,-15.638285143863829z" style="fill:rgb(239,123,188)"/><path d="M134.2806946988921,-164.9279950652182L135.9824911541221,-93.26685740244054L150.6856851495079,-115.66673817159148z" style="fill:rgb(228,104,202)"/><path d="M-118.70726321147788,-9.036491765806213L-94.56592806608602,-88.22528580198336L-109.7435332540389,-86.9701239743636zM-6.915025020816595,-9.715534298460716L37.578376437230396,-36.02700156173006L28.777685302080172,-38.263040111945145zM-6.915025020816595,-9.715534298460716L37.578376437230396,-36.02700156173006L28.777685302080172,-38.263040111945145z" style="fill:rgb(83,212,212)"/><path d="M43.946754144138445,-85.62206626809851L35.32573612554878,-87.64571853450809L47.27291478834142,-60.7041083951469z" style="fill:rgb(55,36,180)"/><path d="M-3.645309702189024,-2.948355935197604L30.450193863872283,53.713576282419716L3.5849832479758073,1.2261333816548166zM-3.645309702189024,-2.948355935197604L30.450193863872283,53.713576282419716L3.5849832479758073,1.2261333816548166z" style="fill:rgb(38,44,164)"/><path d="M51.40487801301111,-82.2062638364126L55.76443668971025,-58.554208992225234L63.12769066285891,-55.025130808528665z" style="fill:rgb(38,43,165)"/><path d="M18.428558962040405,-33.41384377902465L-4.797604614662448,-55.210179945818695L8.25962511601594,-28.73274169137358z" style="fill:rgb(158,48,222)"/><path d="M41.656268021021035,-14.652149782433415L69.44002311102955,30.407225374069792L44.722669584391596,-23.153587416006935zM41.656268021021035,-14.652149782433415L69.44002311102955,30.407225374069792L44.722669584391596,-23.153587416006935z" style="fill:rgb(241,128,184)"/><path d="M5.618408857398142,-59.56010118531809L8.581174858256668,-28.41426016350511L18.437023632665433,-32.95098086386594z" style="fill:rgb(158,48,222)"/><path d="M-4.474459013868164,-54.89673738163175L1.3780159208704166,-21.20841268988427L8.581174858256668,-28.41426016350511z" style="fill:rgb(212,85,213)"/><path d="M28.72168178451616,-34.133771855146925L5.615765518066627,-60.021902244171116L18.428558962040405,-33.41384377902465z" style="fill:rgb(96,32,206)"/><path d="M8.25962511601594,-28.73274169137358L-12.463594907361372,-47.68747707480297L0.82570758987934,-21.298320940057557z" style="fill:rgb(212,85,213)"/><path d="M59.501109082484476,-74.67048866955227L-4.776005864685046,-81.70102417462587L-14.658938457660303,-77.007069236705z" style="fill:rgb(83,212,212)"/><path d="M-51.67502393451224,-25.811149597075122L-37.41186678027627,0.09132803435270205L-37.13371439522443,-7.649918440511767z" style="fill:rgb(247,158,158)"/><path d="M59.501109082484476,-74.67048866955227L-14.658938457660303,-77.007069236705L-23.883438443456594,-71.26631965261876zM-6.915025020816595,-9.715534298460716L43.24414881206436,-30.707190980214097L37.578376437230396,-36.02700156173006zM-6.915025020816595,-9.715534298460716L43.24414881206436,-30.707190980214097L37.578376437230396,-36.02700156173006zM59.501109082484476,-74.67048866955227L5.471606446566517,-85.20701853456437L-4.776005864685046,-81.70102417462587z" style="fill:rgb(83,212,212)"/><path d="M-49.00080963720516,-41.55001409916387L-51.28134396897616,-33.54613038373926L-37.13371439522443,-7.649918440511767z" style="fill:rgb(245,141,174)"/><path d="M15.78393445680035,-60.391983410452866L18.437023632665433,-32.95098086386594L28.41171869329822,-33.64662612329195z" style="fill:rgb(96,32,206)"/><path d="M59.501109082484476,-74.67048866955227L-23.883438443456594,-71.26631965261876L-32.1722095691944,-64.64683779305528zM59.501109082484476,-74.67048866955227L15.778875674607951,-87.41343907955802L5.471606446566517,-85.20701853456437z" style="fill:rgb(83,212,212)"/><path d="M137.56567597553143,-169.69120545055756L134.2806946988921,-164.9279950652182L150.6856851495079,-115.66673817159148z" style="fill:rgb(228,104,202)"/><path d="M3.5849832479758073,1.2261333816548166L40.073984679804504,54.736770932380864L13.570723330890957,2.006439579842315zM3.5849832479758073,1.2261333816548166L40.073984679804504,54.736770932380864L13.570723330890957,2.006439579842315z" style="fill:rgb(78,32,197)"/><path d="M51.40487801301111,-82.2062638364126L43.946754144138445,-85.62206626809851L55.76443668971025,-58.554208992225234z" style="fill:rgb(38,43,165)"/><path d="M59.501109082484476,-74.67048866955227L-32.1722095691944,-64.64683779305528L-39.2690085160471,-57.341359642144354z" style="fill:rgb(83,212,212)"/><path d="M-11.90255606578772,-47.60526201916731L-1.277602480034321,-13.178652789193048L1.3780159208704166,-21.20841268988427z" style="fill:rgb(243,133,180)"/><path d="M34.512011770117894,-6.717813488562377L66.68491841945276,38.81646469267862L41.656268021021035,-14.652149782433415zM34.512011770117894,-6.717813488562377L66.68491841945276,38.81646469267862L41.656268021021035,-14.652149782433415z" style="fill:rgb(216,90,210)"/><path d="M57.430732956634486,-77.4790355543696L63.12769066285891,-55.025130808528665L69.09751664157477,-50.20244945242228z" style="fill:rgb(25,53,148)"/><path d="M36.46034393282704,-30.65602480199192L16.105752341377702,-60.8824544783285L28.72168178451616,-34.133771855146925z" style="fill:rgb(42,41,169)"/><path d="M59.501109082484476,-74.67048866955227L25.834371627320195,-88.24100926304249L15.778875674607951,-87.41343907955802z" style="fill:rgb(83,212,212)"/><path d="M-51.67502393451224,-25.811149597075122L-35.787667179220634,7.324263940679091L-37.41186678027627,0.09132803435270205z" style="fill:rgb(245,174,141)"/><path d="M0.82570758987934,-21.298320940057557L-15.368578681140177,-39.375684838559785L-1.9188793386192176,-13.011452604617526z" style="fill:rgb(243,133,180)"/><path d="M-51.67502393451224,-25.811149597075122L-37.13371439522443,-7.649918440511767L-51.28134396897616,-33.54613038373926z" style="fill:rgb(247,158,158)"/><path d="M-4.797604614662448,-55.210179945818695L-46.87356046327556,-45.75281910778739L-48.02368367231287,-43.48046869253117z" style="fill:rgb(83,212,212)"/><path d="M18.428558962040405,-33.41384377902465L5.615765518066627,-60.021902244171116L-4.797604614662448,-55.210179945818695z" style="fill:rgb(158,48,222)"/><path d="M-6.915025020816595,-9.715534298460716L44.722669584391596,-23.153587416006935L43.24414881206436,-30.707190980214097zM-6.915025020816595,-9.715534298460716L44.722669584391596,-23.153587416006935L43.24414881206436,-30.707190980214097z" style="fill:rgb(83,212,212)"/><path d="M5.618408857398142,-59.56010118531809L-4.474459013868164,-54.89673738163175L8.581174858256668,-28.41426016350511z" style="fill:rgb(158,48,222)"/><path d="M13.570723330890957,2.006439579842315L50.55853367159046,52.20503157850449L24.545400065353824,-0.8034837696404155zM13.570723330890957,2.006439579842315L50.55853367159046,52.20503157850449L24.545400065353824,-0.8034837696404155z" style="fill:rgb(127,37,217)"/><path d="M59.501109082484476,-74.67048866955227L-39.2690085160471,-57.341359642144354L-44.94421259651429,-49.5645797501937z" style="fill:rgb(83,212,212)"/><path d="M118.6888554784606,-142.3198199065899L129.95039098259562,-84.07721945776262L135.9824911541221,-93.26685740244054z" style="fill:rgb(228,104,202)"/><path d="M24.545400065353824,-0.8034837696404155L60.00024621179891,46.5537701386056L34.512011770117894,-6.717813488562377zM24.545400065353824,-0.8034837696404155L60.00024621179891,46.5537701386056L34.512011770117894,-6.717813488562377z" style="fill:rgb(176,57,222)"/><path d="M8.25962511601594,-28.73274169137358L-4.797604614662448,-55.210179945818695L-12.463594907361372,-47.68747707480297z" style="fill:rgb(212,85,213)"/><path d="M23.37552642690685,-57.128580328624466L28.41171869329822,-33.64662612329195L35.90708284895959,-30.27378997397191z" style="fill:rgb(42,41,169)"/><path d="M-103.98862536209317,6.72230837729688L-78.8501323762741,-90.27303916650598L-94.56592806608602,-88.22528580198336z" style="fill:rgb(83,212,212)"/><path d="M15.78393445680035,-60.391983410452866L5.618408857398142,-59.56010118531809L18.437023632665433,-32.95098086386594z" style="fill:rgb(96,32,206)"/><path d="M-6.915025020816595,-9.715534298460716L-3.645309702189024,-2.948355935197604L3.5849832479758073,1.2261333816548166zM-6.915025020816595,-9.715534298460716L-3.645309702189024,-2.948355935197604L3.5849832479758073,1.2261333816548166zM-12.463594907361372,-47.68747707480297L-48.02368367231287,-43.48046869253117L-49.00080378769167,-41.55002927693171z" style="fill:rgb(83,212,212)"/><path d="M-4.474459013868164,-54.89673738163175L-11.90255606578772,-47.60526201916731L1.3780159208704166,-21.20841268988427z" style="fill:rgb(212,85,213)"/><path d="M59.501109082484476,-74.67048866955227L35.32574413150548,-87.64571897432259L25.834371627320195,-88.24100926304249zM59.501109082484476,-74.67048866955227L-44.94421259651429,-49.5645797501937L-46.87356046327556,-45.75281910778739z" style="fill:rgb(83,212,212)"/><path d="M28.72168178451616,-34.133771855146925L16.105752341377702,-60.8824544783285L5.615765518066627,-60.021902244171116z" style="fill:rgb(96,32,206)"/><path d="M-4.797604614662448,-55.210179945818695L5.615765518066627,-60.021902244171116L-46.87356046327556,-45.75281910778739zM-12.463594907361372,-47.68747707480297L-49.00080378769167,-41.55002927693171L-50.15152050028361,-37.51143170627032z" style="fill:rgb(83,212,212)"/><path d="M57.430732956634486,-77.4790355543696L51.40487801301111,-82.2062638364126L63.12769066285891,-55.025130808528665z" style="fill:rgb(25,53,148)"/><path d="M-14.71345213011435,-39.55135039450833L1.397979779526016,-6.432600854830348L-1.277602480034321,-13.178652789193048z" style="fill:rgb(243,180,133)"/><path d="M-5.290348900601504,-33.200879198060655L10.30044854834931,-46.84513601424639L0.14360729654846946,-41.45603328903154zM-5.290348900601504,-33.200879198060655L10.30044854834931,-46.84513601424639L0.14360729654846946,-41.45603328903154zM-6.915025020816595,-9.715534298460716L41.656268021021035,-14.652149782433415L44.722669584391596,-23.153587416006935zM-6.915025020816595,-9.715534298460716L41.656268021021035,-14.652149782433415L44.722669584391596,-23.153587416006935zM-132.4733698710118,-23.7754320694327L-118.70726321147788,-9.036491765806213L-109.7435332540389,-86.9701239743636zM-12.463594907361372,-47.68747707480297L-4.797604614662448,-55.210179945818695L-48.02368367231287,-43.48046869253117z" style="fill:rgb(83,212,212)"/><path d="M0.82570758987934,-21.298320940057557L-12.463594907361372,-47.68747707480297L-15.368578681140177,-39.375684838559785z" style="fill:rgb(243,133,180)"/><path d="M-4.611799749017023,-51.06594749322148L0.14360729654846946,-41.45603328903154L10.30044854834931,-46.84513601424639zM-4.611799749017023,-51.06594749322148L0.14360729654846946,-41.45603328903154L10.30044854834931,-46.84513601424639z" style="fill:rgb(168,53,222)"/><path d="M59.501109082484476,-74.67048866955227L43.94676213595957,-85.62206648436282L35.32574413150548,-87.64571897432259z" style="fill:rgb(83,212,212)"/><path d="M23.94386508445399,-57.51778980432218L39.53693276938963,-23.82025432064685L36.46034393282704,-30.65602480199192z" style="fill:rgb(243,180,133)"/><path d="M61.788596171764524,-71.56737987582164L69.09751664157477,-50.20244945242228L73.44173955479992,-44.21759339058096z" style="fill:rgb(15,66,131)"/><path d="M-5.290348900601504,-33.200879198060655L20.563869543550837,-46.92104503194941L10.30044854834931,-46.84513601424639zM-5.290348900601504,-33.200879198060655L20.563869543550837,-46.92104503194941L10.30044854834931,-46.84513601424639zM-6.915025020816595,-9.715534298460716L3.5849832479758073,1.2261333816548166L13.570723330890957,2.006439579842315zM-6.915025020816595,-9.715534298460716L3.5849832479758073,1.2261333816548166L13.570723330890957,2.006439579842315z" style="fill:rgb(83,212,212)"/><path d="M-50.125552107660916,-18.60651806777742L-32.271237387202504,13.792264840645053L-35.787667179220634,7.324263940679091z" style="fill:rgb(239,188,123)"/><path d="M-1.9188793386192176,-13.011452604617526L-12.654701649506825,-32.455034918278216L0.8380569997812232,-6.045761512487924z" style="fill:rgb(243,180,133)"/><path d="M23.37552642690685,-57.128580328624466L15.78393445680035,-60.391983410452866L28.41171869329822,-33.64662612329195z" style="fill:rgb(42,41,169)"/><path d="M5.635917495763043,-56.50127796138024L10.30044854834931,-46.84513601424639L20.563869543550837,-46.92104503194941zM5.635917495763043,-56.50127796138024L10.30044854834931,-46.84513601424639L20.563869543550837,-46.92104503194941z" style="fill:rgb(86,32,201)"/><path d="M134.2806946988921,-164.9279950652182L118.6888554784606,-142.3198199065899L135.9824911541221,-93.26685740244054z" style="fill:rgb(228,104,202)"/><path d="M-11.90255606578772,-47.60526201916731L-14.71345213011435,-39.55135039450833L-1.277602480034321,-13.178652789193048z" style="fill:rgb(243,133,180)"/><path d="M5.618408857398142,-59.56010118531809L-4.474466326367763,-54.89672736969902L-4.594504290146909,-54.77890281344167zM-6.915025020816595,-9.715534298460716L34.512011770117894,-6.717813488562377L41.656268021021035,-14.652149782433415zM-6.915025020816595,-9.715534298460716L34.512011770117894,-6.717813488562377L41.656268021021035,-14.652149782433415zM-15.368578681140177,-39.375684838559785L-50.15152050028361,-37.51143170627032L-51.28134396897616,-33.54613038373926z" style="fill:rgb(83,212,212)"/><path d="M-111.51171954053972,-1.3324480058654524L-108.9865777477651,15.609353796869058L-84.0772096521596,42.84900432409797z" style="fill:rgb(26,52,150)"/><path d="M-4.611799749017023,-51.06594749322148L10.30044854834931,-46.84513601424639L5.635917495763043,-56.50127796138024zM-4.611799749017023,-51.06594749322148L10.30044854834931,-46.84513601424639L5.635917495763043,-56.50127796138024z" style="fill:rgb(168,53,222)"/><path d="M26.32445858970691,-50.555285860398044L38.88265331178505,-23.6496634618863L35.907074929914884,-30.27378728815998zM26.32445858970691,-50.555285860398044L38.88265331178505,-23.6496634618863L35.907074929914884,-30.27378728815998z" style="fill:rgb(243,180,133)"/><path d="M-111.51171954053972,-1.3324480058654524L-136.37794066671296,-27.955893657246925L-108.9865777477651,15.609353796869058z" style="fill:rgb(26,52,150)"/><path d="M-6.915025020816595,-9.715534298460716L13.570723330890957,2.006439579842315L24.545400065353824,-0.8034837696404155zM-6.915025020816595,-9.715534298460716L13.570723330890957,2.006439579842315L24.545400065353824,-0.8034837696404155zM-4.611799749017023,-51.06594749322148L-4.474466326367763,-54.89672736969902L-4.594504290146909,-54.77890281344167z" style="fill:rgb(83,212,212)"/><path d="M36.46034393282704,-30.65602480199192L23.94386508445399,-57.51778980432218L16.105752341377702,-60.8824544783285z" style="fill:rgb(42,41,169)"/><path d="M-4.611799749017023,-51.06594749322148L5.618408857398142,-59.56010118531809L-4.474466326367763,-54.89672736969902zM5.618408857398142,-59.56010118531809L-4.594504290146909,-54.77890281344167L-4.611799749017023,-51.06594749322148z" style="fill:rgb(83,212,212)"/><path d="M-10.120427566875314,-42.790075152540346L-5.290348900601504,-33.200879198060655L0.14360729654846946,-41.45603328903154zM-10.120427566875314,-42.790075152540346L-5.290348900601504,-33.200879198060655L0.14360729654846946,-41.45603328903154z" style="fill:rgb(231,109,199)"/><path d="M-6.915025020816595,-9.715534298460716L24.545400065353824,-0.8034837696404155L34.512011770117894,-6.717813488562377zM-6.915025020816595,-9.715534298460716L24.545400065353824,-0.8034837696404155L34.512011770117894,-6.717813488562377z" style="fill:rgb(83,212,212)"/><path d="M-51.67502393451224,-25.811149597075122L-50.125552107660916,-18.60651806777742L-35.787667179220634,7.324263940679091z" style="fill:rgb(245,174,141)"/><path d="M-15.368578681140177,-39.375684838559785L-12.463594907361372,-47.68747707480297L-50.15152050028361,-37.51143170627032zM-4.611799749017023,-51.06594749322148L5.635917495763043,-56.50127796138024L5.618408857398142,-59.56010118531809zM5.618408857398142,-59.56010118531809L-4.611799749017023,-51.06594749322148L5.635917495763043,-56.50127796138024z" style="fill:rgb(83,212,212)"/><path d="M-10.120427566875314,-42.790075152540346L0.14360729654846946,-41.45603328903154L-4.611799749017023,-51.06594749322148zM-10.120427566875314,-42.790075152540346L0.14360729654846946,-41.45603328903154L-4.611799749017023,-51.06594749322148z" style="fill:rgb(231,109,199)"/><path d="M-15.368578681140177,-39.375684838559785L-51.28134396897616,-33.54613038373926L-51.477431283794814,-29.693429650241967zM-5.290348900601504,-33.200879198060655L26.209790906671536,-41.57815634560397L20.563869543550837,-46.92104503194941zM-5.290348900601504,-33.200879198060655L26.209790906671536,-41.57815634560397L20.563869543550837,-46.92104503194941zM59.501109082484476,-74.67048866955227L51.404883567233405,-82.20626425478706L43.94676213595957,-85.62206648436282zM5.635917495763043,-56.50127796138024L15.78393445680035,-60.391983410452866L5.618408857398142,-59.56010118531809zM15.906167651782734,-60.33943795672709L5.618408857398142,-59.56010118531809L5.635917495763043,-56.50127796138024z" style="fill:rgb(83,212,212)"/><path d="M112.28651097168728,-133.0364858240243L108.53301926620895,-51.44858034256986L129.95039098259562,-84.07721945776262z" style="fill:rgb(228,104,202)"/><path d="M15.906167651782734,-60.33943795672709L15.78393445680035,-60.391983410452866L5.618408857398142,-59.56010118531809z" style="fill:rgb(83,212,212)"/><path d="M61.788596171764524,-71.56737987582164L57.430732956634486,-77.4790355543696L69.09751664157477,-50.20244945242228z" style="fill:rgb(15,66,131)"/><path d="M-10.120427566875314,-42.790075152540346L-4.594504290146909,-54.77890281344167L-10.053211807039743,-49.42055416140183zM-4.594504290146909,-54.77890281344167L-10.053211807039743,-49.42055416140183L-10.120427566875314,-42.790075152540346z" style="fill:rgb(83,212,212)"/><path d="M5.635917495763043,-56.50127796138024L20.563869543550837,-46.92104503194941L15.966349435449487,-56.628623297024035zM5.635917495763043,-56.50127796138024L20.563869543550837,-46.92104503194941L15.966349435449487,-56.628623297024035z" style="fill:rgb(86,32,201)"/><path d="M-10.120427566875314,-42.790075152540346L-4.611799749017023,-51.06594749322148L-4.594504290146909,-54.77890281344167zM-4.594504290146909,-54.77890281344167L-10.120427566875314,-42.790075152540346L-4.611799749017023,-51.06594749322148zM5.635917495763043,-56.50127796138024L15.906167651782734,-60.33943795672709L15.78393445680035,-60.391983410452866z" style="fill:rgb(83,212,212)"/><path d="M-1.9188793386192176,-13.011452604617526L-15.368578681140177,-39.375684838559785L-12.654701649506825,-32.455034918278216z" style="fill:rgb(243,180,133)"/><path d="M-88.28765419764458,23.532828440304286L-72.53405309994685,-91.3838790361622L-78.8501323762741,-90.27303916650598zM-10.053211807039743,-49.42055416140183L-11.902554800472915,-47.60525695841321L-14.71345213011435,-39.55135039450833zM-10.12044295561521,-42.79006470318887L5.635924789420888,-56.50127796138024L-4.611788759746877,-51.0659628877707zM-10.12044295561521,-42.79006470318887L5.635924789420888,-56.50127796138024L-4.611788759746877,-51.0659628877707z" style="fill:rgb(83,212,212)"/><path d="M15.966349435449487,-56.628623297024035L20.563869543550837,-46.92104503194941L26.209790906671536,-41.57815634560397zM15.966349435449487,-56.628623297024035L20.563869543550837,-46.92104503194941L26.209790906671536,-41.57815634560397z" style="fill:rgb(23,55,145)"/><path d="M5.635917495763043,-56.50127796138024L15.966349435449487,-56.628623297024035L15.906167651782734,-60.33943795672709zM15.906167651782734,-60.33943795672709L5.635917495763043,-56.50127796138024L15.966349435449487,-56.628623297024035z" style="fill:rgb(83,212,212)"/><path d="M36.431777087204715,-15.502563033469448L38.88265331178505,-23.6496634618863L26.32445858970691,-50.555285860398044zM36.431777087204715,-15.502563033469448L38.88265331178505,-23.6496634618863L26.32445858970691,-50.555285860398044zM26.993207979733455,-50.73460424852239L37.010524055117074,-15.408353806697509L39.53693276938963,-23.82025432064685z" style="fill:rgb(243,133,180)"/><path d="M73.44173955479992,-44.21759339058096L64.28820794776432,-64.64496684013493L75.97261289452571,-37.24797341569219z" style="fill:rgb(245,174,141)"/><path d="M1.3979878224300586,-6.432602840135527L8.7980447425065,-2.82048559216724L-4.590419842505194,-29.33933907352912zM1.3979878224300586,-6.432602840135527L8.7980447425065,-2.82048559216724L-4.590419842505194,-29.33933907352912z" style="fill:rgb(42,41,169)"/><path d="M26.32445858970691,-50.555285860398044L35.907074929914884,-30.27378728815998L23.37552642690685,-57.128580328624466zM26.32445858970691,-50.555285860398044L35.907074929914884,-30.27378728815998L23.37552642690685,-57.128580328624466z" style="fill:rgb(243,180,133)"/><path d="M60.73725233609903,-72.99353671363457L5.615765518066627,-60.021902244171116L16.105752341377702,-60.8824544783285z" style="fill:rgb(83,212,212)"/><path d="M-4.925985628417599,-28.827914530529245L0.8380569997812232,-6.045761512487924L8.475172568442561,-2.313045425794299z" style="fill:rgb(42,41,169)"/><path d="M-26.93881926149649,19.252866271485185L-46.63835595567903,-12.188656578801575L-32.271237387202504,13.792264840645053z" style="fill:rgb(25,53,148)"/><path d="M-10.12044295561521,-42.79006470318887L15.96633852544643,-56.62863309013309L5.635924789420888,-56.50127796138024zM-10.12044295561521,-42.79006470318887L15.96633852544643,-56.62863309013309L5.635924789420888,-56.50127796138024z" style="fill:rgb(83,212,212)"/><path d="M-14.71345213011435,-39.55135039450833L-12.079346547524365,-32.84904394570293L1.397979779526016,-6.432600854830348z" style="fill:rgb(243,180,133)"/><path d="M59.501109082484476,-74.67048866955227L57.43072732738315,-77.47904049183916L51.404883567233405,-82.20626425478706zM-5.290348900601504,-33.200879198060655L24.487009029913995,-33.215031750427265L26.209790906671536,-41.57815634560397zM-5.290348900601504,-33.200879198060655L24.487009029913995,-33.215031750427265L26.209790906671536,-41.57815634560397zM-12.654701649506825,-32.455034918278216L-51.477431283794814,-29.693429650241967L-51.67502393451224,-25.811149597075122zM15.966349435449487,-56.628623297024035L21.48020502194051,-57.94328702442555L15.906167651782734,-60.33943795672709zM21.48020502194051,-57.94328702442555L15.906167651782734,-60.33943795672709L15.966349435449487,-56.628623297024035zM-12.079338473694394,-32.84904663697006L-10.053211807039743,-49.42055416140183L-11.902554800472915,-47.60525695841321zM-5.290348900601504,-33.200879198060655L-3.4310261738039456,-25.844606096996998L5.000171642782187,-22.86897300692015zM-5.290348900601504,-33.200879198060655L-3.4310261738039456,-25.844606096996998L5.000171642782187,-22.86897300692015z" style="fill:rgb(83,212,212)"/><path d="M118.6888554784606,-142.3198199065899L112.28651097168728,-133.0364858240243L129.95039098259562,-84.07721945776262z" style="fill:rgb(228,104,202)"/><path d="M-8.284715358275491,-35.44761659798498L-3.4310261738039456,-25.844606096996998L-5.290348900601504,-33.200879198060655zM-8.284715358275491,-35.44761659798498L-3.4310261738039456,-25.844606096996998L-5.290348900601504,-33.200879198060655z" style="fill:rgb(245,173,142)"/><path d="M91.61493257404122,-103.06279007023555L96.43011465155719,-157.78305449914836L86.85867200953143,-151.76259703352557z" style="fill:rgb(83,212,212)"/><path d="M-8.284715358275491,-35.44761659798498L-5.290348900601504,-33.200879198060655L-10.120427566875314,-42.790075152540346zM-8.284715358275491,-35.44761659798498L-5.290348900601504,-33.200879198060655L-10.120427566875314,-42.790075152540346z" style="fill:rgb(245,173,142)"/><path d="M23.94386508445399,-57.51778980432218L26.993207979733455,-50.73460424852239L39.53693276938963,-23.82025432064685z" style="fill:rgb(243,180,133)"/><path d="M60.73725233609903,-72.99353671363457L59.501109082484476,-74.67048866955227L5.615765518066627,-60.021902244171116zM-12.654701649506825,-32.455034918278216L-15.368578681140177,-39.375684838559785L-51.477431283794814,-29.693429650241967z" style="fill:rgb(83,212,212)"/><path d="M-50.125552107660916,-18.60651806777742L-46.63836626810314,-12.188661849335853L-32.271237387202504,13.792264840645053z" style="fill:rgb(239,188,123)"/><path d="M-10.053211807039743,-49.42055416140183L-14.71345213011435,-39.55135039450833L-12.079338473694394,-32.84904663697006z" style="fill:rgb(83,212,212)"/><path d="M-4.590419842505194,-29.33933907352912L8.7980447425065,-2.82048559216724L18.97746588465264,-3.3987403442177317zM-4.590419842505194,-29.33933907352912L8.7980447425065,-2.82048559216724L18.97746588465264,-3.3987403442177317z" style="fill:rgb(96,32,206)"/><path d="M-12.079338473694394,-32.84904663697006L-11.902554800472915,-47.60525695841321L-14.71345213011435,-39.55135039450833zM-12.654701649506825,-32.455034918278216L-51.67502393451224,-25.811149597075122L-50.91321025241479,-22.268908538933296zM-81.817548742721,30.170614260091394L-62.6803305404914,-93.11693203893212L-72.53405309994685,-91.3838790361622z" style="fill:rgb(83,212,212)"/><path d="M15.966349435449487,-56.628623297024035L26.209790906671536,-41.57815634560397L21.624951162185127,-51.31809157883377zM15.966349435449487,-56.628623297024035L26.209790906671536,-41.57815634560397L21.624951162185127,-51.31809157883377z" style="fill:rgb(23,55,145)"/><path d="M-5.290348900601504,-33.200879198060655L16.082517148961468,-25.78050942449542L24.487009029913995,-33.215031750427265zM-5.290348900601504,-33.200879198060655L16.082517148961468,-25.78050942449542L24.487009029913995,-33.215031750427265z" style="fill:rgb(83,212,212)"/><path d="M29.133361507621036,-8.057412527237274L36.431777087204715,-15.502563033469448L23.725794612612074,-42.384113697099124zM29.133361507621036,-8.057412527237274L36.431777087204715,-15.502563033469448L23.725794612612074,-42.384113697099124z" style="fill:rgb(212,85,213)"/><path d="M-5.290348900601504,-33.200879198060655L5.000171642782187,-22.86897300692015L16.082517148961468,-25.78050942449542zM-5.290348900601504,-33.200879198060655L5.000171642782187,-22.86897300692015L16.082517148961468,-25.78050942449542zM-10.12044295561521,-42.79006470318887L21.624970426664216,-51.31807651134574L15.96633852544643,-56.62863309013309zM-10.12044295561521,-42.79006470318887L21.624970426664216,-51.31807651134574L15.96633852544643,-56.62863309013309zM91.61493257404122,-103.06279007023555L137.56567597553143,-169.69120545055756L96.43011465155719,-157.78305449914836z" style="fill:rgb(83,212,212)"/><path d="M24.314365763682748,-42.2978523609495L29.475099290954148,-7.718930738277815L37.010524055117074,-15.408353806697509z" style="fill:rgb(212,85,213)"/><path d="M73.44173955479992,-44.21759339058096L61.788596171764524,-71.56737987582164L64.28820794776432,-64.64496684013493z" style="fill:rgb(245,174,141)"/><path d="M15.966349435449487,-56.628623297024035L21.624951162185127,-51.31809157883377L21.48020502194051,-57.94328702442555zM21.48020502194051,-57.94328702442555L15.966349435449487,-56.628623297024035L21.624951162185127,-51.31809157883377z" style="fill:rgb(83,212,212)"/><path d="M5.790109056645664,-29.563447758177663L8.475172568442561,-2.313045425794299L18.98644246376933,-2.907887413533558z" style="fill:rgb(96,32,206)"/><path d="M1.3979878224300586,-6.432602840135527L-4.590419842505194,-29.33933907352912L-12.079338473694394,-32.84904663697006zM1.3979878224300586,-6.432602840135527L-4.590419842505194,-29.33933907352912L-12.079338473694394,-32.84904663697006zM-4.925985628417599,-28.827914530529245L-12.654701649506825,-32.455034918278216L0.8380569997812232,-6.045761512487924z" style="fill:rgb(42,41,169)"/><path d="M63.04911528431635,-68.07652090755894L16.105752341377702,-60.8824544783285L23.94386508445399,-57.51778980432218z" style="fill:rgb(83,212,212)"/><path d="M24.487009029913995,-33.215031750427265L26.209788376501063,-41.57815123031326L21.624970426664216,-51.31807651134574zM24.486998420295546,-33.21502387031095L26.209788376501063,-41.57815123031326L21.624970426664216,-51.31807651134574z" style="fill:rgb(245,142,173)"/><path d="M-12.079338473694394,-32.84904663697006L-10.22998941583602,-31.982378542651055L-10.053211807039743,-49.42055416140183zM-10.053211807039743,-49.42055416140183L-12.079338473694394,-32.84904663697006L-10.22998941583602,-31.982378542651055z" style="fill:rgb(83,212,212)"/><path d="M18.97746588465264,-3.3987403442177317L29.133361507621036,-8.057412527237274L16.19507061245702,-34.84630022450272zM18.97746588465264,-3.3987403442177317L29.133361507621036,-8.057412527237274L16.19507061245702,-34.84630022450272z" style="fill:rgb(158,48,222)"/><path d="M63.04911528431635,-68.07652090755894L60.73725233609903,-72.99353671363457L16.105752341377702,-60.8824544783285z" style="fill:rgb(83,212,212)"/><path d="M-8.28470321253529,-35.447624482936256L-3.4310274890169747,-25.8446112952582L5.000171642782187,-22.86897300692015zM-8.28470321253529,-35.447624482936256L-3.4310274890169747,-25.8446112952582L5.000171642782187,-22.86897300692015z" style="fill:rgb(50,38,176)"/><path d="M75.97261289452571,-37.24797341569219L64.79612905183647,-56.930167877764376L76.55786793133306,-29.51467051637215z" style="fill:rgb(247,158,158)"/><path d="M16.539021547385435,-34.51266413600295L18.98644246376933,-2.907887413533558L29.475099290954148,-7.718930738277815z" style="fill:rgb(158,48,222)"/><path d="M76.08153311846779,-80.539413763316L86.85867200953143,-151.76259703352557L71.15709725158085,-142.71352144471643z" style="fill:rgb(83,212,212)"/><path d="M-19.936605156058185,23.488731186895393L-41.286472502553934,-6.799438551838727L-26.93881926149649,19.252866271485185z" style="fill:rgb(38,43,165)"/><path d="M-118.70726321147788,-9.036491765806213L-103.98862536209317,6.72230837729688L-94.56592806608602,-88.22528580198336zM-10.22998941583602,-31.982378542651055L-8.284715358275491,-35.44761659798498L-10.120427566875314,-42.790075152540346zM-8.284715358275491,-35.44761659798498L-10.120427566875314,-42.790075152540346L-10.22998941583602,-31.982378542651055zM-4.925985628417599,-28.827914530529245L-50.91321025241479,-22.268908538933296L-50.12554243085032,-18.60650372945141z" style="fill:rgb(83,212,212)"/><path d="M0.18754245579646858,-32.51496043215505L-3.4310274890169747,-25.8446112952582L5.000160516417084,-22.86897813958435z" style="fill:rgb(50,38,176)"/><path d="M36.431777087204715,-15.502563033469448L26.32445858970691,-50.555285860398044L23.725794612612074,-42.384113697099124zM36.431777087204715,-15.502563033469448L26.32445858970691,-50.555285860398044L23.725794612612074,-42.384113697099124z" style="fill:rgb(243,133,180)"/><path d="M-71.0098451949173,32.861636398322524L-46.14753455794825,-96.7539721300295L-62.6803305404914,-93.11693203893212z" style="fill:rgb(83,212,212)"/><path d="M26.993207979733455,-50.73460424852239L24.314365763682748,-42.2978523609495L37.010524055117074,-15.408353806697509z" style="fill:rgb(243,133,180)"/><path d="M21.860920131544766,-40.517523505235935L23.37552642690685,-57.128580328624466L21.48020502194051,-57.94328702442555zM23.37552642690685,-57.128580328624466L21.48020502194051,-57.94328702442555L21.860920131544766,-40.517523505235935zM-10.12044295561521,-42.79006470318887L19.852439712305515,-42.95172862067404L21.624970426664216,-51.31807651134574zM-10.12044295561521,-42.79006470318887L19.852428982458257,-42.95172071982177L21.624970426664216,-51.31807651134574z" style="fill:rgb(83,212,212)"/><path d="M0.18754245579646858,-32.51496043215505L-8.28470321253529,-35.447624482936256L-3.4310274890169747,-25.8446112952582z" style="fill:rgb(50,38,176)"/><path d="M-10.12044295561521,-42.79006470318887L-8.28470321253529,-35.447624482936256L0.18754245579646858,-32.51496043215505zM-10.12044295561521,-42.79006470318887L-8.28470321253529,-35.447624482936256L0.18755352708228412,-32.51495806248361zM-4.925985628417599,-28.827914530529245L-12.654701649506825,-32.455034918278216L-50.91321025241479,-22.268908538933296zM-4.925985628417599,-28.827914530529245L-50.12554243085032,-18.60650372945141L-49.294660786610294,-17.07739588888288z" style="fill:rgb(83,212,212)"/><path d="M-26.93881926149649,19.252866271485185L-41.286472502553934,-6.799438551838727L-46.63835595567903,-12.188656578801575z" style="fill:rgb(25,53,148)"/><path d="M63.04911528431635,-68.07652090755894L61.788596171764524,-71.56737987582164L60.73725233609903,-72.99353671363457z" style="fill:rgb(83,212,212)"/><path d="M24.487009029913995,-33.215031750427265L21.624970426664216,-51.31807651134574L19.852439712305515,-42.95172862067404zM24.486998420295546,-33.21502387031095L21.624970426664216,-51.31807651134574L19.852428982458257,-42.95172071982177z" style="fill:rgb(245,142,173)"/><path d="M5.790109056645664,-29.563447758177663L-4.925985628417599,-28.827914530529245L8.475172568442561,-2.313045425794299z" style="fill:rgb(96,32,206)"/><path d="M-8.28470321253529,-35.447624482936256L5.000171642782187,-22.86897300692015L0.18755352708228412,-32.51495806248361zM-8.28470321253529,-35.447624482936256L5.000171642782187,-22.86897300692015L0.18755352708228412,-32.51495806248361z" style="fill:rgb(50,38,176)"/><path d="M19.852428982458257,-42.95172071982177L16.082509072536894,-25.780506732359193L24.486998420295546,-33.21502387031095z" style="fill:rgb(204,78,216)"/><path d="M-10.22998941583602,-31.982378542651055L-8.320633946607177,-31.087513422010346L-8.284715358275491,-35.44761659798498zM-8.284715358275491,-35.44761659798498L-10.22998941583602,-31.982378542651055L-8.320633946607177,-31.087513422010346zM23.37552642690685,-57.128580328624466L23.725794612612074,-42.384113697099124L26.32445858970691,-50.555285860398044z" style="fill:rgb(83,212,212)"/><path d="M75.97261289452571,-37.24797341569219L64.28820794776432,-64.64496684013493L64.79612905183647,-56.930167877764376z" style="fill:rgb(247,158,158)"/><path d="M21.860920131544766,-40.517523505235935L26.32445858970691,-50.555285860398044L23.37552642690685,-57.128580328624466z" style="fill:rgb(83,212,212)"/><path d="M-4.590419842505194,-29.33933907352912L18.97746588465264,-3.3987403442177317L5.787301726551955,-30.053898603579675zM-4.590419842505194,-29.33933907352912L18.97746588465264,-3.3987403442177317L5.787301726551955,-30.053898603579675z" style="fill:rgb(96,32,206)"/><path d="M89.52774776019342,-100.03635921579986L100.31160952578043,-38.92367703727451L108.53301926620895,-51.44858034256986z" style="fill:rgb(228,104,202)"/><path d="M-10.12044295561521,-42.79006470318887L11.35731644982509,-35.479575089330545L19.852439712305515,-42.95172862067404zM-10.12044295561521,-42.79006470318887L11.35731644982509,-35.479575089330545L19.852428982458257,-42.95172071982177zM59.67381046779999,-56.74829142608798L71.15709725158085,-142.71352144471643L54.979225058487884,-134.1893302563196z" style="fill:rgb(83,212,212)"/><path d="M11.35731644982509,-35.479575089330545L16.082509072536894,-25.780506732359193L24.487009029913995,-33.215031750427265zM11.35731644982509,-35.479575089330545L16.082509072536894,-25.780506732359193L24.487009029913995,-33.215031750427265z" style="fill:rgb(204,78,216)"/><path d="M-10.12044295561521,-42.79006470318887L0.18754245579646858,-32.51496043215505L11.35731644982509,-35.479575089330545zM-10.12044295561521,-42.79006470318887L0.18755352708228412,-32.51495806248361L11.35731644982509,-35.479575089330545z" style="fill:rgb(83,212,212)"/><path d="M5.000160516417084,-22.86897813958435L16.082509072536894,-25.780506732359193L11.35731644982509,-35.479575089330545zM5.000171642782187,-22.86897300692015L16.082509072536894,-25.780506732359193L11.35731644982509,-35.479575089330545z" style="fill:rgb(127,37,217)"/><path d="M64.54116921571233,-60.80274545606717L23.94386508445399,-57.51778980432218L26.993207979733455,-50.73460424852239zM5.790109056645664,-29.563447758177663L-49.294660786610294,-17.07739588888288L-48.30934011933216,-15.263921015194661z" style="fill:rgb(83,212,212)"/><path d="M29.133361507621036,-8.057412527237274L23.725794612612074,-42.384113697099124L16.19507061245702,-34.84630022450272zM29.133361507621036,-8.057412527237274L23.725794612612074,-42.384113697099124L16.19507061245702,-34.84630022450272z" style="fill:rgb(212,85,213)"/><path d="M64.54116921571233,-60.80274545606717L63.04911528431635,-68.07652090755894L23.94386508445399,-57.51778980432218zM0.18756120805238485,-32.51496855951827L-8.284715358275491,-35.44761659798498L-8.320633946607177,-31.087513422010346zM-8.320633946607177,-31.087513422010346L0.18756120805238485,-32.51496855951827L-8.284715358275491,-35.44761659798498z" style="fill:rgb(83,212,212)"/><path d="M24.314365763682748,-42.2978523609495L16.539021547385435,-34.51266413600295L29.475099290954148,-7.718930738277815z" style="fill:rgb(212,85,213)"/><path d="M76.55786793133306,-29.51467051637215L63.247093485524196,-48.68152125178776L75.13172979218413,-21.277644456014098z" style="fill:rgb(245,141,174)"/><path d="M-52.3248283686496,29.6581076709278L-29.348501687244454,-101.17432861589613L-46.14753455794825,-96.7539721300295z" style="fill:rgb(83,212,212)"/><path d="M18.97746588465264,-3.3987403442177317L16.19507061245702,-34.84630022450272L5.787301726551955,-30.053898603579675zM18.97746588465264,-3.3987403442177317L16.19507061245702,-34.84630022450272L5.787301726551955,-30.053898603579675z" style="fill:rgb(158,48,222)"/><path d="M-11.480862910229495,26.31901747562039L-34.21468446768118,-2.654974999348742L-19.936605156058185,23.488731186895393z" style="fill:rgb(55,36,180)"/><path d="M23.37552642690685,-57.128580328624466L21.860920131544766,-40.517523505235935L23.725794612612074,-42.384113697099124z" style="fill:rgb(83,212,212)"/><path d="M16.539021547385435,-34.51266413600295L5.790109056645664,-29.563447758177663L18.98644246376933,-2.907887413533558z" style="fill:rgb(158,48,222)"/><path d="M11.35731644982509,-35.479575089330545L24.487009029913995,-33.215031750427265L19.852439712305515,-42.95172862067404zM11.35731644982509,-35.479575089330545L24.487009029913995,-33.215031750427265L19.852439712305515,-42.95172862067404z" style="fill:rgb(204,78,216)"/><path d="M5.000160516417084,-22.86897813958435L11.35731644982509,-35.479575089330545L0.18754245579646858,-32.51496043215505zM5.000171642782187,-22.86897300692015L11.35731644982509,-35.479575089330545L0.18755352708228412,-32.51495806248361z" style="fill:rgb(127,37,217)"/><path d="M-102.15314441981073,8.687498066420451L-84.0772096521596,42.84900432409797L-74.72432592611715,53.07689232363825z" style="fill:rgb(26,52,150)"/><path d="M19.939126392193213,-38.59388016989793L21.624951162185127,-51.31809157883377L19.852453356974145,-42.95173155290439zM21.624951162185127,-51.31809157883377L19.852453356974145,-42.95173155290439L19.939126392193213,-38.59388016989793z" style="fill:rgb(83,212,212)"/><path d="M19.852428982458257,-42.95172071982177L11.35731644982509,-35.479575089330545L16.082509072536894,-25.780506732359193z" style="fill:rgb(204,78,216)"/><path d="M5.790109056645664,-29.563447758177663L-4.925985628417599,-28.827914530529245L-49.294660786610294,-17.07739588888288zM0.18756120805238485,-32.51496855951827L-8.320633946607177,-31.087513422010346L-4.590419842505194,-29.33933907352912zM19.939126392193213,-38.59388016989793L21.860920131544766,-40.517523505235935L21.624951162185127,-51.31809157883377zM21.624951162185127,-51.31809157883377L19.939126392193213,-38.59388016989793L21.860920131544766,-40.517523505235935zM-8.320633946607177,-31.087513422010346L0.188090570035858,-29.668351669740158L0.18756120805238485,-32.51496855951827z" style="fill:rgb(83,212,212)"/><path d="M112.28651097168728,-133.0364858240243L89.52774776019342,-100.03635921579986L108.53301926620895,-51.44858034256986z" style="fill:rgb(228,104,202)"/><path d="M-8.320633946607177,-31.087513422010346L-4.590419842505194,-29.33933907352912L0.188090570035858,-29.668351669740158zM21.860920131544766,-40.517523505235935L23.725794612612074,-42.384113697099124L26.32445858970691,-50.555285860398044zM64.54116921571233,-60.80274545606717L64.28820794776432,-64.64496684013493L63.04911528431635,-68.07652090755894z" style="fill:rgb(83,212,212)"/><path d="M-19.936605156058185,23.488731186895393L-34.21468446768118,-2.654974999348742L-41.286472502553934,-6.799438551838727z" style="fill:rgb(38,43,165)"/><path d="M42.39983691195595,-31.701078633910836L54.979225058487884,-134.1893302563196L38.4285765743886,-126.24512659940889zM0.18756120805238485,-32.51496855951827L-4.590419842505194,-29.33933907352912L0.188090570035858,-29.668351669740158zM-33.282953229941285,24.83407318980047L-12.384918889631802,-106.36103191717648L-29.348501687244454,-101.17432861589613zM0.188090570035858,-29.668351669740158L11.35731633129742,-35.47958558439997L0.18756120805238485,-32.51496855951827zM11.35731633129742,-35.47958558439997L0.18756120805238485,-32.51496855951827L0.188090570035858,-29.668351669740158zM19.852453356974145,-42.95173155290439L11.35731633129742,-35.47958558439997L11.389459236619846,-32.63347929491204zM11.389459236619846,-32.63347929491204L19.852453356974145,-42.95173155290439L11.35731633129742,-35.47958558439997z" style="fill:rgb(83,212,212)"/><path d="M76.55786793133306,-29.51467051637215L64.79612905183647,-56.930167877764376L63.247093485524196,-48.68152125178776z" style="fill:rgb(245,141,174)"/><path d="M11.389459236619846,-32.63347929491204L19.939126392193213,-38.59388016989793L19.852453356974145,-42.95173155290439zM19.852453356974145,-42.95173155290439L16.19507061245702,-34.84630022450272L19.939126392193213,-38.59388016989793z" style="fill:rgb(83,212,212)"/><path d="M75.13172979218413,-21.277644456014098L59.653069427901954,-40.19007278445409L71.70368363975774,-12.827907803924608z" style="fill:rgb(239,123,188)"/><path d="M64.03423888987219,-52.87305859665139L26.993207979733455,-50.73460424852239L24.314365763682748,-42.2978523609495zM11.35731633129742,-35.47958558439997L0.188090570035858,-29.668351669740158L5.787301726551955,-30.053898603579675z" style="fill:rgb(83,212,212)"/><path d="M80.78031727697903,-87.35275113201665L91.56514425314691,-25.598775198426L100.31160952578043,-38.92367703727451z" style="fill:rgb(228,104,202)"/><path d="M19.852453356974145,-42.95173155290439L11.389459236619846,-32.63347929491204L16.19507061245702,-34.84630022450272z" style="fill:rgb(83,212,212)"/><path d="M-101.27066782185452,9.632346590084135L-74.72432592611715,53.07689232363825L-73.8429980071317,54.04067162863891z" style="fill:rgb(26,52,150)"/><path d="M0.188090570035858,-29.668351669740158L11.389459236619846,-32.63347929491204L11.35731633129742,-35.47958558439997z" style="fill:rgb(83,212,212)"/><path d="M-1.854309532552988,27.610650983641612L-25.640056149899976,0.06580344654376082L-11.480862910229495,26.31901747562039z" style="fill:rgb(74,33,194)"/><path d="M64.03423888987219,-52.87305859665139L64.54116921571233,-60.80274545606717L26.993207979733455,-50.73460424852239zM11.35731633129742,-35.47958558439997L5.787301726551955,-30.053898603579675L11.389459236619846,-32.63347929491204zM0.188090570035858,-29.668351669740158L5.787301726551955,-30.053898603579675L11.389459236619846,-32.63347929491204zM11.389459236619846,-32.63347929491204L16.19507061245702,-34.84630022450272L19.939126392193213,-38.59388016989793zM-14.058643053066842,19.963823729470654L4.637812508699389,-112.2901513396681L-12.384918889631802,-106.36103191717648zM24.272234138761945,-5.416149939054808L38.4285765743886,-126.24512659940889L21.61195444011256,-118.93076707061512zM76.08153311846779,-80.539413763316L91.61493257404122,-103.06279007023555L86.85867200953143,-151.76259703352557z" style="fill:rgb(83,212,212)"/><path d="M-102.15314441981073,8.687498066420451L-111.51171954053972,-1.3324480058654524L-84.0772096521596,42.84900432409797z" style="fill:rgb(26,52,150)"/><path d="M17.14277254450259,-4.9770841626038775L-48.30934011933216,-15.263921015194661L-46.63835595567903,-12.188656578801575z" style="fill:rgb(83,212,212)"/><path d="M-11.480862910229495,26.31901747562039L-25.640056149899976,0.06580344654376082L-34.21468446768118,-2.654974999348742z" style="fill:rgb(55,36,180)"/><path d="M5.26595085780393,13.508714424496528L21.61195444011256,-118.93076707061512L4.637812508699389,-112.2901513396681zM64.03423888987219,-52.87305859665139L64.79612905183647,-56.930167877764376L64.54116921571233,-60.80274545606717zM62.38961524315377,-46.6556511453114L24.314365763682748,-42.2978523609495L16.539021547385435,-34.51266413600295zM-103.98862536209317,6.72230837729688L-88.28765419764458,23.532828440304286L-78.8501323762741,-90.27303916650598z" style="fill:rgb(83,212,212)"/><path d="M71.70368363975774,-12.827907803924608L54.10873545426557,-31.768414641625853L66.36371906844609,-4.47646739542601z" style="fill:rgb(229,106,201)"/><path d="M8.60234719170147,27.288193797171235L-15.84854347613042,1.232542396775075L-1.854309532552988,27.610650983641612z" style="fill:rgb(94,32,205)"/><path d="M75.13172979218413,-21.277644456014098L63.247093485524196,-48.68152125178776L59.653069427901954,-40.19007278445409z" style="fill:rgb(239,123,188)"/><path d="M61.37368102269063,-44.255259146061604L16.539021547385435,-34.51266413600295L5.790109056645664,-29.563447758177663zM62.38961524315377,-46.6556511453114L64.03423888987219,-52.87305859665139L24.314365763682748,-42.2978523609495zM17.14277254450259,-4.9770841626038775L-46.63835595567903,-12.188656578801575L-41.286472502553934,-6.799438551838727z" style="fill:rgb(83,212,212)"/><path d="M71.46771839484606,-73.8491337514718L82.3061147698574,-11.492476390485285L91.56539650228135,-25.59872557115882zM89.52774776019342,-100.03635921579986L80.78031727697903,-87.35275113201665L100.31160952578043,-38.92367703727451z" style="fill:rgb(228,104,202)"/><path d="M66.36371906844609,-4.47646739542601L46.793082677650915,-23.73709780873323L59.283950925316276,3.4591979742073087z" style="fill:rgb(216,89,211)"/><path d="M-92.26069495602239,19.279092699381923L-73.8429980071317,54.04067162863891L-64.85087611699356,63.87408175166995z" style="fill:rgb(26,52,150)"/><path d="M19.503052401560986,25.34116570131007L-5.18656656342175,0.7734018309381965L8.60234719170147,27.288193797171235z" style="fill:rgb(116,34,214)"/><path d="M61.37368102269063,-44.255259146061604L62.38961524315377,-46.6556511453114L16.539021547385435,-34.51266413600295z" style="fill:rgb(83,212,212)"/><path d="M-1.854309532552988,27.610650983641612L-15.84854347613042,1.232542396775075L-25.640056149899976,0.06580344654376082z" style="fill:rgb(74,33,194)"/><path d="M62.38961524315377,-46.6556511453114L63.247093485524196,-48.68152125178776L64.03423888987219,-52.87305859665139z" style="fill:rgb(83,212,212)"/><path d="M71.70368363975774,-12.827907803924608L59.653069427901954,-40.19007278445409L54.10873545426557,-31.768414641625853z" style="fill:rgb(229,106,201)"/><path d="M17.14277254450259,-4.9770841626038775L61.37368102269063,-44.255259146061604L-48.30934011933216,-15.263921015194661z" style="fill:rgb(83,212,212)"/><path d="M59.283950925316276,3.4591979742073087L37.96503935920438,-16.408967451901024L50.714415705852254,10.67060710847896z" style="fill:rgb(199,74,218)"/><path d="M30.433989003219995,21.827747450302518L5.951787600386816,-1.3176184396012454L19.503052401560986,25.34116570131007z" style="fill:rgb(138,40,220)"/><path d="M17.14277254450259,-4.9770841626038775L-41.286472502553934,-6.799438551838727L-34.21468446768118,-2.654974999348742zM59.67381046779999,-56.74829142608798L76.08153311846779,-80.539413763316L71.15709725158085,-142.71352144471643z" style="fill:rgb(83,212,212)"/><path d="M-101.27066782185452,9.632346590084135L-102.15314441981073,8.687498066420451L-74.72432592611715,53.07689232363825z" style="fill:rgb(26,52,150)"/><path d="M50.714415705852254,10.67060710847896L27.95367106760939,-10.072714064335218L40.97366920335971,16.87440249403837z" style="fill:rgb(180,60,221)"/><path d="M40.97366920335971,16.87440249403837L17.14277254450259,-4.9770841626038775L30.433989003219995,21.827747450302518z" style="fill:rgb(160,49,222)"/><path d="M8.60234719170147,27.288193797171235L-5.18656656342175,0.7734018309381965L-15.84854347613042,1.232542396775075z" style="fill:rgb(94,32,205)"/><path d="M66.36371906844609,-4.47646739542601L54.10873545426557,-31.768414641625853L46.793082677650915,-23.73709780873323z" style="fill:rgb(216,89,211)"/><path d="M80.78031727697903,-87.35275113201665L71.46745821869345,-73.84917727163158L91.56514425314691,-25.598775198426zM61.60090140942395,-59.54273480708471L72.5478930426073,3.373277989391735L82.3058153570121,-11.492539258003577z" style="fill:rgb(228,104,202)"/><path d="M-88.28765419764458,23.532828440304286L-81.817548742721,30.170614260091394L-72.53405309994685,-91.3838790361622zM17.14277254450259,-4.9770841626038775L-34.21468446768118,-2.654974999348742L-25.640056149899976,0.06580344654376082z" style="fill:rgb(83,212,212)"/><path d="M19.503052401560986,25.34116570131007L5.951787600386816,-1.3176184396012454L-5.18656656342175,0.7734018309381965z" style="fill:rgb(116,34,214)"/><path d="M-92.26069495602239,19.279092699381923L-101.27066782185452,9.632346590084135L-73.8429980071317,54.04067162863891z" style="fill:rgb(26,52,150)"/><path d="M59.283950925316276,3.4591979742073087L46.793082677650915,-23.73709780873323L37.96503935920438,-16.408967451901024z" style="fill:rgb(199,74,218)"/><path d="M17.14277254450259,-4.9770841626038775L59.653069427901954,-40.19007278445409L61.37368102269063,-44.255259146061604z" style="fill:rgb(83,212,212)"/><path d="M30.433989003219995,21.827747450302518L17.14277254450259,-4.9770841626038775L5.951787600386816,-1.3176184396012454z" style="fill:rgb(138,40,220)"/><path d="M17.14277254450259,-4.9770841626038775L-25.640056149899976,0.06580344654376082L-15.84854347613042,1.232542396775075z" style="fill:rgb(83,212,212)"/><path d="M50.714415705852254,10.67060710847896L37.96503935920438,-16.408967451901024L27.95367106760939,-10.072714064335218z" style="fill:rgb(180,60,221)"/><path d="M40.97366920335971,16.87440249403837L27.95367106760939,-10.072714064335218L17.14277254450259,-4.9770841626038775z" style="fill:rgb(160,49,222)"/><path d="M-82.21042401852687,30.03954439816125L-64.85087611699356,63.87408175166995L-54.833570994480006,74.82847830558296z" style="fill:rgb(26,52,150)"/><path d="M42.39983691195595,-31.701078633910836L59.67381046779999,-56.74829142608798L54.979225058487884,-134.1893302563196zM17.14277254450259,-4.9770841626038775L54.10873545426557,-31.768414641625853L59.653069427901954,-40.19007278445409zM-81.817548742721,30.170614260091394L-71.0098451949173,32.861636398322524L-62.6803305404914,-93.11693203893212zM17.14277254450259,-4.9770841626038775L-15.84854347613042,1.232542396775075L-5.18656656342175,0.7734018309381965z" style="fill:rgb(83,212,212)"/><path d="M71.46771839484606,-73.8491337514718L61.60120974082907,-59.5426846577346L82.3061147698574,-11.492476390485285zM51.19491510611339,-44.45355376439137L62.308287423618175,18.973626769996546L72.5482448637163,3.373354534472703z" style="fill:rgb(228,104,202)"/><path d="M17.14277254450259,-4.9770841626038775L46.793082677650915,-23.73709780873323L54.10873545426557,-31.768414641625853zM17.14277254450259,-4.9770841626038775L-5.18656656342175,0.7734018309381965L5.951787600386816,-1.3176184396012454z" style="fill:rgb(83,212,212)"/><path d="M-54.44961654082916,74.9676114992766L-82.21042401852687,30.03954439816125L-54.833570994480006,74.82847830558296z" style="fill:rgb(57,36,182)"/><path d="M17.14277254450259,-4.9770841626038775L37.96503935920438,-16.408967451901024L46.793082677650915,-23.73709780873323zM17.14277254450259,-4.9770841626038775L27.95367106760939,-10.072714064335218L37.96503935920438,-16.408967451901024zM-71.0098451949173,32.861636398322524L-52.3248283686496,29.6581076709278L-46.14753455794825,-96.7539721300295z" style="fill:rgb(83,212,212)"/><path d="M-46.01711406219883,78.023541431685L-81.817548742721,30.170614260091394L-54.44961654082916,74.9676114992766z" style="fill:rgb(57,36,182)"/><path d="M-82.21042401852687,30.03954439816125L-92.26069495602239,19.279092699381923L-64.85087611699356,63.87408175166995z" style="fill:rgb(26,52,150)"/><path d="M24.272234138761945,-5.416149939054808L42.39983691195595,-31.701078633910836L38.4285765743886,-126.24512659940889z" style="fill:rgb(83,212,212)"/><path d="M61.60090140942395,-59.54273480708471L51.19455782851973,-44.45361993670831L72.5478930426073,3.373277989391735z" style="fill:rgb(228,104,202)"/><path d="M-52.3248283686496,29.6581076709278L-33.282953229941285,24.83407318980047L-29.348501687244454,-101.17432861589613z" style="fill:rgb(83,212,212)"/><path d="M40.26489672050784,-28.605384927421575L51.605028468514334,35.27930148121398L62.308067701132224,18.97357550258143z" style="fill:rgb(228,104,202)"/><path d="M-43.20856508874687,77.83413211162325L-73.18615620978206,33.0504736686846L-46.01711406219883,78.023541431685zM-61.824360369466625,32.06470223564687L-43.20856508874687,77.83413211162325L-35.04252897753486,77.2834333745345z" style="fill:rgb(102,32,209)"/><path d="M-33.282953229941285,24.83407318980047L-14.058643053066842,19.963823729470654L-12.384918889631802,-106.36103191717648zM5.26595085780393,13.508714424496528L24.272234138761945,-5.416149939054808L21.61195444011256,-118.93076707061512z" style="fill:rgb(83,212,212)"/><path d="M-54.44961654082916,74.9676114992766L-81.817548742721,30.170614260091394L-82.21042401852687,30.03954439816125z" style="fill:rgb(57,36,182)"/><path d="M-14.058643053066842,19.963823729470654L5.26595085780393,13.508714424496528L4.637812508699389,-112.2901513396681z" style="fill:rgb(83,212,212)"/><path d="M51.19491510611339,-44.45355376439137L40.26512033338735,-28.605340138370174L62.308287423618175,18.973626769996546z" style="fill:rgb(228,104,202)"/><path d="M20.210072139721785,64.002127292468L-61.824360369466625,32.06470223564687L-35.04252897753486,77.2834333745345z" style="fill:rgb(127,37,217)"/><path d="M28.83046047656702,-12.025605624227984L40.856525547914366,51.654140368008434L51.60495913822887,35.27928598795571z" style="fill:rgb(228,104,202)"/><path d="M-46.01711406219883,78.023541431685L-73.18615620978206,33.0504736686846L-81.817548742721,30.170614260091394z" style="fill:rgb(57,36,182)"/><path d="M-43.20856508874687,77.83413211162325L-70.27896911777144,32.798232045523896L-73.18615620978206,33.0504736686846z" style="fill:rgb(102,32,209)"/><path d="M17.33700881316681,4.639843627525775L40.450782065470115,51.99003910832554L40.856525547914366,51.654140368008434z" style="fill:rgb(197,72,218)"/><path d="M-61.824360369466625,32.06470223564687L-70.27896911777144,32.798232045523896L-43.20856508874687,77.83413211162325z" style="fill:rgb(102,32,209)"/><path d="M16.90918139180188,4.986079401611085L31.57831261330589,59.33478384525707L40.450782065470115,51.99003910832554z" style="fill:rgb(197,72,218)"/><path d="M40.26489672050784,-28.605384927421575L28.83052943797275,-12.025590935215288L51.605028468514334,35.27930148121398z" style="fill:rgb(228,104,202)"/><path d="M4.499140714681068,13.827600015046665L20.210072139721785,64.002127292468L28.65703435241223,60.534133225338124zM7.552650745253007,12.557798367848712L28.65703435241223,60.534133225338124L31.57831261330589,59.33478384525707z" style="fill:rgb(152,45,222)"/><path d="M-88.28765419764458,23.532828440304286L-82.21042401852687,30.03954439816125L-81.817548742721,30.170614260091394zM-81.817548742721,30.170614260091394L-73.18615620978206,33.0504736686846L-71.0098451949173,32.861636398322524z" style="fill:rgb(83,212,212)"/><path d="M28.83046047656702,-12.025605624227984L17.33700881316681,4.639843627525775L40.856525547914366,51.654140368008434z" style="fill:rgb(228,104,202)"/><path d="M20.210072139721785,64.002127292468L-4.32972175686792,17.49911840249796L-61.824360369466625,32.06470223564687z" style="fill:rgb(127,37,217)"/><path d="M17.33700881316681,4.639843627525775L16.90918139180188,4.986079401611085L40.450782065470115,51.99003910832554zM16.90918139180188,4.986079401611085L7.552650745253007,12.557798367848712L31.57831261330589,59.33478384525707z" style="fill:rgb(197,72,218)"/><path d="M4.499140714681068,13.827600015046665L-4.32972175686792,17.49911840249796L20.210072139721785,64.002127292468z" style="fill:rgb(152,45,222)"/><path d="M-71.0098451949173,32.861636398322524L-61.824360369466625,32.06470223564687L-52.3248283686496,29.6581076709278z" style="fill:rgb(83,212,212)"/><path d="M7.552650745253007,12.557798367848712L4.499140714681068,13.827600015046665L28.65703435241223,60.534133225338124z" style="fill:rgb(152,45,222)"/><path d="M5.26595085780393,13.508714424496528L17.33700881316681,4.639843627525775L24.272234138761945,-5.416149939054808zM5.26595085780393,13.508714424496528L16.90918139180188,4.986079401611085L17.33700881316681,4.639843627525775zM-14.058643053066842,19.963823729470654L-4.32972175686792,17.49911840249796L5.26595085780393,13.508714424496528zM5.26595085780393,13.508714424496528L7.552650745253007,12.557798367848712L16.90918139180188,4.986079401611085z" style="fill:rgb(83,212,212)"/></svg>
