<?xml version="1.0" encoding="UTF-8"?>
<!-- Generated by jsxcad -->
<!DOCTYPE svg PUBLIC "-//W3C//DTD SVG 1.1 Tiny//EN" "http://www.w3.org/Graphics/SVG/1.1/DTD/svg11-tiny.dtd">
<svg viewBox="-250 -250 500 500" width="500" height="500" xmlns="http://www.w3.org/2000/svg"><path d="M-174.04117728903321,-88.76002938771293L-158.37630976230773,-55.68210590725751L-151.96017920297962,-53.61274954494758zM-150.79329440267557,-53.23643927042649L-174.04117728903321,-88.76002938771293L-151.96017920297962,-53.61274954494758zM-174.04117728903321,-88.76002938771293L-180.52735551243342,-90.68113004216032L-158.37630976230773,-55.68210590725751z" style="fill:rgb(54,37,179)"/><path d="M-161.38287522811189,-85.92805403542013L-150.79329440267557,-53.23643927042649L-139.46792888367696,-50.50095679466303z" style="fill:rgb(60,35,184)"/><path d="M-150.79329440267557,-53.23643927042649L-172.86128578380834,-88.41059671374602L-174.04117728903321,-88.76002938771293z" style="fill:rgb(54,37,179)"/><path d="M-161.38287522811189,-85.92805403542013L-172.86128578380834,-88.41059671374602L-150.79329440267557,-53.23643927042649z" style="fill:rgb(60,35,184)"/><path d="M-149.0666035419463,-84.13658321772583L-139.46792888367696,-50.50095679466303L-127.34432831799056,-48.44649798392505z" style="fill:rgb(66,34,189)"/><path d="M-177.34597983154336,-70.67607899156091L-157.3698739285198,-38.31086897744471L-154.75431802967742,-35.455216034874944z" style="fill:rgb(26,52,150)"/><path d="M-126.47758578670282,-48.35604933089767L-149.0666035419463,-84.13658321772583L-127.34432831799056,-48.44649798392505zM-122.6354504069017,-47.9551428776741L-148.18443683991728,-84.06450252668046L-126.47758578670282,-48.35604933089767z" style="fill:rgb(73,33,193)"/><path d="M-173.70638475006896,-66.77190862611766L-154.75423948079273,-35.4552721888357L-151.08698358619296,-31.45138843876711z" style="fill:rgb(26,52,150)"/><path d="M-149.0666035419463,-84.13658321772583L-161.38287522811189,-85.92805403542013L-139.46792888367696,-50.50095679466303z" style="fill:rgb(66,34,189)"/><path d="M-177.34597983154336,-70.67607899156091L-179.94083427642877,-73.45966463757249L-157.3698739285198,-38.31086897744471zM-169.56831945957722,-62.33271813883393L-151.08707209480272,-31.4513247090298L-146.91923568394978,-26.900916447267942z" style="fill:rgb(26,52,150)"/><path d="M-126.47758578670282,-48.35604933089767L-148.18443683991728,-84.06450252668046L-149.0666035419463,-84.13658321772583z" style="fill:rgb(73,33,193)"/><path d="M-173.70638475006896,-66.77190862611766L-177.34589828954006,-70.67613632039675L-154.75423948079273,-35.4552721888357z" style="fill:rgb(26,52,150)"/><path d="M-122.6354504069017,-47.9551428776741L-144.27356736795983,-83.74498890085059L-148.18443683991728,-84.06450252668046z" style="fill:rgb(73,33,193)"/><path d="M-164.92691215518045,-57.35385885653195L-146.91915688869707,-26.90097604548111L-142.24687706569716,-21.79980153218262zM-169.56831945957722,-62.33271813883393L-173.7064667592804,-66.77184100617433L-151.08707209480272,-31.4513247090298z" style="fill:rgb(26,52,150)"/><path d="M-148.18443683991728,-84.06450252668046L-144.27356736795983,-83.74498890085059L-149.0666035419463,-84.13658321772583z" style="fill:rgb(85,215,210)"/><path d="M-164.92691215518045,-57.35385885653195L-169.56823732417325,-62.332776580268515L-146.91915688869707,-26.90097604548111zM-159.77786977542587,-51.83007658319744L-142.24700676924584,-21.79970783882847L-137.0663873833089,-16.14355764810711z" style="fill:rgb(26,52,150)"/><path d="M62.229849644200044,26.371131272820076L73.10002727708431,49.66021889245151L70.07713208132584,42.951740593475286zM62.229849644200044,26.371131272820076L73.10002727708431,49.66021889245151L70.07713208132584,42.951740593475286z" style="fill:rgb(243,180,133)"/><path d="M-99.90036520946117,-34.34676352894397L-130.77767517436658,-68.02075458709035L-109.04209744779138,-31.854639032904483z" style="fill:rgb(127,37,217)"/><path d="M23.719004177066086,35.88619275401562L42.301291209457254,16.586903694190976L32.88762039642803,20.88969229873828zM23.719004177066086,35.88619275401562L42.301291209457254,16.586903694190976L32.88762039642803,20.88969229873828z" style="fill:rgb(83,212,212)"/><path d="M26.457583617136194,42.68584440683325L38.12664012668289,65.55796093370473L45.259985396855775,69.4005644909936zM26.457583617136194,42.68584440683325L38.12664012668289,65.55796093370473L45.259985396855775,69.4005644909936z" style="fill:rgb(42,41,169)"/><path d="M-109.04209744779138,-31.854639032904483L-137.36557323196254,-61.00916719501954L-115.33037582393611,-24.932634236229077z" style="fill:rgb(221,95,207)"/><path d="M23.719004177066086,35.88619275401562L32.88762039642803,20.88969229873828L26.097223630713803,27.92413845336491zM23.719004177066086,35.88619275401562L32.88762039642803,20.88969229873828L26.097223630713803,27.92413845336491zM23.719004177066086,35.88619275401562L51.91345741673032,16.12950855940117L42.301291209457254,16.586903694190976zM23.719004177066086,35.88619275401562L51.91345741673032,16.12950855940117L42.301291209457254,16.586903694190976z" style="fill:rgb(83,212,212)"/><path d="M-94.68242349439788,-30.534115915971356L-121.37936614442066,-70.68385554277212L-99.90036520946117,-34.34676352894397z" style="fill:rgb(33,47,159)"/><path d="M62.229849644200044,26.371131272820076L70.07713208132584,42.951740593475286L59.21798156874331,19.680858647502003zM62.229849644200044,26.371131272820076L70.07713208132584,42.951740593475286L59.21798156874331,19.680858647502003z" style="fill:rgb(243,180,133)"/><path d="M60.04242767083509,34.44952223848143L71.03024134100825,57.69600361633275L73.10002727708431,49.66021889245151zM60.04242767083509,34.44952223848143L71.03024134100825,57.69600361633275L73.10002727708431,49.66021889245151z" style="fill:rgb(243,133,180)"/><path d="M-159.77786977542587,-51.83007658319744L-164.92705684451505,-57.35376055569576L-142.24700676924584,-21.79970783882847z" style="fill:rgb(26,52,150)"/><path d="M23.719004177066086,35.88619275401562L59.21798156874331,19.680858647502003L51.91345741673032,16.12950855940117zM23.719004177066086,35.88619275401562L59.21798156874331,19.680858647502003L51.91345741673032,16.12950855940117z" style="fill:rgb(83,212,212)"/><path d="M33.679558000730104,46.46292520286779L45.259985396855775,69.4005644909936L54.88418414992299,69.16284100490307zM33.679558000730104,46.46292520286779L45.259985396855775,69.4005644909936L54.88418414992299,69.16284100490307z" style="fill:rgb(96,32,206)"/><path d="M-115.33037582393611,-24.932634236229077L-136.20735219725816,-54.835810431117494L-114.05171555423225,-18.703033435527498z" style="fill:rgb(244,177,137)"/><path d="M53.16951061395863,41.70972502999174L64.35261161336678,64.86447032512696L71.03024134100825,57.69600361633275zM53.16951061395863,41.70972502999174L64.35261161336678,64.86447032512696L71.03024134100825,57.69600361633275z" style="fill:rgb(212,85,213)"/><path d="M43.48249999816525,46.1219076679997L54.88418414992299,69.16284100490307L64.35261161336678,64.86447032512696zM43.48249999816525,46.1219076679997L54.88418414992299,69.16284100490307L64.35261161336678,64.86447032512696z" style="fill:rgb(158,48,222)"/><path d="M23.719004177066086,35.88619275401562L62.229849644200044,26.371131272820076L59.21798156874331,19.680858647502003zM23.719004177066086,35.88619275401562L62.229849644200044,26.371131272820076L59.21798156874331,19.680858647502003z" style="fill:rgb(83,212,212)"/><path d="M60.04242767083509,34.44952223848143L73.10002727708431,49.66021889245151L62.229849644200044,26.371131272820076zM60.04242767083509,34.44952223848143L73.10002727708431,49.66021889245151L62.229849644200044,26.371131272820076z" style="fill:rgb(243,133,180)"/><path d="M-137.36557323196254,-61.00916719501954L-128.77842156929688,-82.89688488373726L-134.2798233069661,-83.02609360193047z" style="fill:rgb(83,212,212)"/><path d="M26.457583617136194,42.68584440683325L45.259985396855775,69.4005644909936L33.679558000730104,46.46292520286779zM26.457583617136194,42.68584440683325L45.259985396855775,69.4005644909936L33.679558000730104,46.46292520286779z" style="fill:rgb(42,41,169)"/><path d="M-109.04209744779138,-31.854639032904483L-130.77767517436658,-68.02075458709035L-137.36557323196254,-61.00916719501954z" style="fill:rgb(221,95,207)"/><path d="M-142.95103026741378,-33.77947861768276L-144.27356736795983,-83.74498890085059L-179.94083427642877,-73.45966463757249z" style="fill:rgb(83,212,212)"/><path d="M-99.90036520946117,-34.34676352894397L-121.37936614442066,-70.68385554277212L-130.77767517436658,-68.02075458709035z" style="fill:rgb(127,37,217)"/><path d="M-130.77767517436658,-68.02075458709035L-122.1061580793259,-82.74016036624573L-128.77842156929688,-82.89688488373726zM23.719004177066086,35.88619275401562L26.457583617136194,42.68584440683325L33.679558000730104,46.46292520286779zM23.719004177066086,35.88619275401562L26.457583617136194,42.68584440683325L33.679558000730104,46.46292520286779zM-123.72700034076925,-70.01863128378206L-119.86287216859118,-82.80828248865382L-122.1061580793259,-82.74016036624573zM23.719004177066086,35.88619275401562L60.04242767083509,34.44952223848143L62.229849644200044,26.371131272820076zM23.719004177066086,35.88619275401562L60.04242767083509,34.44952223848143L62.229849644200044,26.371131272820076zM-121.37936614442066,-70.68385554277212L-114.22961405722788,-82.97929963938822L-119.86287216859118,-82.80828248865382z" style="fill:rgb(83,212,212)"/><path d="M53.16951061395863,41.70972502999174L71.03024134100825,57.69600361633275L60.04242767083509,34.44952223848143zM53.16951061395863,41.70972502999174L71.03024134100825,57.69600361633275L60.04242767083509,34.44952223848143z" style="fill:rgb(212,85,213)"/><path d="M-142.95103026741378,-33.77947861768276L-135.9568613266757,-83.06549412929573L-144.27356736795983,-83.74498890085059z" style="fill:rgb(83,212,212)"/><path d="M33.679558000730104,46.46292520286779L54.88418414992299,69.16284100490307L43.48249999816525,46.1219076679997zM33.679558000730104,46.46292520286779L54.88418414992299,69.16284100490307L43.48249999816525,46.1219076679997z" style="fill:rgb(96,32,206)"/><path d="M-115.33037582393611,-24.932634236229077L-137.36557323196254,-61.00916719501954L-136.20735219725816,-54.835810431117494z" style="fill:rgb(244,177,137)"/><path d="M-94.68242349439788,-30.534115915971356L-116.13501989538635,-66.99710058327294L-121.37936614442066,-70.68385554277212z" style="fill:rgb(33,47,159)"/><path d="M-137.36557323196254,-61.00916719501954L-130.77767517436658,-68.02075458709035L-128.77842156929688,-82.89688488373726zM-130.77767517436658,-68.02075458709035L-123.72700034076925,-70.01863128378206L-122.1061580793259,-82.74016036624573zM23.719004177066086,35.88619275401562L33.679558000730104,46.46292520286779L43.48249999816525,46.1219076679997zM23.719004177066086,35.88619275401562L33.679558000730104,46.46292520286779L43.48249999816525,46.1219076679997z" style="fill:rgb(83,212,212)"/><path d="M43.48249999816525,46.1219076679997L64.35261161336678,64.86447032512696L53.16951061395863,41.70972502999174zM43.48249999816525,46.1219076679997L64.35261161336678,64.86447032512696L53.16951061395863,41.70972502999174z" style="fill:rgb(158,48,222)"/><path d="M-142.95103026741378,-33.77947861768276L-134.2798233069661,-83.02609360193047L-135.9568613266757,-83.06549412929573zM23.719004177066086,35.88619275401562L53.16951061395863,41.70972502999174L60.04242767083509,34.44952223848143zM23.719004177066086,35.88619275401562L53.16951061395863,41.70972502999174L60.04242767083509,34.44952223848143zM-123.72700034076925,-70.01863128378206L-121.37936614442066,-70.68385554277212L-119.86287216859118,-82.80828248865382zM23.719004177066086,35.88619275401562L43.48249999816525,46.1219076679997L53.16951061395863,41.70972502999174zM23.719004177066086,35.88619275401562L43.48249999816525,46.1219076679997L53.16951061395863,41.70972502999174z" style="fill:rgb(83,212,212)"/><path d="M-141.23472930626778,-31.938336465459802L-137.06633699102127,-16.143595267197853L-118.43524085065907,4.197682722646388zM-141.23472930626778,-31.938336465459802L-159.7778175045162,-51.83011633160209L-137.06633699102127,-16.143595267197853z" style="fill:rgb(26,52,150)"/><path d="M-121.37936614442066,-70.68385554277212L-116.13501989538635,-66.99710058327294L-114.22961405722788,-82.97929963938822z" style="fill:rgb(83,212,212)"/><path d="M-6.642363355544179,-85.57715008274836L-3.529681151969877,-54.40280451305931L6.157924843239765,-58.99277268107003z" style="fill:rgb(160,49,222)"/><path d="M-16.558616818650925,-80.86540822261904L-12.556256831759947,-48.75519370946946L-3.529681151969877,-54.40280451305931z" style="fill:rgb(180,60,221)"/><path d="M3.6372417858525528,-89.102468129233L6.157924843239765,-58.99277268107003L16.217782429719005,-62.38664845419813z" style="fill:rgb(138,40,220)"/><path d="M-25.816930083622605,-75.10886015589267L-20.649672379528656,-42.21573753367292L-12.556256831759947,-48.75519370946946z" style="fill:rgb(199,74,218)"/><path d="M13.97430412788327,-91.32916454780775L16.217782429719005,-62.38664845419813L26.349657309660962,-64.4759794497855z" style="fill:rgb(116,34,214)"/><path d="M-34.13916944535569,-68.47593648873791L-27.55907119829589,-34.97533168257033L-20.649672379528656,-42.21573753367292z" style="fill:rgb(216,89,211)"/><path d="M42.981414421654826,-26.926781408297185L67.86983422433937,27.00471866240963L66.2841965732859,19.422366080927944zM42.981414421654826,-26.926781408297185L67.86983422433937,27.00471866240963L66.2841965732859,19.422366080927944z" style="fill:rgb(246,167,148)"/><path d="M-5.549334190837359,-6.6332138000417915L21.67135869316267,46.046823285129314L28.74380624781803,50.379739697313966zM-5.549334190837359,-6.6332138000417915L21.67135869316267,46.046823285129314L28.74380624781803,50.379739697313966z" style="fill:rgb(38,44,164)"/><path d="M-142.95103026741378,-33.77947861768276L-141.41313186984792,-32.129715832614885L-134.2798233069661,-83.02609360193047z" style="fill:rgb(83,212,212)"/><path d="M-6.642363355544179,-85.57715008274836L-16.558616818650925,-80.86540822261904L-3.529681151969877,-54.40280451305931z" style="fill:rgb(160,49,222)"/><path d="M24.056631146422017,-92.17738977172488L26.349657309660962,-64.4759794497855L36.246754895083825,-65.1851016652849z" style="fill:rgb(94,32,205)"/><path d="M-141.41313186984792,-32.129715832614885L-136.20735219725816,-54.835810431117494L-137.36557323196254,-61.00916719501954z" style="fill:rgb(83,212,212)"/><path d="M-16.558616818650925,-80.86540822261904L-25.816930083622605,-75.10886015589267L-12.556256831759947,-48.75519370946946z" style="fill:rgb(180,60,221)"/><path d="M-41.268131180821385,-61.159710843459735L-33.06038922060234,-27.247208315321284L-27.55907119829589,-34.97533168257033z" style="fill:rgb(229,106,201)"/><path d="M3.6372417858525528,-89.102468129233L-6.642363355544179,-85.57715008274836L6.157924843239765,-58.99277268107003z" style="fill:rgb(138,40,220)"/><path d="M-25.816930083622605,-75.10886015589267L-34.13916944535569,-68.47593648873791L-20.649672379528656,-42.21573753367292z" style="fill:rgb(199,74,218)"/><path d="M-122.68686128970933,-12.041439343998276L-107.57533201588647,-83.18132416977862L-114.22961405722788,-82.97929963938822z" style="fill:rgb(83,212,212)"/><path d="M-134.00673097681695,-24.184678734034463L-118.43524085065907,4.197682722646388L-111.18361354075364,12.114896668967518z" style="fill:rgb(26,52,150)"/><path d="M13.97430412788327,-91.32916454780775L3.6372417858525528,-89.102468129233L16.217782429719005,-62.38664845419813z" style="fill:rgb(116,34,214)"/><path d="M39.89244874223597,-18.42019933599939L65.09544693808536,35.42087854604002L67.86983422433937,27.00471866240963zM39.89244874223597,-18.42019933599939L65.09544693808536,35.42087854604002L67.86983422433937,27.00471866240963z" style="fill:rgb(241,128,184)"/><path d="M1.692102430395567,-2.472060197641278L28.74380624781803,50.379739697313966L38.39103754279024,51.38840364808843zM1.692102430395567,-2.472060197641278L28.74380624781803,50.379739697313966L38.39103754279024,51.38840364808843z" style="fill:rgb(78,32,197)"/><path d="M33.57115578021764,-91.60242017893867L36.246754895083825,-65.1851016652849L45.6012044763219,-64.47392829149143z" style="fill:rgb(74,33,194)"/><path d="M-139.6102026865406,-30.195685135840403L-128.05071296119144,-54.19391964009557L-136.20735219725816,-54.835810431117494z" style="fill:rgb(83,212,212)"/><path d="M-34.13916944535569,-68.47593648873791L-41.268131180821385,-61.159710843459735L-27.55907119829589,-34.97533168257033z" style="fill:rgb(216,89,211)"/><path d="M-46.973272883984116,-53.37506644396208L-36.96227457742927,-19.263798151632344L-33.06038922060234,-27.247208315321284z" style="fill:rgb(239,123,188)"/><path d="M24.056631146422017,-92.17738977172488L13.97430412788327,-91.32916454780775L26.349657309660962,-64.4759794497855z" style="fill:rgb(94,32,205)"/><path d="M138.96973805001542,-165.42350441208308L149.36994292228894,-119.61766743179854L152.48473006395483,-124.34430633421597z" style="fill:rgb(228,104,202)"/><path d="M32.71540931918972,-10.472804586577007L58.38190530973421,43.171347951855296L65.09544693808536,35.42087854604002zM32.71540931918972,-10.472804586577007L58.38190530973421,43.171347951855296L65.09544693808536,35.42087854604002z" style="fill:rgb(216,90,210)"/><path d="M-116.33006504898755,-5.222296872966127L-92.43328227098782,-84.40465677435041L-107.57533201588647,-83.18132416977862z" style="fill:rgb(83,212,212)"/><path d="M11.70277301196669,-1.710005292483804L38.39103754279024,51.38840364808843L48.9069186584401,48.83943687923183zM11.70277301196669,-1.710005292483804L38.39103754279024,51.38840364808843L48.9069186584401,48.83943687923183z" style="fill:rgb(127,37,217)"/><path d="M-134.00673097681695,-24.184678734034463L-141.23472930626778,-31.938336465459802L-118.43524085065907,4.197682722646388z" style="fill:rgb(26,52,150)"/><path d="M-41.268131180821385,-61.159710843459735L-46.973272883984116,-53.37506644396208L-33.06038922060234,-27.247208315321284z" style="fill:rgb(229,106,201)"/><path d="M-141.41313186984792,-32.129715832614885L-139.6102026865406,-30.195685135840403L-136.20735219725816,-54.835810431117494zM-132.19632478280508,-22.242526639239088L-119.06786681641049,-59.64139656441939L-128.05071296119144,-54.19391964009557z" style="fill:rgb(83,212,212)"/><path d="M22.711724395334457,-4.5400836792371475L48.9069186584401,48.83943687923183L58.38190530973421,43.171347951855296zM22.711724395334457,-4.5400836792371475L48.9069186584401,48.83943687923183L58.38190530973421,43.171347951855296z" style="fill:rgb(176,57,222)"/><path d="M33.57115578021764,-91.60242017893867L24.056631146422017,-92.17738977172488L36.246754895083825,-65.1851016652849z" style="fill:rgb(74,33,194)"/><path d="M42.210875873343205,-89.59802616067981L45.6012044763219,-64.47392829149143L54.111071603428194,-62.341176612339126z" style="fill:rgb(55,36,180)"/><path d="M97.19362693253949,-88.07652417148716L71.21061023970188,-125.2559862311024L87.11718956908955,-85.32958460030794z" style="fill:rgb(127,37,217)"/><path d="M-8.81491074674573,-13.393918909876636L16.57510147900047,-40.82273418015381L6.235742695461859,-36.47516372029969zM-8.81491074674573,-13.393918909876636L16.57510147900047,-40.82273418015381L6.235742695461859,-36.47516372029969z" style="fill:rgb(83,212,212)"/><path d="M-51.05657460541162,-45.35575169795577L-39.11292776418948,-11.272735478764883L-36.96227457742927,-19.263798151632344z" style="fill:rgb(245,141,174)"/><path d="M42.981414421654826,-26.926781408297185L66.2841965732859,19.422366080927944L41.51164987213706,-34.47669635572916zM42.981414421654826,-26.926781408297185L66.2841965732859,19.422366080927944L41.51164987213706,-34.47669635572916z" style="fill:rgb(246,167,148)"/><path d="M-8.81491074674573,-13.393918909876636L6.235742695461859,-36.47516372029969L-2.3080896218030595,-29.680328005084615zM-8.81491074674573,-13.393918909876636L6.235742695461859,-36.47516372029969L-2.3080896218030595,-29.680328005084615zM-124.59424294549625,-14.087530318664268L-116.13501989538635,-66.99710058327294L-119.06786681641049,-59.64139656441939zM-8.81491074674573,-13.393918909876636L27.020325662826547,-42.00377202689345L16.57510147900047,-40.82273418015381zM-8.81491074674573,-13.393918909876636L27.020325662826547,-42.00377202689345L16.57510147900047,-40.82273418015381z" style="fill:rgb(83,212,212)"/><path d="M135.70094146120397,-160.66326393417836L134.59627980780024,-97.19880302695046L149.36994292228894,-119.61766743179854z" style="fill:rgb(228,104,202)"/><path d="M87.11718956908955,-85.32958460030794L65.1307437510181,-118.12184521205555L81.31079819452323,-78.27845035093414z" style="fill:rgb(221,95,207)"/><path d="M-8.81491074674573,-13.393918909876636L-2.3080896218030595,-29.680328005084615L-7.638225763802054,-21.53988425495292zM-8.81491074674573,-13.393918909876636L-2.3080896218030595,-29.680328005084615L-7.638225763802054,-21.53988425495292z" style="fill:rgb(83,212,212)"/><path d="M-46.973272883984116,-53.37506644396208L-51.05657460541162,-45.35575169795577L-36.96227457742927,-19.263798151632344z" style="fill:rgb(239,123,188)"/><path d="M-8.81491074674573,-13.393918909876636L35.83998425236091,-39.784893798542626L27.020325662826547,-42.00377202689345zM-8.81491074674573,-13.393918909876636L35.83998425236091,-39.784893798542626L27.020325662826547,-42.00377202689345z" style="fill:rgb(83,212,212)"/><path d="M42.210875873343205,-89.59802616067981L33.57115578021764,-91.60242017893867L45.6012044763219,-64.47392829149143z" style="fill:rgb(55,36,180)"/><path d="M-139.6102026865406,-30.195685135840403L-132.19632478280508,-22.242526639239088L-128.05071296119144,-54.19391964009557z" style="fill:rgb(83,212,212)"/><path d="M-5.549334190837359,-6.6332138000417915L28.74380624781803,50.379739697313966L1.692102430395567,-2.472060197641278zM-5.549334190837359,-6.6332138000417915L28.74380624781803,50.379739697313966L1.692102430395567,-2.472060197641278z" style="fill:rgb(38,44,164)"/><path d="M88.62439880407743,-124.74807650285177L97.19362693253949,-88.07652417148716L104.08206906571904,-84.45595800308928z" style="fill:rgb(33,47,159)"/><path d="M49.682580511424405,-86.19967832800471L54.111071603428194,-62.341176612339126L61.48784436573155,-58.827369220195386z" style="fill:rgb(38,43,165)"/><path d="M16.636191092050453,-37.136024163319235L-6.715845481874437,-59.099992370007215L6.433042262425801,-32.4366926503337z" style="fill:rgb(158,48,222)"/><path d="M138.96973805001542,-165.42350441208308L135.70094146120397,-160.66326393417836L149.36994292228894,-119.61766743179854z" style="fill:rgb(228,104,202)"/><path d="M39.89244874223597,-18.42019933599939L67.86983422433937,27.00471866240963L42.981414421654826,-26.926781408297185zM39.89244874223597,-18.42019933599939L67.86983422433937,27.00471866240963L42.981414421654826,-26.926781408297185z" style="fill:rgb(241,128,184)"/><path d="M3.7351692891536015,-63.4693758866864L6.754832771896359,-32.11887780742383L16.643858957544087,-36.673273389473934z" style="fill:rgb(158,48,222)"/><path d="M-6.392492698887293,-58.78734750808247L-0.47965625288918406,-24.900782775904418L6.754832771896359,-32.11887780742383z" style="fill:rgb(212,85,213)"/><path d="M26.957021846498787,-37.875265867913136L3.7334057370232596,-63.93096465936039L16.636191092050453,-37.136024163319235z" style="fill:rgb(96,32,206)"/><path d="M6.433042262425801,-32.4366926503337L-14.416126094746316,-51.56471635446725L-1.033199422758515,-24.989644912921207z" style="fill:rgb(212,85,213)"/><path d="M57.78739742759501,-78.68440305204781L-6.642344020998605,-85.57716050490743L-16.558598752322773,-80.86541843420636z" style="fill:rgb(83,212,212)"/><path d="M-53.770740905875854,-29.617062487896654L-39.40692481519149,-3.5317897798711115L-39.11292776418948,-11.272735478764883z" style="fill:rgb(247,158,158)"/><path d="M57.78739742759501,-78.68440305204781L-16.558598752322773,-80.86541843420636L-25.816930083622605,-75.10886015589267zM-8.81491074674573,-13.393918909876636L41.51164987213706,-34.47669635572916L35.83998425236091,-39.784893798542626zM-8.81491074674573,-13.393918909876636L41.51164987213706,-34.47669635572916L35.83998425236091,-39.784893798542626zM-101.60923919269861,10.569239140038569L-76.75678438530184,-86.42000119505609L-92.43328227098782,-84.40465677435041zM57.78739742759501,-78.68440305204781L3.637236295244533,-89.10245779405255L-6.642344020998605,-85.57716050490743z" style="fill:rgb(83,212,212)"/><path d="M-51.05657460541162,-45.35575169795577L-53.3596455799308,-37.35031867296595L-39.11292776418948,-11.272735478764883z" style="fill:rgb(245,141,174)"/><path d="M13.928500399066447,-64.32176010614924L16.643858957544087,-36.673273389473934L26.6454124924668,-37.38763158653171z" style="fill:rgb(96,32,206)"/><path d="M57.78739742759501,-78.68440305204781L-25.816930083622605,-75.10886015589267L-34.139161514622856,-68.47594649600975zM57.78739742759501,-78.68440305204781L13.97430672008018,-91.32916454780775L3.637236295244533,-89.10245779405255z" style="fill:rgb(83,212,212)"/><path d="M87.11718956908955,-85.32958460030794L71.21061023970188,-125.2559862311024L65.1307437510181,-118.12184521205555z" style="fill:rgb(221,95,207)"/><path d="M1.692102430395567,-2.472060197641278L38.39103754279024,51.38840364808843L11.70277301196669,-1.710005292483804zM1.692102430395567,-2.472060197641278L38.39103754279024,51.38840364808843L11.70277301196669,-1.710005292483804z" style="fill:rgb(78,32,197)"/><path d="M49.682580511424405,-86.19967832800471L42.210875873343205,-89.59802616067981L54.111071603428194,-62.341176612339126z" style="fill:rgb(38,43,165)"/><path d="M97.19362693253949,-88.07652417148716L81.60481944074456,-128.20129040912718L71.21061023970188,-125.2559862311024z" style="fill:rgb(127,37,217)"/><path d="M57.78739742759501,-78.68440305204781L-34.139161514622856,-68.47594649600975L-41.268131180841976,-61.159705649684874z" style="fill:rgb(83,212,212)"/><path d="M-13.853825894335294,-51.48367099971771L-3.1567316020135685,-16.867131309868007L-0.47965625288918406,-24.900782775904418z" style="fill:rgb(243,133,180)"/><path d="M32.71540931918972,-10.472804586577007L65.09544693808536,35.42087854604002L39.89244874223597,-18.42019933599939zM32.71540931918972,-10.472804586577007L65.09544693808536,35.42087854604002L39.89244874223597,-18.42019933599939z" style="fill:rgb(216,90,210)"/><path d="M71.21061023970188,-125.2559862311024L72.78267755489998,-138.5726555348402L70.27783471029582,-137.25269332145817zM73.79744517242187,-125.98899553752962L80.29071757724951,-142.90217965526043L72.78267755489998,-138.5726555348402z" style="fill:rgb(83,212,212)"/><path d="M120.18689766027617,-138.0706790675887L128.53484841143018,-88.0007325471063L134.59627980780024,-97.19880302695046z" style="fill:rgb(228,104,202)"/><path d="M81.60481944074456,-128.20129040912718L86.52119891744258,-146.49497628309393L80.29071757724951,-142.90217965526043zM-132.19632478280508,-22.242526639239088L-124.59424294549625,-14.087530318664268L-119.06786681641049,-59.64139656441939z" style="fill:rgb(83,212,212)"/><path d="M55.716293072086856,-81.48735817251222L61.48784436573155,-58.827369220195386L67.46578125771076,-54.01740535656285z" style="fill:rgb(25,53,148)"/><path d="M34.70986817995691,-34.41275142303552L14.252077277273822,-64.81268420366456L26.957021846498787,-37.875265867913136z" style="fill:rgb(42,41,169)"/><path d="M57.78739742759501,-78.68440305204781L24.056652218690814,-92.17739069476804L13.97430672008018,-91.32916454780775z" style="fill:rgb(83,212,212)"/><path d="M-53.770740905875854,-29.617062487896654L-37.7928373923936,3.6978014343651218L-39.40692481519149,-3.5317897798711115z" style="fill:rgb(245,174,141)"/><path d="M65.1307437510181,-118.12184521205555L70.27783471029582,-137.25269332145817L64.01371833327934,-133.95168212833832z" style="fill:rgb(83,212,212)"/><path d="M-1.033199422758515,-24.989644912921207L-17.345055276833364,-43.25000283839826L-3.799952040219953,-16.698758458516018z" style="fill:rgb(243,133,180)"/><path d="M-53.770740905875854,-29.617062487896654L-39.11292776418948,-11.272735478764883L-53.3596455799308,-37.35031867296595z" style="fill:rgb(247,158,158)"/><path d="M-6.715845481874437,-59.099992370007215L-48.91529939415321,-49.5610898183071L-50.073002869410075,-47.28738391017657z" style="fill:rgb(83,212,212)"/><path d="M16.636191092050453,-37.136024163319235L3.7334057370232596,-63.93096465936039L-6.715845481874437,-59.099992370007215z" style="fill:rgb(158,48,222)"/><path d="M-8.81491074674573,-13.393918909876636L42.981414421654826,-26.926781408297185L41.51164987213706,-34.47669635572916zM-8.81491074674573,-13.393918909876636L42.981414421654826,-26.926781408297185L41.51164987213706,-34.47669635572916z" style="fill:rgb(83,212,212)"/><path d="M88.62439880407743,-124.74807650285177L81.60481944074456,-128.20129040912718L97.19362693253949,-88.07652417148716z" style="fill:rgb(33,47,159)"/><path d="M3.7351692891536015,-63.4693758866864L-6.392492698887293,-58.78734750808247L6.754832771896359,-32.11887780742383z" style="fill:rgb(158,48,222)"/><path d="M11.70277301196669,-1.710005292483804L48.9069186584401,48.83943687923183L22.711724395334457,-4.5400836792371475zM11.70277301196669,-1.710005292483804L48.9069186584401,48.83943687923183L22.711724395334457,-4.5400836792371475z" style="fill:rgb(127,37,217)"/><path d="M57.78739742759501,-78.68440305204781L-41.268131180841976,-61.159705649684874L-46.97326731065677,-53.37507648192048z" style="fill:rgb(83,212,212)"/><path d="M22.711724395334457,-4.5400836792371475L58.38190530973421,43.171347951855296L32.71540931918972,-10.472804586577007zM22.711724395334457,-4.5400836792371475L58.38190530973421,43.171347951855296L32.71540931918972,-10.472804586577007z" style="fill:rgb(176,57,222)"/><path d="M6.433042262425801,-32.4366926503337L-6.715845481874437,-59.099992370007215L-14.416126094746316,-51.56471635446725z" style="fill:rgb(212,85,213)"/><path d="M21.533861290477358,-61.07523337182943L26.6454124924668,-37.38763158653171L34.154502036799386,-34.029531656491976z" style="fill:rgb(42,41,169)"/><path d="M-124.59424294549625,-14.087530318664268L-122.68686128970933,-12.041439343998276L-116.13501989538635,-66.99710058327294z" style="fill:rgb(83,212,212)"/><path d="M13.928500399066447,-64.32176010614924L3.7351692891536015,-63.4693758866864L16.643858957544087,-36.673273389473934z" style="fill:rgb(96,32,206)"/><path d="M-122.68686128970933,-12.041439343998276L-116.33006504898755,-5.222296872966127L-107.57533201588647,-83.18132416977862zM-8.81491074674573,-13.393918909876636L-5.549334190837359,-6.6332138000417915L1.692102430395567,-2.472060197641278zM-8.81491074674573,-13.393918909876636L-5.549334190837359,-6.6332138000417915L1.692102430395567,-2.472060197641278zM-14.416126094746316,-51.56471635446725L-50.073002869410075,-47.28738391017657L-51.05656870941951,-45.35576688106164z" style="fill:rgb(83,212,212)"/><path d="M-6.392492698887293,-58.78734750808247L-13.853825894335294,-51.48367099971771L-0.47965625288918406,-24.900782775904418z" style="fill:rgb(212,85,213)"/><path d="M57.78739742759501,-78.68440305204781L33.571163805402364,-91.60242064019533L24.056652218690814,-92.17739069476804zM71.21061023970188,-125.2559862311024L73.79744517242187,-125.98899553752962L72.78267755489998,-138.5726555348402z" style="fill:rgb(83,212,212)"/><path d="M135.70094146120397,-160.66326393417836L120.18689766027617,-138.0706790675887L134.59627980780024,-97.19880302695046z" style="fill:rgb(228,104,202)"/><path d="M57.78739742759501,-78.68440305204781L-46.97326731065677,-53.37507648192048L-48.91529939415321,-49.5610898183071z" style="fill:rgb(83,212,212)"/><path d="M26.957021846498787,-37.875265867913136L14.252077277273822,-64.81268420366456L3.7334057370232596,-63.93096465936039z" style="fill:rgb(96,32,206)"/><path d="M73.79744517242187,-125.98899553752962L81.60481944074456,-128.20129040912718L80.29071757724951,-142.90217965526043zM-6.715845481874437,-59.099992370007215L3.7334057370232596,-63.93096465936039L-48.91529939415321,-49.5610898183071zM65.1307437510181,-118.12184521205555L71.21061023970188,-125.2559862311024L70.27783471029582,-137.25269332145817zM-14.416126094746316,-51.56471635446725L-51.05656870941951,-45.35576688106164L-52.21864532559876,-41.3164367862458z" style="fill:rgb(83,212,212)"/><path d="M55.716293072086856,-81.48735817251222L49.682580511424405,-86.19967832800471L61.48784436573155,-58.827369220195386z" style="fill:rgb(25,53,148)"/><path d="M-109.13312533213619,2.4980947946613457L-134.0067853800657,-24.18463951119305L-111.18365549366479,12.114934984970176z" style="fill:rgb(26,52,150)"/><path d="M-16.687902542113438,-43.42693271005895L-0.48662971588536774,-10.126569524428803L-3.1567316020135685,-16.867131309868007z" style="fill:rgb(243,180,133)"/><path d="M-7.212096374904195,-37.016130084551236L8.444518671643356,-50.687145139030484L-1.748483142483231,-45.279636260839126zM-7.212096374904195,-37.016130084551236L8.444518671643356,-50.687145139030484L-1.748483142483231,-45.279636260839126zM-8.81491074674573,-13.393918909876636L39.89244874223597,-18.42019933599939L42.981414421654826,-26.926781408297185zM-8.81491074674573,-13.393918909876636L39.89244874223597,-18.42019933599939L42.981414421654826,-26.926781408297185zM-14.416126094746316,-51.56471635446725L-6.715845481874437,-59.099992370007215L-50.073002869410075,-47.28738391017657z" style="fill:rgb(83,212,212)"/><path d="M-1.033199422758515,-24.989644912921207L-14.416126094746316,-51.56471635446725L-17.345055276833364,-43.25000283839826z" style="fill:rgb(243,133,180)"/><path d="M-109.13312533213619,2.4980947946613457L-111.18365549366479,12.114934984970176L-86.27431632285472,39.310701569495386z" style="fill:rgb(26,52,150)"/><path d="M-6.537678311783266,-54.9578334521063L-1.748483142483231,-45.279636260839126L8.444518671643356,-50.687145139030484zM-6.537678311783266,-54.9578334521063L-1.748483142483231,-45.279636260839126L8.444518671643356,-50.687145139030484z" style="fill:rgb(168,53,222)"/><path d="M81.60481944074456,-128.20129040912718L88.62439880407743,-124.74807650285177L86.52119891744258,-146.49497628309393zM-85.90875018374413,27.411643055273508L-70.45735317444827,-87.51803358076835L-76.75678438530184,-86.42000119505609zM57.78739742759501,-78.68440305204781L42.21088388896009,-89.59802638777266L33.571163805402364,-91.60242064019533z" style="fill:rgb(83,212,212)"/><path d="M22.104420653837444,-61.46545064283981L37.78295540099198,-27.583672566830195L34.70986817995691,-34.41275142303552z" style="fill:rgb(243,180,133)"/><path d="M60.07576224892593,-75.58738135760704L67.46578125771076,-54.01740535656285L71.81219241965304,-48.042133574465915z" style="fill:rgb(15,66,131)"/><path d="M-7.212096374904195,-37.016130084551236L18.73465767031572,-50.78340625392666L8.444518671643356,-50.687145139030484zM-7.212096374904195,-37.016130084551236L18.73465767031572,-50.78340625392666L8.444518671643356,-50.687145139030484zM-8.81491074674573,-13.393918909876636L1.692102430395567,-2.472060197641278L11.70277301196669,-1.710005292483804zM-8.81491074674573,-13.393918909876636L1.692102430395567,-2.472060197641278L11.70277301196669,-1.710005292483804z" style="fill:rgb(83,212,212)"/><path d="M-52.23271670930525,-22.417447684808536L-34.280149410676636,10.159417837852432L-37.7928373923936,3.6978014343651218z" style="fill:rgb(239,188,123)"/><path d="M-3.799952040219953,-16.698758458516018L-14.637970325884043,-36.33688072263919L-1.048706586376801,-9.738719712265219z" style="fill:rgb(243,180,133)"/><path d="M21.533861290477358,-61.07523337182943L13.928500399066447,-64.32176010614924L26.6454124924668,-37.38763158653171z" style="fill:rgb(42,41,169)"/><path d="M3.7468506267429693,-60.411884401093914L8.444518671643356,-50.687145139030484L18.73465767031572,-50.78340625392666zM3.7468506267429693,-60.411884401093914L8.444518671643356,-50.687145139030484L18.73465767031572,-50.78340625392666z" style="fill:rgb(86,32,201)"/><path d="M-13.853825894335294,-51.48367099971771L-16.687902542113438,-43.42693271005895L-3.1567316020135685,-16.867131309868007z" style="fill:rgb(243,133,180)"/><path d="M3.7351692891536015,-63.4693758866864L-6.392500056878539,-58.78733219639039L-6.513073264972489,-58.66931162570337zM-8.81491074674573,-13.393918909876636L32.71540931918972,-10.472804586577007L39.89244874223597,-18.42019933599939zM-8.81491074674573,-13.393918909876636L32.71540931918972,-10.472804586577007L39.89244874223597,-18.42019933599939zM-17.345055276833364,-43.25000283839826L-52.21864532559876,-41.3164367862458L-53.3596455799308,-37.35031867296595z" style="fill:rgb(83,212,212)"/><path d="M-6.537678311783266,-54.9578334521063L8.444518671643356,-50.687145139030484L3.7468506267429693,-60.411884401093914zM-6.537678311783266,-54.9578334521063L8.444518671643356,-50.687145139030484L3.7468506267429693,-60.411884401093914z" style="fill:rgb(168,53,222)"/><path d="M113.81697599740019,-128.79445953588737L107.01126651437805,-55.339026000167095L128.53484841143018,-88.0007325471063z" style="fill:rgb(228,104,202)"/><path d="M24.478456913772927,-54.51031002625927L37.12664690460937,-27.41187179871128L34.1544940944127,-34.029528951824304zM24.478456913772927,-54.51031002625927L37.12664690460937,-27.41187179871128L34.1544940944127,-34.029528951824304z" style="fill:rgb(243,180,133)"/><path d="M-8.81491074674573,-13.393918909876636L11.70277301196669,-1.710005292483804L22.711724395334457,-4.5400836792371475zM-8.81491074674573,-13.393918909876636L11.70277301196669,-1.710005292483804L22.711724395334457,-4.5400836792371475zM-6.537678311783266,-54.9578334521063L-6.392500056878539,-58.78733219639039L-6.513073264972489,-58.66931162570337z" style="fill:rgb(83,212,212)"/><path d="M34.70986817995691,-34.41275142303552L22.104420653837444,-61.46545064283981L14.252077277273822,-64.81268420366456z" style="fill:rgb(42,41,169)"/><path d="M-6.537678311783266,-54.9578334521063L3.7351692891536015,-63.4693758866864L-6.392500056878539,-58.78733219639039zM3.7351692891536015,-63.4693758866864L-6.513073264972489,-58.66931162570337L-6.537678311783266,-54.9578334521063z" style="fill:rgb(83,212,212)"/><path d="M-12.076682618986595,-46.6738348525913L-7.212096374904195,-37.016130084551236L-1.748483142483231,-45.279636260839126zM-12.076682618986595,-46.6738348525913L-7.212096374904195,-37.016130084551236L-1.748483142483231,-45.279636260839126z" style="fill:rgb(231,109,199)"/><path d="M93.25207251452474,-98.84658376160849L97.96395149207756,-153.5987119844647L88.42772946947072,-147.59439334203148zM-8.81491074674573,-13.393918909876636L22.711724395334457,-4.5400836792371475L32.71540931918972,-10.472804586577007zM-8.81491074674573,-13.393918909876636L22.711724395334457,-4.5400836792371475L32.71540931918972,-10.472804586577007z" style="fill:rgb(83,212,212)"/><path d="M-53.770740905875854,-29.617062487896654L-52.23271670930525,-22.417447684808536L-37.7928373923936,3.6978014343651218z" style="fill:rgb(245,174,141)"/><path d="M-17.345055276833364,-43.25000283839826L-14.416126094746316,-51.56471635446725L-52.21864532559876,-41.3164367862458zM-6.537678311783266,-54.9578334521063L3.7468506267429693,-60.411884401093914L3.7351692891536015,-63.4693758866864zM3.7351692891536015,-63.4693758866864L-6.537678311783266,-54.9578334521063L3.7468506267429693,-60.411884401093914z" style="fill:rgb(83,212,212)"/><path d="M-12.076682618986595,-46.6738348525913L-1.748483142483231,-45.279636260839126L-6.537678311783266,-54.9578334521063zM-12.076682618986595,-46.6738348525913L-1.748483142483231,-45.279636260839126L-6.537678311783266,-54.9578334521063z" style="fill:rgb(231,109,199)"/><path d="M-17.345055276833364,-43.25000283839826L-53.3596455799308,-37.35031867296595L-53.56440441910832,-33.49852809011943zM-7.212096374904195,-37.016130084551236L24.3857078296088,-45.45322128011875L18.73465767031572,-50.78340625392666zM-7.212096374904195,-37.016130084551236L24.3857078296088,-45.45322128011875L18.73465767031572,-50.78340625392666zM91.3914484517633,-96.13701133323471L88.42772946947072,-147.59439334203148L86.52119891744258,-146.49497628309393zM57.78739742759501,-78.68440305204781L49.682586076599165,-86.19967876823613L42.21088388896009,-89.59802638777266zM3.7468506267429693,-60.411884401093914L13.928500399066447,-64.32176010614924L3.7351692891536015,-63.4693758866864zM14.050952152301894,-64.2694877061638L3.7351692891536015,-63.4693758866864L3.7468506267429693,-60.411884401093914zM-55.157625697522676,9.003515239203178L-44.1430630108866,-92.8349695685432L-49.8743585267,-91.58213056894498zM14.050952152301894,-64.2694877061638L13.928500399066447,-64.32176010614924L3.7351692891536015,-63.4693758866864zM-62.25143500017076,17.264161989200897L-49.8743585267,-91.58213056894498L-55.92717770051116,-90.25903519719175zM-79.44036159356185,34.06168093940381L-60.629804693624,-89.23104440046394L-70.45735317444827,-87.51803358076835z" style="fill:rgb(83,212,212)"/><path d="M120.18689766027617,-138.0706790675887L113.81697599740019,-128.79445953588737L128.53484841143018,-88.0007325471063z" style="fill:rgb(228,104,202)"/><path d="M60.07576224892593,-75.58738135760704L55.716293072086856,-81.48735817251222L67.46578125771076,-54.01740535656285z" style="fill:rgb(15,66,131)"/><path d="M-12.076682618986595,-46.6738348525913L-6.513073264972489,-58.66931162570337L-11.996188779646474,-53.302017640540974zM-6.513073264972489,-58.66931162570337L-11.996188779646474,-53.302017640540974L-12.076682618986595,-46.6738348525913z" style="fill:rgb(83,212,212)"/><path d="M3.7468506267429693,-60.411884401093914L18.73465767031572,-50.78340625392666L14.104304895893398,-60.56030997976512zM3.7468506267429693,-60.411884401093914L18.73465767031572,-50.78340625392666L14.104304895893398,-60.56030997976512z" style="fill:rgb(86,32,201)"/><path d="M-12.076682618986595,-46.6738348525913L-6.537678311783266,-54.9578334521063L-6.513073264972489,-58.66931162570337zM-6.513073264972489,-58.66931162570337L-12.076682618986595,-46.6738348525913L-6.537678311783266,-54.9578334521063zM3.7468506267429693,-60.411884401093914L14.050952152301894,-64.2694877061638L13.928500399066447,-64.32176010614924z" style="fill:rgb(83,212,212)"/><path d="M-3.799952040219953,-16.698758458516018L-17.345055276833364,-43.25000283839826L-14.637970325884043,-36.33688072263919z" style="fill:rgb(243,180,133)"/><path d="M93.25207251452474,-98.84658376160849L138.96973805001542,-165.42350441208308L97.96395149207756,-153.5987119844647zM-48.807229984274535,7.360713526482529L-40.109627324817204,-93.89138862716484L-44.1430630108866,-92.8349695685432zM-11.996188779646474,-53.302017640540974L-13.85382463448953,-51.48366594076865L-16.687902542113438,-43.42693271005895zM-12.076698680024558,-46.67382414528898L3.746857632820412,-60.41188471045859L-6.537667596437403,-54.95784886168722zM-12.076698680024558,-46.67382414528898L3.746857632820412,-60.41188471045859L-6.537667596437403,-54.95784886168722z" style="fill:rgb(83,212,212)"/><path d="M14.104304895893398,-60.56030997976512L18.73465767031572,-50.78340625392666L24.3857078296088,-45.45322128011875zM14.104304895893398,-60.56030997976512L18.73465767031572,-50.78340625392666L24.3857078296088,-45.45322128011875z" style="fill:rgb(23,55,145)"/><path d="M3.7468506267429693,-60.411884401093914L14.104304895893398,-60.56030997976512L14.050952152301894,-64.2694877061638zM14.050952152301894,-64.2694877061638L3.7468506267429693,-60.411884401093914L14.104304895893398,-60.56030997976512z" style="fill:rgb(83,212,212)"/><path d="M34.655360777172035,-19.260864181836673L37.12664690460937,-27.41187179871128L24.478456913772927,-54.51031002625927zM34.655360777172035,-19.260864181836673L37.12664690460937,-27.41187179871128L24.478456913772927,-54.51031002625927z" style="fill:rgb(243,133,180)"/><path d="M-44.3482361711847,6.207204428700807L-33.986665734712915,-95.4950874562813L-40.109627324817204,-93.89138862716484z" style="fill:rgb(83,212,212)"/><path d="M25.149324371133385,-54.69092968073246L35.235496785971215,-19.167735745901776L37.78295540099198,-27.583672566830195z" style="fill:rgb(243,133,180)"/><path d="M71.81219241965304,-48.042133574465915L62.57038844700455,-68.67283759106041L74.33897270058812,-41.07845146194716z" style="fill:rgb(245,174,141)"/><path d="M-0.48662160823667383,-10.126571526076269L6.926152021639505,-6.528199262623265L-6.558761518705743,-33.23808974782097zM-0.48662160823667383,-10.126571526076269L6.926152021639505,-6.528199262623265L-6.558761518705743,-33.23808974782097z" style="fill:rgb(42,41,169)"/><path d="M24.478456913772927,-54.51031002625927L34.1544940944127,-34.029528951824304L21.533861290477358,-61.07523337182943zM24.478456913772927,-54.51031002625927L34.1544940944127,-34.029528951824304L21.533861290477358,-61.07523337182943z" style="fill:rgb(243,180,133)"/><path d="M59.02401152094411,-77.01075243391918L3.7334057370232596,-63.93096465936039L14.252077277273822,-64.81268420366456z" style="fill:rgb(83,212,212)"/><path d="M-6.896211964426742,-32.72611565304468L-1.048706586376801,-9.738719712265219L6.601518453194066,-6.020174471534146z" style="fill:rgb(42,41,169)"/><path d="M-28.94466475141947,15.610663621728987L-48.75031225511384,-16.007838559609247L-34.280149410676636,10.159417837852432z" style="fill:rgb(25,53,148)"/><path d="M-12.076698680024558,-46.67382414528898L14.1042940480299,-60.56031470766103L3.746857632820412,-60.41188471045859zM-12.076698680024558,-46.67382414528898L14.1042940480299,-60.56031470766103L3.746857632820412,-60.41188471045859z" style="fill:rgb(83,212,212)"/><path d="M-16.687902542113438,-43.42693271005895L-14.060341377448223,-36.73193569910707L-0.48662971588536774,-10.126569524428803z" style="fill:rgb(243,180,133)"/><path d="M-116.33006504898755,-5.222296872966127L-101.60923919269861,10.569239140038569L-92.43328227098782,-84.40465677435041zM57.78739742759501,-78.68440305204781L55.71628743151609,-81.48735775299966L49.682586076599165,-86.19967876823613zM-7.212096374904195,-37.016130084551236L22.643205925433712,-37.088659247277214L24.3857078296088,-45.45322128011875zM-7.212096374904195,-37.016130084551236L22.643205925433712,-37.088659247277214L24.3857078296088,-45.45322128011875zM-14.637970325884043,-36.33688072263919L-53.56440441910832,-33.49852809011943L-53.770740905875854,-29.617062487896654zM14.104304895893398,-60.56030997976512L19.63506430217637,-61.8857421428588L14.050952152301894,-64.2694877061638zM19.63506430217637,-61.8857421428588L14.050952152301894,-64.2694877061638L14.104304895893398,-60.56030997976512zM-68.65558150777368,36.77335053021056L-55.92717770051116,-90.25903519719175L-60.629804693624,-89.23104440046394zM-14.060333347378343,-36.731938591191266L-11.996188779646474,-53.302017640540974L-13.85382463448953,-51.48366594076865zM-7.212096374904195,-37.016130084551236L-5.362069043402842,-29.66518958388411L3.08553830691165,-26.706505662624632zM-7.212096374904195,-37.016130084551236L-5.362069043402842,-29.66518958388411L3.08553830691165,-26.706505662624632z" style="fill:rgb(83,212,212)"/><path d="M-10.250724286827715,-39.33738042120709L-5.362069043402842,-29.66518958388411L-7.212096374904195,-37.016130084551236zM-10.250724286827715,-39.33738042120709L-5.362069043402842,-29.66518958388411L-7.212096374904195,-37.016130084551236zM-10.250724286827715,-39.33738042120709L-7.212096374904195,-37.016130084551236L-12.076682618986595,-46.6738348525913zM-10.250724286827715,-39.33738042120709L-7.212096374904195,-37.016130084551236L-12.076682618986595,-46.6738348525913z" style="fill:rgb(245,173,142)"/><path d="M22.104420653837444,-61.46545064283981L25.149324371133385,-54.69092968073246L37.78295540099198,-27.583672566830195z" style="fill:rgb(243,180,133)"/><path d="M59.02401152094411,-77.01075243391918L57.78739742759501,-78.68440305204781L3.7334057370232596,-63.93096465936039zM-14.637970325884043,-36.33688072263919L-17.345055276833364,-43.25000283839826L-53.56440441910832,-33.49852809011943z" style="fill:rgb(83,212,212)"/><path d="M-52.23271670930525,-22.417447684808536L-48.75031716538094,-16.007845163891016L-34.280149410676636,10.159417837852432z" style="fill:rgb(239,188,123)"/><path d="M-11.996188779646474,-53.302017640540974L-16.687902542113438,-43.42693271005895L-14.060333347378343,-36.731938591191266z" style="fill:rgb(83,212,212)"/><path d="M-6.558761518705743,-33.23808974782097L6.926152021639505,-6.528199262623265L17.133478282154172,-7.1251465305959245zM-6.558761518705743,-33.23808974782097L6.926152021639505,-6.528199262623265L17.133478282154172,-7.1251465305959245z" style="fill:rgb(96,32,206)"/><path d="M-14.060333347378343,-36.731938591191266L-13.85382463448953,-51.48366594076865L-16.687902542113438,-43.42693271005895zM-14.637970325884043,-36.33688072263919L-53.770740905875854,-29.617062487896654L-53.01456919572021,-26.077339175093528z" style="fill:rgb(83,212,212)"/><path d="M14.104304895893398,-60.56030997976512L24.3857078296088,-45.45322128011875L19.767854556514678,-55.26329264171234zM14.104304895893398,-60.56030997976512L24.3857078296088,-45.45322128011875L19.767854556514678,-55.26329264171234z" style="fill:rgb(23,55,145)"/><path d="M-7.212096374904195,-37.016130084551236L14.202692688096077,-29.639102935807216L22.643205925433712,-37.088659247277214zM-7.212096374904195,-37.016130084551236L14.202692688096077,-29.639102935807216L22.643205925433712,-37.088659247277214z" style="fill:rgb(83,212,212)"/><path d="M27.32460693016731,-11.802470772111908L34.655360777172035,-19.260864181836673L21.85770977125973,-46.33635606328024zM27.32460693016731,-11.802470772111908L34.655360777172035,-19.260864181836673L21.85770977125973,-46.33635606328024z" style="fill:rgb(212,85,213)"/><path d="M-7.212096374904195,-37.016130084551236L3.08553830691165,-26.706505662624632L14.202692688096077,-29.639102935807216zM-7.212096374904195,-37.016130084551236L3.08553830691165,-26.706505662624632L14.202692688096077,-29.639102935807216zM-12.076698680024558,-46.67382414528898L19.767873852042946,-55.26327760160998L14.1042940480299,-60.56031470766103zM-12.076698680024558,-46.67382414528898L19.767873852042946,-55.26327760160998L14.1042940480299,-60.56031470766103z" style="fill:rgb(83,212,212)"/><path d="M22.44770591376354,-46.25130689867402L27.66667379246482,-11.464624555428363L35.235496785971215,-19.167735745901776z" style="fill:rgb(212,85,213)"/><path d="M71.81219241965304,-48.042133574465915L60.07576224892593,-75.58738135760704L62.57038844700455,-68.67283759106041z" style="fill:rgb(245,174,141)"/><path d="M14.104304895893398,-60.56030997976512L19.767854556514678,-55.26329264171234L19.63506430217637,-61.8857421428588zM19.63506430217637,-61.8857421428588L14.104304895893398,-60.56030997976512L19.767854556514678,-55.26329264171234zM-16.130741900908607,-1.092457669368709L-10.48080436389181,-102.37571354110449L-14.579212289081374,-101.12680815142146z" style="fill:rgb(83,212,212)"/><path d="M3.84973481566178,-33.482863363369376L6.601518453194066,-6.020174471534146L17.141611547060315,-6.634311240592036z" style="fill:rgb(96,32,206)"/><path d="M-0.48662160823667383,-10.126571526076269L-6.558761518705743,-33.23808974782097L-14.060333347378343,-36.731938591191266zM-0.48662160823667383,-10.126571526076269L-6.558761518705743,-33.23808974782097L-14.060333347378343,-36.731938591191266zM-6.896211964426742,-32.72611565304468L-14.637970325884043,-36.33688072263919L-1.048706586376801,-9.738719712265219z" style="fill:rgb(42,41,169)"/><path d="M61.33374602537079,-72.10054192055745L14.252077277273822,-64.81268420366456L22.104420653837444,-61.46545064283981zM-23.116425930372593,7.203332486793166L-14.579212289081374,-101.12680815142146L-20.769240433564484,-99.24052414346806zM61.48161929452277,-52.580472433513506L64.01371833327934,-133.95168212833832L56.6617281506199,-130.0774039514531zM-11.598516000694342,-2.264911567572163L-4.613768454932215,-104.41434021626473L-10.48080436389181,-102.37571354110449z" style="fill:rgb(83,212,212)"/><path d="M22.643205925433712,-37.088659247277214L24.38570528101774,-45.45321616642929L19.767873852042946,-55.26327760160998zM22.643195150897427,-37.088648472755935L24.38570528101774,-45.45321616642929L19.767873852042946,-55.26327760160998z" style="fill:rgb(245,142,173)"/><path d="M-11.996188779646474,-53.302017640540974L-14.060333347378343,-36.731938591191266L-12.207895878301457,-35.8692019815438zM-14.060333347378343,-36.731938591191266L-12.207895878301457,-35.8692019815438L-11.996188779646474,-53.302017640540974z" style="fill:rgb(83,212,212)"/><path d="M17.133478282154172,-7.1251465305959245L27.32460693016731,-11.802470772111908L14.292634337949458,-38.7853291799133zM17.133478282154172,-7.1251465305959245L27.32460693016731,-11.802470772111908L14.292634337949458,-38.7853291799133z" style="fill:rgb(158,48,222)"/><path d="M61.33374602537079,-72.10054192055745L59.02401152094411,-77.01075243391918L14.252077277273822,-64.81268420366456z" style="fill:rgb(83,212,212)"/><path d="M-10.25071214016933,-39.33738851894339L-5.36207035340107,-29.665194781120242L3.08553830691165,-26.706505662624632zM-10.25071214016933,-39.33738851894339L-5.36207035340107,-29.665194781120242L3.08553830691165,-26.706505662624632z" style="fill:rgb(50,38,176)"/><path d="M74.33897270058812,-41.07845146194716L63.0665519046511,-60.96166429805465L74.9136922940297,-33.34708857377146z" style="fill:rgb(247,158,158)"/><path d="M14.636883575103388,-38.45246134393228L17.141611547060315,-6.634311240592036L27.66667379246482,-11.464624555428363z" style="fill:rgb(158,48,222)"/><path d="M-5.108640545675006,-3.943795578433662L1.6193320684715322,-106.58019713565062L-4.613768454932215,-104.41434021626473z" style="fill:rgb(83,212,212)"/><path d="M-21.932396144658657,19.83435043205913L-43.39604792166035,-10.629993111546334L-28.94466475141947,15.610663621728987z" style="fill:rgb(38,43,165)"/><path d="M-12.207895878301457,-35.8692019815438L-10.250724286827715,-39.33738042120709L-12.076682618986595,-46.6738348525913zM-10.250724286827715,-39.33738042120709L-12.076682618986595,-46.6738348525913L-12.207895878301457,-35.8692019815438zM-6.896211964426742,-32.72611565304468L-53.01456919572021,-26.077339175093528L-52.23270704120988,-22.417432030324974z" style="fill:rgb(83,212,212)"/><path d="M-1.7620138384899917,-36.42248977081989L-5.36207035340107,-29.665194781120242L3.0855271602511007,-26.706508079600937z" style="fill:rgb(50,38,176)"/><path d="M34.655360777172035,-19.260864181836673L24.478456913772927,-54.51031002625927L21.85770977125973,-46.33635606328024zM34.655360777172035,-19.260864181836673L24.478456913772927,-54.51031002625927L21.85770977125973,-46.33635606328024z" style="fill:rgb(243,133,180)"/><path d="M-38.52241186586885,30.704398996405402L-27.392958249069935,-97.22210042173789L-33.986665734712915,-95.4950874562813z" style="fill:rgb(83,212,212)"/><path d="M25.149324371133385,-54.69092968073246L22.44770591376354,-46.25130689867402L35.235496785971215,-19.167735745901776z" style="fill:rgb(243,133,180)"/><path d="M19.984346319907324,-44.46651165813121L21.533861290477358,-61.07523337182943L19.63506430217637,-61.8857421428588zM21.533861290477358,-61.07523337182943L19.63506430217637,-61.8857421428588L19.984346319907324,-44.46651165813121zM-12.076698680024558,-46.67382414528898L17.975016130790777,-46.89598623800906L19.767873852042946,-55.26327760160998zM-12.076698680024558,-46.67382414528898L17.975005258273164,-46.895980801770065L19.767873852042946,-55.26327760160998z" style="fill:rgb(83,212,212)"/><path d="M-1.7620138384899917,-36.42248977081989L-10.25071214016933,-39.33738851894339L-5.36207035340107,-29.665194781120242z" style="fill:rgb(50,38,176)"/><path d="M-12.076698680024558,-46.67382414528898L-10.25071214016933,-39.33738851894339L-1.7620138384899917,-36.42248977081989zM-12.076698680024558,-46.67382414528898L-10.25071214016933,-39.33738851894339L-1.7620028018131866,-36.42248452361568zM-6.896211964426742,-32.72611565304468L-14.637970325884043,-36.33688072263919L-53.01456919572021,-26.077339175093528z" style="fill:rgb(83,212,212)"/><path d="M91.17582329964411,-95.82299945524744L98.74823546164825,-42.800162666646564L107.01126651437805,-55.339026000167095z" style="fill:rgb(228,104,202)"/><path d="M-6.896211964426742,-32.72611565304468L-52.23270704120988,-22.417432030324974L-51.40298979652269,-20.890326556597156z" style="fill:rgb(83,212,212)"/><path d="M-28.94466475141947,15.610663621728987L-43.39604792166035,-10.629993111546334L-48.75031225511384,-16.007838559609247z" style="fill:rgb(25,53,148)"/><path d="M61.33374602537079,-72.10054192055745L60.07576224892593,-75.58738135760704L59.02401152094411,-77.01075243391918zM-31.050852992778587,28.820037004999723L-20.769240433564484,-99.24052414346806L-27.392958249069935,-97.22210042173789zM44.30290099342393,-27.56373323038771L56.6617281506199,-130.0774039514531L40.16789897384513,-122.1634929573697z" style="fill:rgb(83,212,212)"/><path d="M22.643205925433712,-37.088659247277214L19.767873852042946,-55.26327760160998L17.975016130790777,-46.89598623800906zM22.643195150897427,-37.088648472755935L19.767873852042946,-55.26327760160998L17.975005258273164,-46.895980801770065z" style="fill:rgb(245,142,173)"/><path d="M3.84973481566178,-33.482863363369376L-6.896211964426742,-32.72611565304468L6.601518453194066,-6.020174471534146z" style="fill:rgb(96,32,206)"/><path d="M-10.25071214016933,-39.33738851894339L3.08553830691165,-26.706505662624632L-1.7620028018131866,-36.42248452361568zM-10.25071214016933,-39.33738851894339L3.08553830691165,-26.706505662624632L-1.7620028018131866,-36.42248452361568z" style="fill:rgb(50,38,176)"/><path d="M17.975005258273164,-46.895980801770065L14.202684508770979,-29.639100079592676L22.643195150897427,-37.088648472755935z" style="fill:rgb(204,78,216)"/><path d="M-12.207895878301457,-35.8692019815438L-10.29532776617766,-34.978389379833175L-10.250724286827715,-39.33738042120709zM-10.250724286827715,-39.33738042120709L-12.207895878301457,-35.8692019815438L-10.29532776617766,-34.978389379833175zM21.533861290477358,-61.07523337182943L21.85770977125973,-46.33635606328024L24.478456913772927,-54.51031002625927z" style="fill:rgb(83,212,212)"/><path d="M113.81697599740019,-128.79445953588737L91.17582329964411,-95.82299945524744L107.01126651437805,-55.339026000167095z" style="fill:rgb(228,104,202)"/><path d="M74.33897270058812,-41.07845146194716L62.57038844700455,-68.67283759106041L63.0665519046511,-60.96166429805465z" style="fill:rgb(247,158,158)"/><path d="M19.984346319907324,-44.46651165813121L24.478456913772927,-54.51031002625927L21.533861290477358,-61.07523337182943z" style="fill:rgb(83,212,212)"/><path d="M-6.558761518705743,-33.23808974782097L17.133478282154172,-7.1251465305959245L3.8478614478144877,-33.97320072911286zM-6.558761518705743,-33.23808974782097L17.133478282154172,-7.1251465305959245L3.8478614478144877,-33.97320072911286z" style="fill:rgb(96,32,206)"/><path d="M-99.77366432439273,12.53831861070189L-86.27431632285472,39.310701569495386L-76.91968563457061,49.52402492799971z" style="fill:rgb(26,52,150)"/><path d="M91.3914484517633,-96.13701133323471L93.25207251452474,-98.84658376160849L88.42772946947072,-147.59439334203148zM-12.076698680024558,-46.67382414528898L9.443108558713606,-39.40874475456437L17.975016130790777,-46.89598623800906zM-12.076698680024558,-46.67382414528898L9.443108558713606,-39.40874475456437L17.975005258273164,-46.895980801770065z" style="fill:rgb(83,212,212)"/><path d="M9.443108558713606,-39.40874475456437L14.202684508770979,-29.639100079592676L22.643205925433712,-37.088659247277214zM9.443108558713606,-39.40874475456437L14.202684508770979,-29.639100079592676L22.643205925433712,-37.088659247277214z" style="fill:rgb(204,78,216)"/><path d="M-12.076698680024558,-46.67382414528898L-1.7620138384899917,-36.42248977081989L9.443108558713606,-39.40874475456437zM-12.076698680024558,-46.67382414528898L-1.7620028018131866,-36.42248452361568L9.443108558713606,-39.40874475456437z" style="fill:rgb(83,212,212)"/><path d="M3.0855271602511007,-26.706508079600937L14.202684508770979,-29.639100079592676L9.443108558713606,-39.40874475456437zM3.08553830691165,-26.706505662624632L14.202684508770979,-29.639100079592676L9.443108558713606,-39.40874475456437z" style="fill:rgb(127,37,217)"/><path d="M62.81749045530927,-64.83247736758591L22.104420653837444,-61.46545064283981L25.149324371133385,-54.69092968073246zM3.84973481566178,-33.482863363369376L-51.40298979652269,-20.890326556597156L-50.41902846714478,-19.079196657397965z" style="fill:rgb(83,212,212)"/><path d="M27.32460693016731,-11.802470772111908L21.85770977125973,-46.33635606328024L14.292634337949458,-38.7853291799133zM27.32460693016731,-11.802470772111908L21.85770977125973,-46.33635606328024L14.292634337949458,-38.7853291799133z" style="fill:rgb(212,85,213)"/><path d="M62.81749045530927,-64.83247736758591L61.33374602537079,-72.10054192055745L22.104420653837444,-61.46545064283981zM-1.7619951454622806,-36.42249792774826L-10.250724286827715,-39.33738042120709L-10.29532776617766,-34.978389379833175zM-10.29532776617766,-34.978389379833175L-1.7619951454622806,-36.42249792774826L-10.250724286827715,-39.33738042120709zM89.21418207214678,-92.96636368927169L88.62439880407743,-124.74807650285177L86.91560304366708,-117.39519803484997z" style="fill:rgb(83,212,212)"/><path d="M22.44770591376354,-46.25130689867402L14.636883575103388,-38.45246134393228L27.66667379246482,-11.464624555428363z" style="fill:rgb(212,85,213)"/><path d="M74.9136922940297,-33.34708857377146L61.499071438974724,-52.71215350024439L73.47064010377404,-25.107838390927885z" style="fill:rgb(245,141,174)"/><path d="M17.133478282154172,-7.1251465305959245L14.292634337949458,-38.7853291799133L3.8478614478144877,-33.97320072911286zM17.133478282154172,-7.1251465305959245L14.292634337949458,-38.7853291799133L3.8478614478144877,-33.97320072911286z" style="fill:rgb(158,48,222)"/><path d="M-13.459738479694408,22.64988177807133L-36.31449020563574,-6.499810697116584L-21.932396144658657,19.83435043205913z" style="fill:rgb(55,36,180)"/><path d="M21.533861290477358,-61.07523337182943L19.984346319907324,-44.46651165813121L21.85770977125973,-46.33635606328024z" style="fill:rgb(83,212,212)"/><path d="M14.636883575103388,-38.45246134393228L3.84973481566178,-33.482863363369376L17.141611547060315,-6.634311240592036z" style="fill:rgb(158,48,222)"/><path d="M9.443108558713606,-39.40874475456437L22.643205925433712,-37.088659247277214L17.975016130790777,-46.89598623800906zM9.443108558713606,-39.40874475456437L22.643205925433712,-37.088659247277214L17.975016130790777,-46.89598623800906z" style="fill:rgb(204,78,216)"/><path d="M3.0855271602511007,-26.706508079600937L9.443108558713606,-39.40874475456437L-1.7620138384899917,-36.42248977081989zM3.08553830691165,-26.706505662624632L9.443108558713606,-39.40874475456437L-1.7620028018131866,-36.42248452361568z" style="fill:rgb(127,37,217)"/><path d="M18.053792948640968,-42.53950199818724L19.767854556514678,-55.26329264171234L17.975029721440144,-46.89599167424805zM19.767854556514678,-55.26329264171234L17.975029721440144,-46.89599167424805L18.053792948640968,-42.53950199818724z" style="fill:rgb(83,212,212)"/><path d="M17.975005258273164,-46.895980801770065L9.443108558713606,-39.40874475456437L14.202684508770979,-29.639100079592676z" style="fill:rgb(204,78,216)"/><path d="M3.84973481566178,-33.482863363369376L-6.896211964426742,-32.72611565304468L-51.40298979652269,-20.890326556597156zM26.27748902254245,-1.3140379873926276L40.16789897384513,-122.1634929573697L23.40748189506733,-114.88048683139907zM-1.7619951454622806,-36.42249792774826L-10.29532776617766,-34.978389379833175L-6.558761518705743,-33.23808974782097zM1.8384350553354831,19.866836396203478L6.488434985044035,-108.27206982634067L1.6193320684715322,-106.58019713565062zM18.053792948640968,-42.53950199818724L19.984346319907324,-44.46651165813121L19.767854556514678,-55.26329264171234zM19.767854556514678,-55.26329264171234L18.053792948640968,-42.53950199818724L19.984346319907324,-44.46651165813121zM68.9846298409052,-63.506828495303886L67.93545966876317,-112.07352948264058L65.1307437510181,-118.12184521205555zM-10.29532776617766,-34.978389379833175L-1.7669862427721879,-33.57656402717275L-1.7619951454622806,-36.42249792774826zM-10.29532776617766,-34.978389379833175L-6.558761518705743,-33.23808974782097L-1.7669862427721879,-33.57656402717275zM19.984346319907324,-44.46651165813121L21.85770977125973,-46.33635606328024L24.478456913772927,-54.51031002625927zM62.81749045530927,-64.83247736758591L62.57038844700455,-68.67283759106041L61.33374602537079,-72.10054192055745zM7.363745726112045,17.57166984029415L23.40748189506733,-114.88048683139907L6.488434985044035,-108.27206982634067z" style="fill:rgb(83,212,212)"/><path d="M-21.932396144658657,19.83435043205913L-36.31449020563574,-6.499810697116584L-43.39604792166035,-10.629993111546334z" style="fill:rgb(38,43,165)"/><path d="M82.47455382848375,-83.15179652766989L89.95699396944744,-29.459623088313037L98.74823546164825,-42.800162666646564z" style="fill:rgb(228,104,202)"/><path d="M-98.89114667997923,13.485020427027814L-76.91968563457061,49.52402492799971L-76.03813828885436,50.48649132372176z" style="fill:rgb(26,52,150)"/><path d="M-1.7619951454622806,-36.42249792774826L-6.558761518705743,-33.23808974782097L-1.7669862427721879,-33.57656402717275zM-101.60923919269861,10.569239140038569L-85.90875018374413,27.411643055273508L-76.75678438530184,-86.42000119505609zM-1.7669862427721879,-33.57656402717275L9.443108459803536,-39.408755246766354L-1.7619951454622806,-36.42249792774826zM9.443108459803536,-39.408755246766354L-1.7619951454622806,-36.42249792774826L-1.7669862427721879,-33.57656402717275zM80.3059224804668,-79.99356845635334L86.91560304366708,-117.39519803484997L77.65536225503146,-111.71618901028016zM9.469931696114866,-36.56339463406187L17.975029721440144,-46.89599167424805L9.443108459803536,-39.408755246766354zM17.975029721440144,-46.89599167424805L9.443108459803536,-39.408755246766354L9.469931696114866,-36.56339463406187z" style="fill:rgb(83,212,212)"/><path d="M-99.77366432439273,12.53831861070189L-109.13312533213619,2.4980947946613457L-86.27431632285472,39.310701569495386z" style="fill:rgb(26,52,150)"/><path d="M74.9136922940297,-33.34708857377146L63.0665519046511,-60.96166429805465L61.499071438974724,-52.71215350024439z" style="fill:rgb(245,141,174)"/><path d="M9.469931696114866,-36.56339463406187L18.053792948640968,-42.53950199818724L17.975029721440144,-46.89599167424805zM17.975029721440144,-46.89599167424805L14.292634337949458,-38.7853291799133L18.053792948640968,-42.53950199818724z" style="fill:rgb(83,212,212)"/><path d="M73.47064010377404,-25.107838390927885L57.880310220315515,-44.215319311988L70.01963198857707,-16.651734753567876z" style="fill:rgb(239,123,188)"/><path d="M71.2460450971576,-66.80001853230459L77.65536225503146,-111.71618901028016L67.93545966876317,-112.07352948264058zM62.29559734774414,-56.90418539791105L25.149324371133385,-54.69092968073246L22.44770591376354,-46.25130689867402zM9.443108459803536,-39.408755246766354L-1.7669862427721879,-33.57656402717275L3.8478614478144877,-33.97320072911286zM17.975029721440144,-46.89599167424805L9.469931696114866,-36.56339463406187L14.292634337949458,-38.7853291799133zM-1.7669862427721879,-33.57656402717275L9.469931696114866,-36.56339463406187L9.443108459803536,-39.408755246766354z" style="fill:rgb(83,212,212)"/><path d="M-3.809874395090797,23.924544061970238L-27.722795990940405,-3.7959120196578278L-13.459738479694408,22.64988177807133z" style="fill:rgb(74,33,194)"/><path d="M62.29559734774414,-56.90418539791105L62.81749045530927,-64.83247736758591L25.149324371133385,-54.69092968073246zM9.443108459803536,-39.408755246766354L3.8478614478144877,-33.97320072911286L9.469931696114866,-36.56339463406187zM-1.7669862427721879,-33.57656402717275L3.8478614478144877,-33.97320072911286L9.469931696114866,-36.56339463406187zM89.21418207214678,-92.96636368927169L91.3914484517633,-96.13701133323471L88.62439880407743,-124.74807650285177zM9.469931696114866,-36.56339463406187L14.292634337949458,-38.7853291799133L18.053792948640968,-42.53950199818724z" style="fill:rgb(83,212,212)"/><path d="M91.17582329964411,-95.82299945524744L82.47455382848375,-83.15179652766989L98.74823546164825,-42.800162666646564z" style="fill:rgb(228,104,202)"/><path d="M15.186773124289612,-8.921823052516226L-50.41902846714478,-19.079196657397965L-48.75031225511384,-16.007838559609247z" style="fill:rgb(83,212,212)"/><path d="M-13.459738479694408,22.64988177807133L-27.722795990940405,-3.7959120196578278L-36.31449020563574,-6.499810697116584z" style="fill:rgb(55,36,180)"/><path d="M62.29559734774414,-56.90418539791105L63.0665519046511,-60.96166429805465L62.81749045530927,-64.83247736758591zM60.635711024882056,-50.68503580780351L22.44770591376354,-46.25130689867402L14.636883575103388,-38.45246134393228z" style="fill:rgb(83,212,212)"/><path d="M70.01963198857707,-16.651734753567876L52.30562369370094,-35.78396047744105L64.65130325524653,-8.29003361131369z" style="fill:rgb(229,106,201)"/><path d="M6.675677975816463,23.583379519980262L-17.907378181668186,-2.648221874451607L-3.809874395090797,23.924544061970238z" style="fill:rgb(94,32,205)"/><path d="M73.21168382705342,-69.66223715740391L80.64998321999273,-15.335901220278968L89.95724733111635,-29.459574076656374z" style="fill:rgb(228,104,202)"/><path d="M73.47064010377404,-25.107838390927885L61.499071438974724,-52.71215350024439L57.880310220315515,-44.215319311988z" style="fill:rgb(239,123,188)"/><path d="M80.3059224804668,-79.99356845635334L89.21418207214678,-92.96636368927169L86.91560304366708,-117.39519803484997zM59.61278290930577,-48.283133266999336L14.636883575103388,-38.45246134393228L3.84973481566178,-33.482863363369376zM60.635711024882056,-50.68503580780351L62.29559734774414,-56.90418539791105L22.44770591376354,-46.25130689867402z" style="fill:rgb(83,212,212)"/><path d="M-89.88139147592071,23.15013557166194L-76.03813828885436,50.48649132372176L-67.04335125369306,60.30697641055385z" style="fill:rgb(26,52,150)"/><path d="M15.186773124289612,-8.921823052516226L-48.75031225511384,-16.007838559609247L-43.39604792166035,-10.629993111546334zM-55.157625697522676,9.003515239203178L-48.807229984274535,7.360713526482529L-44.1430630108866,-92.8349695685432zM-62.25143500017076,17.264161989200897L-55.157625697522676,9.003515239203178L-49.8743585267,-91.58213056894498z" style="fill:rgb(83,212,212)"/><path d="M-98.89114667997923,13.485020427027814L-99.77366432439273,12.53831861070189L-76.91968563457061,49.52402492799971z" style="fill:rgb(26,52,150)"/><path d="M61.48161929452277,-52.580472433513506L68.9846298409052,-63.506828495303886L64.01371833327934,-133.95168212833832z" style="fill:rgb(83,212,212)"/><path d="M64.65130325524653,-8.29003361131369L44.95504658595297,-27.739053392036478L57.538736390437776,-0.34066122023129136z" style="fill:rgb(216,89,211)"/><path d="M-48.807229984274535,7.360713526482529L-44.3482361711847,6.207204428700807L-40.109627324817204,-93.89138862716484z" style="fill:rgb(83,212,212)"/><path d="M17.609734252731315,21.616518014771703L-7.215481475465045,-3.128022994051618L6.675677975816463,23.583379519980262z" style="fill:rgb(116,34,214)"/><path d="M-85.90875018374413,27.411643055273508L-79.44036159356185,34.06168093940381L-70.45735317444827,-87.51803358076835zM59.61278290930577,-48.283133266999336L60.635711024882056,-50.68503580780351L14.636883575103388,-38.45246134393228z" style="fill:rgb(83,212,212)"/><path d="M-3.809874395090797,23.924544061970238L-17.907378181668186,-2.648221874451607L-27.722795990940405,-3.7959120196578278z" style="fill:rgb(74,33,194)"/><path d="M60.635711024882056,-50.68503580780351L61.499071438974724,-52.71215350024439L62.29559734774414,-56.90418539791105z" style="fill:rgb(83,212,212)"/><path d="M70.01963198857707,-16.651734753567876L57.880310220315515,-44.215319311988L52.30562369370094,-35.78396047744105z" style="fill:rgb(229,106,201)"/><path d="M15.186773124289612,-8.921823052516226L59.61278290930577,-48.283133266999336L-50.41902846714478,-19.079196657397965z" style="fill:rgb(83,212,212)"/><path d="M82.47455382848375,-83.15179652766989L73.21142353785291,-69.662286095098L89.95699396944744,-29.459623088313037z" style="fill:rgb(228,104,202)"/><path d="M71.2460450971576,-66.80001853230459L80.3059224804668,-79.99356845635334L77.65536225503146,-111.71618901028016z" style="fill:rgb(83,212,212)"/><path d="M57.538736390437776,-0.34066122023129136L36.08881694496577,-20.39405812363924L48.93318735774636,6.887278687591211z" style="fill:rgb(199,74,218)"/><path d="M28.57708555876523,18.0828592811688L3.957636203724419,-5.2406322791208435L17.609734252731315,21.616518014771703z" style="fill:rgb(138,40,220)"/><path d="M-44.3482361711847,6.207204428700807L-37.81355591796283,10.981671379049661L-33.986665734712915,-95.4950874562813zM15.186773124289612,-8.921823052516226L-43.39604792166035,-10.629993111546334L-36.31449020563574,-6.499810697116584zM68.9846298409052,-63.506828495303886L71.2460450971576,-66.80001853230459L67.93545966876317,-112.07352948264058z" style="fill:rgb(83,212,212)"/><path d="M48.93318735774636,6.887278687591211L26.0375602342596,-14.038444766041623L39.154675217146945,13.109673074726238z" style="fill:rgb(180,60,221)"/><path d="M39.154675217146945,13.109673074726238L15.186773124289612,-8.921823052516226L28.57708555876523,18.0828592811688z" style="fill:rgb(160,49,222)"/><path d="M-89.88139147592071,23.15013557166194L-98.89114667997923,13.485020427027814L-76.03813828885436,50.48649132372176z" style="fill:rgb(26,52,150)"/><path d="M63.39820555518195,-55.3717026655728L70.84055343338969,-0.4508104859710523L80.6496775971858,-15.335963531932704z" style="fill:rgb(228,104,202)"/><path d="M6.675677975816463,23.583379519980262L-7.215481475465045,-3.128022994051618L-17.907378181668186,-2.648221874451607z" style="fill:rgb(94,32,205)"/><path d="M-23.0414327721895,44.21428230277295L-55.157625697522676,9.003515239203178L-33.51047959308398,46.80931488371981z" style="fill:rgb(127,37,217)"/><path d="M-55.157625697522676,9.003515239203178L-40.24934910401869,54.930472118526524L-33.51047959308398,46.80931488371981z" style="fill:rgb(221,95,207)"/><path d="M64.65130325524653,-8.29003361131369L52.30562369370094,-35.78396047744105L44.95504658595297,-27.739053392036478z" style="fill:rgb(216,89,211)"/><path d="M44.30290099342393,-27.56373323038771L61.48161929452277,-52.580472433513506L56.6617281506199,-130.0774039514531zM-79.44036159356185,34.06168093940381L-68.65558150777368,36.77335053021056L-60.629804693624,-89.23104440046394zM-16.130741900908607,-1.092457669368709L-11.598516000694342,-2.264911567572163L-10.48080436389181,-102.37571354110449zM15.186773124289612,-8.921823052516226L-36.31449020563574,-6.499810697116584L-27.722795990940405,-3.7959120196578278zM-23.116425930372593,7.203332486793166L-16.130741900908607,-1.092457669368709L-14.579212289081374,-101.12680815142146zM-11.598516000694342,-2.264911567572163L-5.108640545675006,-3.943795578433662L-4.613768454932215,-104.41434021626473z" style="fill:rgb(83,212,212)"/><path d="M17.609734252731315,21.616518014771703L3.957636203724419,-5.2406322791208435L-7.215481475465045,-3.128022994051618z" style="fill:rgb(116,34,214)"/><path d="M57.538736390437776,-0.34066122023129136L44.95504658595297,-27.739053392036478L36.08881694496577,-20.39405812363924z" style="fill:rgb(199,74,218)"/><path d="M73.21168382705342,-69.66223715740391L63.39851944165152,-55.37164678545566L80.64998321999273,-15.335901220278968z" style="fill:rgb(228,104,202)"/><path d="M-68.65558150777368,36.77335053021056L-63.372486065240196,36.32393720467378L-55.92717770051116,-90.25903519719175z" style="fill:rgb(83,212,212)"/><path d="M-79.83249841556453,33.92985998405989L-67.04335125369306,60.30697641055385L-57.02202306789494,71.24811977533429z" style="fill:rgb(26,52,150)"/><path d="M15.186773124289612,-8.921823052516226L57.880310220315515,-44.215319311988L59.61278290930577,-48.283133266999336z" style="fill:rgb(83,212,212)"/><path d="M-62.25143500017076,17.264161989200897L-38.20308666117839,62.58455264482544L-40.24934910401869,54.930472118526524z" style="fill:rgb(244,177,137)"/><path d="M28.57708555876523,18.0828592811688L15.186773124289612,-8.921823052516226L3.957636203724419,-5.2406322791208435z" style="fill:rgb(138,40,220)"/><path d="M-5.108640545675006,-3.943795578433662L1.8053905290280725,0.7964308513618851L1.6193320684715322,-106.58019713565062zM15.186773124289612,-8.921823052516226L-27.722795990940405,-3.7959120196578278L-17.907378181668186,-2.648221874451607z" style="fill:rgb(83,212,212)"/><path d="M48.93318735774636,6.887278687591211L36.08881694496577,-20.39405812363924L26.0375602342596,-14.038444766041623z" style="fill:rgb(180,60,221)"/><path d="M-37.81355591796283,10.981671379049661L-23.0414327721895,44.21428230277295L-16.585493411101684,49.10286551160174z" style="fill:rgb(33,47,159)"/><path d="M39.154675217146945,13.109673074726238L26.0375602342596,-14.038444766041623L15.186773124289612,-8.921823052516226z" style="fill:rgb(160,49,222)"/><path d="M53.049221142041304,-40.30031349485554L60.54650468147364,15.170901138310448L70.8409006383669,-0.4507347408853662z" style="fill:rgb(228,104,202)"/><path d="M15.186773124289612,-8.921823052516226L52.30562369370094,-35.78396047744105L57.880310220315515,-44.215319311988z" style="fill:rgb(83,212,212)"/><path d="M14.94523239920623,34.798284681240155L-16.130741900908607,-1.092457669368709L4.277831312886328,37.44248207214716z" style="fill:rgb(127,37,217)"/><path d="M15.186773124289612,-8.921823052516226L-17.907378181668186,-2.648221874451607L-7.215481475465045,-3.128022994051618z" style="fill:rgb(83,212,212)"/><path d="M-56.63733170884681,71.38665588445689L-79.83249841556453,33.92985998405989L-57.02202306789494,71.24811977533429z" style="fill:rgb(57,36,182)"/><path d="M4.277831312886328,37.44248207214716L-23.116425930372593,7.203332486793166L-2.3590057382700804,45.59936057852323z" style="fill:rgb(221,95,207)"/><path d="M15.186773124289612,-8.921823052516226L44.95504658595297,-27.739053392036478L52.30562369370094,-35.78396047744105zM26.27748902254245,-1.3140379873926276L44.30290099342393,-27.56373323038771L40.16789897384513,-122.1634929573697zM15.186773124289612,-8.921823052516226L-7.215481475465045,-3.128022994051618L3.957636203724419,-5.2406322791208435z" style="fill:rgb(83,212,212)"/><path d="M-79.83249841556453,33.92985998405989L-89.88139147592071,23.15013557166194L-67.04335125369306,60.30697641055385z" style="fill:rgb(26,52,150)"/><path d="M-48.18830161028105,74.42955827729565L-79.44036159356185,34.06168093940381L-56.63733170884681,71.38665588445689z" style="fill:rgb(57,36,182)"/><path d="M-23.0414327721895,44.21428230277295L-44.3482361711847,6.207204428700807L-55.157625697522676,9.003515239203178z" style="fill:rgb(127,37,217)"/><path d="M-38.52241186586885,30.704398996405402L-31.050852992778587,28.820037004999723L-27.392958249069935,-97.22210042173789zM15.186773124289612,-8.921823052516226L36.08881694496577,-20.39405812363924L44.95504658595297,-27.739053392036478z" style="fill:rgb(83,212,212)"/><path d="M-55.157625697522676,9.003515239203178L-62.25143500017076,17.264161989200897L-40.24934910401869,54.930472118526524z" style="fill:rgb(221,95,207)"/><path d="M63.39820555518195,-55.3717026655728L53.04886476255075,-40.30038332108471L70.84055343338969,-0.4508104859710523z" style="fill:rgb(228,104,202)"/><path d="M15.186773124289612,-8.921823052516226L26.0375602342596,-14.038444766041623L36.08881694496577,-20.39405812363924z" style="fill:rgb(83,212,212)"/><path d="M-23.116425930372593,7.203332486793166L0.01650063305174482,53.25014660302205L-2.3590057382700804,45.59936057852323z" style="fill:rgb(244,177,137)"/><path d="M-31.050852992778587,28.820037004999723L-23.551386972018683,26.928636330634657L-20.769240433564484,-99.24052414346806z" style="fill:rgb(83,212,212)"/><path d="M1.8053905290280725,0.7964308513618851L14.94523239920623,34.798284681240155L21.755930160283576,39.66066492463772zM-37.81355591796283,10.981671379049661L-44.3482361711847,6.207204428700807L-23.0414327721895,44.21428230277295z" style="fill:rgb(33,47,159)"/><path d="M42.17987781668475,-24.472018912700175L49.78556034551927,31.500082398524373L60.546284405216376,15.170850248630577z" style="fill:rgb(228,104,202)"/><path d="M-45.371760566159,74.23529965383139L-70.82557104272611,36.957958313042774L-48.18830161028105,74.42955827729565z" style="fill:rgb(102,32,209)"/><path d="M7.363745726112045,17.57166984029415L26.27748902254245,-1.3140379873926276L23.40748189506733,-114.88048683139907z" style="fill:rgb(83,212,212)"/><path d="M-59.496968249553596,35.99427887464443L-45.371760566159,74.23529965383139L-37.18235828306294,73.67050802447918z" style="fill:rgb(102,32,209)"/><path d="M-62.25143500017076,17.264161989200897L-60.31140688855936,24.896175373352367L-38.20308666117839,62.58455264482544z" style="fill:rgb(244,177,137)"/><path d="M1.8384350553354831,19.866836396203478L7.363745726112045,17.57166984029415L6.488434985044035,-108.27206982634067z" style="fill:rgb(83,212,212)"/><path d="M4.277831312886328,37.44248207214716L-16.130741900908607,-1.092457669368709L-23.116425930372593,7.203332486793166z" style="fill:rgb(221,95,207)"/><path d="M14.94523239920623,34.798284681240155L-5.108640545675006,-3.943795578433662L-16.130741900908607,-1.092457669368709z" style="fill:rgb(127,37,217)"/><path d="M-56.63733170884681,71.38665588445689L-79.44036159356185,34.06168093940381L-79.83249841556453,33.92985998405989z" style="fill:rgb(57,36,182)"/><path d="M53.049221142041304,-40.30031349485554L42.1801008631476,-24.47197365497514L60.54650468147364,15.170901138310448z" style="fill:rgb(228,104,202)"/><path d="M1.8053905290280725,0.7964308513618851L-5.108640545675006,-3.943795578433662L14.94523239920623,34.798284681240155z" style="fill:rgb(33,47,159)"/><path d="M18.250542896351543,60.2887984224198L-59.496968249553596,35.99427887464443L-37.18235828306294,73.67050802447918z" style="fill:rgb(127,37,217)"/><path d="M30.80980339709294,-7.914322020798873L38.97833926198414,47.89973125272813L49.78549029652426,31.500063864680225z" style="fill:rgb(228,104,202)"/><path d="M-48.18830161028105,74.42955827729565L-70.82557104272611,36.957958313042774L-79.44036159356185,34.06168093940381z" style="fill:rgb(57,36,182)"/><path d="M-23.116425930372593,7.203332486793166L-20.824837821624794,14.82550854547065L0.01650063305174482,53.25014660302205z" style="fill:rgb(244,177,137)"/><path d="M-45.371760566159,74.23529965383139L-67.9268336852644,36.7113639775011L-70.82557104272611,36.957958313042774z" style="fill:rgb(102,32,209)"/><path d="M-85.90875018374413,27.411643055273508L-79.83249841556453,33.92985998405989L-79.44036159356185,34.06168093940381z" style="fill:rgb(83,212,212)"/><path d="M-59.496968249553596,35.99427887464443L-67.9268336852644,36.7113639775011L-45.371760566159,74.23529965383139z" style="fill:rgb(102,32,209)"/><path d="M42.17987781668475,-24.472018912700175L30.809875116671826,-7.914306429713045L49.78556034551927,31.500082398524373z" style="fill:rgb(228,104,202)"/><path d="M19.381966427878247,8.727596768766L38.57084161361998,48.23647415165311L38.97833926198414,47.89973125272813zM18.956069063958058,9.072954277303849L29.659926216373304,55.5997513136917L38.57084161361998,48.23647415165311z" style="fill:rgb(197,72,218)"/><path d="M6.59981621625402,17.88900517051651L18.250542896351543,60.2887984224198L26.728066792480703,56.80468147234946z" style="fill:rgb(152,45,222)"/><path d="M-63.372486065240196,36.32393720467378L-60.31140688855936,24.896175373352367L-62.25143500017076,17.264161989200897z" style="fill:rgb(83,212,212)"/><path d="M9.641852664706699,16.62537765981786L26.728066792480703,56.80468147234946L29.659926216373304,55.5997513136917z" style="fill:rgb(152,45,222)"/><path d="M-79.44036159356185,34.06168093940381L-70.82557104272611,36.957958313042774L-68.65558150777368,36.77335053021056zM-60.94627489649968,36.11755377953062L-50.63759534886729,26.09793915904042L-60.31140688855936,24.896175373352367zM-41.001056142962966,31.3295249773266L-37.81355591796283,10.981671379049661L-40.562538706863855,19.859418326556014zM-63.372486065240196,36.32393720467378L-60.94627489649968,36.11755377953062L-60.31140688855936,24.896175373352367z" style="fill:rgb(83,212,212)"/><path d="M30.80980339709294,-7.914322020798873L19.381966427878247,8.727596768766L38.97833926198414,47.89973125272813z" style="fill:rgb(228,104,202)"/><path d="M18.250542896351543,60.2887984224198L-2.1959107386433585,21.542687358504217L-59.496968249553596,35.99427887464443z" style="fill:rgb(127,37,217)"/><path d="M-51.00554603643163,33.85270129900556L-40.562538706863855,19.859418326556014L-50.63759534886729,26.09793915904042zM-60.94627489649968,36.11755377953062L-51.00554603643163,33.85270129900556L-50.63759534886729,26.09793915904042zM-41.001056142962966,31.3295249773266L-38.52241186586885,30.704398996405402L-37.81355591796283,10.981671379049661zM-23.551386972018683,26.928636330634657L-20.824837821624794,14.82550854547065L-23.116425930372593,7.203332486793166z" style="fill:rgb(83,212,212)"/><path d="M19.381966427878247,8.727596768766L18.956069063958058,9.072954277303849L38.57084161361998,48.23647415165311z" style="fill:rgb(197,72,218)"/><path d="M-51.00554603643163,33.85270129900556L-41.001056142962966,31.3295249773266L-40.562538706863855,19.859418326556014zM-60.94627489649968,36.11755377953062L-59.496968249553596,35.99427887464443L-51.00554603643163,33.85270129900556z" style="fill:rgb(83,212,212)"/><path d="M18.956069063958058,9.072954277303849L9.641852664706699,16.62537765981786L29.659926216373304,55.5997513136917z" style="fill:rgb(197,72,218)"/><path d="M6.59981621625402,17.88900517051651L-2.1959107386433585,21.542687358504217L18.250542896351543,60.2887984224198zM9.641852664706699,16.62537765981786L6.59981621625402,17.88900517051651L26.728066792480703,56.80468147234946z" style="fill:rgb(152,45,222)"/><path d="M-21.051094321565806,26.29805015669404L-10.816458286662241,15.978508879534282L-20.824837821624794,14.82550854547065zM-0.6890656954292459,20.91674355453354L1.8053905290280725,0.7964308513618851L-0.681780428970225,9.688217541838375zM-23.551386972018683,26.928636330634657L-21.051094321565806,26.29805015669404L-20.824837821624794,14.82550854547065zM-10.895843507861224,23.736849593218757L-0.681780428970225,9.688217541838375L-10.816458286662241,15.978508879534282zM-0.6890656954292459,20.91674355453354L1.8384350553354831,19.866836396203478L1.8053905290280725,0.7964308513618851zM-21.051094321565806,26.29805015669404L-10.895843507861224,23.736849593218757L-10.816458286662241,15.978508879534282zM-10.895843507861224,23.736849593218757L-0.6890656954292459,20.91674355453354L-0.681780428970225,9.688217541838375zM7.363745726112045,17.57166984029415L19.381966427878247,8.727596768766L26.27748902254245,-1.3140379873926276zM7.363745726112045,17.57166984029415L18.956069063958058,9.072954277303849L19.381966427878247,8.727596768766zM-10.895843507861224,23.736849593218757L-2.1959107386433585,21.542687358504217L-0.6890656954292459,20.91674355453354zM7.363745726112045,17.57166984029415L9.641852664706699,16.62537765981786L18.956069063958058,9.072954277303849z" style="fill:rgb(83,212,212)"/></svg>
