<?xml version="1.0" encoding="UTF-8"?>
<!-- Generated by jsxcad -->
<!DOCTYPE svg PUBLIC "-//W3C//DTD SVG 1.1 Tiny//EN" "http://www.w3.org/Graphics/SVG/1.1/DTD/svg11-tiny.dtd">
<svg viewBox="-250 -250 500 500" width="500" height="500" xmlns="http://www.w3.org/2000/svg"><path d="M-144.42834272998897,-21.056234513411518L-137.8012578628532,-3.174200122750156L-123.41660544909723,11.753970281747728zM-144.42834272998897,-21.056234513411518L-158.771613542538,-35.68532670233888L-137.8012578628532,-3.174200122750156z" style="fill:rgb(28,51,152)"/><path d="M-122.64678535339502,5.186366499608405L-144.42837613089844,-21.056204990550295L-123.41663804164872,11.754001222739022zM-122.4165015722266,5.292404718037221L-144.21107175061675,-20.834570943255986L-123.19886463954256,11.980000430266937zM-121.72592126339694,5.610397919586994L-143.55909008066033,-20.169582425227908L-122.54550772366503,12.6580592050707z" style="fill:rgb(247,158,158)"/><path d="M-156.49612631034927,-33.36443926076337L-156.38472457146838,-34.08181140979474L-158.7716325942446,-35.68529649155611z" style="fill:rgb(83,212,212)"/><path d="M-123.19886463954256,11.980000430266937L-144.42837613089844,-21.056204990550295L-123.41663804164872,11.754001222739022zM-122.54550772366503,12.6580592050707L-144.21107175061675,-20.834570943255986L-123.19886463954256,11.980000430266937z" style="fill:rgb(28,51,152)"/><path d="M-120.5758466150583,6.139972181831057L-142.472212409585,-19.06107540186388L-121.45643097806366,13.788255174365375z" style="fill:rgb(247,158,158)"/><path d="M-121.45643097806366,13.788255174365375L-143.55909008066033,-20.169582425227908L-122.54550772366503,12.6580592050707z" style="fill:rgb(28,51,152)"/><path d="M-118.96344917857105,6.842509715054376L-140.95020870705574,-17.50872296471451L-119.93155590550357,15.370775214275508z" style="fill:rgb(247,158,158)"/><path d="M-156.49612631034927,-33.36443926076337L-148.66534506692562,-29.878167273610085L-156.38472457146838,-34.08181140979474z" style="fill:rgb(83,212,212)"/><path d="M-140.95002715682125,-17.508857917515574L-121.45626444357659,13.7881312132943L-119.93138040527036,15.370644017815929z" style="fill:rgb(28,51,152)"/><path d="M-116.87873882190524,7.607652393641196L-138.99272930692712,-15.51226132326058L-117.9707146494944,17.405681151565048zM-122.64678535339502,5.186366499608405L-143.49893581713604,-27.620603001598113L-144.42837613089844,-21.056204990550295zM-122.4165015722266,5.292404718037221L-143.26627434730673,-27.518937188963168L-144.21107175061675,-20.834570943255986z" style="fill:rgb(247,158,158)"/><path d="M-117.9707146494944,17.405681151565048L-140.95020870705574,-17.50872296471451L-119.93155590550357,15.370775214275508z" style="fill:rgb(28,51,152)"/><path d="M-121.72592126339694,5.610397919586994L-142.56854224071736,-27.214049223452932L-143.55909008066033,-20.169582425227908z" style="fill:rgb(247,158,158)"/><path d="M-156.49612631034927,-33.36443926076337L-149.24071113688026,-25.9644561316021L-148.66534506692562,-29.878167273610085z" style="fill:rgb(83,212,212)"/><path d="M-120.5758466150583,6.139972181831057L-141.4064898897337,-26.706269334798744L-142.472212409585,-19.06107540186388zM-114.3371287422576,8.540507775340263L-136.59935809924252,-13.07120400264364L-115.5737560815768,19.893199106818738zM-118.96344917857105,6.842509715054376L-139.77628128266062,-26.034122490103396L-140.95020870705574,-17.50872296471451z" style="fill:rgb(247,158,158)"/><path d="M-123.19886463954256,11.980000430266937L-144.21107175061675,-20.834570943255986L-144.42837613089844,-21.056204990550295zM-122.54550772366503,12.6580592050707L-143.55909008066033,-20.169582425227908L-144.21107175061675,-20.834570943255986z" style="fill:rgb(28,51,152)"/><path d="M-111.34256136230663,9.639625925569549L-133.7697308138813,-10.18518232858039L-112.7406278033592,22.83338213635091zM-116.87873882190524,7.607652393641196L-137.66520903150047,-25.307814598031488L-138.99272930692712,-15.51226132326058z" style="fill:rgb(247,158,158)"/><path d="M-121.45643097806366,13.788255174365375L-142.472212409585,-19.06107540186388L-143.55909008066033,-20.169582425227908z" style="fill:rgb(28,51,152)"/><path d="M-149.24071113688026,-25.9644561316021L-140.2092653039242,-26.183105988575083L-148.66534506692562,-29.878167273610085z" style="fill:rgb(83,212,212)"/><path d="M-133.76969903402124,-10.185197508285945L-117.97068961759263,17.405655680405545L-112.74058869781626,22.83336649416725zM-140.95002715682125,-17.508857917515574L-142.47203124126762,-19.06120398607633L-121.45626444357659,13.7881312132943z" style="fill:rgb(28,51,152)"/><path d="M-114.3371287422576,8.540507775340263L-135.0911200106864,-24.42218878917614L-136.59935809924252,-13.07120400264364zM-107.87973033520248,10.70782403709372L-130.50350750067926,-6.853861172432176L-109.47136141967518,26.22618606898044z" style="fill:rgb(247,158,158)"/><path d="M-117.9707146494944,17.405681151565048L-138.99272930692712,-15.51226132326058L-140.95020870705574,-17.50872296471451z" style="fill:rgb(28,51,152)"/><path d="M-149.24071113688026,-25.9644561316021L-141.35111306222134,-17.91760424489324L-140.2092653039242,-26.183105988575083z" style="fill:rgb(83,212,212)"/><path d="M-111.34256136230663,9.639625925569549L-132.05780950700267,-23.378551891418052L-133.7697308138813,-10.18518232858039z" style="fill:rgb(247,158,158)"/><path d="M-130.5034237904159,-6.853924955365436L-112.74054705169719,22.83332296602611L-109.47127247405389,26.22612259297983z" style="fill:rgb(28,51,152)"/><path d="M-141.35111306222134,-17.91760424489324L-139.77628128266062,-26.034122490103396L-140.2092653039242,-26.183105988575083z" style="fill:rgb(83,212,212)"/><path d="M-133.76969903402124,-10.185197508285945L-138.9927111544055,-15.512286105883755L-117.97068961759263,17.405655680405545z" style="fill:rgb(28,51,152)"/><path d="M-103.96429149744557,11.821809832702701L-126.80049021364462,-3.0771125256009255L-105.76618851191317,30.071296728911957zM-107.87973033520248,10.70782403709372L-128.54519199973396,-22.373850252464006L-130.50350750067926,-6.853861172432176z" style="fill:rgb(247,158,158)"/><path d="M-141.35111306222134,-17.91760424489324L-131.03904697511263,-23.028045050585813L-139.77628128266062,-26.034122490103396z" style="fill:rgb(83,212,212)"/><path d="M-126.80059290901028,-3.077024112080344L-109.47144167838825,26.226247382659704L-105.76628698906165,30.071382734427804z" style="fill:rgb(28,51,152)"/><path d="M-103.96429149744557,11.821809832702701L-124.57068583472899,-21.331246423815628L-126.80049021364462,-3.0771125256009255zM-99.60520586449374,12.986361264184524L-122.6607254969907,1.1451470617000237L-101.62563868401014,34.368293007126276z" style="fill:rgb(247,158,158)"/><path d="M-130.5034237904159,-6.853924955365436L-133.76965554875878,-10.185242688369863L-112.74054705169719,22.83332296602611z" style="fill:rgb(28,51,152)"/><path d="M-141.35111306222134,-17.91760424489324L-132.81711708480185,-9.213591169857569L-131.03904697511263,-23.028045050585813z" style="fill:rgb(83,212,212)"/><path d="M-99.60520586449374,12.986361264184524L-120.14330617773203,-20.24577400034441L-122.6607254969907,1.1451470617000237z" style="fill:rgb(247,158,158)"/><path d="M-122.6607254969907,1.1451470617000237L-105.76618851191317,30.071296728911957L-101.62563868401014,34.368293007126276z" style="fill:rgb(28,51,152)"/><path d="M-132.81711708480185,-9.213591169857569L-121.18283738539195,-20.44251960345072L-131.03904697511263,-23.028045050585813z" style="fill:rgb(83,212,212)"/><path d="M-94.7940783741015,13.999021469232312L-118.08461168917896,5.812456755948672L-97.05064497363755,39.11614584943637z" style="fill:rgb(247,158,158)"/><path d="M-126.80059290901028,-3.077024112080344L-130.5035993275762,-6.853798404076137L-109.47144167838825,26.226247382659704z" style="fill:rgb(28,51,152)"/><path d="M-94.7940783741015,13.999021469232312L-115.24993428790697,-19.319639274838302L-118.08461168917896,5.812456755948672z" style="fill:rgb(247,158,158)"/><path d="M-118.08456191199289,5.812429851333088L-101.62558260889345,34.36826503282406L-97.05059653737507,39.116121667917845z" style="fill:rgb(28,51,152)"/><path d="M-89.56113984015936,15.05094940906897L-113.07287378873956,10.924098006951127L-92.04255345201368,44.313506463774665z" style="fill:rgb(247,158,158)"/><path d="M-122.6607254969907,1.1451470617000237L-126.80049021364462,-3.0771125256009255L-105.76618851191317,30.071296728911957z" style="fill:rgb(28,51,152)"/><path d="M-89.56113984015936,15.05094940906897L-109.92527770717561,-18.361508892158607L-113.07287378873956,10.924098006951127z" style="fill:rgb(247,158,158)"/><path d="M-132.81711708480185,-9.213591169857569L-123.6286912816493,0.15791952092177033L-121.18283738539195,-20.44251960345072zM-123.6286912816493,0.15791952092177033L-110.67462751425377,-18.453701814253286L-121.18283738539195,-20.44251960345072z" style="fill:rgb(83,212,212)"/><path d="M-83.89695229850892,15.86166511128707L-107.62686186026792,16.478601651011886L-86.60333436721747,49.95820223718642zM-83.89695229850892,15.86166511128707L-104.1535892776244,-17.65158383561954L-107.62686186026792,16.478601651011886z" style="fill:rgb(247,158,158)"/><path d="M-118.08456191199289,5.812429851333088L-122.66067570671818,1.145117075989522L-101.62558260889345,34.36826503282406zM-107.62686186026792,16.478601651011886L-97.05064497363755,39.11614584943637L-86.60333436721747,49.95820223718642z" style="fill:rgb(28,51,152)"/><path d="M-77.8354333332934,16.633093992642866L-97.97352835087113,-16.987698548788018L-101.74865532442175,22.473985893077447z" style="fill:rgb(247,158,158)"/><path d="M-113.77630817977602,10.206653591732936L-99.55437041412722,-17.085872255138195L-110.67462751425377,-18.453701814253286z" style="fill:rgb(83,212,212)"/><path d="M-77.8354333332934,16.633093992642866L-101.74865532442175,22.473985893077447L-80.73579123557425,56.04748553053987z" style="fill:rgb(247,158,158)"/><path d="M-123.6286912816493,0.15791952092177033L-113.77630817977602,10.206653591732936L-110.67462751425377,-18.453701814253286z" style="fill:rgb(83,212,212)"/><path d="M-107.62686186026792,16.478601651011886L-118.08461168917896,5.812456755948672L-97.05064497363755,39.11614584943637z" style="fill:rgb(28,51,152)"/><path d="M153.50274411113764,-122.21096778024967L149.71360260506393,-59.9407092317085L165.94567452921956,-84.35904723657072z" style="fill:rgb(226,102,203)"/><path d="M-71.3798785048991,17.156320952984032L-91.3839773194624,-16.578475336788628L-95.44108708402159,28.907224110498056zM-71.3798785048991,17.156320952984032L-95.44108708402159,28.907224110498056L-74.44350962049022,62.57749975803496z" style="fill:rgb(247,158,158)"/><path d="M-101.74865532442175,22.473985893077447L-86.60333436721747,49.95820223718642L-80.73579123557425,56.04748553053987z" style="fill:rgb(28,51,152)"/><path d="M-103.25130628408077,20.941351762183093L-87.86783780665263,-16.36011672844788L-99.55437041412722,-17.085872255138195z" style="fill:rgb(83,212,212)"/><path d="M-64.55825583148237,17.51362564706585L-84.41508844245271,-16.341325965317363L-88.70808016698285,35.774383137865705zM7.53666546454578,-9.213965111228372L17.749028196640772,11.089174288983948L17.672049077963027,6.525662525222368zM-10.579503478554685,2.5734721760981603L0.007544402825718355,22.695668854377406L0.0074616307890142605,11.024244879667274zM148.71512901414462,-66.48438990115501L136.51790424914273,-97.56198731402372L149.71360260506393,-59.9407092317085zM148.45501852064115,-66.23731614704867L136.26259118646794,-97.19147508831652L149.46973335992442,-59.57384867856686zM16.56580856542536,-12.652798087758615L26.615189237784577,7.740089782705216L26.516798934431822,3.8627057349569394z" style="fill:rgb(247,158,158)"/><path d="M10.84130980666626,-10.772796733881824L13.048296368539107,13.301624759617452L20.991182770644247,9.563196038323545z" style="fill:rgb(160,49,222)"/><path d="M2.745361881673675,-6.953893367083702L5.667115397485607,17.9848347451911L13.048296368539107,13.301624759617452z" style="fill:rgb(180,60,221)"/><path d="M147.67536773437763,-65.49672896162538L135.49693077086238,-96.08030114566071L148.73841451689526,-58.47369335769819zM-9.122559045860644,-26.153407294833148L8.88072345718533,15.945850554620923L8.822285413689654,8.990036829857514z" style="fill:rgb(247,158,158)"/><path d="M19.2507372942551,-13.53457004194858L20.991182770644247,9.563196038323545L29.252907001325532,6.885028523270324z" style="fill:rgb(138,40,220)"/><path d="M-4.790101648413675,-2.195561810827853L-0.9245746657661278,23.471529939558955L5.667115397485607,17.9848347451911z" style="fill:rgb(199,74,218)"/><path d="M146.37820987675417,-64.26456935639851L134.2217375549711,-94.22973580134881L147.52049180423253,-56.64157112875451zM-10.579503478554685,2.5734721760981603L0.0074616307890142605,11.024244879667274L-10.461165607627823,-9.100807099187792zM-19.721032206187964,13.115928648077162L-8.89759348011801,33.143749938097876L-8.729446155035316,12.84230210267367zM-19.721032206187964,13.115928648077162L-8.729446155035316,12.84230210267367L-19.34108333457596,-7.195101340393534z" style="fill:rgb(247,158,158)"/><path d="M-113.77630817977602,10.206653591732936L-103.25130628408077,20.941351762183093L-99.55437041412722,-17.085872255138195z" style="fill:rgb(83,212,212)"/><path d="M149.71360260506393,-59.9407092317085L136.26259118646794,-97.19147508831652L149.46973335992442,-59.57384867856686z" style="fill:rgb(226,102,203)"/><path d="M25.577541018194456,-14.741524912614713L35.476397522354056,5.741030231461377L35.31545658751525,0.9918933375552474zM125.8569932439739,-95.53711165645309L140.96569384903424,-46.78100672866005L139.36004356101208,-58.10672840524224z" style="fill:rgb(247,158,158)"/><path d="M149.46973335992442,-59.57384867856686L135.49693077086238,-96.08030114566071L148.73841451689526,-58.47369335769819z" style="fill:rgb(226,102,203)"/><path d="M144.56146411595492,-62.58200232149459L132.4385339631635,-91.64185534766315L145.81752533034637,-54.07974007515662zM-64.55825583148237,17.51362564706585L-88.70808016698285,35.774383137865705L-67.73117945150747,69.54342283063204z" style="fill:rgb(247,158,158)"/><path d="M135.49693077086238,-96.08030114566071L147.52049180423253,-56.64157112875451L148.73841451689526,-58.47369335769819z" style="fill:rgb(226,102,203)"/><path d="M27.716840839632976,-15.149617309163226L29.252907001325532,6.885028523270324L37.58065700150247,5.354245816605364z" style="fill:rgb(116,34,214)"/><path d="M7.53666546454578,-9.213965111228372L17.672049077963027,6.525662525222368L7.503337073155764,-13.777210539356656z" style="fill:rgb(247,158,158)"/><path d="M-11.53304304194633,3.3589489550543945L-6.51862231580638,29.597026357996594L-0.9245746657661278,23.471529939558955z" style="fill:rgb(216,89,211)"/><path d="M-57.39262221996685,17.67942148876014L-77.08873434877019,-16.301487563270342L-81.55479729541455,43.07020955845467zM122.37391205592573,-92.5960199164938L137.82312256037756,-42.053578112169205L136.0065959683671,-55.2214198692979zM142.21449763713403,-60.56267553786642L130.14939186187988,-88.31978710081356L143.6316757442997,-50.79150166072008z" style="fill:rgb(247,158,158)"/><path d="M-101.74865532442175,22.473985893077447L-107.62686186026792,16.478601651011886L-86.60333436721747,49.95820223718642z" style="fill:rgb(28,51,152)"/><path d="M34.57019257302526,-15.489186864775885L44.33026751544425,5.0828947624816605L44.01983076261752,-2.2434490616120613z" style="fill:rgb(247,158,158)"/><path d="M147.52049180423253,-56.64157112875451L132.4385339631635,-91.64185534766315L145.81752533034637,-54.07974007515662z" style="fill:rgb(226,102,203)"/><path d="M16.56580856542536,-12.652798087758615L26.516798934431822,3.8627057349569394L16.503365072280406,-16.5295108014715z" style="fill:rgb(247,158,158)"/><path d="M-95.44104326091781,28.907191683281873L-80.73573266993535,56.047439618048415L-74.44346746338654,62.5774701449922z" style="fill:rgb(28,51,152)"/><path d="M10.84130980666626,-10.772796733881824L2.745361881673675,-6.953893367083702L13.048296368539107,13.301624759617452z" style="fill:rgb(160,49,222)"/><path d="M35.9779432103977,-15.558951877950744L37.58065700150247,5.354245816605364L45.716608695395934,5.027146548592317z" style="fill:rgb(94,32,205)"/><path d="M2.745361881673675,-6.953893367083702L-4.790101648413675,-2.195561810827853L5.667115397485607,17.9848347451911z" style="fill:rgb(180,60,221)"/><path d="M145.81752533034637,-54.07974007515662L130.14939186187988,-88.31978710081356L143.6316757442997,-50.79150166072008z" style="fill:rgb(226,102,203)"/><path d="M-17.27095377095077,9.543262644952645L-10.93160833091156,36.17619421709865L-6.51862231580638,29.597026357996594z" style="fill:rgb(229,106,201)"/><path d="M25.577541018194456,-14.741524912614713L35.31545658751525,0.9918933375552474L25.45922293243135,-19.489391931802732z" style="fill:rgb(247,158,158)"/><path d="M19.2507372942551,-13.53457004194858L10.84130980666626,-10.772796733881824L20.991182770644247,9.563196038323545z" style="fill:rgb(138,40,220)"/><path d="M-92.046185440622,32.36976379587261L-75.66667927370514,-16.293778588058274L-87.86783780665263,-16.36011672844788z" style="fill:rgb(83,212,212)"/><path d="M153.50274411113764,-122.21096778024967L136.51790424914273,-97.56198731402372L149.71360260506393,-59.9407092317085z" style="fill:rgb(226,102,203)"/><path d="M113.83481948019097,-85.94055861257681L130.12621535779735,-30.474911528643723L127.7789652556986,-48.704991689917286z" style="fill:rgb(247,158,158)"/><path d="M130.14939186187988,-88.31978710081356L140.96569384903424,-46.78100672866005L143.6316757442997,-50.79150166072008z" style="fill:rgb(226,102,203)"/><path d="M-4.790101648413675,-2.195561810827853L-11.53304304194633,3.3589489550543945L-0.9245746657661278,23.471529939558955z" style="fill:rgb(199,74,218)"/><path d="M148.71512901414462,-66.48438990115501L135.5765526755449,-104.06821763728591L136.51790424914273,-97.56198731402372zM43.54705826558622,-14.76030213649714L53.180601071422906,5.900921417303398L52.59544002622029,-5.619706122315952zM148.45501852064115,-66.23731614704867L135.30615528842839,-103.81694698592044L136.26259118646794,-97.19147508831652z" style="fill:rgb(247,158,158)"/><path d="M27.716840839632976,-15.149617309163226L19.2507372942551,-13.53457004194858L29.252907001325532,6.885028523270324z" style="fill:rgb(116,34,214)"/><path d="M34.57019257302526,-15.489186864775885L44.01983076261752,-2.2434490616120613L34.32333306583446,-22.81300785633834zM147.67536773437763,-65.49672896162538L134.4956591982947,-103.06376883095945L135.49693077086238,-96.08030114566071z" style="fill:rgb(247,158,158)"/><path d="M150.79057995885822,-118.27498003266909L153.50274411113764,-122.21096778024967L150.67476689660054,-118.98375797132009z" style="fill:rgb(83,212,212)"/><path d="M146.37820987675417,-64.26456935639851L133.14714228894087,-101.81062436018826L134.2217375549711,-94.22973580134881zM108.81951743387941,-82.16280244852041L125.58295007486764,-23.640348436432234L122.94539902931515,-45.00964705482097zM-49.90237827625437,17.519402056424873L-69.42203783747165,-16.592894836209414L-73.98778608235382,50.78797834550165zM144.56146411595492,-62.58200232149459L131.2589548798351,-100.09846681807211L132.4385339631635,-91.64185534766315z" style="fill:rgb(247,158,158)"/><path d="M43.77289964070122,-14.736462957029556L45.716608695395934,5.027146548592317L53.403285874603874,5.92699977756653z" style="fill:rgb(74,33,194)"/><path d="M127.3570154715766,-84.26738937919221L137.82312256037756,-42.053578112169205L140.96569384903424,-46.78100672866005z" style="fill:rgb(226,102,203)"/><path d="M-11.53304304194633,3.3589489550543945L-17.27095377095077,9.543262644952645L-6.51862231580638,29.597026357996594z" style="fill:rgb(216,89,211)"/><path d="M-57.39262221996685,17.67942148876014L-81.55479729541455,43.07020955845467L-60.60482269348678,76.93904711752074zM120.27706790444923,-73.99272297388109L134.20827913006553,-36.61563401945611L132.1380636928157,-52.11033099731366zM43.54705826558622,-14.76030213649714L52.59544002622029,-5.619706122315952L43.05844565349353,-26.276365967124132z" style="fill:rgb(247,158,158)"/><path d="M35.9779432103977,-15.558951877950744L27.716840839632976,-15.149617309163226L37.58065700150247,5.354245816605364z" style="fill:rgb(94,32,205)"/><path d="M142.21449763713403,-60.56267553786642L128.82157853540286,-98.04036839844467L130.14939186187988,-88.31978710081356zM103.30883244841469,-78.29812507394014L120.58549742641996,-16.122552541051252L117.63093413533304,-41.23646943408124z" style="fill:rgb(247,158,158)"/><path d="M-10.93160833091156,36.17619421709865L-25.01031286877604,23.038135398761852L-14.00999572037302,43.006823861657644z" style="fill:rgb(239,123,188)"/><path d="M149.71360260506393,-59.9407092317085L136.51790424914273,-97.56198731402372L136.26259118646794,-97.19147508831652z" style="fill:rgb(226,102,203)"/><path d="M142.18727755303215,-105.78959220244941L150.79057995885822,-118.27498003266909L150.67476689660054,-118.98375797132009z" style="fill:rgb(83,212,212)"/><path d="M149.46973335992442,-59.57384867856686L136.26259118646794,-97.19147508831652L135.49693077086238,-96.08030114566071z" style="fill:rgb(226,102,203)"/><path d="M52.54666619104109,-11.796032259819022L62.07132657565608,8.953498547720113L60.999182559615555,-9.184126666712748z" style="fill:rgb(247,158,158)"/><path d="M-95.44104326091781,28.907191683281873L-101.74859456745284,22.47394103998752L-80.73573266993535,56.047439618048415z" style="fill:rgb(28,51,152)"/><path d="M-9.122559045860644,-26.153407294833148L-9.185056839160909,-19.19998826105177L8.88072345718533,15.945850554620923z" style="fill:rgb(247,158,158)"/><path d="M60.3900432344605,8.041791645578424L43.77289964070122,-14.736462957029556L53.403285874603874,5.92699977756653z" style="fill:rgb(55,36,180)"/><path d="M52.54666619104109,-11.796032259819022L60.999182559615555,-9.184126666712748L51.621122158613026,-29.926233406807174z" style="fill:rgb(247,158,158)"/><path d="M142.18727755303215,-105.78959220244941L150.67476689660054,-118.98375797132009L141.59828302399626,-109.66407693494995z" style="fill:rgb(83,212,212)"/><path d="M135.49693077086238,-96.08030114566071L134.2217375549711,-94.22973580134881L147.52049180423253,-56.64157112875451z" style="fill:rgb(226,102,203)"/><path d="M-17.27095377095077,9.543262644952645L-21.816014225339483,16.17079987980355L-10.93160833091156,36.17619421709865z" style="fill:rgb(229,106,201)"/><path d="M-103.25130628408077,20.941351762183093L-92.046185440622,32.36976379587261L-87.86783780665263,-16.36011672844788z" style="fill:rgb(83,212,212)"/><path d="M-88.70808016698285,35.774383137865705L-74.44350962049022,62.57749975803496L-67.73117945150747,69.54342283063204z" style="fill:rgb(28,51,152)"/><path d="M137.82312256037756,-42.053578112169205L120.27706790444923,-73.99272297388109L134.20827913006553,-36.61563401945611zM147.52049180423253,-56.64157112875451L134.2217375549711,-94.22973580134881L132.4385339631635,-91.64185534766315z" style="fill:rgb(226,102,203)"/><path d="M-42.12456462086071,17.1954483669659L-61.45602240427945,-17.053241187676072L-65.86986448510963,56.496171935200884z" style="fill:rgb(247,158,158)"/><path d="M43.77289964070122,-14.736462957029556L35.9779432103977,-15.558951877950744L45.716608695395934,5.027146548592317z" style="fill:rgb(74,33,194)"/><path d="M-25.01031286877604,23.038135398761852L-15.635732195003936,49.87370129748529L-14.00999572037302,43.006823861657644z" style="fill:rgb(245,141,174)"/><path d="M90.92536184821884,-70.06326556093909L109.26124150312178,0.9128229995757142L105.68340661486594,-33.20898613204547zM120.27706790444923,-73.99272297388109L132.1380636928157,-52.11033099731366L118.35845970458108,-89.41979405394329zM125.8569932439739,-95.53711165645309L127.3570154715766,-84.26738937919221L140.96569384903424,-46.78100672866005z" style="fill:rgb(247,158,158)"/><path d="M145.81752533034637,-54.07974007515662L132.4385339631635,-91.64185534766315L130.14939186187988,-88.31978710081356zM120.27706790444923,-73.99272297388109L130.12623348896372,-30.474907662346553L134.20827913006553,-36.61563401945611z" style="fill:rgb(226,102,203)"/><path d="M-80.1551546362459,44.49774772021693L-63.00813667301687,-16.900119265455793L-75.66667927370514,-16.293778588058274z" style="fill:rgb(83,212,212)"/><path d="M-10.93160833091156,36.17619421709865L-21.816014225339483,16.17079987980355L-25.01031286877604,23.038135398761852z" style="fill:rgb(239,123,188)"/><path d="M61.659866843070944,-5.363583437161895L69.18589445553316,-12.99361297949979L59.965875815218254,-33.818988972035626zM122.37391205592573,-92.5960199164938L124.0648332582298,-79.48968080926795L137.82312256037756,-42.053578112169205zM-34.08212237675338,16.522937716256642L-53.21057056148909,-17.866694544939158L-57.1133228221591,57.184015761572624zM-49.90237827625437,17.519402056424873L-73.98778608235382,50.78797834550165L-53.0718317700972,84.75663395841087z" style="fill:rgb(247,158,158)"/><path d="M132.90795047063457,-92.32308870297679L141.59828302399626,-109.66407693494995L131.759556555857,-100.52115859463986zM132.90795047063457,-92.32308870297679L142.18727755303215,-105.78959220244941L141.59828302399626,-109.66407693494995z" style="fill:rgb(83,212,212)"/><path d="M130.14939186187988,-88.31978710081356L127.3570154715766,-84.26738937919221L140.96569384903424,-46.78100672866005z" style="fill:rgb(226,102,203)"/><path d="M61.659866843070944,-5.363583437161895L71.10144611373512,15.472057610323654L69.18589445553316,-12.99361297949979zM76.86707269467195,-61.590731186703344L96.23227459437386,20.512550117501785L92.1090909481879,-24.974380609849874z" style="fill:rgb(247,158,158)"/><path d="M56.961748087033385,-9.469686537675154L60.3900432344605,8.041791645578424L66.43970399421625,11.322364470043164z" style="fill:rgb(38,43,165)"/><path d="M60.3900432344605,8.041791645578424L50.84761081712934,-12.691267847950247L43.77289964070122,-14.736462957029556z" style="fill:rgb(55,36,180)"/><path d="M-25.811819533004638,15.57550063870818L-44.724790928787016,-18.959119412837808L-47.98171545224063,55.4758883759479z" style="fill:rgb(247,158,158)"/><path d="M-88.70808016698285,35.774383137865705L-95.44108708402159,28.907224110498056L-74.44350962049022,62.57749975803496z" style="fill:rgb(28,51,152)"/><path d="M127.3570154715766,-84.26738937919221L124.0648332582298,-79.48968080926795L137.82312256037756,-42.053578112169205z" style="fill:rgb(226,102,203)"/><path d="M69.27970975953016,-57.3778241490934L89.10902512245114,31.22820785140057L84.77811101079837,-20.890658848539154zM-26.898563874507065,36.61948529833902L-15.73146536480775,56.5535277462734L-15.635732195003936,49.87370129748529zM100.28411338268457,-44.97830252729311L115.1418314042314,-7.933533689765252L111.87964697934518,-37.20555245629623z" style="fill:rgb(247,158,158)"/><path d="M122.95873253324778,-77.88448979630387L131.759556555857,-100.52115859463986L131.2589548798351,-100.09846681807211z" style="fill:rgb(83,212,212)"/><path d="M-25.01031286877604,23.038135398761852L-26.731581585019878,29.929061285516234L-15.635732195003936,49.87370129748529z" style="fill:rgb(245,141,174)"/><path d="M113.83481948019097,-85.94055861257681L115.99869061543868,-67.7838276384115L130.12621535779735,-30.474911528643723z" style="fill:rgb(247,158,158)"/><path d="M-81.55479729541455,43.07020955845467L-67.73117945150747,69.54342283063204L-60.60482269348678,76.93904711752074z" style="fill:rgb(28,51,152)"/><path d="M137.82312256037756,-42.053578112169205L124.0648332582298,-79.48968080926795L120.27706790444923,-73.99272297388109z" style="fill:rgb(226,102,203)"/><path d="M-17.349794664135455,14.41741518375756L-36.0369337342384,-20.265701813371106L-38.629256750121684,53.16951783952072z" style="fill:rgb(247,158,158)"/><path d="M122.95873253324778,-77.88448979630387L131.2589548798351,-100.09846681807211L121.20659427906082,-91.61036322973808z" style="fill:rgb(83,212,212)"/><path d="M100.28411338268457,-44.97830252729311L111.87964697934518,-37.20555245629623L97.34552307146025,-74.1678040528804z" style="fill:rgb(247,158,158)"/><path d="M56.961748087033385,-9.469686537675154L50.84761081712934,-12.691267847950247L60.3900432344605,8.041791645578424z" style="fill:rgb(38,43,165)"/><path d="M115.99869061543868,-67.7838276384115L109.26124150312178,0.9128229995757142L130.12621535779735,-30.474911528643723z" style="fill:rgb(226,102,203)"/><path d="M-42.12456462086071,17.1954483669659L-65.86986448510963,56.496171935200884L-45.04532994495062,90.57499635269053z" style="fill:rgb(247,158,158)"/><path d="M-67.48843302099657,55.928469242680535L-49.95484370888027,-18.187888163442803L-63.00813667301687,-16.900119265455793zM122.95873253324778,-77.88448979630387L132.90795047063457,-92.32308870297679L131.759556555857,-100.52115859463986z" style="fill:rgb(83,212,212)"/><path d="M61.896700489840626,-5.156591895711829L66.43970399421625,11.322364470043164L71.33641570712302,15.68121980529678z" style="fill:rgb(25,53,148)"/><path d="M108.81951743387941,-82.16280244852041L111.2356178790854,-60.87148135247014L125.58295007486764,-23.640348436432234z" style="fill:rgb(247,158,158)"/><path d="M-92.046185440622,32.36976379587261L-80.1551546362459,44.49774772021693L-75.66667927370514,-16.293778588058274z" style="fill:rgb(83,212,212)"/><path d="M-26.898563874507065,36.61948529833902L-15.635732195003936,49.87370129748529L-26.731581585019878,29.929061285516234z" style="fill:rgb(247,158,158)"/><path d="M120.27706790444923,-73.99272297388109L115.99870916286861,-67.78382400995139L130.12623348896372,-30.474907662346553z" style="fill:rgb(226,102,203)"/><path d="M-15.73146536480775,56.5535277462734L-25.4767305097794,42.88357670164074L-14.266052174043866,62.821020191140526z" style="fill:rgb(245,174,141)"/><path d="M112.34741283341647,-62.484994626071185L121.20659427906082,-91.61036322973808L109.99384475858187,-82.98636974834643z" style="fill:rgb(83,212,212)"/><path d="M87.49133868837056,-26.413030718556712L99.09070248268343,-29.05782737338552L84.09552628883918,-65.79685577523874zM-34.08212237675338,16.522937716256642L-57.1133228221591,57.184015761572624L-36.49499948437633,91.39956660991282zM103.30883244841469,-78.29812507394014L105.9947861457332,-53.265810984636055L120.58549742641996,-16.122552541051252z" style="fill:rgb(247,158,158)"/><path d="M74.89390328398554,20.99237928650114L61.896700489840626,-5.156591895711829L71.33641570712302,15.68121980529678z" style="fill:rgb(15,66,131)"/><path d="M61.896700489840626,-5.156591895711829L56.961748087033385,-9.469686537675154L66.43970399421625,11.322364470043164z" style="fill:rgb(25,53,148)"/><path d="M87.49133868837056,-26.413030718556712L102.95409447100968,10.400771085126188L99.09070248268343,-29.05782737338552z" style="fill:rgb(247,158,158)"/><path d="M-53.6201218115839,56.86635572563258L-36.574241646523625,-20.16100971972651L-49.95484370888027,-18.187888163442803z" style="fill:rgb(83,212,212)"/><path d="M-81.55479729541455,43.07020955845467L-88.70808016698285,35.774383137865705L-67.73117945150747,69.54342283063204z" style="fill:rgb(28,51,152)"/><path d="M-25.811819533004638,15.57550063870818L-47.98171545224063,55.4758883759479L-27.62596147005442,89.84340067198802z" style="fill:rgb(247,158,158)"/><path d="M34.695540920271725,11.2250535110133L47.26127825040919,37.76976304707463L44.69860376336425,31.781572675458282z" style="fill:rgb(243,180,133)"/><path d="M-29.119332993047287,50.82431084088998L-19.34108333457596,-7.195101340393534L-27.17749919042339,-21.99219408214032zM7.84777682399704,33.382679467047495L18.466973138990415,53.65070712983874L18.172973741442224,36.22170264456143z" style="fill:rgb(247,158,158)"/><path d="M112.34741283341647,-62.484994626071185L122.95873253324778,-77.88448979630387L121.20659427906082,-91.61036322973808z" style="fill:rgb(83,212,212)"/><path d="M-15.73146536480775,56.5535277462734L-26.898563874507065,36.61948529833902L-25.4767305097794,42.88357670164074z" style="fill:rgb(245,174,141)"/><path d="M7.84777682399704,33.382679467047495L18.172973741442224,36.22170264456143L7.720316337910805,15.93108571399741z" style="fill:rgb(247,158,158)"/><path d="M-73.98778608235382,50.78797834550165L-60.60482269348678,76.93904711752074L-53.0718317700972,84.75663395841087z" style="fill:rgb(28,51,152)"/><path d="M-39.20629789939474,53.3118175963225L-36.0369337342384,-20.265701813371106L-36.574241646523625,-20.16100971972651zM101.08381159019717,-46.13885566740822L109.99384475858187,-82.98636974834643L98.18191239331931,-74.70253217862474z" style="fill:rgb(83,212,212)"/><path d="M-17.349794664135455,14.41741518375756L-38.629256750121684,53.16951783952072L-18.554257590915768,87.69516917689495zM-19.487805894827694,48.449118153600736L-10.461165607627823,-9.100807099187792L-18.192637736879185,-23.963908790382646zM17.333602198302344,35.014539460242275L27.183950287400506,30.153942432568652L16.92695195631829,9.7682585106153z" style="fill:rgb(247,158,158)"/><path d="M-14.266052174043866,62.821020191140526L-22.48311078832967,48.50085323614798L-11.259161097238408,68.45600884974412z" style="fill:rgb(239,188,123)"/><path d="M-38.629256750121684,53.16951783952072L-22.93827179542496,-22.818323965415065L-36.0369337342384,-20.265701813371106z" style="fill:rgb(83,212,212)"/><path d="M17.333602198302344,35.014539460242275L27.82380594132115,55.3695046968594L27.183950287400506,30.153942432568652zM-9.185056839160909,-19.19998826105177L-1.602927444830863,60.05815457866926L-1.5092922747516244,-4.267271208192944zM65.05238058666323,6.151141572377226L77.12849877324138,-16.847146913094598L61.36575804054409,-53.19920502603604zM90.92536184821884,-70.06326556093909L94.11284102407863,-36.022311855063116L109.26124150312178,0.9128229995757142zM26.739760130682956,31.895984141801183L36.25297815799155,28.65681412806844L26.148754069992187,8.180104203208185zM35.83423434085511,22.012366940415014L45.918504545090876,42.5654767458818L45.54540560597158,33.76029948978943zM26.739760130682956,31.895984141801183L37.05576055403176,52.345772884427795L36.25297815799155,28.65681412806844z" style="fill:rgb(247,158,158)"/><path d="M37.242676957921205,17.196104906781795L45.24769164151299,44.961299497409215L47.26127825040919,37.76976304707463z" style="fill:rgb(243,133,180)"/><path d="M89.18011144871964,-28.863842153440455L98.18191239331931,-74.70253217862474L85.8370141866402,-66.81019142189058z" style="fill:rgb(83,212,212)"/><path d="M74.89390328398554,20.99237928650114L65.46401246989716,0.12428711641704449L61.896700489840626,-5.156591895711829z" style="fill:rgb(15,66,131)"/><path d="M94.11230226164633,-36.022426721008785L102.95352171292346,10.400632871261294L109.26071558003822,0.912699894442787z" style="fill:rgb(226,102,203)"/><path d="M11.418077773389665,35.2514195975913L15.692554202115645,52.15966058578943L22.001010258442445,55.549993361886884z" style="fill:rgb(42,41,169)"/><path d="M-24.571892715154934,49.70288309389199L-9.122559045860644,-26.153407294833148L-22.93827179542496,-22.818323965415065z" style="fill:rgb(83,212,212)"/><path d="M-0.008304189453617796,43.645354213141246L7.503337073155764,-13.777210539356656L-0.007749797900197418,-28.773864300864364z" style="fill:rgb(247,158,158)"/><path d="M-14.266052174043866,62.821020191140526L-25.4767305097794,42.88357670164074L-22.48311078832967,48.50085323614798z" style="fill:rgb(239,188,123)"/><path d="M101.08381159019717,-46.13885566740822L112.34741283341647,-62.484994626071185L109.99384475858187,-82.98636974834643zM-80.1551546362459,44.49774772021693L-67.48843302099657,55.928469242680535L-63.00813667301687,-16.900119265455793z" style="fill:rgb(83,212,212)"/><path d="M34.695540920271725,11.2250535110133L37.242676957921205,17.196104906781795L47.26127825040919,37.76976304707463z" style="fill:rgb(243,180,133)"/><path d="M9.763482888166463,41.23557229817787L16.503365072280406,-16.5295108014715L9.106523694516467,-31.593076323746068z" style="fill:rgb(247,158,158)"/><path d="M-69.71259288319926,55.148368339642964L-53.0718317700972,84.75663395841087L-48.818374577123265,89.17081206337787z" style="fill:rgb(28,51,152)"/><path d="M35.83423434085511,22.012366940415014L45.54540560597158,33.76029948978943L35.53713166107282,13.19793727681365z" style="fill:rgb(247,158,158)"/><path d="M-73.98778608235382,50.78797834550165L-81.55479729541455,43.07020955845467L-60.60482269348678,76.93904711752074z" style="fill:rgb(28,51,152)"/><path d="M115.99869061543868,-67.7838276384115L94.11284102407863,-36.022311855063116L109.26124150312178,0.9128229995757142z" style="fill:rgb(226,102,203)"/><path d="M-9.771555414294578,46.05302911485267L4.7941588828674515,-30.154380596684966L-9.122559045860644,-26.153407294833148z" style="fill:rgb(83,212,212)"/><path d="M19.504728500270687,38.83332045956204L25.45922293243135,-19.489391931802732L18.178112999231388,-34.61955821427212z" style="fill:rgb(247,158,158)"/><path d="M76.6510843502741,-10.681292653631585L85.8370141866402,-66.81019142189058L73.03015629240248,-59.358130326647554z" style="fill:rgb(83,212,212)"/><path d="M20.1581381043009,34.901438267608825L22.001010258442445,55.549993361886884L30.603850460164445,55.28333170424649z" style="fill:rgb(96,32,206)"/><path d="M11.418077773389665,35.2514195975913L5.045234427249184,31.915796243152467L15.692554202115645,52.15966058578943z" style="fill:rgb(42,41,169)"/><path d="M65.05238058666323,6.151141572377226L81.59930368495937,42.525324578862325L77.12849877324138,-16.847146913094598z" style="fill:rgb(247,158,158)"/><path d="M45.24769164151299,44.961299497409215L28.867858969708877,30.924219023597566L39.141901684550646,51.39596982526686z" style="fill:rgb(212,85,213)"/><path d="M-45.04532994495062,90.57499635269053L-69.71259288319926,55.148368339642964L-48.818374577123265,89.17081206337787z" style="fill:rgb(57,36,182)"/><path d="M87.49133868837056,-26.413030718556712L96.23234889816909,20.512570656446645L102.95409447100968,10.400771085126188z" style="fill:rgb(226,102,203)"/><path d="M29.175930547523386,36.44834306193466L34.32333306583446,-22.81300785633834L27.15993882319467,-38.00899780645944zM56.764899033966756,18.178183550807717L59.965875815218254,-33.818988972035626L53.15400369942024,-49.205060909710845z" style="fill:rgb(247,158,158)"/><path d="M28.867858969708877,30.924219023597566L30.603850460164445,55.28333170424649L39.141901684550646,51.39596982526686z" style="fill:rgb(158,48,222)"/><path d="M76.86707269467195,-61.590731186703344L80.4315626841481,-16.167671077434495L96.23227459437386,20.512550117501785z" style="fill:rgb(247,158,158)"/><path d="M5.138111596524987,42.37621855712598L18.178112999231388,-34.61955821427212L4.7941588828674515,-30.154380596684966z" style="fill:rgb(83,212,212)"/><path d="M38.71746536412966,33.53849867638735L43.05844565349353,-26.276365967124132L36.01265244842947,-41.53721381866326zM47.99426650395133,28.31958608449564L51.621122158613026,-29.926233406807174L44.69257695765582,-45.25058709217803z" style="fill:rgb(247,158,158)"/><path d="M37.242676957921205,17.196104906781795L35.13053444610826,24.41873196980365L45.24769164151299,44.961299497409215z" style="fill:rgb(243,133,180)"/><path d="M-41.9282824737488,91.73501098618381L-65.86986448510963,56.496171935200884L-45.04532994495062,90.57499635269053z" style="fill:rgb(57,36,182)"/><path d="M63.514566262898434,8.38287024482102L73.03015629240248,-59.358130326647554L59.83655077619795,-52.39178236942404zM19.504728500270687,38.83332045956204L18.730886247917258,-34.80398168143612L18.178112999231388,-34.61955821427212zM89.18011144871964,-28.863842153440455L101.08381159019717,-46.13885566740822L98.18191239331931,-74.70253217862474zM20.098798872843616,38.68682009520992L32.605328407678144,-40.07953600946688L18.730886247917258,-34.80398168143612z" style="fill:rgb(83,212,212)"/><path d="M20.1581381043009,34.901438267608825L11.418077773389665,35.2514195975913L22.001010258442445,55.549993361886884z" style="fill:rgb(96,32,206)"/><path d="M-20.702424556383725,65.57848865274234L-9.331327850296729,85.51113219612363L-9.208272408970188,70.65390210798942z" style="fill:rgb(247,158,158)"/><path d="M-36.49499948437633,91.39956660991282L-62.69462132844004,57.60983310870661L-41.9282824737488,91.73501098618381z" style="fill:rgb(102,32,209)"/><path d="M69.27970975953016,-57.3778241490934L72.94685947987922,-5.305646740025006L89.10902512245114,31.22820785140057z" style="fill:rgb(247,158,158)"/><path d="M45.24769164151299,44.961299497409215L35.13053444610826,24.41873196980365L28.867858969708877,30.924219023597566z" style="fill:rgb(212,85,213)"/><path d="M-29.119332993047287,50.82431084088998L-20.702424556383725,65.57848865274234L-19.34108333457596,-7.195101340393534z" style="fill:rgb(247,158,158)"/><path d="M-67.48843302099657,55.928469242680535L-53.6201218115839,56.86635572563258L-49.95484370888027,-18.187888163442803zM35.0507710798625,34.99957261482159L46.33463583389019,-45.9530777517563L32.605328407678144,-40.07953600946688z" style="fill:rgb(83,212,212)"/><path d="M80.4315626841481,-16.167671077434495L89.10902512245114,31.22820785140057L96.23227459437386,20.512550117501785z" style="fill:rgb(226,102,203)"/><path d="M-69.71259288319926,55.148368339642964L-73.98778608235382,50.78797834550165L-53.0718317700972,84.75663395841087z" style="fill:rgb(28,51,152)"/><path d="M49.72639215923172,26.89420445038662L59.83655077619795,-52.39178236942404L46.33463583389019,-45.9530777517563z" style="fill:rgb(83,212,212)"/><path d="M11.635174547716604,80.54615271760072L-45.187703430091126,71.51434418025057L-33.38726179684162,91.20770675540335z" style="fill:rgb(127,37,217)"/><path d="M-20.702424556383725,65.57848865274234L-9.208272408970188,70.65390210798942L-20.423799006190997,50.683926204906996z" style="fill:rgb(247,158,158)"/><path d="M-33.38726179684162,91.20770675540335L-57.1133228221591,57.184015761572624L-36.49499948437633,91.39956660991282z" style="fill:rgb(102,32,209)"/><path d="M28.867858969708877,30.924219023597566L20.1581381043009,34.901438267608825L30.603850460164445,55.28333170424649z" style="fill:rgb(158,48,222)"/><path d="M94.11230226164633,-36.022426721008785L87.49075175503638,-26.413160042676616L102.95352171292346,10.400632871261294z" style="fill:rgb(226,102,203)"/><path d="M-19.487805894827694,48.449118153600736L-11.194798321460114,63.27359679185092L-10.461165607627823,-9.100807099187792zM-11.194798321460114,63.27359679185092L0.007974196640857177,83.29953458602219L0.007932266111704526,77.38704553896348z" style="fill:rgb(247,158,158)"/><path d="M76.6510843502741,-10.681292653631585L89.18011144871964,-28.863842153440455L85.8370141866402,-66.81019142189058zM-53.6201218115839,56.86635572563258L-39.20629789939474,53.3118175963225L-36.574241646523625,-20.16100971972651zM-39.20629789939474,53.3118175963225L-38.629256750121684,53.16951783952072L-36.0369337342384,-20.265701813371106z" style="fill:rgb(83,212,212)"/><path d="M-45.04532994495062,90.57499635269053L-65.86986448510963,56.496171935200884L-69.71259288319926,55.148368339642964z" style="fill:rgb(57,36,182)"/><path d="M-0.008304189453617796,43.645354213141246L8.032046950220254,58.61251721845143L7.503337073155764,-13.777210539356656z" style="fill:rgb(247,158,158)"/><path d="M72.9469401538486,-5.305627901248201L81.59935928230443,42.525334935145274L89.10909951106427,31.228229102195954zM87.49133868837056,-26.413030718556712L80.43163877458062,-16.16765296850502L96.23234889816909,20.512570656446645z" style="fill:rgb(226,102,203)"/><path d="M-11.194798321460114,63.27359679185092L0.007932266111704526,77.38704553896348L-11.134709343148932,57.34569326140878zM9.763482888166463,41.23557229817787L17.676044445558684,56.27456574642729L16.503365072280406,-16.5295108014715z" style="fill:rgb(247,158,158)"/><path d="M-38.629256750121684,53.16951783952072L-24.571892715154934,49.70288309389199L-22.93827179542496,-22.818323965415065z" style="fill:rgb(83,212,212)"/><path d="M-41.9282824737488,91.73501098618381L-62.69462132844004,57.60983310870661L-65.86986448510963,56.496171935200884z" style="fill:rgb(57,36,182)"/><path d="M-9.185056839160909,-19.19998826105177L-9.763540388368968,45.16129296343738L-1.602927444830863,60.05815457866926zM19.504728500270687,38.83332045956204L27.289204731529807,53.94408861838136L25.45922293243135,-19.489391931802732zM56.764899033966756,18.178183550807717L63.97821194100356,33.57962790813578L59.965875815218254,-33.818988972035626z" style="fill:rgb(247,158,158)"/><path d="M11.635174547716604,80.54615271760072L0.6432440200116735,60.40375041843815L-45.187703430091126,71.51434418025057z" style="fill:rgb(127,37,217)"/><path d="M63.97821194100356,33.57962790813578L73.71961968394162,54.378903273830275L73.31364568289895,48.3460037901973z" style="fill:rgb(247,158,158)"/><path d="M-80.1551546362459,44.49774772021693L-69.71259288319926,55.148368339642964L-67.48843302099657,55.928469242680535z" style="fill:rgb(83,212,212)"/><path d="M-36.49499948437633,91.39956660991282L-57.1133228221591,57.184015761572624L-62.69462132844004,57.60983310870661z" style="fill:rgb(102,32,209)"/><path d="M-9.763540388368968,45.16129296343738L9.427842812072583,81.06885568792259L9.420381547770173,80.18074539037127z" style="fill:rgb(247,158,158)"/><path d="M-24.571892715154934,49.70288309389199L-9.771555414294578,46.05302911485267L-9.122559045860644,-26.153407294833148zM63.514566262898434,8.38287024482102L76.6510843502741,-10.681292653631585L73.03015629240248,-59.358130326647554z" style="fill:rgb(83,212,212)"/><path d="M29.175930547523386,36.44834306193466L36.83255558069528,51.63053816413032L34.32333306583446,-22.81300785633834z" style="fill:rgb(247,158,158)"/><path d="M-33.38726179684162,91.20770675540335L-53.92052591290011,56.94043819679291L-57.1133228221591,57.184015761572624z" style="fill:rgb(102,32,209)"/><path d="M65.05215269439806,6.151086201143561L73.71938311154327,54.37883726538604L81.59908129548401,42.52526564995188zM80.4315626841481,-16.167671077434495L72.94685947987922,-5.305646740025006L89.10902512245114,31.22820785140057z" style="fill:rgb(226,102,203)"/><path d="M47.99426650395133,28.31958608449564L55.37697608153737,43.646040787630405L51.621122158613026,-29.926233406807174zM38.71746536412966,33.53849867638735L46.24351004009611,48.79210956117418L43.05844565349353,-26.276365967124132z" style="fill:rgb(247,158,158)"/><path d="M-9.771555414294578,46.05302911485267L5.138111596524987,42.37621855712598L4.7941588828674515,-30.154380596684966z" style="fill:rgb(83,212,212)"/><path d="M63.97821194100356,33.57962790813578L73.31364568289895,48.3460037901973L63.61850208904296,27.537273991170878zM55.37697608153737,43.646040787630405L65.34532665520543,64.34026276460418L65.07729688946478,59.80596191261517z" style="fill:rgb(247,158,158)"/><path d="M53.16637262431001,70.71133300979707L40.64448950875926,50.70642505365913L50.91364429819073,71.24479104021354z" style="fill:rgb(127,37,217)"/><path d="M46.24351004009611,48.79210956117418L56.40524935322612,69.3876755584643L56.32270723816631,67.76258958052178z" style="fill:rgb(247,158,158)"/><path d="M5.138111596524987,42.37621855712598L19.504728500270687,38.83332045956204L18.178112999231388,-34.61955821427212z" style="fill:rgb(83,212,212)"/><path d="M56.765022777754965,18.17821596936851L69.29687340572876,61.03239143955789L73.71974520342505,54.37893894050924z" style="fill:rgb(226,102,203)"/><path d="M49.72639215923172,26.89420445038662L63.514566262898434,8.38287024482102L59.83655077619795,-52.39178236942404zM19.504728500270687,38.83332045956204L20.098798872843616,38.68682009520992L18.730886247917258,-34.80398168143612z" style="fill:rgb(83,212,212)"/><path d="M72.9469401538486,-5.305627901248201L65.05243274115726,6.15115482194425L81.59935928230443,42.525334935145274z" style="fill:rgb(226,102,203)"/><path d="M-67.48843302099657,55.928469242680535L-62.69462132844004,57.60983310870661L-53.92052591290011,56.94043819679291z" style="fill:rgb(83,212,212)"/><path d="M55.37697608153737,43.646040787630405L65.07729688946478,59.80596191261517L55.14504360212149,39.10279050330243z" style="fill:rgb(247,158,158)"/><path d="M20.098798872843616,38.68682009520992L35.0507710798625,34.99957261482159L32.605328407678144,-40.07953600946688z" style="fill:rgb(83,212,212)"/><path d="M52.11129233449445,24.931657458694314L65.34532665520543,64.34026276460418L69.29674307844563,61.03235478281341z" style="fill:rgb(197,72,218)"/><path d="M42.9391628375646,50.15013728866833L-53.92052591290011,56.94043819679291L-45.187703430091126,71.51434418025057z" style="fill:rgb(127,37,217)"/><path d="M-67.48843302099657,55.928469242680535L-53.92052591290011,56.94043819679291L-53.6201218115839,56.86635572563258z" style="fill:rgb(83,212,212)"/><path d="M56.40524935322612,69.3876755584643L35.36471105489646,34.92215363031423L53.16637262431001,70.71133300979707z" style="fill:rgb(152,45,222)"/><path d="M65.34532665520543,64.34026276460418L44.60458443198093,31.108944783256568L62.09224055479883,67.06353939904345z" style="fill:rgb(197,72,218)"/><path d="M35.0507710798625,34.99957261482159L49.72639215923172,26.89420445038662L46.33463583389019,-45.9530777517563z" style="fill:rgb(83,212,212)"/><path d="M44.60458443198093,31.108944783256568L56.40524935322612,69.3876755584643L62.09224055479883,67.06353939904345z" style="fill:rgb(152,45,222)"/><path d="M-9.763540388368968,45.16129296343738L-9.771555414294578,46.05302911485267L9.427842812072583,81.06885568792259zM46.24351004009611,48.79210956117418L56.32270723816631,67.76258958052178L46.17440684735606,47.163423106416616z" style="fill:rgb(247,158,158)"/><path d="M53.16637262431001,70.71133300979707L42.9391628375646,50.15013728866833L40.64448950875926,50.70642505365913z" style="fill:rgb(127,37,217)"/><path d="M65.05215269439806,6.151086201143561L56.76465661230516,18.178122298145613L73.71938311154327,54.37883726538604zM56.765022777754965,18.17821596936851L52.111425336089795,24.93169404153774L69.29687340572876,61.03239143955789z" style="fill:rgb(226,102,203)"/><path d="M42.9391628375646,50.15013728866833L35.36471105489646,34.92215363031423L-53.92052591290011,56.94043819679291z" style="fill:rgb(127,37,217)"/><path d="M52.11129233449445,24.931657458694314L47.99426650395133,28.31958608449564L65.34532665520543,64.34026276460418z" style="fill:rgb(197,72,218)"/><path d="M56.40524935322612,69.3876755584643L38.71746536412966,33.53849867638735L35.36471105489646,34.92215363031423z" style="fill:rgb(152,45,222)"/><path d="M65.34532665520543,64.34026276460418L47.99426650395133,28.31958608449564L44.60458443198093,31.108944783256568z" style="fill:rgb(197,72,218)"/><path d="M44.60458443198093,31.108944783256568L38.71746536412966,33.53849867638735L56.40524935322612,69.3876755584643z" style="fill:rgb(152,45,222)"/><path d="M49.72639215923172,26.89420445038662L52.11129233449445,24.931657458694314L63.514566262898434,8.38287024482102zM35.0507710798625,34.99957261482159L44.60458443198093,31.108944783256568L49.72639215923172,26.89420445038662zM35.0507710798625,34.99957261482159L35.36471105489646,34.92215363031423L44.60458443198093,31.108944783256568z" style="fill:rgb(83,212,212)"/></svg>
