<?xml version="1.0" encoding="UTF-8"?>
<!-- Generated by jsxcad -->
<!DOCTYPE svg PUBLIC "-//W3C//DTD SVG 1.1 Tiny//EN" "http://www.w3.org/Graphics/SVG/1.1/DTD/svg11-tiny.dtd">
<svg viewBox="-250 -250 500 500" width="500" height="500" xmlns="http://www.w3.org/2000/svg"><path d="M-149.8273788932379,-50.21787297838122L-135.53986977150726,-19.600160356059238L-129.20472993722444,-17.391913272375692zM-148.66184025530518,-49.839089940547055L-129.20472993722444,-17.391913272375692L-128.05285024573075,-16.990436078140394zM-149.8273788932379,-50.21787297838122L-156.23628579242944,-52.30084924642226L-135.53986977150726,-19.600160356059238z" style="fill:rgb(54,37,179)"/><path d="M-137.35194760645803,-47.080320433903175L-128.05285024573075,-16.990436078140394L-116.89904837161242,-14.016719167049976z" style="fill:rgb(60,35,184)"/><path d="M-148.66184025530518,-49.839089940547055L-149.8273788932379,-50.21787297838122L-129.20472993722444,-17.391913272375692z" style="fill:rgb(54,37,179)"/><path d="M-130.5216687910993,-45.90730740176442L-116.89904837161242,-14.016719167049976L-110.1765590300335,-12.716747327804717z" style="fill:rgb(66,34,189)"/><path d="M-137.35194760645803,-47.080320433903175L-148.66184025530518,-49.839089940547055L-128.05285024573075,-16.990436078140394z" style="fill:rgb(60,35,184)"/><path d="M-152.57369104541763,-32.055366439378304L-134.13046583769113,-2.1208776115309522L-131.50057050277115,0.7980550140806212z" style="fill:rgb(26,52,150)"/><path d="M-125.24762416366625,-45.00156536465027L-110.1765590300335,-12.716747327804717L-104.98716182409795,-11.713248431531907z" style="fill:rgb(66,34,189)"/><path d="M-124.38241299902054,-44.90941538665528L-104.98716182409795,-11.713248431531907L-104.1371345640997,-11.605305911823411zM-120.54710363852747,-44.50097119792707L-104.1371345640997,-11.605305911823411L-100.36953465782254,-11.126914803402277z" style="fill:rgb(73,33,193)"/><path d="M-148.9041782684395,-28.042696808301894L-131.50047555500552,0.7979855987488951L-127.8145223092792,4.889113062142961z" style="fill:rgb(26,52,150)"/><path d="M-130.5216687910993,-45.90730740176442L-137.35194760645803,-47.080320433903175L-116.89904837161242,-14.016719167049976z" style="fill:rgb(66,34,189)"/><path d="M-152.57369104541763,-32.055366439378304L-155.19090144172017,-34.917419661464706L-134.13046583769113,-2.1208776115309522z" style="fill:rgb(26,52,150)"/><path d="M-125.24762416366625,-45.00156536465027L-130.5216687910993,-45.90730740176442L-110.1765590300335,-12.716747327804717z" style="fill:rgb(66,34,189)"/><path d="M-144.73405301433485,-23.482435742530633L-127.8145223092792,4.889113062142961L-123.62731746972418,9.536528654587713z" style="fill:rgb(26,52,150)"/><path d="M-124.38241299902054,-44.90941538665528L-125.24762416366625,-45.00156536465027L-104.98716182409795,-11.713248431531907z" style="fill:rgb(73,33,193)"/><path d="M-148.9041782684395,-28.042696808301894L-152.57359321867685,-32.05543648730142L-131.50047555500552,0.7979855987488951z" style="fill:rgb(26,52,150)"/><path d="M-120.54710363852747,-44.50097119792707L-124.38241299902054,-44.90941538665528L-104.1371345640997,-11.605305911823411z" style="fill:rgb(73,33,193)"/><path d="M-140.05935406473003,-18.37051198757087L-123.6272607595375,9.536484546542574L-118.9356813442059,14.743716674169667zM-144.73405301433485,-23.482435742530633L-148.9041782684395,-28.042696808301894L-127.8145223092792,4.889113062142961z" style="fill:rgb(26,52,150)"/><path d="M-124.38241299902054,-44.90941538665528L-120.54710363852747,-44.50097119792707L-125.24762416366625,-45.00156536465027z" style="fill:rgb(101,236,188)"/><path d="M-140.05935406473003,-18.37051198757087L-144.7339840662669,-23.482480850069738L-123.6272607595375,9.536484546542574zM-134.8765176550083,-12.702611059034853L-118.9357966228959,14.74379879137804L-113.73676929158918,20.514231208287367z" style="fill:rgb(26,52,150)"/><path d="M-106.94622068963346,-28.367274131778288L-92.48659515152316,11.877016275282367L-86.7128840834601,5.299227729036592z" style="fill:rgb(221,95,207)"/><path d="M-97.8294175875043,-30.843212895583402L-86.7128840834601,5.299227729036592L-77.83825464415544,2.9768270054239627z" style="fill:rgb(127,37,217)"/><path d="M-112.9834135469097,-21.700128379496668L-92.69935735972832,12.119415200249373L-92.48659515152316,11.877016275282367z" style="fill:rgb(221,95,207)"/><path d="M-96.10749844804026,-29.580609178276262L-77.83825464415544,2.9768270054239627L-76.12743081501755,4.272840144805127z" style="fill:rgb(33,47,159)"/><path d="M-92.6145329147508,-27.019314836813727L-72.65768905295114,6.9013469454837875L-71.54385782763674,-9.164610059569563z" style="fill:rgb(247,158,158)"/><path d="M-113.20591248191634,-21.45440664855461L-91.30822041214465,18.388466641170673L-92.69935735972832,12.119415200249373z" style="fill:rgb(244,177,137)"/><path d="M-134.8765176550083,-12.702611059034853L-140.05946335870743,-18.37042805656114L-118.9357966228959,14.74379879137804z" style="fill:rgb(26,52,150)"/><path d="M-92.6145329147508,-27.019314836813727L-76.12743081501755,4.272840144805127L-72.65768905295114,6.9013469454837875z" style="fill:rgb(33,47,159)"/><path d="M-129.1812365203792,-6.4746093041732L-113.7367107188908,20.514183743450104L-108.02711125179428,26.851348324104713z" style="fill:rgb(26,52,150)"/><path d="M-92.6145329147508,-27.019314836813727L-71.54385782763674,-9.164610059569563L-91.14895531788927,-43.06688706495802z" style="fill:rgb(247,158,158)"/><path d="M-113.20591248191634,-21.45440664855461L-110.5620848428273,-43.5470725936072L-110.7521357756867,-43.5559340755638z" style="fill:rgb(83,212,212)"/><path d="M-97.8294175875043,-30.843212895583402L-106.94622068963346,-28.367274131778288L-86.7128840834601,5.299227729036592z" style="fill:rgb(127,37,217)"/><path d="M-112.9834135469097,-21.700128379496668L-105.36885670529871,-43.304452018494864L-110.5620848428273,-43.5470725936072zM-117.96260567506819,5.79353070621134L-120.54710363852747,-44.50097119792707L-155.1908140927366,-34.917484788852924zM-106.94622068963346,-28.367274131778288L-98.84153138516821,-42.99950878634784L-105.36885670529871,-43.304452018494864z" style="fill:rgb(83,212,212)"/><path d="M-106.94622068963346,-28.367274131778288L-112.9834135469097,-21.700128379496668L-92.48659515152316,11.877016275282367z" style="fill:rgb(221,95,207)"/><path d="M-96.10749844804026,-29.580609178276262L-97.8294175875043,-30.843212895583402L-77.83825464415544,2.9768270054239627z" style="fill:rgb(33,47,159)"/><path d="M-112.9834135469097,-21.700128379496668L-113.20591248191634,-21.45440664855461L-92.69935735972832,12.119415200249373z" style="fill:rgb(221,95,207)"/><path d="M-100.10658703203447,-30.22477969011257L-96.65040801293252,-43.01871809704328L-98.84153138516821,-42.99950878634784z" style="fill:rgb(83,212,212)"/><path d="M-129.1812365203792,-6.4746093041732L-134.87644768610133,-12.702659507234285L-113.7367107188908,20.514183743450104z" style="fill:rgb(26,52,150)"/><path d="M-97.8294175875043,-30.843212895583402L-91.14895531788927,-43.06688706495802L-96.65040801293252,-43.01871809704328z" style="fill:rgb(83,212,212)"/><path d="M-92.6145329147508,-27.019314836813727L-96.10749844804026,-29.580609178276262L-76.12743081501755,4.272840144805127z" style="fill:rgb(33,47,159)"/><path d="M-117.96260567506819,5.79353070621134L-112.39341986695563,-43.632620544934404L-120.54710363852747,-44.50097119792707z" style="fill:rgb(83,212,212)"/><path d="M-122.97005956429153,0.31768259163896895L-108.02711125179428,26.851348324104713L-101.80416732506609,33.75829476051942z" style="fill:rgb(26,52,150)"/><path d="M-112.9834135469097,-21.700128379496668L-106.94622068963346,-28.367274131778288L-105.36885670529871,-43.304452018494864zM-113.20591248191634,-21.45440664855461L-112.9834135469097,-21.700128379496668L-110.5620848428273,-43.5470725936072zM-106.94622068963346,-28.367274131778288L-100.10658703203447,-30.22477969011257L-98.84153138516821,-42.99950878634784zM-117.96260567506819,5.79353070621134L-110.7521357756867,-43.5559340755638L-112.39341986695563,-43.632620544934404z" style="fill:rgb(83,212,212)"/><path d="M-113.20591248191634,-21.45440664855461L-111.91620996390256,-15.220312104554985L-91.30822041214465,18.388466641170673z" style="fill:rgb(244,177,137)"/><path d="M-100.10658703203447,-30.22477969011257L-97.8294175875043,-30.843212895583402L-96.65040801293252,-43.01871809704328zM-97.8294175875043,-30.843212895583402L-92.6145329147508,-27.019314836813727L-91.14895531788927,-43.06688706495802z" style="fill:rgb(83,212,212)"/><path d="M-122.97005956429153,0.31768259163896895L-129.1812365203792,-6.4746093041732L-108.02711125179428,26.851348324104713z" style="fill:rgb(26,52,150)"/><path d="M-7.78839602105395,-32.1854515547888L4.596926613639029,-7.732977734863442L4.5484450392012965,-18.631579507196623z" style="fill:rgb(247,158,158)"/><path d="M-116.41855654149143,7.482091534312058L-101.80416732506609,33.75829476051942L-95.24467599106792,41.038730752093976z" style="fill:rgb(26,52,150)"/><path d="M13.204845043478642,-44.35723767768501L15.747413369769022,-15.24971091311231L25.096264684489622,-19.660455222428915z" style="fill:rgb(160,49,222)"/><path d="M3.6432253075459466,-39.83409044908644L7.062542776966966,-9.765660175636983L15.747413369769022,-15.24971091311231z" style="fill:rgb(180,60,221)"/><path d="M23.143291160023956,-47.679771331682524L25.096264684489622,-19.660455222428915L34.82901768536803,-22.864167460019722z" style="fill:rgb(138,40,220)"/><path d="M26.573968114791803,-48.369966185561225L38.19367020908511,-23.512684231560517L38.01011904746203,-28.403083747970207z" style="fill:rgb(247,158,158)"/><path d="M-5.256019032916996,-34.247018827224004L-0.695228390942656,-3.3700884177588177L7.062542776966966,-9.765660175636983z" style="fill:rgb(199,74,218)"/><path d="M-7.78839602105395,-32.1854515547888L4.5484450392012965,-18.631579507196623L-7.704361976658653,-43.07146117592275z" style="fill:rgb(247,158,158)"/><path d="M33.16139218240176,-49.695231877750096L34.82901768536803,-22.864167460019722L44.653857822586744,-24.757823425763295z" style="fill:rgb(116,34,214)"/><path d="M-13.224147120551617,-27.760315100230862L-7.284363790024276,3.749469966132876L-0.695228390942656,-3.3700884177588177z" style="fill:rgb(216,89,211)"/><path d="M-114.6087389842626,9.461151493034588L-95.24467599106792,41.038730752093976L-93.43346278723952,43.04895341986813zM-116.41855654149143,7.482091534312058L-122.97005956429153,0.31768259163896895L-101.80416732506609,33.75829476051942z" style="fill:rgb(26,52,150)"/><path d="M-117.96260567506819,5.79353070621134L-116.41855654149143,7.482091534312058L-110.7521357756867,-43.5559340755638z" style="fill:rgb(83,212,212)"/><path d="M26.573968114791803,-48.369966185561225L38.01011904746203,-28.403083747970207L26.443292986441246,-53.251711321573616z" style="fill:rgb(247,158,158)"/><path d="M13.204845043478642,-44.35723767768501L3.6432253075459466,-39.83409044908644L15.747413369769022,-15.24971091311231z" style="fill:rgb(160,49,222)"/><path d="M42.95538227657318,-50.33026334217223L44.653857822586744,-24.757823425763295L54.2721464497972,-25.271835782436195z" style="fill:rgb(94,32,205)"/><path d="M3.6432253075459466,-39.83409044908644L-5.256019032916996,-34.247018827224004L7.062542776966966,-9.765660175636983z" style="fill:rgb(180,60,221)"/><path d="M-20.013725367698417,-20.56367960439647L-12.490378175856012,11.382522535609615L-7.284363790024276,3.749469966132876z" style="fill:rgb(229,106,201)"/><path d="M23.143291160023956,-47.679771331682524L13.204845043478642,-44.35723767768501L25.096264684489622,-19.660455222428915z" style="fill:rgb(138,40,220)"/><path d="M-114.6087389842626,9.461151493034588L-111.91620996390256,-15.220312104554985L-113.20591248191634,-21.45440664855461z" style="fill:rgb(83,212,212)"/><path d="M-5.256019032916996,-34.247018827224004L-13.224147120551617,-27.760315100230862L-0.695228390942656,-3.3700884177588177z" style="fill:rgb(199,74,218)"/><path d="M-97.64079255544274,28.016503738320942L-84.65191639165857,-43.12378931959422L-91.14895531788927,-43.06688706495802z" style="fill:rgb(83,212,212)"/><path d="M33.16139218240176,-49.695231877750096L23.143291160023956,-47.679771331682524L34.82901768536803,-22.864167460019722z" style="fill:rgb(116,34,214)"/><path d="M52.22036856940314,-49.54727665764902L54.2721464497972,-25.271835782436195L63.38394035832665,-24.37274307605026z" style="fill:rgb(74,33,194)"/><path d="M-114.6087389842626,9.461151493034588L-103.93212371147956,-14.40005394645405L-111.91620996390256,-15.220312104554985z" style="fill:rgb(83,212,212)"/><path d="M-107.17097747454203,17.59492029352314L-93.43353219890871,43.049007530481376L-85.99353702095908,51.306768598456244z" style="fill:rgb(26,52,150)"/><path d="M-13.224147120551617,-27.760315100230862L-20.013725367698417,-20.56367960439647L-7.284363790024276,3.749469966132876z" style="fill:rgb(216,89,211)"/><path d="M-25.4042997196373,-12.869321010236556L-16.131604880620973,19.298845503164454L-12.490378175856012,11.382522535609615z" style="fill:rgb(239,123,188)"/><path d="M42.95538227657318,-50.33026334217223L33.16139218240176,-49.695231877750096L44.653857822586744,-24.757823425763295z" style="fill:rgb(94,32,205)"/><path d="M-114.6087389842626,9.461151493034588L-116.41855654149143,7.482091534312058L-95.24467599106792,41.038730752093976z" style="fill:rgb(26,52,150)"/><path d="M153.7858045190254,-120.38966336021637L163.3668275743667,-77.58753696897033L166.32698868668163,-82.27035182853662z" style="fill:rgb(228,104,202)"/><path d="M-114.6087389842626,9.461151493034588L-113.20591248191634,-21.45440664855461L-116.41855654149143,7.482091534312058z" style="fill:rgb(83,212,212)"/><path d="M-8.38969680503716,-14.942869998692617L-7.704361976658653,-43.07146117592275L-8.152418948128284,-43.96517178871933z" style="fill:rgb(247,158,158)"/><path d="M-91.27652398761889,34.97617733729433L-69.89206204955384,-44.022107409941825L-84.65191639165857,-43.12378931959422z" style="fill:rgb(83,212,212)"/><path d="M-20.013725367698417,-20.56367960439647L-25.4042997196373,-12.869321010236556L-12.490378175856012,11.382522535609615z" style="fill:rgb(229,106,201)"/><path d="M-107.17089413983517,17.59485891648437L-95.29602842482679,-19.68418046106337L-103.93212371147956,-14.40005394645405z" style="fill:rgb(83,212,212)"/><path d="M52.22036856940314,-49.54727665764902L42.95538227657318,-50.33026334217223L54.2721464497972,-25.271835782436195z" style="fill:rgb(74,33,194)"/><path d="M60.657166890514226,-47.347613199479376L63.38394035832665,-24.37274307605026L71.6948983468179,-22.066198603808036z" style="fill:rgb(55,36,180)"/><path d="M88.64817921024954,-81.48671479746956L101.57282902364031,-42.151453813416126L103.40268323337459,-44.452068456971794z" style="fill:rgb(221,95,207)"/><path d="M-29.208111981677074,-4.908925906639929L-18.065794888724938,27.25252754064895L-16.131604880620973,19.298845503164454z" style="fill:rgb(245,141,174)"/><path d="M26.478630080740118,-36.77392142877456L26.443292986441246,-53.251711321573616L26.020247231235782,-54.16052663223503z" style="fill:rgb(247,158,158)"/><path d="M98.69388961003186,-84.21492827833427L103.40268323337459,-44.452068456971794L113.1509996640578,-47.00310409508158z" style="fill:rgb(127,37,217)"/><path d="M-107.17097747454203,17.59492029352314L-114.60881110683617,9.461203171756592L-93.43353219890871,43.049007530481376z" style="fill:rgb(26,52,150)"/><path d="M-99.55140529317586,25.927167473222692L-92.6145329147508,-27.019314836813727L-95.29602842482679,-19.68418046106337z" style="fill:rgb(83,212,212)"/><path d="M105.56928668312686,-80.57933479029079L119.89706574190441,-43.23240378741402L117.24619025659445,-65.29522316415274z" style="fill:rgb(247,158,158)"/><path d="M86.73608064695263,-79.15710814793391L97.87146438389651,-37.49779549453561L101.57282902364031,-42.151453813416126z" style="fill:rgb(221,95,207)"/><path d="M150.68568514950786,-115.66673817159146L149.3356472567098,-55.390969829544346L163.3668275743667,-77.58753696897033z" style="fill:rgb(228,104,202)"/><path d="M-25.4042997196373,-12.869321010236556L-29.208111981677074,-4.908925906639929L-16.131604880620973,19.298845503164454z" style="fill:rgb(239,123,188)"/><path d="M105.56928668312686,-80.57933479029079L117.24619025659445,-65.29522316415274L103.15666942162007,-102.5308817712139z" style="fill:rgb(247,158,158)"/><path d="M60.657166890514226,-47.347613199479376L52.22036856940314,-49.54727665764902L63.38394035832665,-24.37274307605026z" style="fill:rgb(55,36,180)"/><path d="M-99.55140529317586,25.927167473222692L-85.9934566562862,51.30670857630133L-78.37782738620999,59.759377707114254z" style="fill:rgb(26,52,150)"/><path d="M-114.6087389842626,9.461151493034588L-107.17089413983517,17.59485891648437L-103.93212371147956,-14.40005394645405z" style="fill:rgb(83,212,212)"/><path d="M26.478630080740118,-36.77392142877456L26.908735190627272,-35.86378461510748L26.443292986441246,-53.251711321573616zM-8.38969680503716,-14.942869998692617L-7.928409054524691,-14.047759248116689L-7.704361976658653,-43.07146117592275z" style="fill:rgb(247,158,158)"/><path d="M105.32413576179347,-80.70897353003988L113.1509996640578,-47.00310409508158L119.65658078333425,-43.366829393285165z" style="fill:rgb(33,47,159)"/><path d="M67.9799206734217,-43.774475170980345L71.6948983468179,-22.066198603808036L78.9236596924365,-18.399740134265976z" style="fill:rgb(38,43,165)"/><path d="M35.694614649549045,2.4422104343979285L13.664561888827956,-17.772616519064563L25.855630112435755,6.948420212561354z" style="fill:rgb(158,48,222)"/><path d="M153.7858045190254,-120.38966336021637L150.68568514950786,-115.66673817159146L163.3668275743667,-77.58753696897033z" style="fill:rgb(228,104,202)"/><path d="M105.56928668312686,-80.57933479029079L119.65658078333425,-43.366829393285165L119.89706574190441,-43.23240378741402z" style="fill:rgb(33,47,159)"/><path d="M45.71800509036923,1.9023616111513741L23.732211503940576,-22.39985877440505L35.694614649549045,2.4422104343979285z" style="fill:rgb(96,32,206)"/><path d="M25.855630112435755,6.948420212561354L6.326025725113394,-10.376095636887761L18.73076308219599,14.256542408843522z" style="fill:rgb(212,85,213)"/><path d="M75.98613124237404,-36.058725684632826L13.20486367884062,-44.35724761650906L3.6432426849706627,-39.834100288713664z" style="fill:rgb(83,212,212)"/><path d="M-31.508827547094192,10.811490693572727L-18.196583579875966,34.98706626226471L-18.065794888724938,27.25252754064895z" style="fill:rgb(247,158,158)"/><path d="M17.90673361425112,-34.50455872022778L8.580401436627083,-29.01634197534318L18.343155762939045,-33.59822523017732z" style="fill:rgb(159,49,222)"/><path d="M75.98613124237404,-36.058725684632826L3.6432426849706627,-39.834100288713664L-5.256019032916996,-34.247018827224004z" style="fill:rgb(83,212,212)"/><path d="M17.90673361425112,-34.50455872022778L8.135953615056437,-29.918417509043934L8.580401436627083,-29.01634197534318z" style="fill:rgb(159,49,222)"/><path d="M8.135953615056437,-29.918417509043934L-0.07534397835905116,-22.866129357278037L8.580401436627083,-29.01634197534318z" style="fill:rgb(189,66,220)"/><path d="M-76.55774849800531,51.07195202699318L-54.63676377512002,-45.70554969491653L-69.89206204955384,-44.022107409941825zM75.98613124237404,-36.058725684632826L23.143286154064654,-47.67976629628485L13.20486367884062,-44.35724761650906z" style="fill:rgb(83,212,212)"/><path d="M-29.208111981677074,-4.908925906639929L-31.276957183287152,3.0704542632455896L-18.065794888724938,27.25252754064895z" style="fill:rgb(245,141,174)"/><path d="M28.549496322822765,-36.29775824735767L17.90673361425112,-34.50455872022778L18.343155762939045,-33.59822523017732z" style="fill:rgb(127,37,217)"/><path d="M8.135953615056437,-29.918417509043934L-0.5278484851929337,-23.764517179771047L-0.07534397835905116,-22.866129357278037z" style="fill:rgb(189,66,220)"/><path d="M75.98613124237404,-36.058725684632826L-5.256019032916996,-34.247018827224004L-13.2241395966777,-27.7603224765736z" style="fill:rgb(83,212,212)"/><path d="M98.69388961003186,-84.21492827833427L88.64817921024954,-81.48671479746956L103.40268323337459,-44.452068456971794z" style="fill:rgb(127,37,217)"/><path d="M88.64817921024954,-81.48671479746956L86.73608064695263,-79.15710814793391L101.57282902364031,-42.151453813416126z" style="fill:rgb(221,95,207)"/><path d="M-97.64079255544274,28.016503738320942L-78.37782738620999,59.759377707114254L-76.46913491920151,61.87782898469772z" style="fill:rgb(26,52,150)"/><path d="M28.549496322822765,-36.29775824735767L28.120603951999687,-37.2086457842839L17.90673361425112,-34.50455872022778z" style="fill:rgb(127,37,217)"/><path d="M75.98613124237404,-36.058725684632826L33.161394719090524,-49.69523193745555L23.143286154064654,-47.67976629628485z" style="fill:rgb(83,212,212)"/><path d="M67.9799206734217,-43.774475170980345L60.657166890514226,-47.347613199479376L71.6948983468179,-22.066198603808036z" style="fill:rgb(38,43,165)"/><path d="M-7.487112336270372,-16.455761741212804L-0.07534397835905116,-22.866129357278037L-0.5278484851929337,-23.764517179771047z" style="fill:rgb(215,88,211)"/><path d="M75.98613124237404,-36.058725684632826L-13.2241395966777,-27.7603224765736L-20.01372666642528,-20.563677152749317z" style="fill:rgb(83,212,212)"/><path d="M-99.55140529317586,25.927167473222692L-107.17089413983517,17.59485891648437L-85.9934566562862,51.30670857630133z" style="fill:rgb(26,52,150)"/><path d="M88.64817921024954,-81.48671479746956L89.9415256826355,-94.86361092949485L87.53000141671163,-93.59116150188225zM91.14846017558294,-82.16574055618105L97.16343489568159,-99.05368772969955L89.9415256826355,-94.86361092949485z" style="fill:rgb(83,212,212)"/><path d="M-7.487112336270372,-16.455761741212804L-7.027043110294914,-15.56028568253607L-0.07534397835905116,-22.866129357278037z" style="fill:rgb(215,88,211)"/><path d="M135.98249115412204,-93.26685740244051L143.58319282219654,-46.29099346736423L149.3356472567098,-55.390969829544346z" style="fill:rgb(228,104,202)"/><path d="M98.69388961003186,-84.21492827833427L102.94451358636864,-102.4077744432789L97.16343489568159,-99.05368772969955zM-107.17089413983517,17.59485891648437L-99.55140529317586,25.927167473222692L-95.29602842482679,-19.68418046106337z" style="fill:rgb(83,212,212)"/><path d="M86.73608064695263,-79.15710814793391L82.86786377087138,-74.44417445859868L97.87146438389651,-37.49779549453561z" style="fill:rgb(221,95,207)"/><path d="M73.92525947554567,-38.91533969982998L78.9236596924365,-18.399740134265976L84.81091580281219,-13.4650042392454z" style="fill:rgb(25,53,148)"/><path d="M38.08003349021418,-37.8312569166721L28.120603951999687,-37.2086457842839L28.549496322822765,-36.29775824735767z" style="fill:rgb(95,32,206)"/><path d="M53.31549967722125,5.517025673559891L33.94302463014429,-23.063320493647986L45.71800509036923,1.9023616111513741z" style="fill:rgb(42,41,169)"/><path d="M75.98613124237404,-36.058725684632826L42.95540776876529,-50.33026382802001L33.161394719090524,-49.69523193745555z" style="fill:rgb(83,212,212)"/><path d="M-31.508827547094192,10.811490693572727L-16.48062859313964,42.24201591273576L-18.196583579875966,34.98706626226471z" style="fill:rgb(245,174,141)"/><path d="M82.86786377087138,-74.44417445859868L87.53000141671163,-93.59116150188225L81.49928315863772,-90.40898372629329z" style="fill:rgb(83,212,212)"/><path d="M18.73076308219599,14.256542408843522L3.646508763567811,-2.1021230947841447L16.195168571630607,22.495883796481397z" style="fill:rgb(243,133,180)"/><path d="M-31.508827547094192,10.811490693572727L-18.065794888724938,27.25252754064895L-31.276957183287152,3.0704542632455896z" style="fill:rgb(247,158,158)"/><path d="M13.664561888827956,-17.772616519064563L-27.21361409625844,-9.08291870862248L-28.292020029443826,-6.8260341931966755z" style="fill:rgb(83,212,212)"/><path d="M35.694614649549045,2.4422104343979285L23.732211503940576,-22.39985877440505L13.664561888827956,-17.772616519064563z" style="fill:rgb(158,48,222)"/><path d="M38.08003349021418,-37.8312569166721L28.549496322822765,-36.29775824735767L38.50238198156532,-36.9158194281995z" style="fill:rgb(95,32,206)"/><path d="M105.32413576179347,-80.70897353003988L98.69388961003186,-84.21492827833427L113.1509996640578,-47.00310409508158z" style="fill:rgb(33,47,159)"/><path d="M75.98613124237404,-36.058725684632826L-20.01372666642528,-20.563677152749317L-25.40429447803635,-12.86933221127382zM105.32413576179347,-80.70897353003988L103.15666942162007,-102.5308817712139L102.94451358636864,-102.4077744432789z" style="fill:rgb(83,212,212)"/><path d="M25.855630112435755,6.948420212561354L13.664561888827956,-17.772616519064563L6.326025725113394,-10.376095636887761z" style="fill:rgb(212,85,213)"/><path d="M-7.487112336270372,-16.455761741212804L-11.775916000691637,-7.591311191228018L-7.027043110294914,-15.56028568253607z" style="fill:rgb(233,113,196)"/><path d="M-99.55140529317586,25.927167473222692L-97.64079255544274,28.016503738320942L-92.6145329147508,-27.019314836813727zM-97.64079255544274,28.016503738320942L-91.27652398761889,34.97617733729433L-84.65191639165857,-43.12378931959422zM6.326025725113394,-10.376095636887761L-28.292020029443826,-6.8260341931966755L-29.208109098710057,-4.908940067688174z" style="fill:rgb(83,212,212)"/><path d="M-92.90615302303364,33.19435377863968L-76.46926187373558,61.87792057721131L-71.7409224140626,67.12598585683723z" style="fill:rgb(26,52,150)"/><path d="M75.98613124237404,-36.058725684632826L52.22037890864459,-49.5472768981123L42.95540776876529,-50.33026382802001zM88.64817921024954,-81.48671479746956L91.14846017558294,-82.16574055618105L89.9415256826355,-94.86361092949485z" style="fill:rgb(83,212,212)"/><path d="M150.68568514950786,-115.66673817159146L135.98249115412204,-93.26685740244051L149.3356472567098,-55.390969829544346z" style="fill:rgb(228,104,202)"/><path d="M75.98613124237404,-36.058725684632826L-25.40429447803635,-12.86933221127382L-27.21361409625844,-9.08291870862248z" style="fill:rgb(83,212,212)"/><path d="M45.71800509036923,1.9023616111513741L33.94302463014429,-23.063320493647986L23.732211503940576,-22.39985877440505z" style="fill:rgb(96,32,206)"/><path d="M91.14846017558294,-82.16574055618105L98.69388961003186,-84.21492827833427L97.16343489568159,-99.05368772969955z" style="fill:rgb(83,212,212)"/><path d="M-7.487112336270372,-16.455761741212804L-12.242485685659327,-8.484836157189577L-11.775916000691637,-7.591311191228018z" style="fill:rgb(233,113,196)"/><path d="M47.506290165731066,-35.38235111282319L38.08003349021418,-37.8312569166721L38.50238198156532,-36.9158194281995z" style="fill:rgb(65,34,188)"/><path d="M13.664561888827956,-17.772616519064563L23.732211503940576,-22.39985877440505L-27.21361409625844,-9.08291870862248zM82.86786377087138,-74.44417445859868L88.64817921024954,-81.48671479746956L87.53000141671163,-93.59116150188225zM6.326025725113394,-10.376095636887761L-29.208109098710057,-4.908940067688174L-30.25213169759882,-0.8822345438440579z" style="fill:rgb(83,212,212)"/><path d="M73.92525947554567,-38.91533969982998L67.9799206734217,-43.774475170980345L78.9236596924365,-18.399740134265976z" style="fill:rgb(25,53,148)"/><path d="M105.56928668312686,-80.57933479029079L105.32413576179347,-80.70897353003988L119.65658078333425,-43.366829393285165z" style="fill:rgb(33,47,159)"/><path d="M6.326025725113394,-10.376095636887761L13.664561888827956,-17.772616519064563L-28.292020029443826,-6.8260341931966755z" style="fill:rgb(83,212,212)"/><path d="M18.73076308219599,14.256542408843522L6.326025725113394,-10.376095636887761L3.646508763567811,-2.1021230947841447z" style="fill:rgb(243,133,180)"/><path d="M47.506290165731066,-35.38235111282319L47.08908961862016,-36.301997531333654L38.08003349021418,-37.8312569166721z" style="fill:rgb(65,34,188)"/><path d="M98.69388961003186,-84.21492827833427L105.32413576179347,-80.70897353003988L102.94451358636864,-102.4077744432789zM-60.88922921639132,68.20628140276442L-48.51527511999707,-46.67191578381834L-54.63676377512002,-45.70554969491653zM75.98613124237404,-36.058725684632826L60.65717222939155,-47.347613405468834L52.22037890864459,-49.5472768981123z" style="fill:rgb(83,212,212)"/><path d="M78.26247363848753,-32.90340416174573L84.81091580281219,-13.4650042392454L89.12940380451211,-7.398862582791304z" style="fill:rgb(15,66,131)"/><path d="M-97.64079255544274,28.016503738320942L-99.55140529317586,25.927167473222692L-78.37782738620999,59.759377707114254z" style="fill:rgb(26,52,150)"/><path d="M-29.85536042079576,18.053140000633114L-12.933961876128025,48.76101343917051L-16.48062859313964,42.24201591273576z" style="fill:rgb(239,188,123)"/><path d="M16.195168571630607,22.495883796481397L6.4196520522208536,4.879051745155125L19.001396323024426,29.50520539917916z" style="fill:rgb(243,180,133)"/><path d="M-11.775916000691637,-7.591311191228018L-12.242485685659327,-8.484836157189577L-14.424720573728775,-0.40123438330390276z" style="fill:rgb(244,139,176)"/><path d="M3.646508763567811,-2.1021230947841447L-30.25213169759882,-0.8822345438440579L-31.276957183287152,3.0704542632455896zM105.32413576179347,-80.70897353003988L105.56928668312686,-80.57933479029079L103.15666942162007,-102.5308817712139z" style="fill:rgb(83,212,212)"/><path d="M129.95039098259556,-84.0772194577626L123.37129238886403,-14.316964847853484L143.58319282219654,-46.29099346736423z" style="fill:rgb(228,104,202)"/><path d="M53.31549967722125,5.517025673559891L44.72555922182316,-12.687324056283089L56.42066114837097,12.406191522686825z" style="fill:rgb(243,180,133)"/><path d="M53.31549967722125,5.517025673559891L41.639196971095345,-19.541629526950157L33.94302463014429,-23.063320493647986z" style="fill:rgb(42,41,169)"/><path d="M-11.775916000691637,-7.591311191228018L-14.424720573728775,-0.40123438330390276L-13.95312619677838,0.49142483380482105z" style="fill:rgb(244,139,176)"/><path d="M110.49554886029122,-54.438448542182556L114.15578409950706,-109.4268117748572L104.99064004522525,-103.59494577905082z" style="fill:rgb(83,212,212)"/><path d="M-31.508827547094192,10.811490693572727L-29.85536042079576,18.053140000633114L-16.48062859313964,42.24201591273576z" style="fill:rgb(245,174,141)"/><path d="M3.646508763567811,-2.1021230947841447L6.326025725113394,-10.376095636887761L-30.25213169759882,-0.8822345438440579z" style="fill:rgb(83,212,212)"/><path d="M54.492793238354736,-32.69095844706309L47.08908961862016,-36.301997531333654L47.506290165731066,-35.38235111282319z" style="fill:rgb(39,43,166)"/><path d="M3.646508763567811,-2.1021230947841447L-31.276957183287152,3.0704542632455896L-31.392464202391945,6.926678341169952zM108.73682002731778,-51.75907500721071L104.99064004522525,-103.59494577905082L103.15666942162007,-102.5308817712139zM75.98613124237404,-36.058725684632826L67.97992620252049,-43.77447032833573L60.65717222939155,-47.347613405468834zM-31.432637517151093,50.43818415503628L-22.97159954747771,-51.4419024259679L-28.53153469088344,-50.30782538343738z" style="fill:rgb(83,212,212)"/><path d="M-92.90615302303364,33.19435377863968L-97.64092954760831,28.016600078983654L-76.46926187373558,61.87792057721131z" style="fill:rgb(26,52,150)"/><path d="M-54.44961654082915,74.96761149927657L-38.96740944263145,-48.17920507855033L-48.51527511999707,-46.67191578381834zM-38.1378200839118,58.54530390842191L-28.53153469088344,-50.30782538343738L-34.40418347298545,-49.10998965783029z" style="fill:rgb(83,212,212)"/><path d="M135.98249115412204,-93.26685740244051L129.95039098259556,-84.0772194577626L143.58319282219654,-46.29099346736423z" style="fill:rgb(228,104,202)"/><path d="M78.26247363848753,-32.90340416174573L73.92525947554567,-38.91533969982998L84.81091580281219,-13.4650042392454z" style="fill:rgb(15,66,131)"/><path d="M26.507310082533362,33.36444870114594L6.4196520522208536,4.879051745155125L19.001396323024426,29.50520539917916z" style="fill:rgb(42,41,169)"/><path d="M54.492793238354736,-32.69095844706309L47.506290165731066,-35.38235111282319L54.906611225140566,-31.76778787739075z" style="fill:rgb(39,43,166)"/><path d="M16.195168571630607,22.495883796481397L3.646508763567811,-2.1021230947841447L6.4196520522208536,4.879051745155125z" style="fill:rgb(243,180,133)"/><path d="M-25.301234496370554,48.92468504644612L-19.06303400726917,-52.415808108007646L-22.97159954747771,-51.4419024259679zM110.49554886029122,-54.438448542182556L153.7858045190254,-120.38966336021637L114.15578409950706,-109.4268117748572zM-20.996481041386627,47.86208066642537L-13.13022670288422,-53.89408438547041L-19.06303400726917,-52.415808108007646z" style="fill:rgb(83,212,212)"/><path d="M-84.07720965215957,42.849004324097955L-71.74078964411211,67.12588842712428L-62.93026678478904,76.90475547566355z" style="fill:rgb(26,52,150)"/><path d="M-14.548749904787718,52.760447562329574L-8.152418948128284,-43.96517178871933L-13.13022670288422,-53.89408438547041z" style="fill:rgb(247,158,158)"/><path d="M89.12940380451211,-7.398862582791304L80.804895695293,-25.91748167867463L91.694924187603,-0.3831127108188336z" style="fill:rgb(245,174,141)"/><path d="M53.31549967722125,5.517025673559891L41.639196971095345,-19.541629526950157L44.72555922182316,-12.687324056283089z" style="fill:rgb(243,180,133)"/><path d="M77.21633666238101,-34.3534402261203L23.732211503940576,-22.39985877440505L33.94302463014429,-23.063320493647986z" style="fill:rgb(83,212,212)"/><path d="M-13.95312619677838,0.49142483380482105L-14.424720573728775,-0.40123438330390276L-13.825872399851018,7.217586637427258z" style="fill:rgb(247,164,152)"/><path d="M34.998560264992335,17.328239309334485L17.90673496094165,-34.50455384770132L8.135953615056437,-29.918417509043934z" style="fill:rgb(83,212,212)"/><path d="M-7.636789474994962,54.30126858836995L-26.32851604209678,24.53884589266363L-12.933961876128025,48.76101343917051z" style="fill:rgb(25,53,148)"/><path d="M34.998560264992335,17.328239309334485L8.135953615056437,-29.918417509043934L-0.5278484851929337,-23.764517179771047zM-91.27652398761889,34.97617733729433L-76.55774849800531,51.07195202699318L-69.89206204955384,-44.022107409941825zM-43.91461780412452,77.88173976844038L-34.40418347298545,-49.10998965783029L-38.96740944263145,-48.17920507855033zM75.98613124237404,-36.058725684632826L73.92525395870757,-38.91534208236881L67.97992620252049,-43.77447032833573zM34.998560264992335,17.328239309334485L28.120603951999687,-37.2086457842839L17.90673496094165,-34.50455384770132zM6.4196520522208536,4.879051745155125L-31.392464202391945,6.926678341169952L-31.508827547094192,10.811490693572727z" style="fill:rgb(83,212,212)"/><path d="M56.42066114837097,12.406191522686825L42.260914519049045,-4.288426964849262L54.092482927203626,20.76994231811744z" style="fill:rgb(243,133,180)"/><path d="M-13.95312619677838,0.49142483380482105L-13.825872399851018,7.217586637427258L-13.351154587744679,8.11051125208282z" style="fill:rgb(247,164,152)"/><path d="M34.998560264992335,17.328239309334485L-0.5278484851929337,-23.764517179771047L-7.487112336270372,-16.455761741212804zM77.21633666238101,-34.3534402261203L75.98613124237404,-36.058725684632826L23.732211503940576,-22.39985877440505z" style="fill:rgb(83,212,212)"/><path d="M60.13370489910031,-26.289560286013295L54.492793238354736,-32.69095844706309L54.906611225140566,-31.76778787739075z" style="fill:rgb(21,58,141)"/><path d="M6.4196520522208536,4.879051745155125L3.646508763567811,-2.1021230947841447L-31.392464202391945,6.926678341169952z" style="fill:rgb(83,212,212)"/><path d="M-29.85536042079576,18.053140000633114L-26.328520988475493,24.538840438313763L-12.933961876128025,48.76101343917051z" style="fill:rgb(239,188,123)"/><path d="M34.998560264992335,17.328239309334485L38.08003349021418,-37.8312569166721L28.120603951999687,-37.2086457842839zM6.4196520522208536,4.879051745155125L-31.508827547094192,10.811490693572727L-30.695768470429634,14.372435141712655z" style="fill:rgb(83,212,212)"/><path d="M36.73809204694227,32.94905624987059L14.017413308988388,8.652556859864772L26.507310082533362,33.36444870114594z" style="fill:rgb(96,32,206)"/><path d="M89.12940380451211,-7.398862582791304L78.26247344338255,-32.90340407945936L80.804895695293,-25.91748167867463z" style="fill:rgb(245,174,141)"/><path d="M6.236018847022667,41.139890998919896L9.623887021476746,-60.29634987130553L5.658254364864221,-59.13071841819345zM34.998560264992335,17.328239309334485L-7.487112336270372,-16.455761741212804L-12.242485685659327,-8.484836157189577z" style="fill:rgb(83,212,212)"/><path d="M60.13370489910031,-26.289560286013295L59.72112191594241,-27.215224961052993L54.492793238354736,-32.69095844706309z" style="fill:rgb(21,58,141)"/><path d="M79.5447620618154,-29.38001849315098L33.94302463014429,-23.063320493647986L41.639196971095345,-19.541629526950157zM-0.36771406639593207,49.28276438628113L5.658254364864221,-59.13071841819345L-0.33174767133772765,-57.37004395677253z" style="fill:rgb(83,212,212)"/><path d="M54.092482927203626,20.76994231811744L34.824005346316206,3.359940687840761L46.87607017486591,28.322674675339332z" style="fill:rgb(212,85,213)"/><path d="M-84.07720965215957,42.849004324097955L-92.90602531510336,33.194253890354666L-71.74078964411211,67.12588842712428z" style="fill:rgb(26,52,150)"/><path d="M10.60859681394272,40.06054468756092L15.295235837150459,-62.217313876444L9.623887021476746,-60.29634987130553zM80.49819424956922,-8.738505881001094L81.49928315863772,-90.40898372629329L74.42127123141432,-86.67420132293765zM34.998560264992335,17.328239309334485L47.08908961862016,-36.301997531333654L38.08003349021418,-37.8312569166721zM79.5447620618154,-29.38001849315098L77.21633666238101,-34.3534402261203L33.94302463014429,-23.063320493647986z" style="fill:rgb(83,212,212)"/><path d="M46.87607017486591,28.322674675339332L24.443069574865596,8.114073855998566L36.73809204694227,32.94905624987059z" style="fill:rgb(158,48,222)"/><path d="M91.694924187603,-0.3831127108188336L81.42078865267953,-18.17965784365357L92.37697804209992,7.358170524714899z" style="fill:rgb(247,158,158)"/><path d="M16.869173860526768,38.51515703158675L21.319957990839463,-64.25799835373581L15.295235837150459,-62.217313876444z" style="fill:rgb(83,212,212)"/><path d="M56.42066114837097,12.406191522686825L44.72555922182316,-12.687324056283089L42.260914519049045,-4.288426964849262z" style="fill:rgb(243,133,180)"/><path d="M23.66933468836838,43.388045171744785L26.020247231235782,-54.16052663223503L21.319957990839463,-64.25799835373581z" style="fill:rgb(247,158,158)"/><path d="M-13.351154587744679,8.11051125208282L-13.825872399851018,7.217586637427258L-10.42695472597846,13.802096085851636z" style="fill:rgb(240,186,126)"/><path d="M-0.7367743688843424,58.64434867780163L-21.005822689849012,30.025929902371978L-7.636789474994962,54.30126858836995z" style="fill:rgb(38,43,165)"/><path d="M26.507310082533362,33.36444870114594L14.017413308988388,8.652556859864772L6.4196520522208536,4.879051745155125z" style="fill:rgb(42,41,169)"/><path d="M108.73682002731778,-51.75907500721071L121.41223895453024,-11.217878573727228L123.37129238886403,-14.316964847853484z" style="fill:rgb(228,104,202)"/><path d="M14.017413308988388,8.652556859864772L-30.695768470429634,14.372435141712655L-29.855353223451846,18.053155840960095zM-14.810226774046084,72.42010847910848L-6.742105778952331,-55.485841574313305L-13.13022670288422,-53.89408438547041zM34.998560264992335,17.328239309334485L-12.242485685659327,-8.484836157189577L-14.424720573728775,-0.40123438330390276z" style="fill:rgb(83,212,212)"/><path d="M-13.351154587744679,8.11051125208282L-10.42695472597846,13.802096085851636L-9.9514068844252,14.696442052137861z" style="fill:rgb(240,186,126)"/><path d="M14.017413308988388,8.652556859864772L6.4196520522208536,4.879051745155125L-30.695768470429634,14.372435141712655z" style="fill:rgb(83,212,212)"/><path d="M59.72112191594241,-27.215224961052993L62.749741879840826,-19.3102023312577L60.13368973748245,-26.289544914608843z" style="fill:rgb(244,176,139)"/><path d="M14.017413308988388,8.652556859864772L-29.855353223451846,18.053155840960095L-29.01484478156336,19.5987624050933z" style="fill:rgb(83,212,212)"/><path d="M-7.636789474994962,54.30126858836995L-21.005822689849012,30.025929902371978L-26.32851604209678,24.53884589266363z" style="fill:rgb(25,53,148)"/><path d="M-7.605186296499939,70.68820115580523L-0.33174767133772765,-57.37004395677253L-6.742105778952331,-55.485841574313305zM79.5447620618154,-29.38001849315098L78.26247344338255,-32.90340407945936L77.21633666238101,-34.3534402261203zM34.998560264992335,17.328239309334485L54.492793238354736,-32.69095844706309L47.08908961862016,-36.301997531333654zM64.30755668973097,15.927392539414221L74.42127123141432,-86.67420132293765L58.52764666437334,-79.07885637940932z" style="fill:rgb(83,212,212)"/><path d="M129.95039098259556,-84.0772194577626L108.73682002731778,-51.75907500721071L123.37129238886403,-14.316964847853484z" style="fill:rgb(228,104,202)"/><path d="M91.694924187603,-0.3831127108188336L80.804895695293,-25.91748167867463L81.42078865267953,-18.17965784365357z" style="fill:rgb(247,158,158)"/><path d="M-74.72432592611712,53.076892323638226L-62.93026678478904,76.90475547566355L-53.60569405304206,87.2541990471706z" style="fill:rgb(26,52,150)"/><path d="M54.092482927203626,20.76994231811744L42.260914519049045,-4.288426964849262L34.824005346316206,3.359940687840761z" style="fill:rgb(212,85,213)"/><path d="M108.73682002731778,-51.75907500721071L110.49554886029122,-54.438448542182556L104.99064004522525,-103.59494577905082z" style="fill:rgb(83,212,212)"/><path d="M36.73809204694227,32.94905624987059L24.443069574865596,8.114073855998566L14.017413308988388,8.652556859864772z" style="fill:rgb(96,32,206)"/><path d="M81.11167304920654,-22.063258160305832L41.639196971095345,-19.541629526950157L44.72555922182316,-12.687324056283089zM24.443069574865596,8.114073855998566L-29.01484478156336,19.5987624050933L-28.018247191751843,21.43153249690514z" style="fill:rgb(83,212,212)"/><path d="M59.72112191594241,-27.215224961052993L62.336167264321574,-20.237159958813212L62.749741879840826,-19.3102023312577z" style="fill:rgb(244,176,139)"/><path d="M81.11167304920654,-22.063258160305832L79.5447620618154,-29.38001849315098L41.639196971095345,-19.541629526950157zM34.998560264992335,17.328239309334485L-14.424720573728775,-0.40123438330390276L-13.825872399851018,7.217586637427258zM106.6790965812391,-48.624227811192505L105.56928668312686,-80.57933479029079L104.03530417284766,-73.22083581584229z" style="fill:rgb(83,212,212)"/><path d="M92.37697804209992,7.358170524714899L80.04420150899541,-9.950364342921869L91.10929227025815,15.563772844987676z" style="fill:rgb(245,141,174)"/><path d="M7.551295271012343,61.60741437650352L-14.033973528459873,34.29667485493537L-0.7367743688843424,58.64434867780163z" style="fill:rgb(55,36,180)"/><path d="M106.6790965812391,-48.624227811192505L105.26713263978932,14.322701595372225L121.41223895453024,-11.217878573727228z" style="fill:rgb(228,104,202)"/><path d="M46.87607017486591,28.322674675339332L34.824005346316206,3.359940687840761L24.443069574865596,8.114073855998566z" style="fill:rgb(158,48,222)"/><path d="M-3.9432439632139653,19.730118692444965L-10.42695472597846,13.802096085851636L-9.951402257349702,14.696432837791292z" style="fill:rgb(29,50,154)"/><path d="M34.998560264992335,17.328239309334485L59.72112191594241,-27.215224961052993L54.492793238354736,-32.69095844706309zM47.3410146719042,41.7753049293582L58.52764666437334,-79.07885637940932L42.36163567336631,-72.12443926514766zM24.443069574865596,8.114073855998566L14.017413308988388,8.652556859864772L-29.01484478156336,19.5987624050933zM24.084520066833196,62.4114180412216L26.0259387853848,-65.85200123047112L21.319957990839463,-64.25799835373581zM87.57610549280847,-19.52146269401628L85.6997988593001,-68.29626097835227L82.86786377087138,-74.44417445859868z" style="fill:rgb(83,212,212)"/><path d="M-3.9432439632139653,19.730118692444965L-4.4172041563707305,18.833277229204306L-10.42695472597846,13.802096085851636z" style="fill:rgb(29,50,154)"/><path d="M29.390644719045,60.232936705649436L42.36163567336631,-72.12443926514766L26.0259387853848,-65.85200123047112zM81.11167304920654,-22.063258160305832L80.804895695293,-25.91748167867463L79.5447620618154,-29.38001849315098z" style="fill:rgb(83,212,212)"/><path d="M-0.7367743688843424,58.64434867780163L-14.033973528459873,34.29667485493537L-21.005822689849012,30.025929902371978z" style="fill:rgb(38,43,165)"/><path d="M62.749741879840826,-19.3102023312577L62.336167264321574,-20.237159958813212L62.0782508426097,-12.250625502930344z" style="fill:rgb(247,152,164)"/><path d="M-76.55774849800531,51.07195202699318L-60.88922921639132,68.20628140276442L-54.63676377512002,-45.70554969491653zM34.998560264992335,17.328239309334485L-13.825872399851018,7.217586637427258L-10.42695472597846,13.802096085851636zM98.2633975571494,-35.80320783590816L104.03530417284766,-73.22083581584229L95.14387435671007,-67.71843345079385z" style="fill:rgb(83,212,212)"/><path d="M-74.72432592611712,53.076892323638226L-84.07720965215957,42.849004324097955L-62.93026678478904,76.90475547566355z" style="fill:rgb(26,52,150)"/><path d="M92.37697804209992,7.358170524714899L81.42078865267953,-18.17965784365357L80.04420150899541,-9.950364342921869z" style="fill:rgb(245,141,174)"/><path d="M91.10929227025815,15.563772844987676L76.68360725307282,-1.5204718736642715L87.89818791984801,23.943392913964498z" style="fill:rgb(239,123,188)"/><path d="M89.71016316556603,-22.772649366607713L95.14387435671007,-67.71843345079385L85.6997988593001,-68.29626097835227zM80.74362839171918,-14.131537029938723L44.72555922182316,-12.687324056283089L42.260914519049045,-4.288426964849262z" style="fill:rgb(83,212,212)"/><path d="M108.73682002731778,-51.75907500721071L106.6790965812391,-48.624227811192505L121.41223895453024,-11.217878573727228z" style="fill:rgb(228,104,202)"/><path d="M62.749741879840826,-19.3102023312577L62.0782508426097,-12.250625502930344L62.49513434370165,-11.323784452439622z" style="fill:rgb(247,152,164)"/><path d="M16.949406781024614,63.054281635459965L-5.628824817053626,37.16954912092594L7.551295271012343,61.60741437650352z" style="fill:rgb(74,33,194)"/><path d="M34.998560264992335,17.328239309334485L62.336167264321574,-20.237159958813212L59.72112191594241,-27.215224961052993zM80.74362839171918,-14.131537029938723L81.11167304920654,-22.063258160305832L44.72555922182316,-12.687324056283089zM106.6790965812391,-48.624227811192505L108.73682002731778,-51.75907500721071L105.56928668312686,-80.57933479029079z" style="fill:rgb(83,212,212)"/><path d="M4.271245397864913,22.789553832531457L-4.4172041563707305,18.833277229204306L-3.9432439632139653,19.730118692444965z" style="fill:rgb(51,38,177)"/><path d="M34.998560264992335,17.328239309334485L-10.42695472597846,13.802096085851636L-4.4172041563707305,18.833277229204306zM35.92405908471244,32.899750108421365L-28.018247191751843,21.43153249690514L-26.32851604209678,24.53884589266363z" style="fill:rgb(83,212,212)"/><path d="M7.551295271012343,61.60741437650352L-5.628824817053626,37.16954912092594L-14.033973528459873,34.29667485493537z" style="fill:rgb(55,36,180)"/><path d="M4.271245397864913,22.789553832531457L3.8012795408749644,21.88923821564654L-4.4172041563707305,18.833277229204306z" style="fill:rgb(51,38,177)"/><path d="M62.0782508426097,-12.250625502930344L59.32660563958664,-2.926872262190207L62.49513434370165,-11.323784452439622z" style="fill:rgb(240,126,186)"/><path d="M80.74362839171918,-14.131537029938723L81.42078865267953,-18.17965784365357L81.11167304920654,-22.063258160305832zM79.24227426050598,-7.938828691526457L42.260914519049045,-4.288426964849262L34.824005346316206,3.359940687840761z" style="fill:rgb(83,212,212)"/><path d="M87.89818791984801,23.943392913964498L71.42712152181288,6.799775598213232L82.8276015874985,32.188737418534046z" style="fill:rgb(229,106,201)"/><path d="M89.71016316556603,-22.772649366607713L103.23796389423767,17.532751529432456L105.26713263978932,14.322701595372225z" style="fill:rgb(228,104,202)"/><path d="M34.998560264992335,17.328239309334485L62.0782508426097,-12.250625502930344L62.336167264321574,-20.237159958813212z" style="fill:rgb(83,212,212)"/><path d="M27.12482870849337,62.90519400745379L3.9283053018447602,38.510457655151306L16.949406781024614,63.054281635459965z" style="fill:rgb(94,32,205)"/><path d="M91.10929227025815,15.563772844987676L80.04420150899541,-9.950364342921869L76.68360725307282,-1.5204718736642715z" style="fill:rgb(239,123,188)"/><path d="M98.2633975571494,-35.80320783590816L106.6790965812391,-48.624227811192505L104.03530417284766,-73.22083581584229z" style="fill:rgb(83,212,212)"/><path d="M-64.85085404319315,63.87405968351217L-53.60569405304206,87.2541990471706L-43.77206937753004,98.16863484948209z" style="fill:rgb(26,52,150)"/><path d="M78.29227334950676,-5.555703959621685L34.824005346316206,3.359940687840761L24.443069574865596,8.114073855998566zM79.24227426050598,-7.938828691526457L80.74362839171918,-14.131537029938723L42.260914519049045,-4.288426964849262z" style="fill:rgb(83,212,212)"/><path d="M62.0782508426097,-12.250625502930344L58.90426188396075,-3.852184769961163L59.32660563958664,-2.926872262190207z" style="fill:rgb(240,126,186)"/><path d="M35.92405908471244,32.899750108421365L-26.32851604209678,24.53884589266363L-21.005822689849012,30.025929902371978zM34.998560264992335,17.328239309334485L-4.4172041563707305,18.833277229204306L3.8012795408749644,21.88923821564654zM-31.432637517151093,50.43818415503628L-25.301234496370554,48.92468504644612L-22.97159954747771,-51.4419024259679z" style="fill:rgb(83,212,212)"/><path d="M87.57610549280847,-19.52146269401628L98.22804208235331,25.458167782955748L103.23796389423767,17.532751529432456z" style="fill:rgb(228,104,202)"/><path d="M13.629484338289041,22.690570655251754L3.8012795408749644,21.88923821564654L4.271245397864913,22.789553832531457z" style="fill:rgb(79,32,197)"/><path d="M-38.1378200839118,58.54530390842191L-31.432637517151093,50.43818415503628L-28.53153469088344,-50.30782538343738zM80.49819424956922,-8.738505881001094L87.57610549280847,-19.52146269401628L81.49928315863772,-90.40898372629329z" style="fill:rgb(83,212,212)"/><path d="M-9.024328163005807,62.68116351094556L-8.161872060955199,16.19571136027806L-8.636958733597574,15.300621493270615zM-14.548749904787718,52.760447562329574L-9.024328163005807,62.68116351094556L-8.152418948128284,-43.96517178871933z" style="fill:rgb(247,158,158)"/><path d="M82.8276015874985,32.188737418534046L64.4440525653695,14.69426076831785L76.06062310002181,39.98694735398084z" style="fill:rgb(216,89,211)"/><path d="M-25.301234496370554,48.92468504644612L-20.996481041386627,47.86208066642537L-19.06303400726917,-52.415808108007646z" style="fill:rgb(83,212,212)"/><path d="M37.70249485758784,61.144099138927594L14.299129049573553,38.24257139150456L27.12482870849337,62.90519400745379z" style="fill:rgb(116,34,214)"/><path d="M-60.88922921639132,68.20628140276442L-54.44961654082915,74.96761149927657L-48.51527511999707,-46.67191578381834z" style="fill:rgb(83,212,212)"/><path d="M13.629484338289041,22.690570655251754L4.271245397864913,22.789553832531457L14.09330905444018,23.595124215808223z" style="fill:rgb(79,32,197)"/><path d="M34.998560264992335,17.328239309334485L58.90426188396075,-3.852184769961163L62.0782508426097,-12.250625502930344zM78.29227334950676,-5.555703959621685L79.24227426050598,-7.938828691526457L34.824005346316206,3.359940687840761z" style="fill:rgb(83,212,212)"/><path d="M16.949406781024614,63.054281635459965L3.9283053018447602,38.510457655151306L-5.628824817053626,37.16954912092594z" style="fill:rgb(74,33,194)"/><path d="M59.32660563958664,-2.926872262190207L58.90426188396075,-3.852184769961163L53.00987261659835,4.303449796205804z" style="fill:rgb(225,100,204)"/><path d="M106.6790965812391,-48.624227811192505L89.71016316556603,-22.772649366607713L105.26713263978932,14.322701595372225z" style="fill:rgb(228,104,202)"/><path d="M79.24227426050598,-7.938828691526457L80.04420150899541,-9.950364342921869L80.74362839171918,-14.131537029938723z" style="fill:rgb(83,212,212)"/><path d="M87.89818791984801,23.943392913964498L76.68360725307282,-1.5204718736642715L71.42712152181288,6.799775598213232z" style="fill:rgb(229,106,201)"/><path d="M35.92405908471244,32.899750108421365L78.29227334950676,-5.555703959621685L-28.018247191751843,21.43153249690514z" style="fill:rgb(83,212,212)"/><path d="M59.32660563958664,-2.926872262190207L53.00987261659835,4.303449796205804L53.439488524601174,5.225944222297125z" style="fill:rgb(225,100,204)"/><path d="M89.71016316556603,-22.772649366607713L98.2633975571494,-35.80320783590816L95.14387435671007,-67.71843345079385zM34.998560264992335,17.328239309334485L3.8012795408749644,21.88923821564654L13.629484338289041,22.690570655251754z" style="fill:rgb(83,212,212)"/><path d="M76.06062310002181,39.98694735398084L55.98080705751802,21.856371293428484L67.83555564903581,47.03576742983372z" style="fill:rgb(199,74,218)"/><path d="M48.28203400650552,57.822481209647776L25.100943637007656,36.353643260895154L37.70249485758784,61.144099138927594z" style="fill:rgb(138,40,220)"/><path d="M-8.527600163086058,63.57318422365384L5.02236964366289,87.9061192941754L4.901167254538976,60.65996148377688zM-8.527600163086058,63.57318422365384L4.901167254538976,60.65996148377688L-8.316686574951197,36.25083063579811z" style="fill:rgb(247,158,158)"/><path d="M-20.996481041386627,47.86208066642537L-14.548749904787718,52.760447562329574L-13.13022670288422,-53.89408438547041z" style="fill:rgb(83,212,212)"/><path d="M24.767638789790336,22.046367557740584L13.629484338289041,22.690570655251754L14.09330905444018,23.595124215808223z" style="fill:rgb(111,33,212)"/><path d="M35.92405908471244,32.899750108421365L-21.005822689849012,30.025929902371978L-14.033973528459873,34.29667485493537z" style="fill:rgb(83,212,212)"/><path d="M-64.85085404319315,63.87405968351217L-74.72432592611712,53.076892323638226L-53.60569405304206,87.2541990471706z" style="fill:rgb(26,52,150)"/><path d="M34.998560264992335,17.328239309334485L53.00987261659835,4.303449796205804L58.90426188396075,-3.852184769961163zM87.57610549280847,-19.52146269401628L89.71016316556603,-22.772649366607713L85.6997988593001,-68.29626097835227z" style="fill:rgb(83,212,212)"/><path d="M67.83555564903581,47.03576742983372L46.351622006876156,28.004996591547226L58.4570323657329,53.05922866744131z" style="fill:rgb(180,60,221)"/><path d="M58.4570323657329,53.05922866744131L35.92405908471244,32.899750108421365L48.28203400650552,57.822481209647776z" style="fill:rgb(160,49,222)"/><path d="M82.30581535701207,-11.492539258003573L88.95648149848151,40.124989359407884L98.22792976152034,25.458142265010085z" style="fill:rgb(228,104,202)"/><path d="M53.00987261659835,4.303449796205804L45.26608091070486,12.479591998157318L53.439488524601174,5.225944222297125z" style="fill:rgb(203,77,216)"/><path d="M24.767638789790336,22.046367557740584L24.31162718351359,21.137100722928988L13.629484338289041,22.690570655251754z" style="fill:rgb(111,33,212)"/><path d="M34.998560264992335,17.328239309334485L13.629484338289041,22.690570655251754L24.31162718351359,21.137100722928988z" style="fill:rgb(83,212,212)"/><path d="M27.12482870849337,62.90519400745379L14.299129049573553,38.24257139150456L3.9283053018447602,38.510457655151306z" style="fill:rgb(94,32,205)"/><path d="M-1.3406525992453955,82.92414936786489L-31.432637517151093,50.43818415503628L-11.45865032119189,85.32188178099892z" style="fill:rgb(127,37,217)"/><path d="M53.00987261659835,4.303449796205804L44.82794848919828,11.560953078093904L45.26608091070486,12.479591998157318z" style="fill:rgb(203,77,216)"/><path d="M-31.432637517151093,50.43818415503628L-17.843418637323133,93.2881559045779L-11.45865032119189,85.32188178099892z" style="fill:rgb(221,95,207)"/><path d="M34.998560264992335,17.328239309334485L44.82794848919828,11.560953078093904L53.00987261659835,4.303449796205804z" style="fill:rgb(83,212,212)"/><path d="M34.998560264992335,17.328239309334485L24.31162718351359,21.137100722928988L24.767638789790336,22.046367557740584z" style="fill:rgb(143,42,221)"/><path d="M82.8276015874985,32.188737418534046L71.42712152181288,6.799775598213232L64.4440525653695,14.69426076831785z" style="fill:rgb(216,89,211)"/><path d="M34.998560264992335,17.328239309334485L24.767638789790336,22.046367557740584L35.44575089733077,18.242335274649985z" style="fill:rgb(143,42,221)"/><path d="M64.30755668973097,15.927392539414221L80.49819424956922,-8.738505881001094L74.42127123141432,-86.67420132293765z" style="fill:rgb(83,212,212)"/><path d="M45.26608091070486,12.479591998157318L34.998560264992335,17.328239309334485L35.44575089733077,18.242335274649985z" style="fill:rgb(175,57,222)"/><path d="M-54.44961654082915,74.96761149927657L-43.91461780412452,77.88173976844038L-38.96740944263145,-48.17920507855033z" style="fill:rgb(83,212,212)"/><path d="M45.26608091070486,12.479591998157318L44.82794848919828,11.560953078093904L34.998560264992335,17.328239309334485z" style="fill:rgb(175,57,222)"/><path d="M6.236018847022667,41.139890998919896L10.60859681394272,40.06054468756092L9.623887021476746,-60.29634987130553zM35.92405908471244,32.899750108421365L-14.033973528459873,34.29667485493537L-5.628824817053626,37.16954912092594zM-0.36771406639593207,49.28276438628113L6.236018847022667,41.139890998919896L5.658254364864221,-59.13071841819345z" style="fill:rgb(83,212,212)"/><path d="M89.71016316556603,-22.772649366607713L87.57610549280847,-19.52146269401628L103.23796389423767,17.532751529432456z" style="fill:rgb(228,104,202)"/><path d="M23.66933468836838,43.388045171744785L28.858538677095755,53.49676173843858L26.020247231235782,-54.16052663223503z" style="fill:rgb(247,158,158)"/><path d="M10.60859681394272,40.06054468756092L16.869173860526768,38.51515703158675L15.295235837150459,-62.217313876444z" style="fill:rgb(83,212,212)"/><path d="M-19.19604929479047,49.22987033189069L-1.3406525992453955,82.92414936786489L0.43647037417243584,84.31555344062143z" style="fill:rgb(33,47,159)"/><path d="M37.70249485758784,61.144099138927594L25.100943637007656,36.353643260895154L14.299129049573553,38.24257139150456z" style="fill:rgb(116,34,214)"/><path d="M76.06062310002181,39.98694735398084L64.4440525653695,14.69426076831785L55.98080705751802,21.856371293428484z" style="fill:rgb(199,74,218)"/><path d="M-43.91461780412452,77.88173976844038L-38.79646397369025,77.53658000834193L-34.40418347298545,-49.10998965783029z" style="fill:rgb(83,212,212)"/><path d="M-54.833570994479985,74.82847830558295L-43.77206937753004,98.16863484948209L-33.80566154686028,109.23044660052912z" style="fill:rgb(26,52,150)"/><path d="M35.92405908471244,32.899750108421365L76.68360725307282,-1.5204718736642715L78.29227334950676,-5.555703959621685z" style="fill:rgb(83,212,212)"/><path d="M-38.1378200839118,58.54530390842191L-15.703013830141204,100.94077029656933L-17.843418637323133,93.2881559045779z" style="fill:rgb(244,177,137)"/><path d="M48.28203400650552,57.822481209647776L35.92405908471244,32.899750108421365L25.100943637007656,36.353643260895154z" style="fill:rgb(138,40,220)"/><path d="M16.869173860526768,38.51515703158675L23.66933468836838,43.388045171744785L21.319957990839463,-64.25799835373581z" style="fill:rgb(83,212,212)"/><path d="M87.57610549280847,-19.52146269401628L82.30593094542591,-11.492514406997875L98.22804208235331,25.458167782955748z" style="fill:rgb(228,104,202)"/><path d="M35.92405908471244,32.899750108421365L-5.628824817053626,37.16954912092594L3.9283053018447602,38.510457655151306z" style="fill:rgb(83,212,212)"/><path d="M67.83555564903581,47.03576742983372L55.98080705751802,21.856371293428484L46.351622006876156,28.004996591547226z" style="fill:rgb(180,60,221)"/><path d="M58.4570323657329,53.05922866744131L46.351622006876156,28.004996591547226L35.92405908471244,32.899750108421365z" style="fill:rgb(160,49,222)"/><path d="M-14.548749904787718,52.760447562329574L0.43647037417243584,84.31555344062143L5.02236964366289,87.9061192941754z" style="fill:rgb(33,47,159)"/><path d="M-9.024328163005807,62.68116351094556L-8.527600163086058,63.57318422365384L-8.161872060955199,16.19571136027806z" style="fill:rgb(247,158,158)"/><path d="M72.54824486371628,3.373354534472702L79.23378374463125,55.50638364111984L88.95681932559484,40.12507259094206z" style="fill:rgb(228,104,202)"/><path d="M35.92405908471244,32.899750108421365L71.42712152181288,6.799775598213232L76.68360725307282,-1.5204718736642715z" style="fill:rgb(83,212,212)"/><path d="M6.236018847022667,41.139890998919896L23.292545758659532,78.90942051482324L25.052916659158978,76.66947309344953z" style="fill:rgb(221,95,207)"/><path d="M29.32507710278496,54.405592562432396L42.048444836235596,79.1910886787678L41.32836091404905,60.00570577796915z" style="fill:rgb(247,158,158)"/><path d="M35.355085256659265,74.22809139115215L6.236018847022667,41.139890998919896L25.052916659158978,76.66947309344953z" style="fill:rgb(127,37,217)"/><path d="M35.92405908471244,32.899750108421365L3.9283053018447602,38.510457655151306L14.299129049573553,38.24257139150456z" style="fill:rgb(83,212,212)"/><path d="M4.387727777653057,43.41896049389203L18.764015022562017,84.67167336523083L23.292545758659532,78.90942051482324z" style="fill:rgb(221,95,207)"/><path d="M-54.44961654082915,74.96761149927657L-33.80566154686028,109.23044660052912L-33.4290964647395,109.37489245403833z" style="fill:rgb(57,36,182)"/><path d="M28.858538677095755,53.49676173843858L28.424014290966593,20.743807753373773L27.971019764131874,19.832888540290824zM29.32507710278496,54.405592562432396L41.32836091404905,60.00570577796915L28.810175111450388,35.16995584251694z" style="fill:rgb(247,158,158)"/><path d="M47.3410146719042,41.7753049293582L64.30755668973097,15.927392539414221L58.52764666437334,-79.07885637940932zM35.92405908471244,32.899750108421365L64.4440525653695,14.69426076831785L71.42712152181288,6.799775598213232zM35.92405908471244,32.899750108421365L14.299129049573553,38.24257139150456L25.100943637007656,36.353643260895154z" style="fill:rgb(83,212,212)"/><path d="M-54.833570994479985,74.82847830558295L-64.85085404319315,63.87405968351217L-43.77206937753004,98.16863484948209z" style="fill:rgb(26,52,150)"/><path d="M-1.3406525992453955,82.92414936786489L-20.996481041386627,47.86208066642537L-31.432637517151093,50.43818415503628z" style="fill:rgb(127,37,217)"/><path d="M-14.810226774046084,72.42010847910848L-7.605186296499939,70.68820115580523L-6.742105778952331,-55.485841574313305zM35.92405908471244,32.899750108421365L55.98080705751802,21.856371293428484L64.4440525653695,14.69426076831785z" style="fill:rgb(83,212,212)"/><path d="M-31.432637517151093,50.43818415503628L-38.1378200839118,58.54530390842191L-17.843418637323133,93.2881559045779z" style="fill:rgb(221,95,207)"/><path d="M82.30581535701207,-11.492539258003573L72.54789304260727,3.373277989391734L88.95648149848151,40.124989359407884z" style="fill:rgb(228,104,202)"/><path d="M-19.19604929479047,49.22987033189069L-20.996481041386627,47.86208066642537L-1.3406525992453955,82.92414936786489z" style="fill:rgb(33,47,159)"/><path d="M35.92405908471244,32.899750108421365L46.351622006876156,28.004996591547226L55.98080705751802,21.856371293428484z" style="fill:rgb(83,212,212)"/><path d="M-46.017114062198814,78.02354143168498L-33.4290964647395,109.37489245403833L-25.160972072442444,112.54683172299913z" style="fill:rgb(57,36,182)"/><path d="M-0.36771406639593207,49.28276438628113L21.211436288966762,92.32671569051696L18.764015022562017,84.67167336523083z" style="fill:rgb(244,177,137)"/><path d="M-7.605186296499939,70.68820115580523L-0.3743464571204877,68.95009254817344L-0.33174767133772765,-57.37004395677253z" style="fill:rgb(83,212,212)"/><path d="M23.66933468836838,43.388045171744785L35.355085256659265,74.22809139115215L42.048444836235596,79.1910886787678z" style="fill:rgb(33,47,159)"/><path d="M62.3080677011322,18.973575502581426L69.07785005654813,71.5720906801762L79.23357478188417,55.50633296454535z" style="fill:rgb(228,104,202)"/><path d="M-14.548749904787718,52.760447562329574L-19.19604929479047,49.22987033189069L0.43647037417243584,84.31555344062143z" style="fill:rgb(33,47,159)"/><path d="M-43.20856508874686,77.83413211162322L-25.160972072442444,112.54683172299913L-22.430109994295513,112.40238186971715z" style="fill:rgb(102,32,209)"/><path d="M29.390644719045,60.232936705649436L47.3410146719042,41.7753049293582L42.36163567336631,-72.12443926514766z" style="fill:rgb(83,212,212)"/><path d="M-38.79646397369025,77.53658000834193L-22.430109994295513,112.40238186971715L-18.140503322878644,112.17548393979911z" style="fill:rgb(102,32,209)"/><path d="M-38.1378200839118,58.54530390842191L-36.08208093178327,66.20027667005968L-15.703013830141204,100.94077029656933z" style="fill:rgb(244,177,137)"/><path d="M-36.44631168213582,77.37809353309746L-18.140503322878644,112.17548393979911L-15.85582690504984,112.0546386906618z" style="fill:rgb(102,32,209)"/><path d="M6.236018847022667,41.139890998919896L4.387727777653057,43.41896049389203L23.292545758659532,78.90942051482324z" style="fill:rgb(221,95,207)"/><path d="M24.084520066833196,62.4114180412216L29.390644719045,60.232936705649436L26.0259387853848,-65.85200123047112z" style="fill:rgb(83,212,212)"/><path d="M-35.04252897753484,77.28343337453447L-15.85582690504984,112.0546386906618L-14.49122796463351,111.98246938256399z" style="fill:rgb(102,32,209)"/><path d="M28.858538677095755,53.49676173843858L29.32507710278496,54.405592562432396L28.424014290966593,20.743807753373773z" style="fill:rgb(247,158,158)"/><path d="M35.355085256659265,74.22809139115215L16.869173860526768,38.51515703158675L6.236018847022667,41.139890998919896z" style="fill:rgb(127,37,217)"/><path d="M-54.44961654082915,74.96761149927657L-54.833570994479985,74.82847830558295L-33.80566154686028,109.23044660052912z" style="fill:rgb(57,36,182)"/><path d="M72.54824486371628,3.373354534472702L62.30828742361816,18.973626769996542L79.23378374463125,55.50638364111984z" style="fill:rgb(228,104,202)"/><path d="M4.387727777653057,43.41896049389203L-0.36771406639593207,49.28276438628113L18.764015022562017,84.67167336523083z" style="fill:rgb(221,95,207)"/><path d="M-46.017114062198814,78.02354143168498L-54.44961654082915,74.96761149927657L-33.4290964647395,109.37489245403833z" style="fill:rgb(57,36,182)"/><path d="M23.66933468836838,43.388045171744785L16.869173860526768,38.51515703158675L35.355085256659265,74.22809139115215z" style="fill:rgb(33,47,159)"/><path d="M39.019438993796385,99.64594885967082L-35.04252897753484,77.28343337453447L-14.49122796463351,111.98246938256399z" style="fill:rgb(127,37,217)"/><path d="M51.60495299116483,35.27928561011851L58.886204014522335,87.69453539039228L69.07778214552097,71.57207656808009z" style="fill:rgb(228,104,202)"/><path d="M-43.20856508874686,77.83413211162322L-46.017114062198814,78.02354143168498L-25.160972072442444,112.54683172299913z" style="fill:rgb(102,32,209)"/><path d="M-0.36771406639593207,49.28276438628113L2.015152257585495,56.93501683033992L21.211436288966762,92.32671569051696z" style="fill:rgb(244,177,137)"/><path d="M-38.79646397369025,77.53658000834193L-43.20856508874686,77.83413211162322L-22.430109994295513,112.40238186971715z" style="fill:rgb(102,32,209)"/><path d="M-60.88922921639132,68.20628140276442L-54.833570994479985,74.82847830558295L-54.44961654082915,74.96761149927657z" style="fill:rgb(83,212,212)"/><path d="M-36.44631168213582,77.37809353309746L-38.79646397369025,77.53658000834193L-18.140503322878644,112.17548393979911z" style="fill:rgb(102,32,209)"/><path d="M62.3080677011322,18.973575502581426L51.60502846851432,35.27930148121396L69.07785005654813,71.5720906801762z" style="fill:rgb(228,104,202)"/><path d="M-35.04252897753484,77.28343337453447L-36.44631168213582,77.37809353309746L-15.85582690504984,112.0546386906618z" style="fill:rgb(102,32,209)"/><path d="M40.85652554791435,51.65414036800842L58.49721665687793,88.02216482579703L58.886204014522335,87.69453539039228zM40.45078206547011,51.99003910832552L49.99196282669399,95.18541156080764L58.49721665687793,88.02216482579703z" style="fill:rgb(197,72,218)"/><path d="M21.657208687270977,63.40798092894351L39.019438993796385,99.64594885967082L40.41624940355981,99.07810839391125zM24.084520066833196,62.4114180412216L40.41624940355981,99.07810839391125L42.75911577962407,98.12568174160349zM28.65703435241222,60.53413322533811L42.75911577962407,98.12568174160349L47.17245192176403,96.3315816751202z" style="fill:rgb(152,45,222)"/><path d="M-38.79646397369025,77.53658000834193L-36.08208093178327,66.20027667005968L-38.1378200839118,58.54530390842191z" style="fill:rgb(83,212,212)"/><path d="M31.578312613305883,59.33478384525705L47.17245192176403,96.3315816751202L49.99196282669399,95.18541156080764z" style="fill:rgb(152,45,222)"/><path d="M-54.44961654082915,74.96761149927657L-46.017114062198814,78.02354143168498L-43.91461780412452,77.88173976844038zM-36.44631168213582,77.37809353309746L-26.66476523169369,67.58951773685031L-36.08208093178327,66.20027667005968zM-17.200700309292728,72.99471391796543L-14.548749904787718,52.760447562329574L-17.02424386716179,61.565403924023975zM-38.79646397369025,77.53658000834193L-36.44631168213582,77.37809353309746L-36.08208093178327,66.20027667005968z" style="fill:rgb(83,212,212)"/><path d="M51.60495299116483,35.27928561011851L40.85652554791435,51.65414036800842L58.886204014522335,87.69453539039228z" style="fill:rgb(228,104,202)"/><path d="M39.019438993796385,99.64594885967082L20.21007213972178,64.00212729246797L-35.04252897753484,77.28343337453447z" style="fill:rgb(127,37,217)"/><path d="M-26.850548671437693,75.31429058603817L-17.02424386716179,61.565403924023975L-26.66476523169369,67.58951773685031zM-36.44631168213582,77.37809353309746L-26.850548671437693,75.31429058603817L-26.66476523169369,67.58951773685031zM-17.200700309292728,72.99471391796543L-14.810226774046084,72.42010847910848L-14.548749904787718,52.760447562329574zM-0.3743464571204877,68.95009254817344L2.015152257585495,56.93501683033992L-0.36771406639593207,49.28276438628113z" style="fill:rgb(83,212,212)"/><path d="M40.85652554791435,51.65414036800842L40.45078206547011,51.99003910832552L58.49721665687793,88.02216482579703z" style="fill:rgb(197,72,218)"/><path d="M-26.850548671437693,75.31429058603817L-17.200700309292728,72.99471391796543L-17.02424386716179,61.565403924023975zM-36.44631168213582,77.37809353309746L-35.04252897753484,77.28343337453447L-26.850548671437693,75.31429058603817z" style="fill:rgb(83,212,212)"/><path d="M21.657208687270977,63.40798092894351L20.21007213972178,64.00212729246797L39.019438993796385,99.64594885967082z" style="fill:rgb(152,45,222)"/><path d="M40.45078206547011,51.99003910832552L31.578312613305883,59.33478384525705L49.99196282669399,95.18541156080764z" style="fill:rgb(197,72,218)"/><path d="M24.084520066833196,62.4114180412216L21.657208687270977,63.40798092894351L40.41624940355981,99.07810839391125zM28.65703435241222,60.53413322533811L24.084520066833196,62.4114180412216L42.75911577962407,98.12568174160349zM31.578312613305883,59.33478384525705L28.65703435241222,60.53413322533811L47.17245192176403,96.3315816751202z" style="fill:rgb(152,45,222)"/><path d="M2.0361390492146536,68.37067575115026L11.742746456931176,58.2839543059603L2.015152257585495,56.93501683033992zM21.657208687270977,63.40798092894351L23.66933468836838,43.388045171744785L21.437670334504688,52.211459211094905zM-0.3743464571204877,68.95009254817344L2.0361390492146536,68.37067575115026L2.015152257585495,56.93501683033992zM11.82534992467059,66.01759995686459L21.437670334504688,52.211459211094905L11.742746456931176,58.2839543059603zM21.657208687270977,63.40798092894351L24.084520066833196,62.4114180412216L23.66933468836838,43.388045171744785zM2.0361390492146536,68.37067575115026L11.82534992467059,66.01759995686459L11.742746456931176,58.2839543059603zM11.82534992467059,66.01759995686459L21.657208687270977,63.40798092894351L21.437670334504688,52.211459211094905zM29.390644719045,60.232936705649436L40.85652554791435,51.65414036800842L47.3410146719042,41.7753049293582zM29.390644719045,60.232936705649436L40.45078206547011,51.99003910832552L40.85652554791435,51.65414036800842zM11.82534992467059,66.01759995686459L20.21007213972178,64.00212729246797L21.657208687270977,63.40798092894351zM29.390644719045,60.232936705649436L31.578312613305883,59.33478384525705L40.45078206547011,51.99003910832552z" style="fill:rgb(83,212,212)"/></svg>
