<?xml version="1.0" encoding="UTF-8"?>
<!-- Generated by jsxcad -->
<!DOCTYPE svg PUBLIC "-//W3C//DTD SVG 1.1 Tiny//EN" "http://www.w3.org/Graphics/SVG/1.1/DTD/svg11-tiny.dtd">
<svg viewBox="-250 -250 500 500" width="500" height="500" xmlns="http://www.w3.org/2000/svg"><path d="M-139.34760689046985,-28.962942136303017L-136.39728975472934,-15.726528643533307L-119.05848541353504,3.1947413899236454zM-139.34760689046985,-28.962942136303017L-156.6157471908661,-47.51483505021632L-136.39728975472934,-15.726528643533307z" style="fill:rgb(26,52,150)"/><path d="M-151.87379428814648,-42.4203239489683L-151.59862942006401,-44.22976533276604L-156.6157471908661,-47.51483505021632z" style="fill:rgb(83,212,212)"/><path d="M-118.95506651059533,-5.976380276831972L-140.18946242446816,-29.867378369209234L-119.90307349716612,2.2730681346027835zM-118.73089811348571,-5.87600737592765L-139.9790072480132,-29.64128376672529L-119.69193420829804,2.5034790426093596zM-118.05867519471732,-5.575011972333718L-139.34760689046985,-28.962942136303017L-119.05848541353504,3.1947413899236454zM-116.93923400656318,-5.073772782979081L-138.29501346612645,-27.832111583126817L-118.0025681439664,4.347015416590089z" style="fill:rgb(247,158,158)"/><path d="M-151.87379428814648,-42.4203239489683L-144.07658688844913,-40.242661066701544L-151.59862942006401,-44.22976533276604z" style="fill:rgb(83,212,212)"/><path d="M-115.37005489024752,-4.40937141469406L-136.82096996445247,-26.248468975343133L-116.52405009218919,5.960480410147551z" style="fill:rgb(247,158,158)"/><path d="M-138.29509434988321,-27.832054341250895L-119.0585478493553,3.1947936075268792L-118.00263816118344,4.3470722001816275zM-136.8208749485241,-26.248530569026045L-118.00247733639618,4.346960099674562L-116.52395823540523,5.960419739694366z" style="fill:rgb(26,52,150)"/><path d="M-118.95506651059533,-5.976380276831972L-139.04705652620476,-38.10796258789969L-140.18946242446816,-29.867378369209234zM-113.34193763756076,-3.687708460589011L-134.92504998521292,-24.211624976389558L-114.62271139411398,8.035326324243204zM-118.73089811348571,-5.87600737592765L-138.8205977633528,-38.011847836988636L-139.9790072480132,-29.64128376672529zM-118.05867519471732,-5.575011972333718L-138.14148843251488,-37.72360827014463L-139.34760689046985,-28.962942136303017z" style="fill:rgb(247,158,158)"/><path d="M-151.87379428814648,-42.4203239489683L-144.8494381531254,-34.87379904141216L-144.07658688844913,-40.242661066701544z" style="fill:rgb(83,212,212)"/><path d="M-114.62271139411398,8.035326324243204L-136.82096996445247,-26.248468975343133L-116.52405009218919,5.960480410147551z" style="fill:rgb(26,52,150)"/><path d="M-116.93923400656318,-5.073772782979081L-137.0105178819737,-37.243586906844094L-138.29501346612645,-27.832111583126817zM-110.8696326313515,-2.807972763371725L-132.60678689409468,-21.72101430379621L-112.29831904543873,10.571863376204067zM-115.37005489024752,-4.40937141469406L-135.42424677575508,-36.60875398636211L-136.82096996445247,-26.248468975343133z" style="fill:rgb(247,158,158)"/><path d="M-132.60669275837006,-21.72106299184661L-114.62264106440443,8.035271503102685L-112.29823581681899,10.571816087457556z" style="fill:rgb(26,52,150)"/><path d="M-113.34193763756076,-3.687708460589011L-133.37092268828818,-35.92479220479983L-134.92504998521292,-24.211624976389558z" style="fill:rgb(247,158,158)"/><path d="M-144.8494381531254,-34.87379904141216L-135.84541749257605,-36.74905952537067L-144.07658688844913,-40.242661066701544z" style="fill:rgb(83,212,212)"/><path d="M-138.29509434988321,-27.832054341250895L-139.34767171100455,-28.962890704170885L-119.0585478493553,3.1947936075268792z" style="fill:rgb(26,52,150)"/><path d="M-107.9571567763779,-1.771596110746959L-129.86572520287544,-18.7761978342006L-109.55071610018571,13.570211335462844z" style="fill:rgb(247,158,158)"/><path d="M-136.8208749485241,-26.248530569026045L-138.29491969047376,-27.83216934337935L-118.00247733639618,4.346960099674562z" style="fill:rgb(26,52,150)"/><path d="M-110.8696326313515,-2.807972763371725L-130.8675805379451,-35.09091410051895L-132.60678689409468,-21.72101430379621z" style="fill:rgb(247,158,158)"/><path d="M-129.8658040814555,-18.776152831547968L-112.29837527317018,10.57191758960777L-109.55079209847275,13.570255034270284z" style="fill:rgb(26,52,150)"/><path d="M-104.59048991344963,-0.7677105616978843L-126.70142850786293,-15.376648219804562L-106.3798175915186,17.030521101007075zM-107.9571567763779,-1.771596110746959L-127.91810643093469,-34.10841344664182L-129.86572520287544,-18.7761978342006z" style="fill:rgb(247,158,158)"/><path d="M-144.8494381531254,-34.87379904141216L-137.20924915278255,-26.665622979966386L-135.84541749257605,-36.74905952537067z" style="fill:rgb(83,212,212)"/><path d="M-114.62271139411398,8.035326324243204L-134.92504998521292,-24.211624976389558L-136.82096996445247,-26.248468975343133z" style="fill:rgb(26,52,150)"/><path d="M-137.20924915278255,-26.665622979966386L-135.42424677575508,-36.60875398636211L-135.84541749257605,-36.74905952537067z" style="fill:rgb(83,212,212)"/><path d="M-132.60669275837006,-21.72106299184661L-134.92496973692462,-24.21168281973954L-114.62264106440443,8.035271503102685zM-126.70134874675918,-15.376695383617717L-109.55066050258375,13.570157842081993L-106.37974806377059,17.030475145477048z" style="fill:rgb(26,52,150)"/><path d="M-104.59048991344963,-0.7677105616978843L-124.504043892495,-33.166074905568856L-126.70142850786293,-15.376648219804562z" style="fill:rgb(247,158,158)"/><path d="M-137.20924915278255,-26.665622979966386L-126.92760710649716,-33.77847734026866L-135.42424677575508,-36.60875398636211z" style="fill:rgb(83,212,212)"/><path d="M-100.78478046830745,0.2772665375083644L-123.11358127214942,-11.522083230584506L-102.78571651361189,20.952636596618948z" style="fill:rgb(247,158,158)"/><path d="M-129.8658040814555,-18.776152831547968L-132.60683719186565,-21.72095830321375L-112.29837527317018,10.57191758960777z" style="fill:rgb(26,52,150)"/><path d="M-100.78478046830745,0.2772665375083644L-120.64219136911812,-32.19023331448817L-123.11358127214942,-11.522083230584506z" style="fill:rgb(247,158,158)"/><path d="M-123.11358127214942,-11.522083230584506L-106.3798175915186,17.030521101007075L-102.78571651361189,20.952636596618948z" style="fill:rgb(26,52,150)"/><path d="M-96.54893968752016,1.3679255346160248L-119.10205526469875,-7.212329002428298L-98.76874650112342,25.336226451953454z" style="fill:rgb(247,158,158)"/><path d="M-126.70134874675918,-15.376695383617717L-129.86566690811625,-18.776252209101667L-109.55066050258375,13.570157842081993z" style="fill:rgb(26,52,150)"/><path d="M-137.20924915278255,-26.665622979966386L-128.94286786225015,-17.78472128619945L-126.92760710649716,-33.77847734026866z" style="fill:rgb(83,212,212)"/><path d="M-96.54893968752016,1.3679255346160248L-116.34151195986797,-31.176125682796524L-119.10205526469875,-7.212329002428298z" style="fill:rgb(247,158,158)"/><path d="M-128.94286786225015,-17.78472128619945L-117.35098180300675,-31.358573655724232L-126.92760710649716,-33.77847734026866z" style="fill:rgb(83,212,212)"/><path d="M-119.10198276659852,-7.212369853957701L-102.78564737083285,20.952598184097468L-98.76867618301478,25.336185673619177z" style="fill:rgb(26,52,150)"/><path d="M-91.8756286635456,2.3102335734589814L-114.667132349584,-2.447645246438354L-94.32970520637441,30.18046430874986zM-91.8756286635456,2.3102335734589814L-111.59031010434609,-30.317412269139535L-114.667132349584,-2.447645246438354z" style="fill:rgb(247,158,158)"/><path d="M-123.11358127214942,-11.522083230584506L-126.70142850786293,-15.376648219804562L-106.3798175915186,17.030521101007075zM-114.667132349584,-2.447645246438354L-98.76878662613672,25.336263551822324L-94.32970520637441,30.18046430874986z" style="fill:rgb(26,52,150)"/><path d="M-86.79386115887391,3.287500069541936L-109.80915070596457,2.7713832231332334L-89.46951364500016,35.48413775108929zM-86.79386115887391,3.287500069541936L-106.42173812167199,-29.43073475929331L-109.80915070596457,2.7713832231332334z" style="fill:rgb(247,158,158)"/><path d="M-119.10198276659852,-7.212369853957701L-123.11350946058784,-11.522122821011356L-102.78564737083285,20.952598184097468z" style="fill:rgb(26,52,150)"/><path d="M-120.04006675027898,-8.220076373424122L-107.14889406243012,-29.514690440676066L-117.35098180300675,-31.358573655724232zM-128.94286786225015,-17.78472128619945L-120.04006675027898,-8.220076373424122L-117.35098180300675,-31.358573655724232z" style="fill:rgb(83,212,212)"/><path d="M-81.29541432970292,4.031028869405698L-100.82176472502454,-28.784337478578674L-104.52942712201533,8.44360169689839zM-81.29541432970292,4.031028869405698L-104.52942712201533,8.44360169689839L-84.19008323907318,41.24538710640942z" style="fill:rgb(247,158,158)"/><path d="M-114.667132349584,-2.447645246438354L-119.10208923549817,-7.212292224609786L-98.76878662613672,25.336263551822324z" style="fill:rgb(26,52,150)"/><path d="M-75.41288809951224,4.734452520016934L-94.82737660857492,-28.184486563015316L-98.8296488660661,14.567117739638913z" style="fill:rgb(247,158,158)"/><path d="M-110.49104038598051,2.03880482288758L-96.36035174800193,-28.269361008432604L-107.14889406243012,-29.514690440676066z" style="fill:rgb(83,212,212)"/><path d="M-75.41288809951224,4.734452520016934L-98.8296488660661,14.567117739638913L-78.49379922789167,47.461558830070615z" style="fill:rgb(247,158,158)"/><path d="M151.63188907826319,-133.81483889782362L145.16362824374644,-67.88278019305594L163.71412746009622,-96.87433415116504z" style="fill:rgb(228,104,202)"/><path d="M-120.04006675027898,-8.220076373424122L-110.49104038598051,2.03880482288758L-107.14889406243012,-29.514690440676066z" style="fill:rgb(83,212,212)"/><path d="M-69.15011578297882,5.197775782988236L-88.43834592430196,-27.830750561338608L-92.71239510537704,21.139157394745244z" style="fill:rgb(247,158,158)"/><path d="M-98.8296488660661,14.567117739638913L-94.3296584909657,30.180442897547813L-78.49379922789167,47.461558830070615zM-98.8296488660661,14.567117739638913L-114.66707631118757,-2.4476688602074366L-94.3296584909657,30.180442897547813z" style="fill:rgb(26,52,150)"/><path d="M-69.15011578297882,5.197775782988236L-92.71239510537704,21.139157394745244L-72.3839536305357,54.12904885268466zM7.2876936523347196,-20.988716331603516L17.173668197380643,-1.1235778961147203L17.101588786890265,-5.488521873646645zM-10.229232404873605,-9.618630795271132L0.007289590966950415,10.078274994493764L0.007212185315159536,-1.08400204411427z" style="fill:rgb(247,158,158)"/><path d="M-100.28679455200097,13.001631557198847L-85.0298580156447,-27.642034850971058L-96.36035174800193,-28.269361008432604z" style="fill:rgb(83,212,212)"/><path d="M-62.53419449983475,5.500013347655856L-81.68378991723435,-27.64386686160273L-86.18113441753451,28.15590038174655zM16.0179551310237,-24.327107179608237L25.75146999487588,-4.377496041599096L25.659350982202632,-8.086154901513577z" style="fill:rgb(247,158,158)"/><path d="M10.48312616633882,-22.49760949053967L12.625394404222009,1.0194722859291843L20.31063698218958,-2.601672062902182z" style="fill:rgb(160,49,222)"/><path d="M2.6546805945539913,-18.801025690407847L5.483288042423959,5.540874475967177L12.625394404222009,1.0194722859291843z" style="fill:rgb(180,60,221)"/><path d="M-8.818986971397807,-37.45164211633345L8.592760444452749,3.5723687414490253L8.538039015314913,-3.0805439654825193zM143.9390846493466,-76.0926048499274L132.23171004605783,-104.58563334714957L145.16362824374644,-67.88278019305594z" style="fill:rgb(247,158,158)"/><path d="M18.613794446965294,-25.1851475589118L20.31063698218958,-2.601672062902182L28.30315486075922,-5.210341146427331z" style="fill:rgb(138,40,220)"/><path d="M143.68683099783257,-75.85446049793276L131.98537979954295,-104.21449715534122L144.92824123294403,-67.51489024417155z" style="fill:rgb(247,158,158)"/><path d="M-4.63177861432002,-14.209710497548743L-0.8945377558898681,10.825524338821282L5.483288042423959,5.540874475967177z" style="fill:rgb(199,74,218)"/><path d="M-10.229232404873605,-9.618630795271132L0.007212185315159536,-1.08400204411427L-10.11855990052597,-20.77865332038852zM-19.064541436456437,0.5066057312871421L-8.606986962603855,20.117811765607872L-8.449547053595472,0.7055979049678542zM-19.064541436456437,0.5066057312871421L-8.449547053595472,0.7055979049678542L-18.70923998220627,-18.90588647968474zM142.93073981594463,-75.14067168559825L131.24665300156704,-103.10149425853203L144.22232961490542,-66.41165721052158zM24.729652422187172,-26.37434287352324L34.32243342109293,-6.3397944110641395L34.1717699658962,-10.882101906692933zM141.6728141199778,-73.95313877699611L130.01625783580408,-101.2477292871211L143.04665536247842,-64.57427492066569zM121.66835415842249,-104.5271389898082L136.71770279694442,-54.68314493835953L134.869775938292,-68.01638534898991z" style="fill:rgb(247,158,158)"/><path d="M26.7974437205807,-26.77639583643294L28.30315486075922,-5.210341146427331L36.35747366280476,-6.721629615662z" style="fill:rgb(116,34,214)"/><path d="M7.2876936523347196,-20.988716331603516L17.101588786890265,-5.488521873646645L7.256526281841011,-25.351509404962723z" style="fill:rgb(247,158,158)"/><path d="M-11.151094999689821,-8.862513732972252L-6.306166541597393,16.71404689943722L-0.8945377558898681,10.825524338821282z" style="fill:rgb(216,89,211)"/><path d="M145.16362824374644,-67.88278019305594L131.98537979954295,-104.21449715534122L144.92824123294403,-67.51489024417155z" style="fill:rgb(228,104,202)"/><path d="M139.91128915411758,-72.33134969672169L128.2955301707925,-98.6551825104781L141.40262863502858,-62.00489321331371z" style="fill:rgb(247,158,158)"/><path d="M131.98537979954295,-104.21449715534122L144.22232961490542,-66.41165721052158L144.92824123294403,-67.51489024417155z" style="fill:rgb(228,104,202)"/><path d="M-110.49104038598051,2.03880482288758L-100.28679455200097,13.001631557198847L-96.36035174800193,-28.269361008432604z" style="fill:rgb(83,212,212)"/><path d="M118.29671799391593,-101.69392314284192L133.6825422408226,-49.93968258611828L131.61970907134688,-65.23468733848547zM33.42006786190857,-27.139112317233298L42.88319986682943,-7.0192240282314735L42.59263296408332,-14.02603657929346zM16.0179551310237,-24.327107179608237L25.659350982202632,-8.086154901513577L15.95956620451608,-28.033525132382838z" style="fill:rgb(247,158,158)"/><path d="M131.24665300156704,-103.10149425853203L143.04665536247842,-64.57427492066569L144.22232961490542,-66.41165721052158z" style="fill:rgb(228,104,202)"/><path d="M137.63640689684567,-70.3843028481698L126.0863160142755,-95.32670840793081L139.292149111636,-58.70655970775457zM-55.58666873199872,5.6168627056995915L-74.58511425118375,-27.647784519980814L-79.2406721251691,35.612334194465085z" style="fill:rgb(247,158,158)"/><path d="M10.48312616633882,-22.49760949053967L2.6546805945539913,-18.801025690407847L12.625394404222009,1.0194722859291843z" style="fill:rgb(160,49,222)"/><path d="M34.780260022487596,-27.213622214890783L36.35747366280476,-6.721629615662L44.22340298703184,-7.080355205187994z" style="fill:rgb(94,32,205)"/><path d="M130.01625783580408,-101.2477292871211L141.40262863502858,-62.00489321331371L143.04665536247842,-64.57427492066569z" style="fill:rgb(228,104,202)"/><path d="M-62.53419449983475,5.500013347655856L-86.18113441753451,28.15590038174655L-65.86478517976825,61.243144442215595zM114.41086887398082,-98.63328012939624L130.19053937936025,-44.48217357317193L127.87158063485485,-62.23432778003054z" style="fill:rgb(247,158,158)"/><path d="M2.6546805945539913,-18.801025690407847L-4.63177861432002,-14.209710497548743L5.483288042423959,5.540874475967177z" style="fill:rgb(180,60,221)"/><path d="M-16.69725525424427,-2.9203926959967155L-10.573926197853272,23.027643636316437L-6.306166541597393,16.71404689943722z" style="fill:rgb(229,106,201)"/><path d="M24.729652422187172,-26.37434287352324L34.1717699658962,-10.882101906692933L24.619031729049926,-30.913489375277795z" style="fill:rgb(247,158,158)"/><path d="M18.613794446965294,-25.1851475589118L10.48312616633882,-22.49760949053967L20.31063698218958,-2.601672062902182z" style="fill:rgb(138,40,220)"/><path d="M151.63188907826319,-133.81483889782362L132.23171004605783,-104.58563334714957L145.16362824374644,-67.88278019305594z" style="fill:rgb(228,104,202)"/><path d="M-4.63177861432002,-14.209710497548743L-11.151094999689821,-8.862513732972252L-0.8945377558898681,10.825524338821282z" style="fill:rgb(199,74,218)"/><path d="M42.09110575828561,-26.49232362087922L51.43620027360346,-6.286862511357166L50.88860016716006,-17.30386753618428zM110.03393309604228,-95.28033734969674L126.24626756529348,-38.317890585442214L123.64884066590328,-58.94982495891725z" style="fill:rgb(247,158,158)"/><path d="M26.7974437205807,-26.77639583643294L18.613794446965294,-25.1851475589118L28.30315486075922,-5.210341146427331z" style="fill:rgb(116,34,214)"/><path d="M33.42006786190857,-27.139112317233298L42.59263296408332,-14.02603657929346L33.189305885503664,-34.14051830640419zM143.9390846493466,-76.0926048499274L131.07967398430782,-112.7449331632083L132.23171004605783,-104.58563334714957zM143.68683099783257,-75.85446049793276L130.8177621409914,-112.50292357183974L131.98537979954295,-104.21449715534122z" style="fill:rgb(247,158,158)"/><path d="M128.2955301707925,-98.6551825104781L136.71770279694442,-54.68314493835953L141.40262863502858,-62.00489321331371z" style="fill:rgb(228,104,202)"/><path d="M-89.4193849145979,24.676929603011274L-73.20745849725976,-27.64856768607402L-85.0298580156447,-27.642034850971058zM145.99609924527533,-125.32370202320975L151.63188907826319,-133.81483889782362L145.71139195503739,-127.10959789369947z" style="fill:rgb(83,212,212)"/><path d="M142.93073981594463,-75.14067168559825L130.0327042508739,-111.77754039300196L131.24665300156704,-103.10149425853203zM141.6728141199778,-73.95313877699611L128.726572123781,-110.57067707390874L130.01625783580408,-101.2477292871211z" style="fill:rgb(247,158,158)"/><path d="M-92.71235200665136,21.139121684538704L-78.49379922789167,47.461558830070615L-72.38392043389038,54.12901590459368z" style="fill:rgb(26,52,150)"/><path d="M42.309207469812506,-26.470797150707607L44.22340298703184,-7.080355205187994L51.6513548794715,-6.263183275249595z" style="fill:rgb(74,33,194)"/><path d="M-11.151094999689821,-8.862513732972252L-16.69725525424427,-2.9203926959967155L-6.306166541597393,16.71404689943722z" style="fill:rgb(216,89,211)"/><path d="M42.09110575828561,-26.49232362087922L50.88860016716006,-17.30386753618428L41.63444808108231,-37.50025489616528zM139.91128915411758,-72.33134969672169L126.89797872517478,-108.92162577801435L128.2955301707925,-98.6551825104781z" style="fill:rgb(247,158,158)"/><path d="M34.780260022487596,-27.213622214890783L26.7974437205807,-26.77639583643294L36.35747366280476,-6.721629615662z" style="fill:rgb(94,32,205)"/><path d="M-48.326659406269926,5.419957607706254L-67.15931950005158,-27.970413238760493L-71.89706435728473,43.50185059124086zM137.63640689684567,-70.3843028481698L124.53827703723513,-106.93875509375069L126.0863160142755,-95.32670840793081z" style="fill:rgb(247,158,158)"/><path d="M-10.573926197853272,23.027643636316437L-24.172194228010472,10.012269005403672L-13.54941563128052,29.571459326560745z" style="fill:rgb(239,123,188)"/><path d="M99.85207722804181,-87.91343376370706L117.02380194491904,-23.904596348754094L113.8210109434083,-51.744234837818894zM50.77752617254443,-23.709967870959666L60.021319565753224,-3.418779715033493L59.01825238910664,-20.760630977306032z" style="fill:rgb(247,158,158)"/><path d="M123.3910301125339,-91.26589756698313L133.6825422408226,-49.93968258611828L136.71770279694442,-54.68314493835953z" style="fill:rgb(228,104,202)"/><path d="M-8.818986971397807,-37.45164211633345L-8.877382140197264,-30.8059619753832L8.592760444452749,3.5723687414490253z" style="fill:rgb(247,158,158)"/><path d="M58.39872670362496,-4.280774836076208L42.309207469812506,-26.470797150707607L51.6513548794715,-6.263183275249595z" style="fill:rgb(55,36,180)"/><path d="M137.70053516017128,-112.82524370109324L145.99609924527533,-125.32370202320975L145.71139195503739,-127.10959789369947z" style="fill:rgb(83,212,212)"/><path d="M50.77752617254443,-23.709967870959666L59.01825238910664,-20.760630977306032L49.91274240170063,-41.037258084983044z" style="fill:rgb(247,158,158)"/><path d="M-16.69725525424427,-2.9203926959967155L-21.088451728058637,3.436520518091313L-10.573926197853272,23.027643636316437z" style="fill:rgb(229,106,201)"/><path d="M137.70053516017128,-112.82524370109324L145.71139195503739,-127.10959789369947L136.91292505575151,-118.13481964529178z" style="fill:rgb(83,212,212)"/><path d="M145.16362824374644,-67.88278019305594L132.23171004605783,-104.58563334714957L131.98537979954295,-104.21449715534122z" style="fill:rgb(228,104,202)"/><path d="M-55.58666873199872,5.6168627056995915L-79.2406721251691,35.612334194465085L-58.94188942670206,68.79787843637065z" style="fill:rgb(247,158,158)"/><path d="M131.98537979954295,-104.21449715534122L131.24665300156704,-103.10149425853203L144.22232961490542,-66.41165721052158z" style="fill:rgb(228,104,202)"/><path d="M94.08501357629288,-83.93115162838832L111.75934007682595,-15.67707009677631L108.25245998734138,-47.85426867025953z" style="fill:rgb(247,158,158)"/><path d="M42.309207469812506,-26.470797150707607L34.780260022487596,-27.213622214890783L44.22340298703184,-7.080355205187994z" style="fill:rgb(74,33,194)"/><path d="M-24.172194228010472,10.012269005403672L-15.11892151705852,36.138615844833915L-13.54941563128052,29.571459326560745z" style="fill:rgb(245,141,174)"/><path d="M131.24665300156704,-103.10149425853203L130.01625783580408,-101.2477292871211L143.04665536247842,-64.57427492066569zM120.2128049140857,-86.47746192161621L130.19053937936025,-44.48217357317193L133.6825422408226,-49.93968258611828z" style="fill:rgb(228,104,202)"/><path d="M-10.573926197853272,23.027643636316437L-21.088451728058637,3.436520518091313L-24.172194228010472,10.012269005403672z" style="fill:rgb(239,123,188)"/><path d="M59.56279012349943,-17.617468837666024L66.93827825987508,-24.450614392304974L57.980587599206785,-44.80529767821706zM87.87758178918611,-79.97162766616577L106.07035271405071,-6.786075907663738L102.25458215119951,-43.99520358341924z" style="fill:rgb(247,158,158)"/><path d="M130.01625783580408,-101.2477292871211L128.2955301707925,-98.6551825104781L141.40262863502858,-62.00489321331371z" style="fill:rgb(228,104,202)"/><path d="M-100.28679455200097,13.001631557198847L-89.4193849145979,24.676929603011274L-85.0298580156447,-27.642034850971058z" style="fill:rgb(83,212,212)"/><path d="M-92.71235200665136,21.139121684538704L-98.8296488660661,14.567117739638913L-78.49379922789167,47.461558830070615z" style="fill:rgb(26,52,150)"/><path d="M121.66835415842249,-104.5271389898082L123.3910301125339,-91.26589756698313L136.71770279694442,-54.68314493835953zM-40.789851940329,5.064539511112147L-59.44581473351841,-28.456209856498003L-64.15801646349595,51.816226444952456z" style="fill:rgb(247,158,158)"/><path d="M-77.8824839263302,37.07147165706652L-60.948460710983,-28.300917607950254L-73.20745849725976,-27.64856768607402z" style="fill:rgb(83,212,212)"/><path d="M107.82188980649173,-67.80865337963809L121.85521594180649,-31.455326562795705L118.96711858560653,-55.38536776786838zM59.56279012349943,-17.617468837666024L68.72978083651154,2.7589261673251917L66.93827825987508,-24.450614392304974z" style="fill:rgb(247,158,158)"/><path d="M116.55544821623624,-80.96700867580827L126.24630303645968,-38.31788335659493L130.19057429903054,-44.482166342767755z" style="fill:rgb(228,104,202)"/><path d="M-86.18114439188211,28.155924014576303L-72.3839536305357,54.12904885268466L-65.86479440705033,61.24316985878309z" style="fill:rgb(26,52,150)"/><path d="M128.74851435306644,-99.33769481969242L136.91292505575151,-118.13481964529178L127.38264088821028,-109.32888033988787z" style="fill:rgb(83,212,212)"/><path d="M118.29671799391593,-101.69392314284192L120.2128049140857,-86.47746192161621L133.6825422408226,-49.93968258611828z" style="fill:rgb(247,158,158)"/><path d="M128.74851435306644,-99.33769481969242L137.70053516017128,-112.82524370109324L136.91292505575151,-118.13481964529178z" style="fill:rgb(83,212,212)"/><path d="M55.03589113079956,-21.51238622557439L58.39872670362496,-4.280774836076208L64.23637185927902,-1.1795162235466041z" style="fill:rgb(38,43,165)"/><path d="M128.2955301707925,-98.6551825104781L123.3910301125339,-91.26589756698313L136.71770279694442,-54.68314493835953z" style="fill:rgb(228,104,202)"/><path d="M58.39872670362496,-4.280774836076208L49.1384458082331,-24.555824378066593L42.309207469812506,-26.470797150707607z" style="fill:rgb(55,36,180)"/><path d="M107.82188980649173,-67.80865337963809L118.96711858560653,-55.38536776786838L105.18193584978215,-91.63951679883233zM-48.326659406269926,5.419957607706254L-71.89706435728473,43.50185059124086L-51.622161990191046,76.78562713304356zM-25.986722401154342,22.98227690575168L-15.208412541191784,42.51504165088696L-15.11892151705852,36.138615844833915zM114.41086887398082,-98.63328012939624L116.55542076661659,-80.96701541601122L130.19053937936025,-44.48217357317193z" style="fill:rgb(247,158,158)"/><path d="M112.42332235948918,-74.74140582202824L121.85521594180649,-31.455326562795705L126.24626756529348,-38.317890585442214z" style="fill:rgb(228,104,202)"/><path d="M-24.172194228010472,10.012269005403672L-25.83083662009771,16.599097937661682L-15.11892151705852,36.138615844833915z" style="fill:rgb(245,141,174)"/><path d="M119.14489960043925,-84.86843435870726L127.38264088821028,-109.32888033988787L126.89797872517478,-108.92162577801435z" style="fill:rgb(83,212,212)"/><path d="M-32.99873854098445,4.374126972594885L-51.464255644075614,-29.281087834520612L-56.033026058015494,60.545230321215136z" style="fill:rgb(247,158,158)"/><path d="M123.3910301125339,-91.26589756698313L120.2128049140857,-86.47746192161621L133.6825422408226,-49.93968258611828z" style="fill:rgb(228,104,202)"/><path d="M55.03589113079956,-21.51238622557439L49.1384458082331,-24.555824378066593L58.39872670362496,-4.280774836076208z" style="fill:rgb(38,43,165)"/><path d="M119.14489960043925,-84.86843435870726L126.89797872517478,-108.92162577801435L117.16680694875858,-100.74445614993972z" style="fill:rgb(83,212,212)"/><path d="M110.03393309604228,-95.28033734969674L112.42332235948918,-74.74140582202824L126.24626756529348,-38.317890585442214z" style="fill:rgb(247,158,158)"/><path d="M59.79093817377859,-17.421165044061382L64.23637185927902,-1.1795162235466041L68.95621824749263,2.9573987679335234z" style="fill:rgb(25,53,148)"/><path d="M-86.18114439188211,28.155924014576303L-92.71239510537704,21.139157394745244L-72.3839536305357,54.12904885268466z" style="fill:rgb(26,52,150)"/><path d="M-25.986722401154342,22.98227690575168L-15.11892151705852,36.138615844833915L-25.83083662009771,16.599097937661682z" style="fill:rgb(247,158,158)"/><path d="M119.14489960043925,-84.86843435870726L128.74851435306644,-99.33769481969242L127.38264088821028,-109.32888033988787z" style="fill:rgb(83,212,212)"/><path d="M120.2128049140857,-86.47746192161621L116.55542076661659,-80.96701541601122L130.19053937936025,-44.48217357317193zM107.82178975327376,-67.80866993894074L117.02368762469563,-23.9046050236414L121.85511808058324,-31.455342843458787z" style="fill:rgb(228,104,202)"/><path d="M-65.67182128119917,50.189893609992495L-48.31322251893318,-29.60674070794181L-60.948460710983,-28.300917607950254z" style="fill:rgb(83,212,212)"/><path d="M-15.208412541191784,42.51504165088696L-24.60760323753027,28.946049885499935L-13.788769060628514,48.485401583065446z" style="fill:rgb(245,174,141)"/><path d="M-79.2406721251691,35.612334194465085L-65.86478517976825,61.243144442215595L-58.94188942670206,68.79787843637065z" style="fill:rgb(26,52,150)"/><path d="M72.37922634661354,8.009914366000084L59.79093817377859,-17.421165044061382L68.95621824749263,2.9573987679335234z" style="fill:rgb(15,66,131)"/><path d="M108.89609347291369,-69.4270914448477L117.16680694875858,-100.74445614993972L106.31778397840581,-92.43358212303949z" style="fill:rgb(83,212,212)"/><path d="M-24.988804222995622,3.4194794075792383L-43.252300041973996,-30.37384817077215L-47.524543732037436,69.4622288119909z" style="fill:rgb(247,158,158)"/><path d="M59.79093817377859,-17.421165044061382L55.03589113079956,-21.51238622557439L64.23637185927902,-1.1795162235466041z" style="fill:rgb(25,53,148)"/><path d="M84.86454800635511,-33.22006192264751L95.87354562385488,-39.98626776045076L81.27466820185221,-75.85539128503773z" style="fill:rgb(247,158,158)"/><path d="M-89.4193849145979,24.676929603011274L-77.8824839263302,37.07147165706652L-73.20745849725976,-27.64856768607402z" style="fill:rgb(83,212,212)"/><path d="M116.55544821623624,-80.96700867580827L112.42335869246396,-74.74139923112446L126.24630303645968,-38.31788335659493z" style="fill:rgb(228,104,202)"/><path d="M-40.789851940329,5.064539511112147L-64.15801646349595,51.816226444952456L-43.91416296704565,85.19710524165048z" style="fill:rgb(247,158,158)"/><path d="M33.51263173696836,-1.624453757693141L45.670846543155875,24.193583292098285L43.20404018681835,18.49253282064541z" style="fill:rgb(243,180,133)"/><path d="M99.85207722804181,-87.91343376370706L102.75746883415569,-60.17836827135668L117.02380194491904,-23.904596348754094zM7.57819381980424,19.67536150287296L17.844941331701794,39.52699497659986L17.570266777232572,22.893412311928472z" style="fill:rgb(247,158,158)"/><path d="M102.75746883415569,-60.17836827135668L111.75934007682595,-15.67707009677631L117.02380194491904,-23.904596348754094z" style="fill:rgb(228,104,202)"/><path d="M-15.208412541191784,42.51504165088696L-25.986722401154342,22.98227690575168L-24.60760323753027,28.946049885499935z" style="fill:rgb(245,174,141)"/><path d="M78.03267788696175,-22.9268432176713L89.11727732400014,-36.04033302603194L74.2874848615781,-71.79505544146352zM7.57819381980424,19.67536150287296L17.570266777232572,22.893412311928472L7.459273336844614,3.02892843586129zM84.86454800635511,-33.22006192264751L99.96651265884861,2.753300786864527L95.87354562385488,-39.98626776045076zM-16.794955115724804,2.262373814126288L-34.84684385891166,-31.672244860829693L-38.41665519333537,71.73816393632592zM16.734706371623073,21.170912325405478L26.28354627325124,17.043584906205307L16.35536346863611,-2.9090610241119133z" style="fill:rgb(247,158,158)"/><path d="M108.89609347291369,-69.4270914448477L119.14489960043925,-84.86843435870726L117.16680694875858,-100.74445614993972z" style="fill:rgb(83,212,212)"/><path d="M-13.788769060628514,48.485401583065446L-21.711159743617554,34.28049628757497L-10.880094132375824,53.839934178745736z" style="fill:rgb(239,188,123)"/><path d="M98.01040461992757,-53.026225225787364L106.31778397840581,-92.43358212303949L94.89372301378137,-84.44700410312639z" style="fill:rgb(83,212,212)"/><path d="M112.42332235948918,-74.74140582202824L107.82188980649173,-67.80865337963809L121.85521594180649,-31.455326562795705z" style="fill:rgb(228,104,202)"/><path d="M16.734706371623073,21.170912325405478L26.881250726140756,41.10682108940743L26.28354627325124,17.043584906205307zM70.78654012557853,-12.009488312134405L82.02363775055947,-32.09241741172841L66.95407462293504,-67.72654902991493zM-8.877382140197264,-30.8059619753832L-1.5468025210729468,45.14914974018561L-1.4594315038264882,-16.20867084761933zM94.08501357629288,-83.93115162838832L97.23725151715635,-51.86137670124055L111.75934007682595,-15.67707009677631z" style="fill:rgb(247,158,158)"/><path d="M-79.2406721251691,35.612334194465085L-86.18113441753451,28.15590038174655L-65.86478517976825,61.243144442215595z" style="fill:rgb(26,52,150)"/><path d="M25.81446055221753,18.139052536980724L35.048797997181,15.559156062850166L25.26322727414507,-4.479938304029575z" style="fill:rgb(247,158,158)"/><path d="M-52.78581584858009,64.03381826038905L-43.252300041973996,-30.37384817077215L-48.31322251893318,-29.60674070794181z" style="fill:rgb(83,212,212)"/><path d="M34.59996627413688,8.659454576442576L44.367704237190146,28.77852951603481L44.019285339314166,20.376659547283815z" style="fill:rgb(247,158,158)"/><path d="M97.23731518311655,-51.86136603915779L106.07042362270647,-6.786062735253435L111.75939377292205,-15.677059358325948z" style="fill:rgb(228,104,202)"/><path d="M25.81446055221753,18.139052536980724L35.79858426273738,38.16424167693999L35.048797997181,15.559156062850166zM78.03267788696175,-22.9268432176713L93.45879490811714,12.923873892705233L89.11727732400014,-36.04033302603194z" style="fill:rgb(247,158,158)"/><path d="M35.96458523772056,4.057253241343611L43.71681234814915,31.068629035585495L45.670846543155875,24.193583292098285z" style="fill:rgb(243,133,180)"/><path d="M63.14024641667561,-0.4892092302036668L74.62232104334699,-28.181377045355834L59.30557360259564,-63.68924932756126z" style="fill:rgb(247,158,158)"/><path d="M72.37922634661354,8.009914366000084L63.22255782263464,-12.400043261381164L59.79093817377859,-17.421165044061382z" style="fill:rgb(15,66,131)"/><path d="M11.024552181991464,21.43421640381401L15.16532425730934,38.12212275313458L21.25753090703551,41.31615088305261z" style="fill:rgb(42,41,169)"/><path d="M-13.788769060628514,48.485401583065446L-24.60760323753027,28.946049885499935L-21.711159743617554,34.28049628757497z" style="fill:rgb(239,188,123)"/><path d="M87.87758178918611,-79.97162766616577L91.26973731773641,-42.8704383794105L106.07035271405071,-6.786075907663738z" style="fill:rgb(247,158,158)"/><path d="M-71.89706435728473,43.50185059124086L-58.94188942670206,68.79787843637065L-51.622161990191046,76.78562713304356z" style="fill:rgb(26,52,150)"/><path d="M107.82178975327376,-67.80866993894074L102.7573429790531,-60.17837682006302L117.02368762469563,-23.9046050236414z" style="fill:rgb(228,104,202)"/><path d="M86.49839437755578,-35.68169482045083L94.89372301378137,-84.44700410312639L82.95806038281772,-76.83362310929563z" style="fill:rgb(83,212,212)"/><path d="M-32.99873854098445,4.374126972594885L-56.033026058015494,60.545230321215136L-35.828254321190876,94.02097270651404z" style="fill:rgb(247,158,158)"/><path d="M33.51263173696836,-1.624453757693141L35.96458523772056,4.057253241343611L45.670846543155875,24.193583292098285z" style="fill:rgb(243,180,133)"/><path d="M-47.524543732037436,69.4622288119909L-35.3666077472482,-31.5691184604922L-43.252300041973996,-30.37384817077215z" style="fill:rgb(83,212,212)"/><path d="M34.59996627413688,8.659454576442576L44.019285339314166,20.376659547283815L34.32289868508752,0.25311982673382033z" style="fill:rgb(247,158,158)"/><path d="M98.01040461992757,-53.026225225787364L108.89609347291369,-69.4270914448477L106.31778397840581,-92.43358212303949z" style="fill:rgb(83,212,212)"/><path d="M70.78654012557853,-12.009488312134405L86.55952274123679,23.706352512301933L82.02363775055947,-32.09241741172841z" style="fill:rgb(247,158,158)"/><path d="M19.460822367458587,21.045210860974922L21.25753090703551,41.31615088305261L29.565907473685733,41.00689083805911z" style="fill:rgb(96,32,206)"/><path d="M-28.988498785675674,70.59282575298653L-18.70923998220627,-18.90588647968474L-26.27753375588661,-33.3727408856262z" style="fill:rgb(247,158,158)"/><path d="M91.26973731773641,-42.8704383794105L99.96651265884861,2.753300786864527L106.07035271405071,-6.786075907663738z" style="fill:rgb(228,104,202)"/><path d="M11.024552181991464,21.43421640381401L4.872370885694916,18.294442682888725L15.16532425730934,38.12212275313458z" style="fill:rgb(42,41,169)"/><path d="M43.71681234814915,31.068629035585495L27.868810140564836,17.19940804929812L37.81380320766227,37.2451399115823z" style="fill:rgb(212,85,213)"/><path d="M-38.98707693002384,71.77796668901733L-34.84684385891166,-31.672244860829693L-35.3666077472482,-31.5691184604922z" style="fill:rgb(83,212,212)"/><path d="M27.868810140564836,17.19940804929812L29.565907473685733,41.00689083805911L37.81380320766227,37.2451399115823z" style="fill:rgb(158,48,222)"/><path d="M74.37306706446199,-17.413107208026368L82.95806038281772,-76.83362310929563L70.57874000673826,-69.63989548565333zM-77.8824839263302,37.07147165706652L-65.67182128119917,50.189893609992495L-60.948460710983,-28.300917607950254z" style="fill:rgb(83,212,212)"/><path d="M102.75746883415569,-60.17836827135668L97.23725151715635,-51.86137670124055L111.75934007682595,-15.67707009677631z" style="fill:rgb(228,104,202)"/><path d="M-19.4000427469189,68.2755120070191L-10.11855990052597,-20.77865332038852L-17.58866788253394,-35.30803316718856z" style="fill:rgb(247,158,158)"/><path d="M-38.41665519333537,71.73816393632592L-22.177698419844443,-34.18631906063271L-34.84684385891166,-31.672244860829693z" style="fill:rgb(83,212,212)"/><path d="M35.96458523772056,4.057253241343611L33.918296232876735,10.95841783584586L43.71681234814915,31.068629035585495z" style="fill:rgb(243,133,180)"/><path d="M55.1095791306224,11.610152993233644L57.980587599206785,-44.80529767821706L51.36989726796567,-59.82685725767903zM63.14024641667561,-0.4892092302036668L79.28267110265779,35.07896005964546L74.62232104334699,-28.181377045355834z" style="fill:rgb(247,158,158)"/><path d="M-71.89706435728473,43.50185059124086L-79.2406721251691,35.612334194465085L-58.94188942670206,68.79787843637065z" style="fill:rgb(26,52,150)"/><path d="M19.460822367458587,21.045210860974922L11.024552181991464,21.43421640381401L21.25753090703551,41.31615088305261z" style="fill:rgb(96,32,206)"/><path d="M61.65038075059927,1.7554797828934035L70.57874000673826,-69.63989548565333L57.82767025120327,-62.90913654683861z" style="fill:rgb(83,212,212)"/><path d="M46.71222994389614,24.262001196926132L49.91274240170063,-41.037258084983044L43.1930447487136,-56.00103040086844z" style="fill:rgb(247,158,158)"/><path d="M84.86469447730899,-33.22003504085223L93.45895591098285,12.9239088224773L99.96666411683718,2.7533320523133726z" style="fill:rgb(228,104,202)"/><path d="M43.71681234814915,31.068629035585495L33.918296232876735,10.95841783584586L27.868810140564836,17.19940804929812z" style="fill:rgb(212,85,213)"/><path d="M-24.988804222995622,3.4194794075792383L-47.524543732037436,69.4622288119909L-27.371835828998428,103.03060005944191z" style="fill:rgb(247,158,158)"/><path d="M-24.461367319046623,69.4987189418445L-8.818986971397807,-37.45164211633345L-22.177698419844443,-34.18631906063271z" style="fill:rgb(83,212,212)"/><path d="M-0.008277594657173478,63.588959368569924L7.256526281841011,-25.351509404962723L-0.007501346006332471,-40.00710842887437z" style="fill:rgb(247,158,158)"/><path d="M86.49839437755578,-35.68169482045083L98.01040461992757,-53.026225225787364L94.89372301378137,-84.44700410312639z" style="fill:rgb(83,212,212)"/><path d="M97.23731518311655,-51.86136603915779L91.26980147639898,-42.870427463341635L106.07042362270647,-6.786062735253435z" style="fill:rgb(228,104,202)"/><path d="M27.868810140564836,17.19940804929812L19.460822367458587,21.045210860974922L29.565907473685733,41.00689083805911z" style="fill:rgb(158,48,222)"/><path d="M-64.15801646349595,51.816226444952456L-51.622161990191046,76.78562713304356L-43.91416296704565,85.19710524165048z" style="fill:rgb(26,52,150)"/><path d="M37.96785172577408,37.43668687282419L41.63444808108231,-37.50025489616528L34.80521221658037,-52.40446954298185zM9.71917815290401,61.238052730815795L15.95956620451608,-28.033525132382838L8.8023226272829,-42.752224092460125z" style="fill:rgb(247,158,158)"/><path d="M48.349526424947015,21.79517776099542L57.82767025120327,-62.90913654683861L44.77979910058639,-56.68140253268206zM-9.72744811479759,65.93786170097422L4.634126067744753,-41.35324607852289L-8.818986971397807,-37.45164211633345z" style="fill:rgb(83,212,212)"/><path d="M19.395815014997574,57.74984544563496L24.619031729049926,-30.913489375277795L17.5699375930202,-45.69491960516595zM28.892612070980935,50.88671248181828L33.189305885503664,-34.14051830640419L26.250202107330892,-48.9838253896686zM-16.794955115724804,2.262373814126288L-38.41665519333537,71.73816393632592L-18.455694458305736,105.4351933467053z" style="fill:rgb(247,158,158)"/><path d="M78.03245746470844,-22.926889590460185L86.55927258249378,23.706302330254424L93.45857121985757,12.923823737658864z" style="fill:rgb(228,104,202)"/><path d="M5.114817487748212,62.35082410712625L17.5699375930202,-45.69491960516595L4.634126067744753,-41.35324607852289z" style="fill:rgb(83,212,212)"/><path d="M91.26973731773641,-42.8704383794105L84.86454800635511,-33.22006192264751L99.96651265884861,2.753300786864527z" style="fill:rgb(228,104,202)"/><path d="M34.4934574652624,42.6713533374885L44.77979910058639,-56.68140253268206L31.512437767021055,-50.99259723876879zM19.395815014997574,57.74984544563496L18.10415765769025,-45.87422500651586L17.5699375930202,-45.69491960516595zM28.892612070980935,50.88671248181828L31.512437767021055,-50.99259723876879L26.250202107330892,-48.9838253896686zM74.37306706446199,-17.413107208026368L86.49839437755578,-35.68169482045083L82.95806038281772,-76.83362310929563zM19.984747026101342,57.507686489086L26.250202107330892,-48.9838253896686L18.10415765769025,-45.87422500651586z" style="fill:rgb(83,212,212)"/><path d="M-64.15801646349595,51.816226444952456L-71.89706435728473,43.50185059124086L-51.622161990191046,76.78562713304356z" style="fill:rgb(26,52,150)"/><path d="M-65.67182128119917,50.189893609992495L-52.78581584858009,64.03381826038905L-48.31322251893318,-29.60674070794181z" style="fill:rgb(83,212,212)"/><path d="M-8.877382140197264,-30.8059619753832L-9.416621217906016,30.56337093960121L-1.5468025210729468,45.14914974018561zM-20.610791634616604,84.98858592165718L-8.89737148701726,55.921990132066085L-19.72051985134092,36.34709103559789z" style="fill:rgb(247,158,158)"/><path d="M70.78672854089669,-12.009448365428092L79.28286100412538,35.07902032992207L86.55970252932474,23.706395594680938zM84.86469447730899,-33.22003504085223L78.03284295968291,-22.926811079397073L93.45895591098285,12.9239088224773z" style="fill:rgb(228,104,202)"/><path d="M-56.033026058015494,60.545230321215136L-43.91416296704565,85.19710524165048L-35.828254321190876,94.02097270651404z" style="fill:rgb(26,52,150)"/><path d="M55.1095791306224,11.610152993233644L62.139822211588395,26.66505186471461L57.980587599206785,-44.80529767821706zM62.139822211588395,26.66505186471461L71.64379630296277,47.0173218358358L70.79471847219095,34.12143031843042z" style="fill:rgb(247,158,158)"/><path d="M61.65038075059927,1.7554797828934035L74.37306706446199,-17.413107208026368L70.57874000673826,-69.63989548565333z" style="fill:rgb(83,212,212)"/><path d="M62.139822211588395,26.66505186471461L70.79471847219095,34.12143031843042L61.388490878904214,13.754522175817334zM-11.145136584232526,82.73955819957673L0.007651573874251742,62.27799675598935L-10.74738202042353,42.63067736776079z" style="fill:rgb(247,158,158)"/><path d="M-52.78581584858009,64.03381826038905L-47.524543732037436,69.4622288119909L-43.252300041973996,-30.37384817077215z" style="fill:rgb(83,212,212)"/><path d="M-20.610791634616604,84.98858592165718L-9.290870398421967,104.44008026402359L-8.89737148701726,55.921990132066085z" style="fill:rgb(247,158,158)"/><path d="M78.03245746470844,-22.926889590460185L70.78628814161479,-12.009533315605207L86.55927258249378,23.706302330254424zM63.13996922059374,-0.4892884111786884L71.64349437155853,47.01723919977544L79.28240013866699,35.078876531629z" style="fill:rgb(228,104,202)"/><path d="M46.71222994389614,24.262001196926132L53.919524160694586,39.24484756618477L49.91274240170063,-41.037258084983044z" style="fill:rgb(247,158,158)"/><path d="M-56.033026058015494,60.545230321215136L-64.15801646349595,51.816226444952456L-43.91416296704565,85.19710524165048zM-27.67773189632674,102.91535273229249L-56.033026058015494,60.545230321215136L-35.828254321190876,94.02097270651404z" style="fill:rgb(26,52,150)"/><path d="M-28.988498785675674,70.59282575298653L-20.610791634616604,84.98858592165718L-18.70923998220627,-18.90588647968474zM-9.416621217906016,30.56337093960121L9.386756974607865,100.10473889312321L9.096995507533348,64.87616545408486zM53.919524160694586,39.24484756618477L63.66026789712816,59.49434941858298L62.82752672856056,45.097235483320375zM-19.4000427469189,68.2755120070191L-11.145136584232526,82.73955819957673L-10.11855990052597,-20.77865332038852zM-11.145136584232526,82.73955819957673L0.007928982568143554,102.28169441840788L0.007651573874251742,62.27799675598935z" style="fill:rgb(247,158,158)"/><path d="M-47.524543732037436,69.4622288119909L-38.98707693002384,71.77796668901733L-35.3666077472482,-31.5691184604922z" style="fill:rgb(83,212,212)"/><path d="M53.919524160694586,39.24484756618477L62.82752672856056,45.097235483320375L53.19985209373017,24.82510249772091z" style="fill:rgb(247,158,158)"/><path d="M48.349526424947015,21.79517776099542L61.65038075059927,1.7554797828934035L57.82767025120327,-62.90913654683861z" style="fill:rgb(83,212,212)"/><path d="M37.96785172577408,37.43668687282419L45.36148135440528,52.341495531716006L41.63444808108231,-37.50025489616528z" style="fill:rgb(247,158,158)"/><path d="M70.78672854089669,-12.009448365428092L63.140445042793914,-0.48915326189134223L79.28286100412538,35.07902032992207zM55.10982751908309,11.61019587559521L63.660512459182975,59.49443358332377L71.64403873598309,47.01736770645306z" style="fill:rgb(228,104,202)"/><path d="M-38.98707693002384,71.77796668901733L-38.41665519333537,71.73816393632592L-34.84684385891166,-31.672244860829693z" style="fill:rgb(83,212,212)"/><path d="M7.996228045011116,78.191598668894L18.273536710592147,65.48162741731397L7.76389935144556,45.67033578323909zM-0.008277594657173478,63.588959368569924L7.996228045011116,78.191598668894L7.256526281841011,-25.351509404962723zM45.36148135440528,52.341495531716006L55.351304427384434,72.47997141349997L54.369870925409806,52.73479845492172z" style="fill:rgb(247,158,158)"/><path d="M-27.371835828998428,103.03060005944191L-47.83634398346269,69.3512459977952L-27.67773189632674,102.91535273229249z" style="fill:rgb(57,36,182)"/><path d="M45.36148135440528,52.341495531716006L54.369870925409806,52.73479845492172L44.54076482182109,32.55777169841941z" style="fill:rgb(247,158,158)"/><path d="M-38.41665519333537,71.73816393632592L-24.461367319046623,69.4987189418445L-22.177698419844443,-34.18631906063271z" style="fill:rgb(83,212,212)"/><path d="M9.71917815290401,61.238052730815795L17.597043686877544,75.91045710424639L15.95956620451608,-28.033525132382838z" style="fill:rgb(247,158,158)"/><path d="M-20.664127089673176,105.5580422473349L-47.524543732037436,69.4622288119909L-27.371835828998428,103.03060005944191z" style="fill:rgb(57,36,182)"/><path d="M28.892612070980935,50.88671248181828L36.480239969927,65.70767621968454L33.189305885503664,-34.14051830640419zM7.996228045011116,78.191598668894L18.80916108597452,97.91766026799276L18.273536710592147,65.48162741731397zM17.597043686877544,75.91045710424639L27.461564155955827,64.46990011860467L17.103333608955356,44.5706722075389zM19.395815014997574,57.74984544563496L27.139111224460397,72.4940030894806L24.619031729049926,-30.913489375277795zM36.480239969927,65.70767621968454L45.58492412746407,58.13090822205092L35.56859535235107,38.04803131280168zM27.139111224460397,72.4940030894806L36.58949167169495,62.00907760643372L26.39642531915517,42.01906060262656z" style="fill:rgb(247,158,158)"/><path d="M34.4934574652624,42.6713533374885L48.349526424947015,21.79517776099542L44.77979910058639,-56.68140253268206z" style="fill:rgb(83,212,212)"/><path d="M63.13996922059374,-0.4892884111786884L55.1092702756252,11.61007626314833L71.64349437155853,47.01723919977544z" style="fill:rgb(228,104,202)"/><path d="M17.597043686877544,75.91045710424639L28.23800827946603,95.72908887217052L27.461564155955827,64.46990011860467z" style="fill:rgb(247,158,158)"/><path d="M-24.461367319046623,69.4987189418445L-9.72744811479759,65.93786170097422L-8.818986971397807,-37.45164211633345z" style="fill:rgb(83,212,212)"/><path d="M36.480239969927,65.70767621968454L46.72932376368452,85.72728103972739L45.58492412746407,58.13090822205092z" style="fill:rgb(247,158,158)"/><path d="M46.71232699615789,24.26202519972354L55.35140834075045,72.479998285977L63.660362711503495,59.494374925518116z" style="fill:rgb(228,104,202)"/><path d="M-18.455694458305736,105.4351933467053L-40.686072843303,71.89655145211479L-20.664127089673176,105.5580422473349z" style="fill:rgb(102,32,209)"/><path d="M27.139111224460397,72.4940030894806L37.597811532136845,92.40861083590222L36.58949167169495,62.00907760643372z" style="fill:rgb(247,158,158)"/><path d="M-27.67773189632674,102.91535273229249L-47.83634398346269,69.3512459977952L-56.033026058015494,60.545230321215136z" style="fill:rgb(26,52,150)"/><path d="M-31.823889333098613,71.27807719581965L-18.455694458305736,105.4351933467053L-12.040902199397092,105.07840404127903z" style="fill:rgb(102,32,209)"/><path d="M-9.72744811479759,65.93786170097422L5.114817487748212,62.35082410712625L4.634126067744753,-41.35324607852289zM28.892612070980935,50.88671248181828L34.4934574652624,42.6713533374885L31.512437767021055,-50.99259723876879zM5.114817487748212,62.35082410712625L19.395815014997574,57.74984544563496L17.5699375930202,-45.69491960516595z" style="fill:rgb(83,212,212)"/><path d="M-27.371835828998428,103.03060005944191L-47.524543732037436,69.4622288119909L-47.83634398346269,69.3512459977952z" style="fill:rgb(57,36,182)"/><path d="M19.984747026101342,57.507686489086L28.892612070980935,50.88671248181828L26.250202107330892,-48.9838253896686z" style="fill:rgb(83,212,212)"/><path d="M55.10982751908309,11.61019587559521L46.712480480639385,24.262079701195574L63.660512459182975,59.49443358332377z" style="fill:rgb(228,104,202)"/><path d="M19.395815014997574,57.74984544563496L19.984747026101342,57.507686489086L18.10415765769025,-45.87422500651586z" style="fill:rgb(83,212,212)"/><path d="M-9.416621217906016,30.56337093960121L-9.72744811479759,65.93786170097422L9.386756974607865,100.10473889312321z" style="fill:rgb(247,158,158)"/><path d="M-20.664127089673176,105.5580422473349L-40.686072843303,71.89655145211479L-47.524543732037436,69.4622288119909z" style="fill:rgb(57,36,182)"/><path d="M55.351304427384434,72.47997141349997L29.21987841464072,50.616790269134775L47.04350325995872,85.46376422504908z" style="fill:rgb(228,104,202)"/><path d="M12.613571473855911,60.53854108214366L-12.040902199397092,105.07840404127903L31.043243311810063,95.0779509272058z" style="fill:rgb(127,37,217)"/><path d="M-18.455694458305736,105.4351933467053L-38.41665519333537,71.73816393632592L-40.686072843303,71.89655145211479z" style="fill:rgb(102,32,209)"/><path d="M47.04350325995872,85.46376422504908L28.892612070980935,50.88671248181828L46.72932376368452,85.72728103972739z" style="fill:rgb(197,72,218)"/><path d="M-31.823889333098613,71.27807719581965L-38.41665519333537,71.73816393632592L-18.455694458305736,105.4351933467053z" style="fill:rgb(102,32,209)"/><path d="M46.72932376368452,85.72728103972739L21.740884407430105,56.78562076758388L39.86408855539526,91.4856874081603z" style="fill:rgb(197,72,218)"/><path d="M46.71232699615789,24.26202519972354L37.967958282790974,37.436712301556724L55.35140834075045,72.479998285977z" style="fill:rgb(228,104,202)"/><path d="M19.395815014997574,57.74984544563496L31.043243311810063,95.0779509272058L37.597811532136845,92.40861083590222zM39.86408855539526,91.4856874081603L19.395815014997574,57.74984544563496L37.597811532136845,92.40861083590222z" style="fill:rgb(152,45,222)"/><path d="M-52.78581584858009,64.03381826038905L-47.83634398346269,69.3512459977952L-47.524543732037436,69.4622288119909z" style="fill:rgb(83,212,212)"/><path d="M12.613571473855911,60.53854108214366L-31.823889333098613,71.27807719581965L-12.040902199397092,105.07840404127903z" style="fill:rgb(127,37,217)"/><path d="M55.351304427384434,72.47997141349997L37.96785172577408,37.43668687282419L29.21987841464072,50.616790269134775z" style="fill:rgb(228,104,202)"/><path d="M-47.524543732037436,69.4622288119909L-40.686072843303,71.89655145211479L-38.98707693002384,71.77796668901733z" style="fill:rgb(83,212,212)"/><path d="M47.04350325995872,85.46376422504908L29.21987841464072,50.616790269134775L28.892612070980935,50.88671248181828zM46.72932376368452,85.72728103972739L28.892612070980935,50.88671248181828L21.740884407430105,56.78562076758388z" style="fill:rgb(197,72,218)"/><path d="M19.395815014997574,57.74984544563496L12.613571473855911,60.53854108214366L31.043243311810063,95.0779509272058z" style="fill:rgb(152,45,222)"/><path d="M-38.41665519333537,71.73816393632592L-31.823889333098613,71.27807719581965L-24.461367319046623,69.4987189418445z" style="fill:rgb(83,212,212)"/><path d="M39.86408855539526,91.4856874081603L21.740884407430105,56.78562076758388L19.395815014997574,57.74984544563496z" style="fill:rgb(152,45,222)"/><path d="M28.892612070980935,50.88671248181828L29.21987841464072,50.616790269134775L34.4934574652624,42.6713533374885zM5.114817487748212,62.35082410712625L12.613571473855911,60.53854108214366L19.395815014997574,57.74984544563496zM19.984747026101342,57.507686489086L21.740884407430105,56.78562076758388L28.892612070980935,50.88671248181828z" style="fill:rgb(83,212,212)"/></svg>
