<?xml version="1.0" encoding="UTF-8"?>
<!-- Generated by jsxcad -->
<!DOCTYPE svg PUBLIC "-//W3C//DTD SVG 1.1 Tiny//EN" "http://www.w3.org/Graphics/SVG/1.1/DTD/svg11-tiny.dtd">
<svg viewBox="-250 -250 500 500" width="500" height="500" xmlns="http://www.w3.org/2000/svg"><path d="M28.54328596966205,2.877303838165029L12.883665946780512,-20.355906249461253L25.215842111261374,4.674835706374225z" style="fill:rgb(169,53,222)"/><path d="M32.05541398428482,1.4994734468426312L16.292444353859437,-22.1947702725038L28.54328596966205,2.877303838165029z" style="fill:rgb(148,44,221)"/><path d="M25.215842111261374,4.674835706374225L9.76245617411161,-18.15590622989374L22.175204180409345,6.837069043926731z" style="fill:rgb(188,65,220)"/><path d="M35.644495774636155,0.5842544400404293L19.884293124138168,-23.616299441127172L32.05541398428482,1.4994734468426312z" style="fill:rgb(127,37,217)"/><path d="M22.175204180409345,6.837069043926731L7.025274389292271,-15.661792052309123L19.51544056335097,9.298061575043228z" style="fill:rgb(206,79,215)"/><path d="M39.20007059827273,0.16107529410486807L23.54915513308401,-24.576274168409025L35.644495774636155,0.5842544400404293z" style="fill:rgb(106,33,210)"/><path d="M19.51544056335097,9.298061575043228L4.75770543586031,-12.94954211067308L17.319798756309687,11.982774527299522z" style="fill:rgb(221,95,207)"/><path d="M74.77318434707507,-37.993931542326095L3.984546018003996,-43.04384624802389L0.7125961455709605,-41.298207744473096zM74.77318434707507,-37.993931542326095L7.3277485063874295,-44.65541990815968L3.984546018003996,-43.04384624802389zM74.77318434707507,-37.993931542326095L0.7125961455709605,-41.298207744473096L-2.476261379020574,-39.42481535621208zM74.77318434707507,-37.993931542326095L10.730232159607855,-46.12711322351366L7.3277485063874295,-44.65541990815968zM74.77318434707507,-37.993931542326095L-2.476261379020574,-39.42481535621208L-5.570532582997386,-37.43026481552154zM74.77318434707507,-37.993931542326095L14.179717091392083,-47.4534748764297L10.730232159607855,-46.12711322351366z" style="fill:rgb(83,212,212)"/><path d="M42.611979231151466,0.24491977012029179L27.174347287714554,-25.043897095099606L39.20007059827273,0.16107529410486807z" style="fill:rgb(85,32,201)"/><path d="M74.77318434707507,-37.993931542326095L-5.570532582997386,-37.43026481552154L-8.558941167346198,-35.32160117620451zM74.77318434707507,-37.993931542326095L17.663923934488786,-48.62955676674295L14.179717091392083,-47.4534748764297zM74.77318434707507,-37.993931542326095L-8.558941167346198,-35.32160117620451L-11.430549324579705,-33.106267612473744zM74.77318434707507,-37.993931542326095L21.17024294453918,-49.65079781438139L17.663923934488786,-48.62955676674295zM74.77318434707507,-37.993931542326095L-11.430549324579705,-33.106267612473744L-14.174585643828316,-30.792087382706264z" style="fill:rgb(83,212,212)"/><path d="M17.319798756309687,11.982774527299522L3.032005911012129,-10.102109731711412L15.658292707870427,14.80903229018934z" style="fill:rgb(233,111,197)"/><path d="M74.77318434707507,-37.993931542326095L24.68605046721951,-50.513155494870254L21.17024294453918,-49.65079781438139zM74.77318434707507,-37.993931542326095L-14.174585643828316,-30.792087382706264L-16.780865230666144,-28.38710555055333z" style="fill:rgb(83,212,212)"/><path d="M45.77344776849675,0.8358392163062354L30.647632718700343,-25.002768204304786L42.611979231151466,0.24491977012029179z" style="fill:rgb(66,34,189)"/><path d="M74.77318434707507,-37.993931542326095L28.198622389355503,-51.213048507034834L24.68605046721951,-50.513155494870254zM74.77318434707507,-37.993931542326095L-16.780865230666144,-28.38710555055333L-19.239377349891075,-25.899897084706595zM74.77318434707507,-37.993931542326095L31.69506017176462,-51.74736478220019L28.198622389355503,-51.213048507034834z" style="fill:rgb(83,212,212)"/><path d="M15.658292707870427,14.80903229018934L1.9050229147558364,-7.207430983001738L14.58569492914671,17.68950688923255z" style="fill:rgb(241,128,184)"/><path d="M74.77318434707507,-37.993931542326095L-19.239377349891075,-25.899897084706595L-21.540618905226033,-23.339209334912773zM74.77318434707507,-37.993931542326095L35.16259290137711,-52.1135407431702L31.69506017176462,-51.74736478220019z" style="fill:rgb(83,212,212)"/><path d="M48.58389932629023,1.9184700296311998L33.860357928350545,-24.451437564755818L45.77344776849675,0.8358392163062354z" style="fill:rgb(48,39,175)"/><path d="M74.77318434707507,-37.993931542326095L-21.540618905226033,-23.339209334912773L-23.675429020108886,-20.714145994205488zM74.77318434707507,-37.993931542326095L38.588267505825264,-52.309517094157634L35.16259290137711,-52.1135407431702z" style="fill:rgb(83,212,212)"/><path d="M28.54328596966205,2.877303838165029L16.292444353859437,-22.1947702725038L12.883665946780512,-20.355906249461253z" style="fill:rgb(169,53,222)"/><path d="M16.292444353859437,-22.1947702725038L-29.99263045047213,-10.551506059566702L-30.264906892728927,-10.005017689255293z" style="fill:rgb(83,212,212)"/><path d="M32.05541398428482,1.4994734468426312L19.884293124138168,-23.616299441127172L16.292444353859437,-22.1947702725038z" style="fill:rgb(148,44,221)"/><path d="M25.215842111261374,4.674835706374225L12.883665946780512,-20.355906249461253L9.76245617411161,-18.15590622989374z" style="fill:rgb(188,65,220)"/><path d="M12.883665946780512,-20.355906249461253L-30.264906892728927,-10.005017689255293L-30.385831890965207,-9.762335746036241zM12.883665946780512,-20.355906249461253L-30.385831890965207,-9.762335746036241L-30.730468512569534,-8.946919953585724zM74.77318434707507,-37.993931542326095L-23.675429020108886,-20.714145994205488L-25.635278627666125,-18.03413976094789z" style="fill:rgb(83,212,212)"/><path d="M14.58569492914671,17.68950688923255L1.4160729878830358,-4.355984372314312L14.139478647163877,20.534150879657798z" style="fill:rgb(246,145,170)"/><path d="M74.77318434707507,-37.993931542326095L41.959257293236796,-52.33376625523657L38.588267505825264,-52.309517094157634z" style="fill:rgb(83,212,212)"/><path d="M35.644495774636155,0.5842544400404293L23.54915513308401,-24.576274168409025L19.884293124138168,-23.616299441127172z" style="fill:rgb(127,37,217)"/><path d="M22.175204180409345,6.837069043926731L9.76245617411161,-18.15590622989374L7.025274389292271,-15.661792052309123z" style="fill:rgb(206,79,215)"/><path d="M9.76245617411161,-18.15590622989374L-30.730468512569534,-8.946919953585724L-31.38128955639704,-7.407180389069451z" style="fill:rgb(83,212,212)"/><path d="M50.95222793569305,3.4621363751539898L36.71029654346279,-23.403919459955866L48.58389932629023,1.9184700296311998z" style="fill:rgb(33,47,159)"/><path d="M74.77318434707507,-37.993931542326095L-25.635278627666125,-18.03413976094789L-27.411930172926333,-15.308826763655391zM74.77318434707507,-37.993931542326095L45.26269689881735,-52.18534987266456L41.959257293236796,-52.33376625523657z" style="fill:rgb(83,212,212)"/><path d="M39.20007059827273,0.16107529410486807L27.174347287714554,-25.043897095099606L23.54915513308401,-24.576274168409025z" style="fill:rgb(106,33,210)"/><path d="M19.51544056335097,9.298061575043228L7.025274389292271,-15.661792052309123L4.75770543586031,-12.94954211067308z" style="fill:rgb(221,95,207)"/><path d="M7.025274389292271,-15.661792052309123L-31.38128955639704,-7.407180389069451L-31.569582084601073,-6.961637990483033zM7.025274389292271,-15.661792052309123L-31.569582084601073,-6.961637990483033L-32.09082268020951,-5.459953801558772zM74.77318434707507,-37.993931542326095L-27.411930172926333,-15.308826763655391L-28.997820915524773,-12.548176675677889zM74.77318434707507,-37.993931542326095L48.48591264205242,-51.86383351303266L45.26269689881735,-52.18534987266456z" style="fill:rgb(83,212,212)"/><path d="M14.139478647163877,20.534150879657798L1.5853534985064268,-1.638135406409758L14.338299202681029,23.252837334397004z" style="fill:rgb(247,162,154)"/><path d="M42.611979231151466,0.24491977012029179L30.647632718700343,-25.002768204304786L27.174347287714554,-25.043897095099606z" style="fill:rgb(85,32,201)"/><path d="M17.319798756309687,11.982774527299522L4.75770543586031,-12.94954211067308L3.032005911012129,-10.102109731711412z" style="fill:rgb(233,111,197)"/><path d="M4.75770543586031,-12.94954211067308L-32.09082268020951,-5.459953801558772L-32.54316169733643,-4.156746017219496zM16.292444353859437,-22.1947702725038L19.884293124138168,-23.616299441127172L-29.99263045047213,-10.551506059566702zM12.883665946780512,-20.355906249461253L16.292444353859437,-22.1947702725038L-30.264906892728927,-10.005017689255293zM74.77318434707507,-37.993931542326095L-28.997820915524773,-12.548176675677889L-29.99263045047213,-10.551506059566702z" style="fill:rgb(83,212,212)"/><path d="M52.79984001080896,5.421365861971696L39.10500214283124,-21.889652127882634L50.95222793569305,3.4621363751539898z" style="fill:rgb(21,57,143)"/><path d="M9.76245617411161,-18.15590622989374L12.883665946780512,-20.355906249461253L-30.730468512569534,-8.946919953585724zM4.75770543586031,-12.94954211067308L-32.54316169733643,-4.156746017219496L-32.810247086417576,-3.1711412701211223zM74.77318434707507,-37.993931542326095L51.61628975084103,-51.3694089866884L48.48591264205242,-51.86383351303266zM7.025274389292271,-15.661792052309123L9.76245617411161,-18.15590622989374L-31.38128955639704,-7.407180389069451z" style="fill:rgb(83,212,212)"/><path d="M45.77344776849675,0.8358392163062354L33.860357928350545,-24.451437564755818L30.647632718700343,-25.002768204304786z" style="fill:rgb(66,34,189)"/><path d="M15.658292707870427,14.80903229018934L3.032005911012129,-10.102109731711412L1.9050229147558364,-7.207430983001738z" style="fill:rgb(241,128,184)"/><path d="M3.032005911012129,-10.102109731711412L-32.810247086417576,-3.1711412701211223L-33.30143223693442,-1.3583321223711593zM74.77318434707507,-37.993931542326095L54.64143895989829,-50.70291463151808L51.61628975084103,-51.3694089866884z" style="fill:rgb(83,212,212)"/><path d="M14.338299202681029,23.252837334397004L2.412790172270704,0.858493799605988L15.18090749037479,25.757985988306203z" style="fill:rgb(244,177,137)"/><path d="M3.032005911012129,-10.102109731711412L-33.30143223693442,-1.3583321223711593L-33.4424818949945,-0.6299233431240772zM4.75770543586031,-12.94954211067308L7.025274389292271,-15.661792052309123L-32.09082268020951,-5.459953801558772z" style="fill:rgb(83,212,212)"/><path d="M54.06329992116883,7.736758882722054L40.96487615206313,-19.95302918795693L52.79984001080896,5.421365861971696z" style="fill:rgb(13,70,126)"/><path d="M74.77318434707507,-37.993931542326095L57.54900826268227,-49.86573239378569L54.64143895989829,-50.70291463151808z" style="fill:rgb(83,212,212)"/><path d="M16.645538058618982,27.967305186090297L2.412790172270704,0.858493799605988L15.18090749037479,25.757985988306203z" style="fill:rgb(17,63,134)"/><path d="M48.58389932629023,1.9184700296311998L36.71029654346279,-23.403919459955866L33.860357928350545,-24.451437564755818z" style="fill:rgb(48,39,175)"/><path d="M14.58569492914671,17.68950688923255L1.9050229147558364,-7.207430983001738L1.4160729878830358,-4.355984372314312z" style="fill:rgb(246,145,170)"/><path d="M1.9050229147558364,-7.207430983001738L-33.4424818949945,-0.6299233431240772L-33.83995819002949,1.4227698104288065zM3.032005911012129,-10.102109731711412L4.75770543586031,-12.94954211067308L-32.810247086417576,-3.1711412701211223zM1.9050229147558364,-7.207430983001738L-33.83995819002949,1.4227698104288065L-33.91422172676239,2.0715711057656545zM74.77318434707507,-37.993931542326095L60.32714718252441,-48.85988827648968L57.54900826268227,-49.86573239378569z" style="fill:rgb(83,212,212)"/><path d="M-16.368122901671033,46.22658525959632L-31.247438898954996,19.482285554326594L-17.657452540810986,43.965911736782196z" style="fill:rgb(16,65,132)"/><path d="M50.95222793569305,3.4621363751539898L39.10500214283124,-21.889652127882634L36.71029654346279,-23.403919459955866z" style="fill:rgb(33,47,159)"/><path d="M14.139478647163877,20.534150879657798L1.4160729878830358,-4.355984372314312L1.5853534985064268,-1.638135406409758z" style="fill:rgb(247,162,154)"/><path d="M1.9050229147558364,-7.207430983001738L3.032005911012129,-10.102109731711412L-33.4424818949945,-0.6299233431240772zM74.77318434707507,-37.993931542326095L62.96409470824245,-47.688121690949366L60.32714718252441,-48.85988827648968zM1.4160729878830358,-4.355984372314312L-33.91422172676239,2.0715711057656545L-34.15502850339391,4.175546445119251z" style="fill:rgb(83,212,212)"/><path d="M18.68976180326471,29.806944760816197L3.877354966932784,3.0517818516373683L16.645538058618982,27.967305186090297z" style="fill:rgb(27,52,151)"/><path d="M54.06329992116883,7.736758882722054L42.84223674805171,-15.059578160576327L54.69701571723892,10.336428967189685z" style="fill:rgb(246,170,145)"/><path d="M1.4160729878830358,-4.355984372314312L-34.15502850339391,4.175546445119251L-34.1767528211148,4.840404939822321z" style="fill:rgb(83,212,212)"/><path d="M-14.86204051156122,48.37514222268181L-29.96421702727407,21.730420427108665L-16.368122901671033,46.22658525959632z" style="fill:rgb(19,60,138)"/><path d="M74.77318434707507,-37.993931542326095L65.44855202100311,-46.353732282939085L62.96409470824245,-47.688121690949366zM1.4160729878830358,-4.355984372314312L1.9050229147558364,-7.207430983001738L-33.91422172676239,2.0715711057656545z" style="fill:rgb(83,212,212)"/><path d="M52.79984001080896,5.421365861971696L40.96487615206313,-19.95302918795693L39.10500214283124,-21.889652127882634z" style="fill:rgb(21,57,143)"/><path d="M14.338299202681029,23.252837334397004L1.5853534985064268,-1.638135406409758L2.412790172270704,0.858493799605988z" style="fill:rgb(244,177,137)"/><path d="M1.5853534985064268,-1.638135406409758L-34.1767528211148,4.840404939822321L-34.24369287739617,6.8890614558217065z" style="fill:rgb(83,212,212)"/><path d="M21.25162246060642,31.213821860268517L5.93686146736849,4.868262995259225L18.68976180326471,29.806944760816197z" style="fill:rgb(40,42,167)"/><path d="M54.69701571723892,10.336428967189685L42.7885687378589,-12.256015215069176L54.6752795208187,13.13807250284807z" style="fill:rgb(247,154,162)"/><path d="M88.73315341934325,-7.053189945495507L78.63119195151381,-30.445798175324512L89.65681201312498,-4.607193467237619z" style="fill:rgb(245,175,140)"/><path d="M75.08086943051309,-37.586892403485955L23.54915513308401,-24.576274168409025L27.174347287714554,-25.043897095099606zM74.77318434707507,-37.993931542326095L67.76952181925687,-44.86069348401917L65.44855202100311,-46.353732282939085zM1.5853534985064268,-1.638135406409758L-34.24369287739617,6.8890614558217065L-34.20710560136128,7.585417430042564z" style="fill:rgb(83,212,212)"/><path d="M-13.143813723278388,50.40172769391981L-28.458717127461355,23.863984610565243L-14.86204051156122,48.37514222268181z" style="fill:rgb(23,56,144)"/><path d="M25.960772687725903,18.702120084934243L8.842980874367896,-33.294627110908785L5.562912539851617,-31.482068371692215zM25.960772687725903,18.702120084934243L12.23187180744622,-34.90758097794494L8.842980874367896,-33.294627110908785zM25.960772687725903,18.702120084934243L5.562912539851617,-31.482068371692215L2.4180638230844878,-29.484397114224155zM25.960772687725903,18.702120084934243L15.702393029272354,-36.30788955017529L12.23187180744622,-34.90758097794494zM75.61264118358297,-36.765126921859576L27.174347287714554,-25.043897095099606L30.647632718700343,-25.002768204304786zM25.960772687725903,18.702120084934243L2.4180638230844878,-29.484397114224155L-0.5661128749991376,-27.31747721978821zM25.960772687725903,18.702120084934243L19.22671698410318,-37.4840447434358L15.702393029272354,-36.30788955017529zM1.5853534985064268,-1.638135406409758L1.4160729878830358,-4.355984372314312L-34.1767528211148,4.840404939822321zM74.77318434707507,-37.993931542326095L69.91663688971374,-43.21376234790387L67.76952181925687,-44.86069348401917z" style="fill:rgb(83,212,212)"/><path d="M24.250603011699937,32.138466856626664L8.529072476688256,6.2454525724373315L21.25162246060642,31.213821860268517z" style="fill:rgb(57,36,182)"/><path d="M54.6752795208187,13.13807250284807L42.06133492707594,-9.332218472281339L53.993755791427766,16.051364562850196z" style="fill:rgb(244,137,177)"/><path d="M25.960772687725903,18.702120084934243L-0.5661128749991376,-27.31747721978821L-3.3652629862754035,-24.998459367353128zM25.960772687725903,18.702120084934243L22.776534922687162,-38.426145112774215L19.22671698410318,-37.4840447434358zM2.412790172270704,0.858493799605988L-34.20710560136128,7.585417430042564L-34.10383240534727,9.552191353557612z" style="fill:rgb(83,212,212)"/><path d="M54.06329992116883,7.736758882722054L42.22587396005029,-17.652577856721063L40.96487615206313,-19.95302918795693z" style="fill:rgb(13,70,126)"/><path d="M89.65681201312498,-4.607193467237619L79.31728779343567,-27.90845404361445L90.35591183404108,-2.061836463889411z" style="fill:rgb(246,169,146)"/><path d="M25.960772687725903,18.702120084934243L-3.3652629862754035,-24.998459367353128L-5.956281175264432,-22.54569208190799zM25.960772687725903,18.702120084934243L26.323216540017057,-39.12596254347824L22.776534922687162,-38.426145112774215zM2.412790172270704,0.858493799605988L-34.10383240534727,9.552191353557612L-34.00900596762964,10.21984739183266z" style="fill:rgb(83,212,212)"/><path d="M16.645538058618982,27.967305186090297L3.877354966932784,3.0517818516373683L2.412790172270704,0.858493799605988z" style="fill:rgb(17,63,134)"/><path d="M76.35913654314379,-35.55416267823421L30.647632718700343,-25.002768204304786L33.860357928350545,-24.451437564755818z" style="fill:rgb(83,212,212)"/><path d="M-11.218923168104949,52.2967221725583L-26.735458991191848,25.873139640336518L-13.143813723278388,50.40172769391981z" style="fill:rgb(27,52,150)"/><path d="M25.960772687725903,18.702120084934243L-5.956281175264432,-22.54569208190799L-8.317464073645727,-19.978631483391183zM25.960772687725903,18.702120084934243L29.837982132408506,-39.57700994951699L26.323216540017057,-39.12596254347824zM74.77318434707507,-37.993931542326095L71.87983082614056,-41.4182011400222L69.91663688971374,-43.21376234790387zM75.08086943051309,-37.586892403485955L74.77318434707507,-37.993931542326095L23.54915513308401,-24.576274168409025z" style="fill:rgb(83,212,212)"/><path d="M54.06329992116883,7.736758882722054L42.22587396005029,-17.652577856721063L42.84223674805171,-15.059578160576327z" style="fill:rgb(246,170,145)"/><path d="M27.5905324043501,32.546964836206534L11.572634637714616,7.134703878278651L24.250603011699937,32.138466856626664z" style="fill:rgb(75,32,195)"/><path d="M53.993755791427766,16.051364562850196L40.67966156679112,-6.384024209608536L52.67025221942071,18.980798414867195z" style="fill:rgb(237,120,191)"/><path d="M-16.368122901671033,46.22658525959632L-29.96421702727407,21.730420427108665L-31.247438898954996,19.482285554326594z" style="fill:rgb(16,65,132)"/><path d="M2.412790172270704,0.858493799605988L1.5853534985064268,-1.638135406409758L-34.20710560136128,7.585417430042564zM25.960772687725903,18.702120084934243L-8.317464073645727,-19.978631483391183L-10.42866313960919,-17.31772645431682zM25.960772687725903,18.702120084934243L33.29207458165596,-39.774622574169285L29.837982132408506,-39.57700994951699zM75.61264118358297,-36.765126921859576L75.08086943051309,-37.586892403485955L27.174347287714554,-25.043897095099606zM3.877354966932784,3.0517818516373683L-34.00900596762964,10.21984739183266L-33.73420609514212,12.15400682323987z" style="fill:rgb(83,212,212)"/><path d="M90.35591183404108,-2.061836463889411L79.76875152123783,-25.278526121045353L90.82568515803311,0.5728486575898862z" style="fill:rgb(247,164,152)"/><path d="M77.18543242895049,-33.960208357785056L33.860357928350545,-24.451437564755818L36.71029654346279,-23.403919459955866zM74.77318434707507,-37.993931542326095L73.64974880423,-39.48010435978805L71.87983082614056,-41.4182011400222zM25.960772687725903,18.702120084934243L-10.42866313960919,-17.31772645431682L-12.271438418353773,-14.58432233185941zM25.960772687725903,18.702120084934243L36.656933405922075,-39.71600197127124L33.29207458165596,-39.774622574169285zM3.877354966932784,3.0517818516373683L-33.73420609514212,12.15400682323987L-33.613258072715865,12.664064272948126z" style="fill:rgb(83,212,212)"/><path d="M18.68976180326471,29.806944760816197L5.93686146736849,4.868262995259225L3.877354966932784,3.0517818516373683z" style="fill:rgb(27,52,151)"/><path d="M31.162144299679756,32.42276394441974L14.970006054819986,7.503129018441189L27.5905324043501,32.546964836206534z" style="fill:rgb(95,32,206)"/><path d="M52.67025221942071,18.980798414867195L38.68548700587326,-3.509266126425512L50.74491469105434,21.829189137863644z" style="fill:rgb(227,103,202)"/><path d="M-9.094005982595545,54.0511151359361L-24.79985674785696,27.74828830292298L-11.218923168104949,52.2967221725583z" style="fill:rgb(31,48,156)"/><path d="M76.35913654314379,-35.55416267823421L75.61264118358297,-36.765126921859576L30.647632718700343,-25.002768204304786zM25.960772687725903,18.702120084934243L-12.271438418353773,-14.58432233185941L-13.829217088922055,-11.800531858186597zM25.960772687725903,18.702120084934243L39.90439427334533,-39.40027781066094L36.656933405922075,-39.71600197127124z" style="fill:rgb(83,212,212)"/><path d="M54.69701571723892,10.336428967189685L42.84223674805171,-15.059578160576327L42.7885687378589,-12.256015215069176z" style="fill:rgb(247,154,162)"/><path d="M88.73315341934325,-7.053189945495507L77.7152668807426,-32.88060454272502L78.63119195151381,-30.445798175324512z" style="fill:rgb(245,175,140)"/><path d="M-14.86204051156122,48.37514222268181L-28.458717127461355,23.863984610565243L-29.96421702727407,21.730420427108665z" style="fill:rgb(19,60,138)"/><path d="M3.877354966932784,3.0517818516373683L2.412790172270704,0.858493799605988L-34.00900596762964,10.21984739183266z" style="fill:rgb(83,212,212)"/><path d="M34.84712157015586,31.76748754458371L18.610030747251592,7.335401651037998L31.162144299679756,32.42276394441974z" style="fill:rgb(116,34,214)"/><path d="M50.74491469105434,21.829189137863644L36.14213316198464,-0.8044381537874047L48.278835457566316,24.50098323577429z" style="fill:rgb(214,87,212)"/><path d="M5.93686146736849,4.868262995259225L-33.613258072715865,12.664064272948126L-33.134429256356796,14.683487931926917z" style="fill:rgb(83,212,212)"/><path d="M90.82568515803311,0.5728486575898862L79.98172148845427,-22.566398651167244L91.06228408507096,3.286427024530089z" style="fill:rgb(247,158,158)"/><path d="M78.03779339748444,-32.02330072530342L36.71029654346279,-23.403919459955866L39.10500214283124,-21.889652127882634zM77.18543242895049,-33.960208357785056L76.35913654314379,-35.55416267823421L33.860357928350545,-24.451437564755818zM25.960772687725903,18.702120084934243L-13.829217088922055,-11.800531858186597L-15.08743866602479,-8.989111895497109zM25.960772687725903,18.702120084934243L43.00688229773268,-38.82856611611878L39.90439427334533,-39.40027781066094zM5.93686146736849,4.868262995259225L-33.134429256356796,14.683487931926917L-33.078371416845066,14.848872630604264z" style="fill:rgb(83,212,212)"/><path d="M38.52219845197109,30.601349840249966L22.37207337685124,6.634522531643357L34.84712157015586,31.76748754458371z" style="fill:rgb(138,40,220)"/><path d="M48.278835457566316,24.50098323577429L33.13295630201256,1.6389912886121714L45.35278192648754,26.905903820707216z" style="fill:rgb(197,72,218)"/><path d="M21.25162246060642,31.213821860268517L8.529072476688256,6.2454525724373315L5.93686146736849,4.868262995259225z" style="fill:rgb(40,42,167)"/><path d="M75.61264118358297,-36.765126921859576L75.21754724824453,-37.40610843377083L75.08086943051309,-37.586892403485955z" style="fill:rgb(83,212,212)"/><path d="M-6.776481414974376,55.65616888894344L-22.658513739748862,29.48045077188404L-9.094005982595545,54.0511151359361z" style="fill:rgb(36,45,162)"/><path d="M42.06379482636732,28.96252092165447L26.13018018302236,5.42221001901169L38.52219845197109,30.601349840249966z" style="fill:rgb(159,48,222)"/><path d="M45.35278192648754,26.905903820707216L29.757861401470425,3.7382080820448267L42.06379482636732,28.96252092165447z" style="fill:rgb(179,59,222)"/><path d="M54.6752795208187,13.13807250284807L42.7885687378589,-12.256015215069176L42.06133492707594,-9.332218472281339z" style="fill:rgb(244,137,177)"/><path d="M25.960772687725903,18.702120084934243L-15.08743866602479,-8.989111895497109L-16.033719187590282,-6.173316864679889zM25.960772687725903,18.702120084934243L45.937611638752934,-38.004001721641295L43.00688229773268,-38.82856611611878z" style="fill:rgb(83,212,212)"/><path d="M89.65681201312498,-4.607193467237619L78.63119195151381,-30.445798175324512L79.31728779343567,-27.90845404361445z" style="fill:rgb(246,169,146)"/><path d="M-13.143813723278388,50.40172769391981L-26.735458991191848,25.873139640336518L-28.458717127461355,23.863984610565243z" style="fill:rgb(23,56,144)"/><path d="M5.93686146736849,4.868262995259225L3.877354966932784,3.0517818516373683L-33.613258072715865,12.664064272948126zM8.529072476688256,6.2454525724373315L-33.078371416845066,14.848872630604264L-32.44821737058162,16.707364523333847zM78.03779339748444,-32.02330072530342L77.18543242895049,-33.960208357785056L36.71029654346279,-23.403919459955866z" style="fill:rgb(83,212,212)"/><path d="M91.06228408507096,3.286427024530089L79.95336248115977,-19.783160791299814L91.06286003446938,6.067770043374794z" style="fill:rgb(247,152,164)"/><path d="M78.81085240279734,-29.7813815978603L39.10500214283124,-21.889652127882634L40.96487615206313,-19.95302918795693z" style="fill:rgb(83,212,212)"/><path d="M24.250603011699937,32.138466856626664L11.572634637714616,7.134703878278651L8.529072476688256,6.2454525724373315z" style="fill:rgb(57,36,182)"/><path d="M25.960772687725903,18.702120084934243L-16.033719187590282,-6.173316864679889L-16.657986203586287,-3.376750335264905zM25.960772687725903,18.702120084934243L48.67080333880871,-36.93178118826577L45.937611638752934,-38.004001721641295z" style="fill:rgb(83,212,212)"/><path d="M-4.27493667379261,57.10384941820686L-20.318842338410175,31.060936271878006L-6.776481414974376,55.65616888894344z" style="fill:rgb(41,42,168)"/><path d="M-12.920809036606,12.582427479043897L-14.776285492530448,9.489082227363276L-14.293622342841529,10.393403563990868z" style="fill:rgb(17,64,134)"/><path d="M11.572634637714616,7.134703878278651L-32.44821737058162,16.707364523333847L-32.30501963529463,17.129796094377195zM77.18543242895049,-33.960208357785056L76.57520445054685,-35.20358212561922L76.35913654314379,-35.55416267823421z" style="fill:rgb(83,212,212)"/><path d="M53.993755791427766,16.051364562850196L42.06133492707594,-9.332218472281339L40.67966156679112,-6.384024209608536z" style="fill:rgb(237,120,191)"/><path d="M11.572634637714616,7.134703878278651L-32.30501963529463,17.129796094377195L-31.825313367168178,18.196814833966307z" style="fill:rgb(83,212,212)"/><path d="M90.35591183404108,-2.061836463889411L79.31728779343567,-27.90845404361445L79.76875152123783,-25.278526121045353z" style="fill:rgb(247,164,152)"/><path d="M8.529072476688256,6.2454525724373315L5.93686146736849,4.868262995259225L-33.078371416845066,14.848872630604264z" style="fill:rgb(83,212,212)"/><path d="M-11.218923168104949,52.2967221725583L-24.79985674785696,27.74828830292298L-26.735458991191848,25.873139640336518z" style="fill:rgb(27,52,150)"/><path d="M-12.920809036606,12.582427479043897L-13.403604541604734,11.677521254136973L-14.776285492530448,9.489082227363276z" style="fill:rgb(17,64,134)"/><path d="M25.960772687725903,18.702120084934243L-16.657986203586287,-3.376750335264905L-16.952636516079277,-0.6231974550839183zM25.960772687725903,18.702120084934243L51.18191789662389,-35.61918314242736L48.67080333880871,-36.93178118826577zM78.81085240279734,-29.7813815978603L78.03779339748444,-32.02330072530342L39.10500214283124,-21.889652127882634z" style="fill:rgb(83,212,212)"/><path d="M91.06286003446938,6.067770043374794L79.68193746958985,-16.94024411705594L90.82563785993955,8.905434479307484z" style="fill:rgb(246,146,169)"/><path d="M27.5905324043501,32.546964836206534L14.970006054819986,7.503129018441189L11.572634637714616,7.134703878278651z" style="fill:rgb(75,32,195)"/><path d="M79.42368464103073,-27.288697482567844L40.96487615206313,-19.95302918795693L42.22587396005029,-17.652577856721063z" style="fill:rgb(83,212,212)"/><path d="M52.67025221942071,18.980798414867195L40.67966156679112,-6.384024209608536L38.68548700587326,-3.509266126425512z" style="fill:rgb(227,103,202)"/><path d="M14.970006054819986,7.503129018441189L-31.825313367168178,18.196814833966307L-31.333140104017804,19.291699540074625z" style="fill:rgb(83,212,212)"/><path d="M-1.5988447846703358,58.38670469391553L-17.789458339729205,32.48175160371058L-4.27493667379261,57.10384941820686z" style="fill:rgb(46,40,173)"/><path d="M78.03779339748444,-32.02330072530342L77.7152668807426,-32.88060454272502L77.18543242895049,-33.960208357785056z" style="fill:rgb(83,212,212)"/><path d="M-11.2312773602389,14.592801006434538L-13.403604541604734,11.677521254136973L-12.920809036606,12.582427479043897z" style="fill:rgb(21,57,142)"/><path d="M25.960772687725903,18.702120084934243L-16.952636516079277,-0.6231974550839183L-16.912658063279228,2.063551359824491zM25.960772687725903,18.702120084934243L53.44786389770217,-34.075565276411275L51.18191789662389,-35.61918314242736z" style="fill:rgb(83,212,212)"/><path d="M60.08082851832449,-24.91230564234428L59.66220549439533,-25.850256158902457L60.42321026502027,-23.36339998211662z" style="fill:rgb(245,172,143)"/><path d="M31.162144299679756,32.42276394441974L18.610030747251592,7.335401651037998L14.970006054819986,7.503129018441189z" style="fill:rgb(95,32,206)"/><path d="M18.610030747251592,7.335401651037998L-31.333140104017804,19.291699540074625L-31.247438898954996,19.482285554326594zM11.572634637714616,7.134703878278651L8.529072476688256,6.2454525724373315L-32.44821737058162,16.707364523333847zM18.610030747251592,7.335401651037998L-31.247438898954996,19.482285554326594L-30.979657762220768,19.95145287528832z" style="fill:rgb(83,212,212)"/><path d="M90.82568515803311,0.5728486575898862L79.76875152123783,-25.278526121045353L79.98172148845427,-22.566398651167244z" style="fill:rgb(247,158,158)"/><path d="M60.08082851832449,-24.91230564234428L60.42321026502027,-23.36339998211662L60.842313766611944,-22.425061793290084z" style="fill:rgb(245,172,143)"/><path d="M-9.094005982595545,54.0511151359361L-22.658513739748862,29.48045077188404L-24.79985674785696,27.74828830292298z" style="fill:rgb(31,48,156)"/><path d="M50.74491469105434,21.829189137863644L38.68548700587326,-3.509266126425512L36.14213316198464,-0.8044381537874047z" style="fill:rgb(214,87,212)"/><path d="M90.82563785993955,8.905434479307484L79.16676377324674,-14.04966416482155L90.34986801794672,11.787405751530882z" style="fill:rgb(245,140,174)"/><path d="M-11.2312773602389,14.592801006434538L-11.713912039794476,13.687176493225072L-13.403604541604734,11.677521254136973z" style="fill:rgb(21,57,142)"/><path d="M79.42368464103073,-27.288697482567844L78.81085240279734,-29.7813815978603L40.96487615206313,-19.95302918795693zM22.37207337685124,6.634522531643357L-30.979657762220768,19.95145287528832L-30.853593229987986,20.17224494806253z" style="fill:rgb(83,212,212)"/><path d="M34.84712157015586,31.76748754458371L22.37207337685124,6.634522531643357L18.610030747251592,7.335401651037998z" style="fill:rgb(116,34,214)"/><path d="M79.82092987096627,-24.61404322484573L42.22587396005029,-17.652577856721063L42.84223674805171,-15.059578160576327zM25.960772687725903,18.702120084934243L-16.912658063279228,2.063551359824491L-16.535762187083712,4.659892125131905zM25.960772687725903,18.702120084934243L55.44724496096138,-32.312371513046266L53.44786389770217,-34.075565276411275z" style="fill:rgb(83,212,212)"/><path d="M1.2412637848132033,59.49784596063286L-15.079890761198255,33.735515998734435L-1.5988447846703358,58.38670469391553z" style="fill:rgb(52,37,178)"/><path d="M48.278835457566316,24.50098323577429L36.14213316198464,-0.8044381537874047L33.13295630201256,1.6389912886121714z" style="fill:rgb(197,72,218)"/><path d="M78.81085240279734,-29.7813815978603L78.63119195151381,-30.445798175324512L78.03779339748444,-32.02330072530342zM14.970006054819986,7.503129018441189L11.572634637714616,7.134703878278651L-31.825313367168178,18.196814833966307z" style="fill:rgb(83,212,212)"/><path d="M38.52219845197109,30.601349840249966L26.13018018302236,5.42221001901169L22.37207337685124,6.634522531643357z" style="fill:rgb(138,40,220)"/><path d="M-9.237536954595628,16.405058909947776L-11.713912039794476,13.687176493225072L-11.2312773602389,14.592801006434538z" style="fill:rgb(27,51,151)"/><path d="M60.42321026502027,-23.36339998211662L61.26388402191195,-19.805115672680692L60.842313766611944,-22.425061793290084z" style="fill:rgb(247,164,151)"/><path d="M45.35278192648754,26.905903820707216L33.13295630201256,1.6389912886121714L29.757861401470425,3.7382080820448267z" style="fill:rgb(179,59,222)"/><path d="M42.06379482636732,28.96252092165447L29.757861401470425,3.7382080820448267L26.13018018302236,5.42221001901169z" style="fill:rgb(159,48,222)"/><path d="M90.34986801794672,11.787405751530882L78.40828287186856,-11.123759116014357L89.63589796301136,14.701374637250685z" style="fill:rgb(243,134,180)"/><path d="M91.06228408507096,3.286427024530089L79.98172148845427,-22.566398651167244L79.95336248115977,-19.783160791299814z" style="fill:rgb(247,152,164)"/><path d="M-6.776481414974376,55.65616888894344L-20.318842338410175,31.060936271878006L-22.658513739748862,29.48045077188404z" style="fill:rgb(36,45,162)"/><path d="M25.960772687725903,18.702120084934243L-16.535762187083712,4.659892125131905L-15.822485569511404,7.142608142323686zM25.960772687725903,18.702120084934243L57.16057934283584,-30.343099363916167L55.44724496096138,-32.312371513046266z" style="fill:rgb(83,212,212)"/><path d="M-9.237536954595628,16.405058909947776L-9.71971457883158,15.498586447723952L-11.713912039794476,13.687176493225072z" style="fill:rgb(27,51,151)"/><path d="M79.82092987096627,-24.61404322484573L79.42368464103073,-27.288697482567844L42.22587396005029,-17.652577856721063z" style="fill:rgb(83,212,212)"/><path d="M60.42321026502027,-23.36339998211662L60.84401469378661,-20.74367445702292L61.26388402191195,-19.805115672680692z" style="fill:rgb(247,164,151)"/><path d="M18.610030747251592,7.335401651037998L14.970006054819986,7.503129018441189L-31.333140104017804,19.291699540074625z" style="fill:rgb(83,212,212)"/><path d="M4.234144797279265,60.431201280976154L-12.200761657875649,34.81540822353237L1.2412637848132033,59.49784596063286z" style="fill:rgb(58,35,183)"/><path d="M79.97428662756498,-21.838604591086362L42.84223674805171,-15.059578160576327L42.7885687378589,-12.256015215069176zM79.42368464103073,-27.288697482567844L79.31728779343567,-27.90845404361445L78.81085240279734,-29.7813815978603z" style="fill:rgb(83,212,212)"/><path d="M-6.955111840888785,18.00124015596011L-9.71971457883158,15.498586447723952L-9.237536954595628,16.405058909947776z" style="fill:rgb(34,46,160)"/><path d="M22.37207337685124,6.634522531643357L18.610030747251592,7.335401651037998L-30.979657762220768,19.95145287528832zM25.960772687725903,18.702120084934243L-15.822485569511404,7.142608142323686L-14.776285492530448,9.489082227363276zM25.960772687725903,18.702120084934243L58.570544947376,-28.183249797551113L57.16057934283584,-30.343099363916167z" style="fill:rgb(83,212,212)"/><path d="M61.26388402191195,-19.805115672680692L60.84401469378661,-20.74367445702292L60.91807158613574,-18.013644698618048z" style="fill:rgb(247,156,160)"/><path d="M89.63589796301136,14.701374637250685L77.408098349865,-8.175171378426976L88.6852079615388,17.6347419917542z" style="fill:rgb(241,128,185)"/><path d="M91.06286003446938,6.067770043374794L79.95336248115977,-19.783160791299814L79.68193746958985,-16.94024411705594z" style="fill:rgb(246,146,169)"/><path d="M-4.27493667379261,57.10384941820686L-17.789458339729205,32.48175160371058L-20.318842338410175,31.060936271878006z" style="fill:rgb(41,42,168)"/><path d="M61.26388402191195,-19.805115672680692L60.91807158613574,-18.013644698618048L61.33897417060934,-17.07503614731424z" style="fill:rgb(247,156,160)"/><path d="M-6.955111840888785,18.00124015596011L-7.4365361327363635,17.09379487290182L-9.71971457883158,15.498586447723952z" style="fill:rgb(34,46,160)"/><path d="M7.367419896009702,61.18144925854473L-9.163439883350827,35.71543598817292L4.234144797279265,60.431201280976154z" style="fill:rgb(65,34,188)"/><path d="M79.97428662756498,-21.838604591086362L79.82092987096627,-24.61404322484573L42.84223674805171,-15.059578160576327zM79.88373122779129,-19.053562903057173L42.7885687378589,-12.256015215069176L42.06133492707594,-9.332218472281339zM25.960772687725903,18.702120084934243L-14.776285492530448,9.489082227363276L-13.403604541604734,11.677521254136973zM25.960772687725903,18.702120084934243L59.66220549439533,-25.850256158902457L58.570544947376,-28.183249797551113zM79.82092987096627,-24.61404322484573L79.76875152123783,-25.278526121045353L79.42368464103073,-27.288697482567844z" style="fill:rgb(83,212,212)"/><path d="M88.6852079615388,17.6347419917542L76.16909550227935,-5.216988241100311L87.5005256714365,20.57448962271876z" style="fill:rgb(238,122,189)"/><path d="M-4.402476468312085,19.365124972535288L-7.4365361327363635,17.09379487290182L-6.955111840888785,18.00124015596011z" style="fill:rgb(41,42,168)"/><path d="M60.91807158613574,-18.013644698618048L61.064181216852035,-14.258785507608867L61.33897417060934,-17.07503614731424z" style="fill:rgb(246,147,168)"/><path d="M90.82563785993955,8.905434479307484L79.68193746958985,-16.94024411705594L79.16676377324674,-14.04966416482155z" style="fill:rgb(245,140,174)"/><path d="M-1.5988447846703358,58.38670469391553L-15.079890761198255,33.735515998734435L-17.789458339729205,32.48175160371058z" style="fill:rgb(46,40,173)"/><path d="M10.628036683671105,61.74401533395171L-5.980464496743492,36.430374965876375L7.367419896009702,61.18144925854473z" style="fill:rgb(72,33,193)"/><path d="M-4.402476468312085,19.365124972535288L-4.882854581617025,18.45658791372686L-7.4365361327363635,17.09379487290182z" style="fill:rgb(41,42,168)"/><path d="M60.91807158613574,-18.013644698618048L60.64196158127784,-15.197271173501507L61.064181216852035,-14.258785507608867z" style="fill:rgb(246,147,168)"/><path d="M25.960772687725903,18.702120084934243L-13.403604541604734,11.677521254136973L-11.713912039794476,13.687176493225072zM25.960772687725903,18.702120084934243L60.42321026502027,-23.36339998211662L59.66220549439533,-25.850256158902457zM79.88373122779129,-19.053562903057173L79.97428662756498,-21.838604591086362L42.7885687378589,-12.256015215069176zM79.57802623537985,-16.357242816092498L42.06133492707594,-9.332218472281339L40.67966156679112,-6.384024209608536z" style="fill:rgb(83,212,212)"/><path d="M87.5005256714365,20.57448962271876L74.6951949299106,-2.2623623314296695L86.08558822397431,23.507550944882038z" style="fill:rgb(235,116,194)"/><path d="M79.97428662756498,-21.838604591086362L79.98172148845427,-22.566398651167244L79.82092987096627,-24.61404322484573z" style="fill:rgb(83,212,212)"/><path d="M-1.6009593409664702,20.48245557657385L-4.882854581617025,18.45658791372686L-4.402476468312085,19.365124972535288z" style="fill:rgb(50,38,176)"/><path d="M14.00211517006214,62.115237707146505L-2.665080198226129,36.95576391491451L10.628036683671105,61.74401533395171z" style="fill:rgb(79,32,197)"/><path d="M61.064181216852035,-14.258785507608867L60.64196158127784,-15.197271173501507L60.01555666575081,-12.319700727643832z" style="fill:rgb(244,138,176)"/><path d="M90.34986801794672,11.787405751530882L79.16676377324674,-14.04966416482155L78.40828287186856,-11.123759116014357z" style="fill:rgb(243,134,180)"/><path d="M25.960772687725903,18.702120084934243L-11.713912039794476,13.687176493225072L-9.71971457883158,15.498586447723952zM25.960772687725903,18.702120084934243L60.84401469378661,-20.74367445702292L60.42321026502027,-23.36339998211662z" style="fill:rgb(83,212,212)"/><path d="M1.2412637848132033,59.49784596063286L-12.200761657875649,34.81540822353237L-15.079890761198255,33.735515998734435z" style="fill:rgb(52,37,178)"/><path d="M61.064181216852035,-14.258785507608867L60.01555666575081,-12.319700727643832L60.43934826551651,-11.381510434592494z" style="fill:rgb(244,138,176)"/><path d="M79.11548569536951,-13.851791452153808L40.67966156679112,-6.384024209608536L38.68548700587326,-3.509266126425512z" style="fill:rgb(83,212,212)"/><path d="M-1.6009593409664702,20.48245557657385L-2.0800039720736394,19.572714856091714L-4.882854581617025,18.45658791372686z" style="fill:rgb(50,38,176)"/><path d="M26.794857378186492,34.109191549148065L-30.853593229987986,20.17224494806253L-29.96421702727407,21.730420427108665zM79.57802623537985,-16.357242816092498L79.88373122779129,-19.053562903057173L42.06133492707594,-9.332218472281339z" style="fill:rgb(83,212,212)"/><path d="M86.08558822397431,23.507550944882038L72.99166734379281,0.6753868159006088L84.44544886608784,26.420718263916257z" style="fill:rgb(231,110,198)"/><path d="M17.47511609617394,62.292381336825336L0.7686065852180236,37.288059731460656L14.00211517006214,62.115237707146505z" style="fill:rgb(86,32,201)"/><path d="M25.960772687725903,18.702120084934243L-9.71971457883158,15.498586447723952L-7.4365361327363635,17.09379487290182zM25.960772687725903,18.702120084934243L60.91807158613574,-18.013644698618048L60.84401469378661,-20.74367445702292z" style="fill:rgb(83,212,212)"/><path d="M1.425400343395036,21.34113412410106L-2.0800039720736394,19.572714856091714L-1.6009593409664702,20.48245557657385z" style="fill:rgb(58,35,183)"/><path d="M60.01555666575081,-12.319700727643832L59.4677215866275,-8.469317181129565L60.43934826551651,-11.381510434592494z" style="fill:rgb(241,129,183)"/><path d="M79.88373122779129,-19.053562903057173L79.95336248115977,-19.783160791299814L79.97428662756498,-21.838604591086362zM78.53919145086665,-11.62883077047159L38.68548700587326,-3.509266126425512L36.14213316198464,-0.8044381537874047zM26.794857378186492,34.109191549148065L-29.96421702727407,21.730420427108665L-28.458717127461355,23.863984610565243z" style="fill:rgb(83,212,212)"/><path d="M89.63589796301136,14.701374637250685L78.40828287186856,-11.123759116014357L77.408098349865,-8.175171378426976z" style="fill:rgb(241,128,185)"/><path d="M4.234144797279265,60.431201280976154L-9.163439883350827,35.71543598817292L-12.200761657875649,34.81540822353237z" style="fill:rgb(58,35,183)"/><path d="M84.44544886608784,26.420718263916257L71.06485168347879,3.582799076922907L82.58619486018202,29.300652281704163z" style="fill:rgb(227,104,202)"/><path d="M1.425400343395036,21.34113412410106L0.947966134881425,20.430086115500654L-2.0800039720736394,19.572714856091714z" style="fill:rgb(58,35,183)"/><path d="M60.01555666575081,-12.319700727643832L59.04209245107013,-9.407041822207736L59.4677215866275,-8.469317181129565z" style="fill:rgb(241,129,183)"/><path d="M79.11548569536951,-13.851791452153808L79.57802623537985,-16.357242816092498L40.67966156679112,-6.384024209608536zM77.95448330055999,-9.785988771488679L36.14213316198464,-0.8044381537874047L33.13295630201256,1.6389912886121714z" style="fill:rgb(83,212,212)"/><path d="M21.0317434937567,62.27360034397283L4.305795583989835,37.424663819666605L17.47511609617394,62.292381336825336z" style="fill:rgb(93,32,205)"/><path d="M25.960772687725903,18.702120084934243L-7.4365361327363635,17.09379487290182L-4.882854581617025,18.45658791372686zM25.960772687725903,18.702120084934243L60.64196158127784,-15.197271173501507L60.91807158613574,-18.013644698618048zM77.48911573389734,-8.41395193372218L33.13295630201256,1.6389912886121714L29.757861401470425,3.7382080820448267zM26.794857378186492,34.109191549148065L-28.458717127461355,23.863984610565243L-26.735458991191848,25.873139640336518zM77.02766210174761,-7.266895164508165L26.13018018302236,5.42221001901169L22.37207337685124,6.634522531643357zM77.1494191438463,-7.557530015064263L29.757861401470425,3.7382080820448267L26.13018018302236,5.42221001901169z" style="fill:rgb(83,212,212)"/><path d="M82.58619486018202,29.300652281704163L68.92244478531504,6.446514747206916L80.51525486856654,32.13414671888441z" style="fill:rgb(223,98,206)"/><path d="M4.174475680847713,21.01897351401796L0.947966134881425,20.430086115500654L1.425400343395036,21.34113412410106z" style="fill:rgb(68,33,190)"/><path d="M59.4677215866275,-8.469317181129565L59.04209245107013,-9.407041822207736L57.728253745010846,-6.486108779005345z" style="fill:rgb(237,120,190)"/><path d="M79.57802623537985,-16.357242816092498L79.68193746958985,-16.94024411705594L79.88373122779129,-19.053562903057173z" style="fill:rgb(83,212,212)"/><path d="M88.6852079615388,17.6347419917542L77.408098349865,-8.175171378426976L76.16909550227935,-5.216988241100311z" style="fill:rgb(238,122,189)"/><path d="M7.367419896009702,61.18144925854473L-5.980464496743492,36.430374965876375L-9.163439883350827,35.71543598817292z" style="fill:rgb(65,34,188)"/><path d="M4.174475680847713,21.01897351401796L1.425400343395036,21.34113412410106L4.6500352301070045,21.931422968904283z" style="fill:rgb(68,33,190)"/><path d="M59.4677215866275,-8.469317181129565L57.728253745010846,-6.486108779005345L58.155951066602235,-5.549015816385468z" style="fill:rgb(237,120,190)"/><path d="M78.53919145086665,-11.62883077047159L79.11548569536951,-13.851791452153808L38.68548700587326,-3.509266126425512z" style="fill:rgb(83,212,212)"/><path d="M24.65622839296455,62.05801870394146L7.930899585358947,37.36386809355842L21.0317434937567,62.27360034397283z" style="fill:rgb(100,32,208)"/><path d="M25.960772687725903,18.702120084934243L-4.882854581617025,18.45658791372686L-2.0800039720736394,19.572714856091714zM25.960772687725903,18.702120084934243L60.01555666575081,-12.319700727643832L60.64196158127784,-15.197271173501507zM26.794857378186492,34.109191549148065L-26.735458991191848,25.873139640336518L-24.79985674785696,27.74828830292298z" style="fill:rgb(83,212,212)"/><path d="M80.51525486856654,32.13414671888441L66.57306767079932,9.25317265626054L78.2409457874424,34.90800095190157z" style="fill:rgb(218,92,209)"/><path d="M8.044076712598256,22.246103785359658L4.174475680847713,21.01897351401796L4.6500352301070045,21.931422968904283z" style="fill:rgb(78,32,197)"/><path d="M57.728253745010846,-6.486108779005345L56.514148254279355,-2.6478418491573197L58.155951066602235,-5.549015816385468z" style="fill:rgb(233,112,197)"/><path d="M28.33220216672783,61.6457504139505L11.627829095171238,37.10496974238602L24.65622839296455,62.05801870394146z" style="fill:rgb(108,33,211)"/><path d="M77.95448330055999,-9.785988771488679L78.53919145086665,-11.62883077047159L36.14213316198464,-0.8044381537874047z" style="fill:rgb(83,212,212)"/><path d="M87.5005256714365,20.57448962271876L76.16909550227935,-5.216988241100311L74.6951949299106,-2.2623623314296695z" style="fill:rgb(235,116,194)"/><path d="M25.960772687725903,18.702120084934243L-2.0800039720736394,19.572714856091714L0.947966134881425,20.430086115500654zM25.960772687725903,18.702120084934243L59.04209245107013,-9.407041822207736L60.01555666575081,-12.319700727643832z" style="fill:rgb(83,212,212)"/><path d="M10.628036683671105,61.74401533395171L-2.665080198226129,36.95576391491451L-5.980464496743492,36.430374965876375z" style="fill:rgb(72,33,193)"/><path d="M79.11548569536951,-13.851791452153808L79.16676377324674,-14.04966416482155L79.57802623537985,-16.357242816092498z" style="fill:rgb(83,212,212)"/><path d="M8.044076712598256,22.246103785359658L7.570638741961857,21.332169400848247L4.174475680847713,21.01897351401796z" style="fill:rgb(78,32,197)"/><path d="M57.728253745010846,-6.486108779005345L56.08414729298862,-3.584143370186971L56.514148254279355,-2.6478418491573197z" style="fill:rgb(233,112,197)"/><path d="M78.2409457874424,34.90800095190157L64.02667145065112,11.989632826684494L75.77287197290362,37.609251444307894z" style="fill:rgb(213,86,212)"/><path d="M77.48911573389734,-8.41395193372218L77.95448330055999,-9.785988771488679L33.13295630201256,1.6389912886121714zM26.794857378186492,34.109191549148065L-24.79985674785696,27.74828830292298L-22.658513739748862,29.48045077188404z" style="fill:rgb(83,212,212)"/><path d="M32.04307873233927,61.03789148013958L15.379860859630018,36.648251489919076L28.33220216672783,61.6457504139505z" style="fill:rgb(115,34,214)"/><path d="M25.960772687725903,18.702120084934243L0.947966134881425,20.430086115500654L4.174475680847713,21.01897351401796zM25.960772687725903,18.702120084934243L57.728253745010846,-6.486108779005345L59.04209245107013,-9.407041822207736zM77.1494191438463,-7.557530015064263L77.48911573389734,-8.41395193372218L29.757861401470425,3.7382080820448267z" style="fill:rgb(83,212,212)"/><path d="M11.105533366604828,21.365132874204228L7.570638741961857,21.332169400848247L8.044076712598256,22.246103785359658z" style="fill:rgb(88,32,202)"/><path d="M56.514148254279355,-2.6478418491573197L56.08414729298862,-3.584143370186971L54.12332188485403,-0.7285235216269814z" style="fill:rgb(227,103,203)"/><path d="M75.77287197290362,37.609251444307894L61.294191626614314,14.643050675511526L73.12161623012163,40.22525138001418z" style="fill:rgb(208,81,214)"/><path d="M77.02766210174761,-7.266895164508165L77.1494191438463,-7.557530015064263L26.13018018302236,5.42221001901169z" style="fill:rgb(83,212,212)"/><path d="M11.105533366604828,21.365132874204228L8.044076712598256,22.246103785359658L11.576620801357468,22.280623809776404z" style="fill:rgb(88,32,202)"/><path d="M56.514148254279355,-2.6478418491573197L54.12332188485403,-0.7285235216269814L54.55582641172513,0.20683492239859796z" style="fill:rgb(227,103,203)"/><path d="M86.08558822397431,23.507550944882038L74.6951949299106,-2.2623623314296695L72.99166734379281,0.6753868159006088z" style="fill:rgb(231,110,198)"/><path d="M14.00211517006214,62.115237707146505L0.7686065852180236,37.288059731460656L-2.665080198226129,36.95576391491451z" style="fill:rgb(79,32,197)"/><path d="M35.77179341898397,60.23657450214061L19.17004078942123,35.99499585032777L32.04307873233927,61.03789148013958z" style="fill:rgb(123,36,216)"/><path d="M26.794857378186492,34.109191549148065L77.02766210174761,-7.266895164508165L-30.853593229987986,20.17224494806253zM26.794857378186492,34.109191549148065L-22.658513739748862,29.48045077188404L-20.318842338410175,31.060936271878006z" style="fill:rgb(83,212,212)"/><path d="M73.12161623012163,40.22525138001418L58.38770544140611,17.200752316310048L70.29886830995919,42.743534470926264z" style="fill:rgb(202,76,217)"/><path d="M25.960772687725903,18.702120084934243L4.174475680847713,21.01897351401796L7.570638741961857,21.332169400848247zM25.960772687725903,18.702120084934243L56.08414729298862,-3.584143370186971L57.728253745010846,-6.486108779005345z" style="fill:rgb(83,212,212)"/><path d="M15.215036286137282,22.033198341447722L11.105533366604828,21.365132874204228L11.576620801357468,22.280623809776404z" style="fill:rgb(99,32,208)"/><path d="M54.12332188485403,-0.7285235216269814L52.29783909425757,2.9878185956124517L54.55582641172513,0.20683492239859796z" style="fill:rgb(220,94,208)"/><path d="M39.50119223517583,59.24493302362744L22.98089640011066,35.14753073513489L35.77179341898397,60.23657450214061z" style="fill:rgb(131,38,218)"/><path d="M77.95448330055999,-9.785988771488679L78.40828287186856,-11.123759116014357L78.53919145086665,-11.62883077047159z" style="fill:rgb(83,212,212)"/><path d="M70.29886830995919,42.743534470926264L55.32005763125608,19.65069685257149L67.3170704374372,45.152274010959665z" style="fill:rgb(196,71,219)"/><path d="M15.215036286137282,22.033198341447722L14.746505916189683,21.11609222673004L11.105533366604828,21.365132874204228z" style="fill:rgb(99,32,208)"/><path d="M84.44544886608784,26.420718263916257L72.99166734379281,0.6753868159006088L71.06485168347879,3.582799076922907z" style="fill:rgb(227,104,202)"/><path d="M54.12332188485403,-0.7285235216269814L51.86264797877774,2.053544823069233L52.29783909425757,2.9878185956124517z" style="fill:rgb(220,94,208)"/><path d="M43.214029186088815,58.06706097164982L26.794857378186492,34.109191549148065L39.50119223517583,59.24493302362744z" style="fill:rgb(139,40,220)"/><path d="M17.47511609617394,62.292381336825336L4.305795583989835,37.424663819666605L0.7686065852180236,37.288059731460656z" style="fill:rgb(86,32,201)"/><path d="M25.960772687725903,18.702120084934243L7.570638741961857,21.332169400848247L11.105533366604828,21.365132874204228zM25.960772687725903,18.702120084934243L54.12332188485403,-0.7285235216269814L56.08414729298862,-3.584143370186971z" style="fill:rgb(83,212,212)"/><path d="M67.3170704374372,45.152274010959665L52.10525342975237,21.981190341161593L64.18979479975361,47.440001426964336z" style="fill:rgb(189,66,220)"/><path d="M26.794857378186492,34.109191549148065L-20.318842338410175,31.060936271878006L-17.789458339729205,32.48175160371058z" style="fill:rgb(83,212,212)"/><path d="M46.8929506633841,56.708098460482596L30.59423883227467,32.88429894921344L43.214029186088815,58.06706097164982z" style="fill:rgb(146,43,221)"/><path d="M64.18979479975361,47.440001426964336L48.757937519575194,24.181135535765844L60.93126277403683,49.595856458229235z" style="fill:rgb(182,61,221)"/><path d="M18.45951292739961,20.586125610741192L14.746505916189683,21.11609222673004L15.215036286137282,22.033198341447722z" style="fill:rgb(110,33,212)"/><path d="M52.29783909425757,2.9878185956124517L51.86264797877774,2.053544823069233L49.32220055526301,4.735343747417717z" style="fill:rgb(213,86,212)"/><path d="M18.45951292739961,20.586125610741192L15.215036286137282,22.033198341447722L18.925306193522143,21.504891489693467z" style="fill:rgb(110,33,212)"/><path d="M50.520919222502066,55.17405503032866L34.361243120883714,31.478208748311193L46.8929506633841,56.708098460482596z" style="fill:rgb(154,46,222)"/><path d="M52.29783909425757,2.9878185956124517L49.32220055526301,4.735343747417717L49.76023644780828,5.668403253986389z" style="fill:rgb(213,86,212)"/><path d="M60.93126277403683,49.595856458229235L45.29355974157859,26.240102585099564L57.55645413416583,51.60964827085637z" style="fill:rgb(175,57,222)"/><path d="M54.08093911812622,53.47196144823051L38.0783665748995,29.897171091917315L50.520919222502066,55.17405503032866z" style="fill:rgb(161,49,222)"/><path d="M25.960772687725903,18.702120084934243L11.105533366604828,21.365132874204228L14.746505916189683,21.11609222673004z" style="fill:rgb(83,212,212)"/><path d="M57.55645413416583,51.60964827085637L41.72814506755826,28.14844392970075L54.08093911812622,53.47196144823051z" style="fill:rgb(168,53,222)"/><path d="M25.960772687725903,18.702120084934243L51.86264797877774,2.053544823069233L54.12332188485403,-0.7285235216269814zM77.1494191438463,-7.557530015064263L77.408098349865,-8.175171378426976L77.48911573389734,-8.41395193372218z" style="fill:rgb(83,212,212)"/><path d="M82.58619486018202,29.300652281704163L71.06485168347879,3.582799076922907L68.92244478531504,6.446514747206916z" style="fill:rgb(223,98,206)"/><path d="M21.0317434937567,62.27360034397283L7.930899585358947,37.36386809355842L4.305795583989835,37.424663819666605z" style="fill:rgb(93,32,205)"/><path d="M22.672398436419048,20.69964549036129L18.45951292739961,20.586125610741192L18.925306193522143,21.504891489693467z" style="fill:rgb(121,36,216)"/><path d="M49.32220055526301,4.735343747417717L46.96609968486573,8.222690250467558L49.76023644780828,5.668403253986389z" style="fill:rgb(204,78,216)"/><path d="M26.794857378186492,34.109191549148065L-17.789458339729205,32.48175160371058L-15.079890761198255,33.735515998734435zM25.960772687725903,18.702120084934243L14.746505916189683,21.11609222673004L18.45951292739961,20.586125610741192zM25.960772687725903,18.702120084934243L49.32220055526301,4.735343747417717L51.86264797877774,2.053544823069233z" style="fill:rgb(83,212,212)"/><path d="M22.672398436419048,20.69964549036129L22.209494103250528,19.779190265429577L18.45951292739961,20.586125610741192z" style="fill:rgb(121,36,216)"/><path d="M49.32220055526301,4.735343747417717L46.525088000936144,7.290961878013847L46.96609968486573,8.222690250467558z" style="fill:rgb(204,78,216)"/><path d="M25.960772687725903,18.702120084934243L18.45951292739961,20.586125610741192L22.209494103250528,19.779190265429577z" style="fill:rgb(83,212,212)"/><path d="M25.960772687725903,18.702120084934243L22.672398436419048,20.69964549036129L26.420661784493472,19.62427844697757z" style="fill:rgb(133,38,219)"/><path d="M25.960772687725903,18.702120084934243L46.525088000936144,7.290961878013847L49.32220055526301,4.735343747417717z" style="fill:rgb(83,212,212)"/><path d="M46.96609968486573,8.222690250467558L43.49720995879632,9.695609177012384L43.94129656954763,10.625904164296728z" style="fill:rgb(196,71,219)"/><path d="M25.960772687725903,18.702120084934243L22.209494103250528,19.779190265429577L22.672398436419048,20.69964549036129z" style="fill:rgb(133,38,219)"/><path d="M46.96609968486573,8.222690250467558L46.525088000936144,7.290961878013847L43.49720995879632,9.695609177012384z" style="fill:rgb(196,71,219)"/><path d="M80.51525486856654,32.13414671888441L68.92244478531504,6.446514747206916L66.57306767079932,9.25317265626054z" style="fill:rgb(218,92,209)"/><path d="M24.65622839296455,62.05801870394146L11.627829095171238,37.10496974238602L7.930899585358947,37.36386809355842z" style="fill:rgb(100,32,208)"/><path d="M30.134246520865645,18.28843510145007L25.960772687725903,18.702120084934243L26.420661784493472,19.62427844697757z" style="fill:rgb(144,42,221)"/><path d="M43.49720995879632,9.695609177012384L40.71422670094496,12.854698083942077L43.94129656954763,10.625904164296728z" style="fill:rgb(186,64,221)"/><path d="M25.960772687725903,18.702120084934243L43.49720995879632,9.695609177012384L46.525088000936144,7.290961878013847zM26.794857378186492,34.109191549148065L-15.079890761198255,33.735515998734435L-12.200761657875649,34.81540822353237z" style="fill:rgb(83,212,212)"/><path d="M40.26699148339954,11.925923258705078L37.31548237396325,14.887443358261866L40.71422670094496,12.854698083942077z" style="fill:rgb(176,57,222)"/><path d="M30.134246520865645,18.28843510145007L29.677461054583333,17.36457624539174L25.960772687725903,18.702120084934243z" style="fill:rgb(144,42,221)"/><path d="M43.49720995879632,9.695609177012384L40.26699148339954,11.925923258705078L40.71422670094496,12.854698083942077z" style="fill:rgb(186,64,221)"/><path d="M33.32389740617297,15.778954770037556L30.134246520865645,18.28843510145007L33.77751372506686,16.70449459326844z" style="fill:rgb(155,46,222)"/><path d="M25.960772687725903,18.702120084934243L40.26699148339954,11.925923258705078L43.49720995879632,9.695609177012384z" style="fill:rgb(83,212,212)"/><path d="M37.31548237396325,14.887443358261866L33.32389740617297,15.778954770037556L33.77751372506686,16.70449459326844z" style="fill:rgb(166,52,222)"/><path d="M33.32389740617297,15.778954770037556L29.677461054583333,17.36457624539174L30.134246520865645,18.28843510145007z" style="fill:rgb(155,46,222)"/><path d="M40.26699148339954,11.925923258705078L36.86505693176509,13.9602591878222L37.31548237396325,14.887443358261866z" style="fill:rgb(176,57,222)"/><path d="M25.960772687725903,18.702120084934243L29.677461054583333,17.36457624539174L33.32389740617297,15.778954770037556zM25.960772687725903,18.702120084934243L36.86505693176509,13.9602591878222L40.26699148339954,11.925923258705078z" style="fill:rgb(83,212,212)"/><path d="M37.31548237396325,14.887443358261866L36.86505693176509,13.9602591878222L33.32389740617297,15.778954770037556z" style="fill:rgb(166,52,222)"/><path d="M25.960772687725903,18.702120084934243L33.32389740617297,15.778954770037556L36.86505693176509,13.9602591878222z" style="fill:rgb(83,212,212)"/><path d="M78.2409457874424,34.90800095190157L66.57306767079932,9.25317265626054L64.02667145065112,11.989632826684494z" style="fill:rgb(213,86,212)"/><path d="M28.33220216672783,61.6457504139505L15.379860859630018,36.648251489919076L11.627829095171238,37.10496974238602z" style="fill:rgb(108,33,211)"/><path d="M26.794857378186492,34.109191549148065L-12.200761657875649,34.81540822353237L-9.163439883350827,35.71543598817292z" style="fill:rgb(83,212,212)"/><path d="M75.77287197290362,37.609251444307894L64.02667145065112,11.989632826684494L61.294191626614314,14.643050675511526z" style="fill:rgb(208,81,214)"/><path d="M32.04307873233927,61.03789148013958L19.17004078942123,35.99499585032777L15.379860859630018,36.648251489919076z" style="fill:rgb(115,34,214)"/><path d="M26.794857378186492,34.109191549148065L-9.163439883350827,35.71543598817292L-5.980464496743492,36.430374965876375z" style="fill:rgb(83,212,212)"/><path d="M73.12161623012163,40.22525138001418L61.294191626614314,14.643050675511526L58.38770544140611,17.200752316310048z" style="fill:rgb(202,76,217)"/><path d="M35.77179341898397,60.23657450214061L22.98089640011066,35.14753073513489L19.17004078942123,35.99499585032777z" style="fill:rgb(123,36,216)"/><path d="M26.794857378186492,34.109191549148065L76.16909550227935,-5.216988241100311L77.02766210174761,-7.266895164508165z" style="fill:rgb(83,212,212)"/><path d="M70.29886830995919,42.743534470926264L58.38770544140611,17.200752316310048L55.32005763125608,19.65069685257149z" style="fill:rgb(196,71,219)"/><path d="M39.50119223517583,59.24493302362744L26.794857378186492,34.109191549148065L22.98089640011066,35.14753073513489z" style="fill:rgb(131,38,218)"/><path d="M26.794857378186492,34.109191549148065L-5.980464496743492,36.430374965876375L-2.665080198226129,36.95576391491451z" style="fill:rgb(83,212,212)"/><path d="M67.3170704374372,45.152274010959665L55.32005763125608,19.65069685257149L52.10525342975237,21.981190341161593z" style="fill:rgb(189,66,220)"/><path d="M43.214029186088815,58.06706097164982L30.59423883227467,32.88429894921344L26.794857378186492,34.109191549148065z" style="fill:rgb(139,40,220)"/><path d="M26.794857378186492,34.109191549148065L74.6951949299106,-2.2623623314296695L76.16909550227935,-5.216988241100311z" style="fill:rgb(83,212,212)"/><path d="M64.18979479975361,47.440001426964336L52.10525342975237,21.981190341161593L48.757937519575194,24.181135535765844z" style="fill:rgb(182,61,221)"/><path d="M46.8929506633841,56.708098460482596L34.361243120883714,31.478208748311193L30.59423883227467,32.88429894921344z" style="fill:rgb(146,43,221)"/><path d="M60.93126277403683,49.595856458229235L48.757937519575194,24.181135535765844L45.29355974157859,26.240102585099564z" style="fill:rgb(175,57,222)"/><path d="M50.520919222502066,55.17405503032866L38.0783665748995,29.897171091917315L34.361243120883714,31.478208748311193z" style="fill:rgb(154,46,222)"/><path d="M26.794857378186492,34.109191549148065L-2.665080198226129,36.95576391491451L0.7686065852180236,37.288059731460656z" style="fill:rgb(83,212,212)"/><path d="M57.55645413416583,51.60964827085637L45.29355974157859,26.240102585099564L41.72814506755826,28.14844392970075z" style="fill:rgb(168,53,222)"/><path d="M54.08093911812622,53.47196144823051L41.72814506755826,28.14844392970075L38.0783665748995,29.897171091917315z" style="fill:rgb(161,49,222)"/><path d="M26.794857378186492,34.109191549148065L72.99166734379281,0.6753868159006088L74.6951949299106,-2.2623623314296695zM26.794857378186492,34.109191549148065L0.7686065852180236,37.288059731460656L4.305795583989835,37.424663819666605zM26.794857378186492,34.109191549148065L71.06485168347879,3.582799076922907L72.99166734379281,0.6753868159006088zM26.794857378186492,34.109191549148065L4.305795583989835,37.424663819666605L7.930899585358947,37.36386809355842zM26.794857378186492,34.109191549148065L68.92244478531504,6.446514747206916L71.06485168347879,3.582799076922907zM26.794857378186492,34.109191549148065L7.930899585358947,37.36386809355842L11.627829095171238,37.10496974238602zM26.794857378186492,34.109191549148065L66.57306767079932,9.25317265626054L68.92244478531504,6.446514747206916zM26.794857378186492,34.109191549148065L11.627829095171238,37.10496974238602L15.379860859630018,36.648251489919076zM26.794857378186492,34.109191549148065L64.02667145065112,11.989632826684494L66.57306767079932,9.25317265626054zM26.794857378186492,34.109191549148065L15.379860859630018,36.648251489919076L19.17004078942123,35.99499585032777zM26.794857378186492,34.109191549148065L61.294191626614314,14.643050675511526L64.02667145065112,11.989632826684494zM26.794857378186492,34.109191549148065L19.17004078942123,35.99499585032777L22.98089640011066,35.14753073513489zM26.794857378186492,34.109191549148065L58.38770544140611,17.200752316310048L61.294191626614314,14.643050675511526zM26.794857378186492,34.109191549148065L55.32005763125608,19.65069685257149L58.38770544140611,17.200752316310048zM26.794857378186492,34.109191549148065L52.10525342975237,21.981190341161593L55.32005763125608,19.65069685257149zM26.794857378186492,34.109191549148065L30.59423883227467,32.88429894921344L34.361243120883714,31.478208748311193zM26.794857378186492,34.109191549148065L48.757937519575194,24.181135535765844L52.10525342975237,21.981190341161593zM26.794857378186492,34.109191549148065L34.361243120883714,31.478208748311193L38.0783665748995,29.897171091917315zM26.794857378186492,34.109191549148065L45.29355974157859,26.240102585099564L48.757937519575194,24.181135535765844zM26.794857378186492,34.109191549148065L38.0783665748995,29.897171091917315L41.72814506755826,28.14844392970075zM26.794857378186492,34.109191549148065L41.72814506755826,28.14844392970075L45.29355974157859,26.240102585099564z" style="fill:rgb(83,212,212)"/></svg>
