<?xml version="1.0" encoding="UTF-8"?>
<!-- Generated by jsxcad -->
<!DOCTYPE svg PUBLIC "-//W3C//DTD SVG 1.1 Tiny//EN" "http://www.w3.org/Graphics/SVG/1.1/DTD/svg11-tiny.dtd">
<svg viewBox="-250 -250 500 500" width="500" height="500" xmlns="http://www.w3.org/2000/svg"><path d="M28.315292741120917,-5.4617369342521L12.77828354290055,-28.705254657907986L25.014411180591352,-3.6792281077835236z" style="fill:rgb(169,53,222)"/><path d="M31.799263981069913,-6.831915624751198L16.15919058334112,-30.52839955703081L28.315292741120917,-5.4617369342521z" style="fill:rgb(148,44,221)"/><path d="M25.014411180591352,-3.6792281077835236L9.682558057973099,-26.528045560195913L21.997963552583087,-1.5389521504894104z" style="fill:rgb(188,65,220)"/><path d="M35.35941727236012,-7.74708803106204L19.72159503141143,-31.941733972513326L31.799263981069913,-6.831915624751198z" style="fill:rgb(127,37,217)"/><path d="M21.997963552583087,-1.5389521504894104L6.967717771688492,-24.06313325025188L19.359299222846037,0.8937848655030678z" style="fill:rgb(206,79,215)"/><path d="M38.8861425320418,-8.177845953144665L23.356298016613067,-32.90128886260742L35.35941727236012,-7.74708803106204z" style="fill:rgb(106,33,210)"/><path d="M19.359299222846037,0.8937848655030678L4.718668493248518,-21.385647359249692L17.181023029217727,3.5447645790086404z" style="fill:rgb(221,95,207)"/><path d="M74.15318219697052,-46.31159684056014L3.952812412676577,-50.99266649432289L0.7069205611848114,-49.261422284971886zM74.15318219697052,-46.31159684056014L7.269382749345638,-52.592264163902335L3.952812412676577,-50.99266649432289zM74.15318219697052,-46.31159684056014L0.7069205611848114,-49.261422284971886L-2.456534263403279,-47.40478538535022zM74.15318219697052,-46.31159684056014L10.644741817060437,-54.054437247313096L7.269382749345638,-52.592264163902335zM74.15318219697052,-46.31159684056014L-2.456534263403279,-47.40478538535022L-5.526137291833827,-45.42931172713382zM74.15318219697052,-46.31159684056014L14.0666935747016,-55.37375113304055L10.644741817060437,-54.054437247313096z" style="fill:rgb(83,212,212)"/><path d="M42.27014067306005,-8.109012946162323L26.951501446457108,-33.37629987496621L38.8861425320418,-8.177845953144665z" style="fill:rgb(85,32,201)"/><path d="M74.15318219697052,-46.31159684056014L-5.526137291833827,-45.42931172713382L-8.490690675257323,-43.341989482326206zM74.15318219697052,-46.31159684056014L17.523042425150685,-56.54529751605775L14.0666935747016,-55.37375113304055zM74.15318219697052,-46.31159684056014L-8.490690675257323,-43.341989482326206L-11.339333572414414,-41.15019057057077zM74.15318219697052,-46.31159684056014L21.001265205263913,-57.564529086917986L17.523042425150685,-56.54529751605775zM74.15318219697052,-46.31159684056014L-11.339333572414414,-41.15019057057077L-14.061371470792748,-38.8616753201087z" style="fill:rgb(83,212,212)"/><path d="M17.181023029217727,3.5447645790086404L3.007081416319817,-18.57752714477819L15.532598887014938,6.332799146447624z" style="fill:rgb(233,111,197)"/><path d="M74.15318219697052,-46.31159684056014L24.488825372918967,-58.427420235091645L21.001265205263913,-57.564529086917986zM74.15318219697052,-46.31159684056014L-14.061371470792748,-38.8616753201087L-16.646693393445283,-36.484410916350164z" style="fill:rgb(83,212,212)"/><path d="M45.40548757477359,-7.540130154165619L30.395861320447565,-33.3501806209359L42.27014067306005,-8.109012946162323z" style="fill:rgb(66,34,189)"/><path d="M74.15318219697052,-46.31159684056014L27.973087422351234,-59.130385376993026L24.488825372918967,-58.427420235091645zM74.15318219697052,-46.31159684056014L-16.646693393445283,-36.484410916350164L-19.0853627461916,-34.026887607230194zM74.15318219697052,-46.31159684056014L31.441243593667423,-59.67031607741034L27.973087422351234,-59.130385376993026z" style="fill:rgb(83,212,212)"/><path d="M15.532598887014938,6.332799146447624L1.8893279282588196,-15.72553970045863L14.468357024845993,9.17170153577999z" style="fill:rgb(241,128,184)"/><path d="M74.15318219697052,-46.31159684056014L-19.0853627461916,-34.026887607230194L-21.367948283129866,-31.49776317860468zM74.15318219697052,-46.31159684056014L34.88061405887071,-60.044641117916825L31.441243593667423,-59.67031607741034z" style="fill:rgb(83,212,212)"/><path d="M48.19242713135659,-6.485943852564203L33.58160441673263,-32.82107804742914L45.40548757477359,-7.540130154165619z" style="fill:rgb(48,39,175)"/><path d="M74.15318219697052,-46.31159684056014L-21.367948283129866,-31.49776317860468L-23.48536022427133,-28.906043350436484zM74.15318219697052,-46.31159684056014L38.278339581086875,-60.25128097831288L34.88061405887071,-60.044641117916825z" style="fill:rgb(83,212,212)"/><path d="M28.315292741120917,-5.4617369342521L16.15919058334112,-30.52839955703081L12.77828354290055,-28.705254657907986z" style="fill:rgb(169,53,222)"/><path d="M16.15919058334112,-30.52839955703081L-29.75020926320986,-18.881246856421733L-30.02018783087901,-18.34248474083898z" style="fill:rgb(83,212,212)"/><path d="M31.799263981069913,-6.831915624751198L19.72159503141143,-31.941733972513326L16.15919058334112,-30.52839955703081z" style="fill:rgb(148,44,221)"/><path d="M25.014411180591352,-3.6792281077835236L12.77828354290055,-28.705254657907986L9.682558057973099,-26.528045560195913z" style="fill:rgb(188,65,220)"/><path d="M12.77828354290055,-28.705254657907986L-30.02018783087901,-18.34248474083898L-30.14009173798012,-18.103235536428066zM12.77828354290055,-28.705254657907986L-30.14009173798012,-18.103235536428066L-30.481786317644627,-17.29961482043406zM74.15318219697052,-46.31159684056014L-23.48536022427133,-28.906043350436484L-25.429137542907938,-26.26106079068165z" style="fill:rgb(83,212,212)"/><path d="M14.468357024845993,9.17170153577999L1.40437726570309,-12.918865933942069L14.025453711019031,11.972685814568619z" style="fill:rgb(246,145,170)"/><path d="M74.15318219697052,-46.31159684056014L41.62168774937973,-60.28870118807969L38.278339581086875,-60.25128097831288z" style="fill:rgb(83,212,212)"/><path d="M35.35941727236012,-7.74708803106204L23.356298016613067,-32.90128886260742L19.72159503141143,-31.941733972513326z" style="fill:rgb(127,37,217)"/><path d="M21.997963552583087,-1.5389521504894104L9.682558057973099,-26.528045560195913L6.967717771688492,-24.06313325025188z" style="fill:rgb(206,79,215)"/><path d="M9.682558057973099,-26.528045560195913L-30.481786317644627,-17.29961482043406L-31.12704210883259,-15.782171667149614z" style="fill:rgb(83,212,212)"/><path d="M50.540619266694556,-4.976310875731274L36.407352330290145,-31.80238664045053L48.19242713135659,-6.485943852564203z" style="fill:rgb(33,47,159)"/><path d="M74.15318219697052,-46.31159684056014L-25.429137542907938,-26.26106079068165L-27.191110344884112,-23.572332739900222zM74.15318219697052,-46.31159684056014L44.89788971850611,-60.15591337152987L41.62168774937973,-60.28870118807969z" style="fill:rgb(83,212,212)"/><path d="M38.8861425320418,-8.177845953144665L26.951501446457108,-33.37629987496621L23.356298016613067,-32.90128886260742z" style="fill:rgb(106,33,210)"/><path d="M19.359299222846037,0.8937848655030678L6.967717771688492,-24.06313325025188L4.718668493248518,-21.385647359249692z" style="fill:rgb(221,95,207)"/><path d="M6.967717771688492,-24.06313325025188L-31.12704210883259,-15.782171667149614L-31.313722191808814,-15.343085745073825zM6.967717771688492,-24.06313325025188L-31.313722191808814,-15.343085745073825L-31.830425732980753,-13.863660920266232zM74.15318219697052,-46.31159684056014L-27.191110344884112,-23.572332739900222L-28.763780472820496,-20.84971881112401zM74.15318219697052,-46.31159684056014L48.09436860278865,-59.85246194327301L44.89788971850611,-60.15591337152987z" style="fill:rgb(83,212,212)"/><path d="M14.025453711019031,11.972685814568619L1.5722245371031123,-10.246483620935429L14.22236823070708,14.64697865101715z" style="fill:rgb(247,162,154)"/><path d="M42.27014067306005,-8.109012946162323L30.395861320447565,-33.3501806209359L26.951501446457108,-33.37629987496621z" style="fill:rgb(85,32,201)"/><path d="M17.181023029217727,3.5447645790086404L4.718668493248518,-21.385647359249692L3.007081416319817,-18.57752714477819z" style="fill:rgb(233,111,197)"/><path d="M4.718668493248518,-21.385647359249692L-31.830425732980753,-13.863660920266232L-32.278819205970294,-12.579792917154276zM16.15919058334112,-30.52839955703081L19.72159503141143,-31.941733972513326L-29.75020926320986,-18.881246856421733zM12.77828354290055,-28.705254657907986L16.15919058334112,-30.52839955703081L-30.02018783087901,-18.34248474083898zM74.15318219697052,-46.31159684056014L-28.763780472820496,-20.84971881112401L-29.75020926320986,-18.881246856421733z" style="fill:rgb(83,212,212)"/><path d="M52.37215594503994,-3.0556993641494046L38.781448088404936,-30.32271824208006L50.540619266694556,-4.976310875731274z" style="fill:rgb(21,57,143)"/><path d="M9.682558057973099,-26.528045560195913L12.77828354290055,-28.705254657907986L-30.481786317644627,-17.29961482043406zM4.718668493248518,-21.385647359249692L-32.278819205970294,-12.579792917154276L-32.543515335740736,-11.609147105874179zM74.15318219697052,-46.31159684056014L51.1986082540419,-59.378489080374806L48.09436860278865,-59.85246194327301zM6.967717771688492,-24.06313325025188L9.682558057973099,-26.528045560195913L-31.12704210883259,-15.782171667149614z" style="fill:rgb(83,212,212)"/><path d="M45.40548757477359,-7.540130154165619L33.58160441673263,-32.82107804742914L30.395861320447565,-33.3501806209359z" style="fill:rgb(66,34,189)"/><path d="M15.532598887014938,6.332799146447624L3.007081416319817,-18.57752714477819L1.8893279282588196,-15.72553970045863z" style="fill:rgb(241,128,184)"/><path d="M3.007081416319817,-18.57752714477819L-32.543515335740736,-11.609147105874179L-33.03029711950019,-9.823884136077464zM74.15318219697052,-46.31159684056014L54.19831833263184,-58.73477985316924L51.1986082540419,-59.378489080374806z" style="fill:rgb(83,212,212)"/><path d="M14.22236823070708,14.64697865101715L2.3927532017785795,-7.794569942570614L15.057829843708973,17.10840790802949z" style="fill:rgb(244,177,137)"/><path d="M3.007081416319817,-18.57752714477819L-33.03029711950019,-9.823884136077464L-33.17002519339105,-9.106793959729668zM4.718668493248518,-21.385647359249692L6.967717771688492,-24.06313325025188L-31.830425732980753,-13.863660920266232z" style="fill:rgb(83,212,212)"/><path d="M53.6241819159866,-0.7823361664775269L40.62499762404894,-28.42544842464481L52.37215594503994,-3.0556993641494046z" style="fill:rgb(13,70,126)"/><path d="M74.15318219697052,-46.31159684056014L57.08124780683499,-57.92266019645788L54.19831833263184,-58.73477985316924z" style="fill:rgb(83,212,212)"/><path d="M16.510217014856156,19.276111519900155L2.3927532017785795,-7.794569942570614L15.057829843708973,17.10840790802949z" style="fill:rgb(17,63,134)"/><path d="M48.19242713135659,-6.485943852564203L36.407352330290145,-31.80238664045053L33.58160441673263,-32.82107804742914z" style="fill:rgb(48,39,175)"/><path d="M14.468357024845993,9.17170153577999L1.8893279282588196,-15.72553970045863L1.40437726570309,-12.918865933942069z" style="fill:rgb(246,145,170)"/><path d="M1.8893279282588196,-15.72553970045863L-33.17002519339105,-9.106793959729668L-33.563769358699574,-7.08603964792087zM3.007081416319817,-18.57752714477819L4.718668493248518,-21.385647359249692L-32.543515335740736,-11.609147105874179zM1.8893279282588196,-15.72553970045863L-33.563769358699574,-7.08603964792087L-33.63726328413542,-6.44756302665267zM74.15318219697052,-46.31159684056014L59.83564548977466,-56.944077364939744L57.08124780683499,-57.92266019645788z" style="fill:rgb(83,212,212)"/><path d="M-16.23490185224538,37.376638041606384L-30.987624547597807,10.663680687262735L-17.514123925265366,35.15810669833788z" style="fill:rgb(16,65,132)"/><path d="M50.540619266694556,-4.976310875731274L38.781448088404936,-30.32271824208006L36.407352330290145,-31.80238664045053z" style="fill:rgb(33,47,159)"/><path d="M14.025453711019031,11.972685814568619L1.40437726570309,-12.918865933942069L1.5722245371031123,-10.246483620935429z" style="fill:rgb(247,162,154)"/><path d="M1.8893279282588196,-15.72553970045863L3.007081416319817,-18.57752714477819L-33.17002519339105,-9.106793959729668zM74.15318219697052,-46.31159684056014L62.44985169388771,-55.80169153789755L59.83564548977466,-56.944077364939744zM1.40437726570309,-12.918865933942069L-33.63726328413542,-6.44756302665267L-33.8755695112092,-4.377113031027011z" style="fill:rgb(83,212,212)"/><path d="M18.53741770879979,21.0776252919118L3.845065337987476,-5.6437881461076085L16.510217014856156,19.276111519900155z" style="fill:rgb(27,52,151)"/><path d="M53.6241819159866,-0.7823361664775269L42.4848003826782,-23.620058554398376L54.25155309580803,1.7731997366896783z" style="fill:rgb(246,170,145)"/><path d="M1.40437726570309,-12.918865933942069L-33.8755695112092,-4.377113031027011L-33.896939661689764,-3.723093272804117z" style="fill:rgb(83,212,212)"/><path d="M-14.740752430097874,39.48387192121352L-29.71438434400538,12.868718906627276L-16.23490185224538,37.376638041606384z" style="fill:rgb(19,60,138)"/><path d="M74.15318219697052,-46.31159684056014L64.91266734847572,-54.498731329048006L62.44985169388771,-55.80169153789755zM1.40437726570309,-12.918865933942069L1.8893279282588196,-15.72553970045863L-33.63726328413542,-6.44756302665267z" style="fill:rgb(83,212,212)"/><path d="M52.37215594503994,-3.0556993641494046L40.62499762404894,-28.42544842464481L38.781448088404936,-30.32271824208006z" style="fill:rgb(21,57,143)"/><path d="M14.22236823070708,14.64697865101715L1.5722245371031123,-10.246483620935429L2.3927532017785795,-7.794569942570614z" style="fill:rgb(244,177,137)"/><path d="M1.5722245371031123,-10.246483620935429L-33.896939661689764,-3.723093272804117L-33.962787040949515,-1.7078775805718545z" style="fill:rgb(83,212,212)"/><path d="M21.077962757051065,22.45116821425744L5.8872859866591165,-3.8661845950009304L18.53741770879979,21.0776252919118z" style="fill:rgb(40,42,167)"/><path d="M54.25155309580803,1.7731997366896783L42.43064254399559,-20.86243172118638L54.22885238065211,4.530015300977845z" style="fill:rgb(247,154,162)"/><path d="M88.010409125492,-15.475785754047529L77.97328242056108,-38.90211308270407L88.92458467105395,-13.07236858397077z" style="fill:rgb(245,175,140)"/><path d="M74.45798090059246,-45.91241465193456L23.356298016613067,-32.90128886260742L26.951501446457108,-33.37629987496621zM74.15318219697052,-46.31159684056014L67.21319521153718,-53.03905417398381L64.91266734847572,-54.498731329048006zM1.5722245371031123,-10.246483620935429L-33.962787040949515,-1.7078775805718545L-33.92630671566421,-1.0231558296977536z" style="fill:rgb(83,212,212)"/><path d="M-13.036261706952704,41.47014636905817L-28.22078353368658,14.960044308496839L-14.740752430097874,39.48387192121352z" style="fill:rgb(23,56,144)"/><path d="M25.738606703866523,9.632446180612659L8.7715579843809,-41.434593253980644L5.517976594253369,-39.63766788582779zM25.738606703866523,9.632446180612659L12.13306485673035,-43.03556467790186L8.7715579843809,-41.434593253980644zM25.738606703866523,9.632446180612659L5.517976594253369,-39.63766788582779L2.3985239981164064,-37.65916814783332zM25.738606703866523,9.632446180612659L15.57550386340332,-44.42762783659311L12.13306485673035,-43.03556467790186zM74.98468700593091,-45.10615233079563L26.951501446457108,-33.37629987496621L30.395861320447565,-33.3501806209359zM25.738606703866523,9.632446180612659L2.3985239981164064,-37.65916814783332L-0.5615354187215643,-35.514821197561545zM25.738606703866523,9.632446180612659L19.071251131595577,-45.59934881799033L15.57550386340332,-44.42762783659311zM1.5722245371031123,-10.246483620935429L1.40437726570309,-12.918865933942069L-33.896939661689764,-3.723093272804117zM74.15318219697052,-46.31159684056014L69.34116518164883,-51.427331417977136L67.21319521153718,-53.03905417398381z" style="fill:rgb(83,212,212)"/><path d="M24.051989027291835,23.348438643838413L8.457668322363741,-2.522910865502175L21.077962757051065,22.45116821425744z" style="fill:rgb(57,36,182)"/><path d="M54.22885238065211,4.530015300977845L41.70864555401233,-17.983855943578384L53.55185813037286,7.399251869883322z" style="fill:rgb(244,137,177)"/><path d="M25.738606703866523,9.632446180612659L-0.5615354187215643,-35.514821197561545L-3.338028863778752,-33.22161717244339zM25.738606703866523,9.632446180612659L22.59220599855189,-46.54085304135267L19.071251131595577,-45.59934881799033zM2.3927532017785795,-7.794569942570614L-33.92630671566421,-1.0231558296977536L-33.82333735921218,0.9107162492434308z" style="fill:rgb(83,212,212)"/><path d="M53.6241819159866,-0.7823361664775269L41.87454996750901,-26.1679124708431L40.62499762404894,-28.42544842464481z" style="fill:rgb(13,70,126)"/><path d="M88.92458467105395,-13.07236858397077L78.65182786036891,-36.40911518855011L89.61601098038803,-10.570384251790164z" style="fill:rgb(246,169,146)"/><path d="M25.738606703866523,9.632446180612659L-3.338028863778752,-33.22161717244339L-5.908025921420992,-30.797720657988375zM25.738606703866523,9.632446180612659L26.109950101700708,-47.24392671716651L22.59220599855189,-46.54085304135267zM2.3927532017785795,-7.794569942570614L-33.82333735921218,0.9107162492434308L-33.72909845954769,1.5669341226431164z" style="fill:rgb(83,212,212)"/><path d="M16.510217014856156,19.276111519900155L3.845065337987476,-5.6437881461076085L2.3927532017785795,-7.794569942570614z" style="fill:rgb(17,63,134)"/><path d="M75.72402124321357,-43.91790252506411L30.395861320447565,-33.3501806209359L33.58160441673263,-32.82107804742914z" style="fill:rgb(83,212,212)"/><path d="M-11.126879767297709,43.32603371716428L-26.51132177452079,16.92800921989761L-13.036261706952704,41.47014636905817z" style="fill:rgb(27,52,150)"/><path d="M25.738606703866523,9.632446180612659L-5.908025921420992,-30.797720657988375L-8.249990548944776,-28.262380468457216zM25.738606703866523,9.632446180612659L29.595918989942064,-47.702086904733676L26.109950101700708,-47.24392671716651zM74.15318219697052,-46.31159684056014L71.28660795539471,-49.66869664254758L69.34116518164883,-51.427331417977136zM74.45798090059246,-45.91241465193456L74.15318219697052,-46.31159684056014L23.356298016613067,-32.90128886260742z" style="fill:rgb(83,212,212)"/><path d="M53.6241819159866,-0.7823361664775269L41.87454996750901,-26.1679124708431L42.4848003826782,-23.620058554398376z" style="fill:rgb(246,170,145)"/><path d="M27.364125044332308,23.73650185519526L11.47552590851976,-1.661422582235841L24.051989027291835,23.348438643838413z" style="fill:rgb(75,32,195)"/><path d="M53.55185813037286,7.399251869883322L40.33783940847147,-15.078652326809516L52.23830049410742,10.286878727071695z" style="fill:rgb(237,120,191)"/><path d="M-16.23490185224538,37.376638041606384L-29.71438434400538,12.868718906627276L-30.987624547597807,10.663680687262735z" style="fill:rgb(16,65,132)"/><path d="M2.3927532017785795,-7.794569942570614L1.5722245371031123,-10.246483620935429L-33.92630671566421,-1.0231558296977536zM25.738606703866523,9.632446180612659L-8.249990548944776,-28.262380468457216L-10.343933083632987,-25.63581539307008zM25.738606703866523,9.632446180612659L33.02157358315296,-47.9106167963245L29.595918989942064,-47.702086904733676zM74.98468700593091,-45.10615233079563L74.45798090059246,-45.91241465193456L26.951501446457108,-33.37629987496621zM3.845065337987476,-5.6437881461076085L-33.72909845954769,1.5669341226431164L-33.45600747685915,3.4679137213866z" style="fill:rgb(83,212,212)"/><path d="M89.61601098038803,-10.570384251790164L79.09770188247839,-33.824201282283816L90.07998291231277,-7.9796910440912034z" style="fill:rgb(247,164,152)"/><path d="M76.54221410882772,-42.35326239936698L33.58160441673263,-32.82107804742914L36.407352330290145,-31.80238664045053zM74.15318219697052,-46.31159684056014L73.04026219651946,-47.76912230956808L71.28660795539471,-49.66869664254758zM25.738606703866523,9.632446180612659L-10.343933083632987,-25.63581539307008L-12.171562988305785,-22.939118160888615zM25.738606703866523,9.632446180612659L36.358573326878464,-47.86665719885585L33.02157358315296,-47.9106167963245zM3.845065337987476,-5.6437881461076085L-33.45600747685915,3.4679137213866L-33.33590499487394,3.969003019016557z" style="fill:rgb(83,212,212)"/><path d="M18.53741770879979,21.0776252919118L5.8872859866591165,-3.8661845950009304L3.845065337987476,-5.6437881461076085z" style="fill:rgb(27,52,151)"/><path d="M30.906028759243014,23.59955406117925L14.844139040344771,-1.313610701511148L27.364125044332308,23.73650185519526z" style="fill:rgb(95,32,206)"/><path d="M52.23830049410742,10.286878727071695L38.35985708012301,-12.243187599994096L50.32804761693504,13.097138785481445z" style="fill:rgb(227,103,202)"/><path d="M-9.019202274270468,45.04269356934095L-24.591384700882866,18.763216068544203L-11.126879767297709,43.32603371716428z" style="fill:rgb(31,48,156)"/><path d="M75.72402124321357,-43.91790252506411L74.98468700593091,-45.10615233079563L30.395861320447565,-33.3501806209359zM25.738606703866523,9.632446180612659L-12.171562988305785,-22.939118160888615L-13.71644625320455,-20.19412719162357zM25.738606703866523,9.632446180612659L39.578974826296566,-47.56925292256005L36.358573326878464,-47.86665719885585z" style="fill:rgb(83,212,212)"/><path d="M54.25155309580803,1.7731997366896783L42.4848003826782,-23.620058554398376L42.43064254399559,-20.86243172118638z" style="fill:rgb(247,154,162)"/><path d="M88.010409125492,-15.475785754047529L77.06680363562403,-41.293415472163254L77.97328242056108,-38.90211308270407z" style="fill:rgb(245,175,140)"/><path d="M-14.740752430097874,39.48387192121352L-28.22078353368658,14.960044308496839L-29.71438434400538,12.868718906627276z" style="fill:rgb(19,60,138)"/><path d="M3.845065337987476,-5.6437881461076085L2.3927532017785795,-7.794569942570614L-33.72909845954769,1.5669341226431164z" style="fill:rgb(83,212,212)"/><path d="M34.56039633707179,22.939700160306327L18.453308059809107,-1.4940420374759569L30.906028759243014,23.59955406117925z" style="fill:rgb(116,34,214)"/><path d="M50.32804761693504,13.097138785481445L35.837513421258386,-9.572587746236128L47.881720548898684,15.735803097945034z" style="fill:rgb(214,87,212)"/><path d="M5.8872859866591165,-3.8661845950009304L-33.33590499487394,3.969003019016557L-32.86043438199099,5.952875798464713z" style="fill:rgb(83,212,212)"/><path d="M90.07998291231277,-7.9796910440912034L79.30709902528575,-31.157570339453287L90.31270771361903,-5.310545039627554z" style="fill:rgb(247,158,158)"/><path d="M77.38600870391791,-40.45141874559179L36.407352330290145,-31.80238664045053L38.781448088404936,-30.32271824208006zM76.54221410882772,-42.35326239936698L75.72402124321357,-43.91790252506411L33.58160441673263,-32.82107804742914zM25.738606703866523,9.632446180612659L-13.71644625320455,-20.19412719162357L-14.96414930287217,-17.42330330599251zM25.738606703866523,9.632446180612659L42.65542422964475,-47.01939795454478L39.578974826296566,-47.56925292256005zM5.8872859866591165,-3.8661845950009304L-32.86043438199099,5.952875798464713L-32.80478938052421,6.115274891405829z" style="fill:rgb(83,212,212)"/><path d="M38.205025318203155,21.777342080635275L22.183450860061306,-2.1992348604867384L34.56039633707179,22.939700160306327z" style="fill:rgb(138,40,220)"/><path d="M47.881720548898684,15.735803097945034L32.853465105042744,-7.157115592781374L44.97943012366671,18.1137597804978z" style="fill:rgb(197,72,218)"/><path d="M21.077962757051065,22.45116821425744L8.457668322363741,-2.522910865502175L5.8872859866591165,-3.8661845950009304z" style="fill:rgb(40,42,167)"/><path d="M74.98468700593091,-45.10615233079563L74.59337563875093,-45.73511778462748L74.45798090059246,-45.91241465193456z" style="fill:rgb(83,212,212)"/><path d="M-6.720598917146836,46.6115942287671L-22.467535287427314,20.45686877047498L-9.019202274270468,45.04269356934095z" style="fill:rgb(36,45,162)"/><path d="M41.71740401789289,20.150533853528625L25.909723656996857,-3.40728869688005L38.205025318203155,21.777342080635275z" style="fill:rgb(159,48,222)"/><path d="M44.97943012366671,18.1137597804978L29.506755581490957,-5.078592785898175L41.71740401789289,20.150533853528625z" style="fill:rgb(179,59,222)"/><path d="M54.22885238065211,4.530015300977845L42.43064254399559,-20.86243172118638L41.70864555401233,-17.983855943578384z" style="fill:rgb(244,137,177)"/><path d="M25.738606703866523,9.632446180612659L-14.96414930287217,-17.42330330599251L-15.902401724472572,-14.649587583140143zM25.738606703866523,9.632446180612659L45.561355340291044,-46.22008770937369L42.65542422964475,-47.01939795454478z" style="fill:rgb(83,212,212)"/><path d="M88.92458467105395,-13.07236858397077L77.97328242056108,-38.90211308270407L78.65182786036891,-36.40911518855011z" style="fill:rgb(246,169,146)"/><path d="M-13.036261706952704,41.47014636905817L-26.51132177452079,16.92800921989761L-28.22078353368658,14.960044308496839z" style="fill:rgb(23,56,144)"/><path d="M5.8872859866591165,-3.8661845950009304L3.845065337987476,-5.6437881461076085L-33.33590499487394,3.969003019016557zM8.457668322363741,-2.522910865502175L-32.80478938052421,6.115274891405829L-32.179287989783674,7.940165790194591zM77.38600870391791,-40.45141874559179L76.54221410882772,-42.35326239936698L36.407352330290145,-31.80238664045053z" style="fill:rgb(83,212,212)"/><path d="M90.31270771361903,-5.310545039627554L79.27723220469913,-28.420126142596875L90.31138400703207,-2.5738875255301887z" style="fill:rgb(247,152,164)"/><path d="M78.15096880630509,-38.24929773939301L38.781448088404936,-30.32271824208006L40.62499762404894,-28.42544842464481z" style="fill:rgb(83,212,212)"/><path d="M24.051989027291835,23.348438643838413L11.47552590851976,-1.661422582235841L8.457668322363741,-2.522910865502175z" style="fill:rgb(57,36,182)"/><path d="M25.738606703866523,9.632446180612659L-15.902401724472572,-14.649587583140143L-16.521229715885895,-11.896247431828606zM25.738606703866523,9.632446180612659L48.27120603547543,-45.17634648492073L45.561355340291044,-46.22008770937369z" style="fill:rgb(83,212,212)"/><path d="M-4.239595785720837,48.024861011437935L-20.147137376872006,22.00046965564586L-6.720598917146836,46.6115942287671z" style="fill:rgb(41,42,168)"/><path d="M-12.813117536703011,3.800127054476456L-14.65336004649697,0.7489846130621274L-14.17481555836901,1.6533841781575256z" style="fill:rgb(17,64,134)"/><path d="M11.47552590851976,-1.661422582235841L-32.179287989783674,7.940165790194591L-32.03715056024051,8.354951386784165zM76.54221410882772,-42.35326239936698L75.93801295929974,-43.573910117264944L75.72402124321357,-43.91790252506411z" style="fill:rgb(83,212,212)"/><path d="M53.55185813037286,7.399251869883322L41.70864555401233,-17.983855943578384L40.33783940847147,-15.078652326809516z" style="fill:rgb(237,120,191)"/><path d="M11.47552590851976,-1.661422582235841L-32.03715056024051,8.354951386784165L-31.561091842062037,9.402134654881515z" style="fill:rgb(83,212,212)"/><path d="M89.61601098038803,-10.570384251790164L78.65182786036891,-36.40911518855011L79.09770188247839,-33.824201282283816z" style="fill:rgb(247,164,152)"/><path d="M8.457668322363741,-2.522910865502175L5.8872859866591165,-3.8661845950009304L-32.80478938052421,6.115274891405829z" style="fill:rgb(83,212,212)"/><path d="M-11.126879767297709,43.32603371716428L-24.591384700882866,18.763216068544203L-26.51132177452079,16.92800921989761z" style="fill:rgb(27,52,150)"/><path d="M-12.813117536703011,3.800127054476456L-13.291791641738838,2.8951104340768L-14.65336004649697,0.7489846130621274z" style="fill:rgb(17,64,134)"/><path d="M25.738606703866523,9.632446180612659L-16.521229715885895,-11.896247431828606L-16.81311209091959,-9.186718483887935zM25.738606703866523,9.632446180612659L50.7606489938062,-43.89524763827484L48.27120603547543,-45.17634648492073zM78.15096880630509,-38.24929773939301L77.38600870391791,-40.45141874559179L38.781448088404936,-30.32271824208006z" style="fill:rgb(83,212,212)"/><path d="M90.31138400703207,-2.5738875255301887L79.00640264820707,-25.623099661239415L90.07427447891017,0.21902994911480614z" style="fill:rgb(246,146,169)"/><path d="M27.364125044332308,23.73650185519526L14.844139040344771,-1.313610701511148L11.47552590851976,-1.661422582235841z" style="fill:rgb(75,32,195)"/><path d="M78.75690941020243,-35.799955887945224L40.62499762404894,-28.42544842464481L41.87454996750901,-26.1679124708431z" style="fill:rgb(83,212,212)"/><path d="M52.23830049410742,10.286878727071695L40.33783940847147,-15.078652326809516L38.35985708012301,-12.243187599994096z" style="fill:rgb(227,103,202)"/><path d="M14.844139040344771,-1.313610701511148L-31.561091842062037,9.402134654881515L-31.072671240882617,10.47664336339721z" style="fill:rgb(83,212,212)"/><path d="M-1.5855953247050725,49.27523208537172L-17.638745774433602,23.386208985088803L-4.239595785720837,48.024861011437935z" style="fill:rgb(46,40,173)"/><path d="M77.38600870391791,-40.45141874559179L77.06680363562403,-41.293415472163254L76.54221410882772,-42.35326239936698z" style="fill:rgb(83,212,212)"/><path d="M-11.137412331839636,5.7697458043014995L-13.291791641738838,2.8951104340768L-12.813117536703011,3.800127054476456z" style="fill:rgb(21,57,142)"/><path d="M25.738606703866523,9.632446180612659L-16.81311209091959,-9.186718483887935L-16.773100450790007,-6.544424713761505zM25.738606703866523,9.632446180612659L53.006798578799696,-42.38592361237672L50.7606489938062,-43.89524763827484z" style="fill:rgb(83,212,212)"/><path d="M59.58003409363622,-33.38272099803888L59.1644667006713,-34.3202342268006L59.91774705182541,-31.877296035613575z" style="fill:rgb(245,172,143)"/><path d="M30.906028759243014,23.59955406117925L18.453308059809107,-1.4940420374759569L14.844139040344771,-1.313610701511148z" style="fill:rgb(95,32,206)"/><path d="M18.453308059809107,-1.4940420374759569L-31.072671240882617,10.47664336339721L-30.987624547597807,10.663680687262735zM11.47552590851976,-1.661422582235841L8.457668322363741,-2.522910865502175L-32.179287989783674,7.940165790194591zM18.453308059809107,-1.4940420374759569L-30.987624547597807,10.663680687262735L-30.721921497991502,11.1238620900482z" style="fill:rgb(83,212,212)"/><path d="M90.07998291231277,-7.9796910440912034L79.09770188247839,-33.824201282283816L79.30709902528575,-31.157570339453287z" style="fill:rgb(247,158,158)"/><path d="M59.58003409363622,-33.38272099803888L59.91774705182541,-31.877296035613575L60.33378932460283,-30.9393611920129z" style="fill:rgb(245,172,143)"/><path d="M-9.019202274270468,45.04269356934095L-22.467535287427314,20.45686877047498L-24.591384700882866,18.763216068544203z" style="fill:rgb(31,48,156)"/><path d="M50.32804761693504,13.097138785481445L38.35985708012301,-12.243187599994096L35.837513421258386,-9.572587746236128z" style="fill:rgb(214,87,212)"/><path d="M90.07427447891017,0.21902994911480614L78.49395633059359,-22.77830623346153L89.6006581951663,3.0563909086877157z" style="fill:rgb(245,140,174)"/><path d="M-11.137412331839636,5.7697458043014995L-11.615927796675239,4.863981289679618L-13.291791641738838,2.8951104340768z" style="fill:rgb(21,57,142)"/><path d="M78.75690941020243,-35.799955887945224L78.15096880630509,-38.24929773939301L40.62499762404894,-28.42544842464481zM22.183450860061306,-2.1992348604867384L-30.721921497991502,11.1238620900482L-30.596836184219864,11.340425210224051z" style="fill:rgb(83,212,212)"/><path d="M34.56039633707179,22.939700160306327L22.183450860061306,-2.1992348604867384L18.453308059809107,-1.4940420374759569z" style="fill:rgb(116,34,214)"/><path d="M79.14900574829517,-33.170854775997675L41.87454996750901,-26.1679124708431L42.4848003826782,-23.620058554398376zM25.738606703866523,9.632446180612659L-16.773100450790007,-6.544424713761505L-16.39894957926313,-3.992591841368138zM25.738606703866523,9.632446180612659L54.988455518270456,-40.659563068253426L53.006798578799696,-42.38592361237672z" style="fill:rgb(83,212,212)"/><path d="M1.23095367232621,50.35598919478456L-14.95181853523368,24.60688782392684L-1.5855953247050725,49.27523208537172z" style="fill:rgb(52,37,178)"/><path d="M47.881720548898684,15.735803097945034L35.837513421258386,-9.572587746236128L32.853465105042744,-7.157115592781374z" style="fill:rgb(197,72,218)"/><path d="M78.15096880630509,-38.24929773939301L77.97328242056108,-38.90211308270407L77.38600870391791,-40.45141874559179zM14.844139040344771,-1.313610701511148L11.47552590851976,-1.661422582235841L-31.561091842062037,9.402134654881515z" style="fill:rgb(83,212,212)"/><path d="M38.205025318203155,21.777342080635275L25.909723656996857,-3.40728869688005L22.183450860061306,-2.1992348604867384z" style="fill:rgb(138,40,220)"/><path d="M-9.160127607480286,7.5431640901594825L-11.615927796675239,4.863981289679618L-11.137412331839636,5.7697458043014995z" style="fill:rgb(27,51,151)"/><path d="M59.91774705182541,-31.877296035613575L60.75046412497843,-28.364181355014953L60.33378932460283,-30.9393611920129z" style="fill:rgb(247,164,151)"/><path d="M44.97943012366671,18.1137597804978L32.853465105042744,-7.157115592781374L29.506755581490957,-5.078592785898175z" style="fill:rgb(179,59,222)"/><path d="M41.71740401789289,20.150533853528625L29.506755581490957,-5.078592785898175L25.909723656996857,-3.40728869688005z" style="fill:rgb(159,48,222)"/><path d="M89.6006581951663,3.0563909086877157L77.74035246052932,-19.8978748277573L88.89090126871365,5.926085564072512z" style="fill:rgb(243,134,180)"/><path d="M90.31270771361903,-5.310545039627554L79.30709902528575,-31.157570339453287L79.27723220469913,-28.420126142596875z" style="fill:rgb(247,152,164)"/><path d="M-6.720598917146836,46.6115942287671L-20.147137376872006,22.00046965564586L-22.467535287427314,20.45686877047498z" style="fill:rgb(36,45,162)"/><path d="M25.738606703866523,9.632446180612659L-16.39894957926313,-3.992591841368138L-15.691217740973071,-1.5540484167834168zM25.738606703866523,9.632446180612659L56.68632407907539,-38.72938134977689L54.988455518270456,-40.659563068253426z" style="fill:rgb(83,212,212)"/><path d="M-9.160127607480286,7.5431640901594825L-9.638193228253664,6.6365239768902144L-11.615927796675239,4.863981289679618z" style="fill:rgb(27,51,151)"/><path d="M79.14900574829517,-33.170854775997675L78.75690941020243,-35.799955887945224L41.87454996750901,-26.1679124708431z" style="fill:rgb(83,212,212)"/><path d="M59.91774705182541,-31.877296035613575L60.333666365730494,-29.302373116558822L60.75046412497843,-28.364181355014953z" style="fill:rgb(247,164,151)"/><path d="M18.453308059809107,-1.4940420374759569L14.844139040344771,-1.313610701511148L-31.072671240882617,10.47664336339721z" style="fill:rgb(83,212,212)"/><path d="M4.198897051643123,51.26121040521664L-12.096894991110135,25.655858622418222L1.23095367232621,50.35598919478456z" style="fill:rgb(58,35,183)"/><path d="M79.29926992524626,-30.441741506889684L42.4848003826782,-23.620058554398376L42.43064254399559,-20.86243172118638zM78.75690941020243,-35.799955887945224L78.65182786036891,-36.40911518855011L78.15096880630509,-38.24929773939301z" style="fill:rgb(83,212,212)"/><path d="M-6.896676786388775,9.102805918742508L-9.638193228253664,6.6365239768902144L-9.160127607480286,7.5431640901594825z" style="fill:rgb(34,46,160)"/><path d="M22.183450860061306,-2.1992348604867384L18.453308059809107,-1.4940420374759569L-30.721921497991502,11.1238620900482zM25.738606703866523,9.632446180612659L-15.691217740973071,-1.5540484167834168L-14.65336004649697,0.7489846130621274zM25.738606703866523,9.632446180612659L58.08325447470004,-36.610571404035625L56.68632407907539,-38.72938134977689z" style="fill:rgb(83,212,212)"/><path d="M60.75046412497843,-28.364181355014953L60.333666365730494,-29.302373116558822L60.40576862546181,-26.617641343796056z" style="fill:rgb(247,156,160)"/><path d="M88.89090126871365,5.926085564072512L76.74720173045357,-16.99424233032248L87.94649158328167,8.815717405046358z" style="fill:rgb(241,128,185)"/><path d="M90.31138400703207,-2.5738875255301887L79.27723220469913,-28.420126142596875L79.00640264820707,-25.623099661239415z" style="fill:rgb(246,146,169)"/><path d="M-4.239595785720837,48.024861011437935L-17.638745774433602,23.386208985088803L-20.147137376872006,22.00046965564586z" style="fill:rgb(41,42,168)"/><path d="M60.75046412497843,-28.364181355014953L60.40576862546181,-26.617641343796056L60.82358466771305,-25.679361397717184z" style="fill:rgb(247,156,160)"/><path d="M-6.896676786388775,9.102805918742508L-7.374001357181725,8.19516861699101L-9.638193228253664,6.6365239768902144z" style="fill:rgb(34,46,160)"/><path d="M7.305958558002296,51.98573211622839L-9.085252193947968,26.5272934240607L4.198897051643123,51.26121040521664z" style="fill:rgb(65,34,188)"/><path d="M79.29926992524626,-30.441741506889684L79.14900574829517,-33.170854775997675L42.4848003826782,-23.620058554398376zM79.20775242375542,-27.702295321229542L42.43064254399559,-20.86243172118638L41.70864555401233,-17.983855943578384zM25.738606703866523,9.632446180612659L-14.65336004649697,0.7489846130621274L-13.291791641738838,2.8951104340768zM25.738606703866523,9.632446180612659L59.1644667006713,-34.3202342268006L58.08325447470004,-36.610571404035625zM79.14900574829517,-33.170854775997675L79.09770188247839,-33.824201282283816L78.75690941020243,-35.799955887945224z" style="fill:rgb(83,212,212)"/><path d="M87.94649158328167,8.815717405046358L75.51738262633434,-14.080282782078994L86.7701524132801,11.71247598141139z" style="fill:rgb(238,122,189)"/><path d="M-4.365394961309504,10.432820269933355L-7.374001357181725,8.19516861699101L-6.896676786388775,9.102805918742508z" style="fill:rgb(41,42,168)"/><path d="M60.40576862546181,-26.617641343796056L60.549811312239655,-22.908450757984156L60.82358466771305,-25.679361397717184z" style="fill:rgb(246,147,168)"/><path d="M90.07427447891017,0.21902994911480614L79.00640264820707,-25.623099661239415L78.49395633059359,-22.77830623346153z" style="fill:rgb(245,140,174)"/><path d="M-1.5855953247050725,49.27523208537172L-14.95181853523368,24.60688782392684L-17.638745774433602,23.386208985088803z" style="fill:rgb(46,40,173)"/><path d="M10.539196140262833,52.52512249954951L-5.929324738284336,27.21612461990538L7.305958558002296,51.98573211622839z" style="fill:rgb(72,33,193)"/><path d="M-4.365394961309504,10.432820269933355L-4.84169066255994,9.524070050207023L-7.374001357181725,8.19516861699101z" style="fill:rgb(41,42,168)"/><path d="M60.40576862546181,-26.617641343796056L60.13069798444433,-23.846647988543705L60.549811312239655,-22.908450757984156z" style="fill:rgb(246,147,168)"/><path d="M25.738606703866523,9.632446180612659L-13.291791641738838,2.8951104340768L-11.615927796675239,4.863981289679618zM25.738606703866523,9.632446180612659L59.91774705182541,-31.877296035613575L59.1644667006713,-34.3202342268006zM79.20775242375542,-27.702295321229542L79.29926992524626,-30.441741506889684L42.43064254399559,-20.86243172118638zM78.90303982594475,-25.04932451444168L41.70864555401233,-17.983855943578384L40.33783940847147,-15.078652326809516z" style="fill:rgb(83,212,212)"/><path d="M86.7701524132801,11.71247598141139L74.05479868493596,-11.168938135825677L85.36560600255093,14.603500507261625z" style="fill:rgb(235,116,194)"/><path d="M79.29926992524626,-30.441741506889684L79.30709902528575,-31.157570339453287L79.14900574829517,-33.170854775997675z" style="fill:rgb(83,212,212)"/><path d="M-1.5874423249364296,11.519296791691918L-4.84169066255994,9.524070050207023L-4.365394961309504,10.432820269933355z" style="fill:rgb(50,38,176)"/><path d="M13.884849692132464,52.87584515814082L-2.6422438082420374,27.71803963942445L10.539196140262833,52.52512249954951z" style="fill:rgb(79,32,197)"/><path d="M60.549811312239655,-22.908450757984156L60.13069798444433,-23.846647988543705L59.50836153224482,-21.014125645195218z" style="fill:rgb(244,138,176)"/><path d="M89.6006581951663,3.0563909086877157L78.49395633059359,-22.77830623346153L77.74035246052932,-19.8978748277573z" style="fill:rgb(243,134,180)"/><path d="M25.738606703866523,9.632446180612659L-11.615927796675239,4.863981289679618L-9.638193228253664,6.6365239768902144zM25.738606703866523,9.632446180612659L60.333666365730494,-29.302373116558822L59.91774705182541,-31.877296035613575z" style="fill:rgb(83,212,212)"/><path d="M1.23095367232621,50.35598919478456L-12.096894991110135,25.655858622418222L-14.95181853523368,24.60688782392684z" style="fill:rgb(52,37,178)"/><path d="M60.549811312239655,-22.908450757984156L59.50836153224482,-21.014125645195218L59.92902252165592,-20.076182218782588z" style="fill:rgb(244,138,176)"/><path d="M78.4430071882144,-22.583505289530024L40.33783940847147,-15.078652326809516L38.35985708012301,-12.243187599994096z" style="fill:rgb(83,212,212)"/><path d="M-1.5874423249364296,11.519296791691918L-2.062426832505196,10.609325312051487L-4.84169066255994,9.524070050207023z" style="fill:rgb(50,38,176)"/><path d="M26.56265566616744,24.791382482940868L-30.596836184219864,11.340425210224051L-29.71438434400538,12.868718906627276zM78.90303982594475,-25.04932451444168L79.20775242375542,-27.702295321229542L41.70864555401233,-17.983855943578384z" style="fill:rgb(83,212,212)"/><path d="M85.36560600255093,14.603500507261625L72.3646891213729,-8.273315865424635L83.73787736118501,17.475781892335377z" style="fill:rgb(231,110,198)"/><path d="M17.328508032053247,53.035298322604596L0.7620078578722449,28.029621094845L13.884849692132464,52.87584515814082z" style="fill:rgb(86,32,201)"/><path d="M25.738606703866523,9.632446180612659L-9.638193228253664,6.6365239768902144L-7.374001357181725,8.19516861699101zM25.738606703866523,9.632446180612659L60.40576862546181,-26.617641343796056L60.333666365730494,-29.302373116558822z" style="fill:rgb(83,212,212)"/><path d="M1.4133384033574767,12.350466454796832L-2.062426832505196,10.609325312051487L-1.5874423249364296,11.519296791691918z" style="fill:rgb(58,35,183)"/><path d="M59.50836153224482,-21.014125645195218L58.96446782165297,-17.208236872129422L59.92902252165592,-20.076182218782588z" style="fill:rgb(241,129,183)"/><path d="M79.20775242375542,-27.702295321229542L79.27723220469913,-28.420126142596875L79.29926992524626,-30.441741506889684zM77.87041754269232,-20.395089002780185L38.35985708012301,-12.243187599994096L35.837513421258386,-9.572587746236128zM26.56265566616744,24.791382482940868L-29.71438434400538,12.868718906627276L-28.22078353368658,14.960044308496839z" style="fill:rgb(83,212,212)"/><path d="M88.89090126871365,5.926085564072512L77.74035246052932,-19.8978748277573L76.74720173045357,-16.99424233032248z" style="fill:rgb(241,128,185)"/><path d="M4.198897051643123,51.26121040521664L-9.085252193947968,26.5272934240607L-12.096894991110135,25.655858622418222z" style="fill:rgb(58,35,183)"/><path d="M83.73787736118501,17.475781892335377L70.45335053557295,-5.406667501432213L81.893014507956,20.316193348805513z" style="fill:rgb(227,104,202)"/><path d="M1.4133384033574767,12.350466454796832L0.9399372079417219,11.439173879829232L-2.062426832505196,10.609325312051487z" style="fill:rgb(58,35,183)"/><path d="M59.50836153224482,-21.014125645195218L58.54199818719762,-18.145757215361744L58.96446782165297,-17.208236872129422z" style="fill:rgb(241,129,183)"/><path d="M78.4430071882144,-22.583505289530024L78.90303982594475,-25.04932451444168L40.33783940847147,-15.078652326809516zM77.28973980323195,-18.58048665748404L35.837513421258386,-9.572587746236128L32.853465105042744,-7.157115592781374z" style="fill:rgb(83,212,212)"/><path d="M20.855012054398895,53.00171991479622L4.268762520726863,28.14839854164841L17.328508032053247,53.035298322604596z" style="fill:rgb(93,32,205)"/><path d="M25.738606703866523,9.632446180612659L-7.374001357181725,8.19516861699101L-4.84169066255994,9.524070050207023zM25.738606703866523,9.632446180612659L60.13069798444433,-23.846647988543705L60.40576862546181,-26.617641343796056zM76.82764770858566,-17.229378223703332L32.853465105042744,-7.157115592781374L29.506755581490957,-5.078592785898175zM26.56265566616744,24.791382482940868L-28.22078353368658,14.960044308496839L-26.51132177452079,16.92800921989761zM76.36958054249443,-16.099532953886726L25.909723656996857,-3.40728869688005L22.183450860061306,-2.1992348604867384zM76.49043613685954,-16.385825609892184L29.506755581490957,-5.078592785898175L25.909723656996857,-3.40728869688005z" style="fill:rgb(83,212,212)"/><path d="M81.893014507956,20.316193348805513L68.32842073991068,-2.582148614537933L79.8383923499609,23.111716481526248z" style="fill:rgb(223,98,206)"/><path d="M4.139045154100382,12.004179733765968L0.9399372079417219,11.439173879829232L1.4133384033574767,12.350466454796832z" style="fill:rgb(68,33,190)"/><path d="M58.96446782165297,-17.208236872129422L58.54199818719762,-18.145757215361744L57.23826321830052,-15.267929055395607z" style="fill:rgb(237,120,190)"/><path d="M78.90303982594475,-25.04932451444168L79.00640264820707,-25.623099661239415L79.20775242375542,-27.702295321229542z" style="fill:rgb(83,212,212)"/><path d="M87.94649158328167,8.815717405046358L76.74720173045357,-16.99424233032248L75.51738262633434,-14.080282782078994z" style="fill:rgb(238,122,189)"/><path d="M7.305958558002296,51.98573211622839L-5.929324738284336,27.21612461990538L-9.085252193947968,26.5272934240607z" style="fill:rgb(65,34,188)"/><path d="M4.139045154100382,12.004179733765968L1.4133384033574767,12.350466454796832L4.610603418243892,12.916883557987328z" style="fill:rgb(68,33,190)"/><path d="M58.96446782165297,-17.208236872129422L57.23826321830052,-15.267929055395607L57.662767927132386,-14.330997245855544z" style="fill:rgb(237,120,190)"/><path d="M77.87041754269232,-20.395089002780185L78.4430071882144,-22.583505289530024L38.35985708012301,-12.243187599994096z" style="fill:rgb(83,212,212)"/><path d="M24.448735902828886,52.77433872293707L7.862574976824174,28.07276774947023L20.855012054398895,53.00171991479622z" style="fill:rgb(100,32,208)"/><path d="M25.738606703866523,9.632446180612659L-4.84169066255994,9.524070050207023L-2.062426832505196,10.609325312051487zM25.738606703866523,9.632446180612659L59.50836153224482,-21.014125645195218L60.13069798444433,-23.846647988543705zM26.56265566616744,24.791382482940868L-26.51132177452079,16.92800921989761L-24.591384700882866,18.763216068544203z" style="fill:rgb(83,212,212)"/><path d="M79.8383923499609,23.111716481526248L65.9984536039476,0.18708193759337502L77.58226446244635,25.84935055424665z" style="fill:rgb(218,92,209)"/><path d="M7.9757328998960615,13.211598011470242L4.139045154100382,12.004179733765968L4.610603418243892,12.916883557987328z" style="fill:rgb(78,32,197)"/><path d="M57.23826321830052,-15.267929055395607L56.033971181660064,-11.471276571518846L57.662767927132386,-14.330997245855544z" style="fill:rgb(233,112,197)"/><path d="M28.0934613173989,52.35333760803628L11.527504623394137,27.802116469055523L24.448735902828886,52.77433872293707z" style="fill:rgb(108,33,211)"/><path d="M77.28973980323195,-18.58048665748404L77.87041754269232,-20.395089002780185L35.837513421258386,-9.572587746236128z" style="fill:rgb(83,212,212)"/><path d="M86.7701524132801,11.71247598141139L75.51738262633434,-14.080282782078994L74.05479868493596,-11.168938135825677z" style="fill:rgb(235,116,194)"/><path d="M25.738606703866523,9.632446180612659L-2.062426832505196,10.609325312051487L0.9399372079417219,11.439173879829232zM25.738606703866523,9.632446180612659L58.54199818719762,-18.145757215361744L59.50836153224482,-21.014125645195218z" style="fill:rgb(83,212,212)"/><path d="M10.539196140262833,52.52512249954951L-2.6422438082420374,27.71803963942445L-5.929324738284336,27.21612461990538z" style="fill:rgb(72,33,193)"/><path d="M78.4430071882144,-22.583505289530024L78.49395633059359,-22.77830623346153L78.90303982594475,-25.04932451444168z" style="fill:rgb(83,212,212)"/><path d="M7.9757328998960615,13.211598011470242L7.506260154188153,12.29740364852972L4.139045154100382,12.004179733765968z" style="fill:rgb(78,32,197)"/><path d="M57.23826321830052,-15.267929055395607L55.60720010085951,-12.407460215817993L56.033971181660064,-11.471276571518846z" style="fill:rgb(233,112,197)"/><path d="M77.58226446244635,25.84935055424665L63.4733156114082,2.8880760348817236L75.13415779305411,28.51631696831799z" style="fill:rgb(213,86,212)"/><path d="M76.82764770858566,-17.229378223703332L77.28973980323195,-18.58048665748404L32.853465105042744,-7.157115592781374zM26.56265566616744,24.791382482940868L-24.591384700882866,18.763216068544203L-22.467535287427314,20.45686877047498z" style="fill:rgb(83,212,212)"/><path d="M31.7727562480047,51.73986947015443L15.24698510745766,27.336805395797505L28.0934613173989,52.35333760803628z" style="fill:rgb(115,34,214)"/><path d="M25.738606703866523,9.632446180612659L0.9399372079417219,11.439173879829232L4.139045154100382,12.004179733765968zM25.738606703866523,9.632446180612659L57.23826321830052,-15.267929055395607L58.54199818719762,-18.145757215361744zM76.49043613685954,-16.385825609892184L76.82764770858566,-17.229378223703332L29.506755581490957,-5.078592785898175z" style="fill:rgb(83,212,212)"/><path d="M11.010932379259625,12.314524771652005L7.506260154188153,12.29740364852972L7.9757328998960615,13.211598011470242z" style="fill:rgb(88,32,202)"/><path d="M56.033971181660064,-11.471276571518846L55.60720010085951,-12.407460215817993L53.662259666403706,-9.591314084496695z" style="fill:rgb(227,103,203)"/><path d="M75.13415779305411,28.51631696831799L60.76384846312168,5.508174999405433L72.50456587770279,31.100146307506282z" style="fill:rgb(208,81,214)"/><path d="M76.36958054249443,-16.099532953886726L76.49043613685954,-16.385825609892184L25.909723656996857,-3.40728869688005z" style="fill:rgb(83,212,212)"/><path d="M11.010932379259625,12.314524771652005L7.9757328998960615,13.211598011470242L11.478094661438336,13.23027698133887z" style="fill:rgb(88,32,202)"/><path d="M56.033971181660064,-11.471276571518846L53.662259666403706,-9.591314084496695L54.091493330388865,-8.656030506914412z" style="fill:rgb(227,103,203)"/><path d="M85.36560600255093,14.603500507261625L74.05479868493596,-11.168938135825677L72.3646891213729,-8.273315865424635z" style="fill:rgb(231,110,198)"/><path d="M13.884849692132464,52.87584515814082L0.7620078578722449,28.029621094845L-2.6422438082420374,27.71803963942445z" style="fill:rgb(79,32,197)"/><path d="M35.46971567566572,50.93611218070408L19.004223302456385,26.67816611096454L31.7727562480047,51.73986947015443z" style="fill:rgb(123,36,216)"/><path d="M26.56265566616744,24.791382482940868L76.36958054249443,-16.099532953886726L-30.596836184219864,11.340425210224051zM26.56265566616744,24.791382482940868L-22.467535287427314,20.45686877047498L-20.147137376872006,22.00046965564586z" style="fill:rgb(83,212,212)"/><path d="M72.50456587770279,31.100146307506282L57.88202165440389,8.03488270762173L69.70507814698101,33.58854293593156z" style="fill:rgb(202,76,217)"/><path d="M25.738606703866523,9.632446180612659L4.139045154100382,12.004179733765968L7.506260154188153,12.29740364852972zM25.738606703866523,9.632446180612659L55.60720010085951,-12.407460215817993L57.23826321830052,-15.267929055395607z" style="fill:rgb(83,212,212)"/><path d="M15.085349287130494,12.971323132522924L11.010932379259625,12.314524771652005L11.478094661438336,13.23027698133887z" style="fill:rgb(99,32,208)"/><path d="M53.662259666403706,-9.591314084496695L51.852056028871296,-5.91205347149363L54.091493330388865,-8.656030506914412z" style="fill:rgb(220,94,208)"/><path d="M39.16734723693924,49.94521061586597L22.78191374020125,25.828573914506634L35.46971567566572,50.93611218070408z" style="fill:rgb(131,38,218)"/><path d="M77.28973980323195,-18.58048665748404L77.74035246052932,-19.8978748277573L77.87041754269232,-20.395089002780185z" style="fill:rgb(83,212,212)"/><path d="M69.70507814698101,33.58854293593156L54.840561963911206,10.4563188695272L66.74802650758521,35.96983427136105z" style="fill:rgb(196,71,219)"/><path d="M15.085349287130494,12.971323132522924L14.620700381468643,12.053958844680343L11.010932379259625,12.314524771652005z" style="fill:rgb(99,32,208)"/><path d="M83.73787736118501,17.475781892335377L72.3646891213729,-8.273315865424635L70.45335053557295,-5.406667501432213z" style="fill:rgb(227,104,202)"/><path d="M53.662259666403706,-9.591314084496695L51.420180155735956,-6.846294630284548L51.852056028871296,-5.91205347149363z" style="fill:rgb(220,94,208)"/><path d="M42.84856820694207,48.7712682324068L26.56265566616744,24.791382482940868L39.16734723693924,49.94521061586597z" style="fill:rgb(139,40,220)"/><path d="M17.328508032053247,53.035298322604596L4.268762520726863,28.14839854164841L0.7620078578722449,28.029621094845z" style="fill:rgb(86,32,201)"/><path d="M25.738606703866523,9.632446180612659L7.506260154188153,12.29740364852972L11.010932379259625,12.314524771652005zM25.738606703866523,9.632446180612659L53.662259666403706,-9.591314084496695L55.60720010085951,-12.407460215817993z" style="fill:rgb(83,212,212)"/><path d="M66.74802650758521,35.96983427136105L51.65334478824221,12.760944161137878L63.646860807402284,38.23270552020727z" style="fill:rgb(189,66,220)"/><path d="M26.56265566616744,24.791382482940868L-20.147137376872006,22.00046965564586L-17.638745774433602,23.386208985088803z" style="fill:rgb(83,212,212)"/><path d="M46.496189632865025,47.41940547912649L30.32893556003061,23.570914895610425L42.84856820694207,48.7712682324068z" style="fill:rgb(146,43,221)"/><path d="M63.646860807402284,38.23270552020727L48.3348766113424,14.937800846567091L60.415672167483535,40.36642115506142z" style="fill:rgb(182,61,221)"/><path d="M18.30182929828303,11.516920712998429L14.620700381468643,12.053958844680343L15.085349287130494,12.971323132522924z" style="fill:rgb(110,33,212)"/><path d="M51.852056028871296,-5.91205347149363L51.420180155735956,-6.846294630284548L48.90087073000382,-4.198739418553686z" style="fill:rgb(213,86,212)"/><path d="M18.30182929828303,11.516920712998429L15.085349287130494,12.971323132522924L18.763787936934193,12.435937234688655z" style="fill:rgb(110,33,212)"/><path d="M50.09333622151222,45.89561557385374L34.063129219226866,22.172510512358457L46.496189632865025,47.41940547912649z" style="fill:rgb(154,46,222)"/><path d="M51.852056028871296,-5.91205347149363L48.90087073000382,-4.198739418553686L49.33554402160431,-3.265671816072583z" style="fill:rgb(213,86,212)"/><path d="M60.415672167483535,40.36642115506142L44.90045958751134,16.97657944791271L57.069301473382424,42.36090792521869z" style="fill:rgb(175,57,222)"/><path d="M53.62317316765823,44.206859428950054L37.747903615945795,20.6023840265595L50.09333622151222,45.89561557385374z" style="fill:rgb(161,49,222)"/><path d="M25.738606703866523,9.632446180612659L11.010932379259625,12.314524771652005L14.620700381468643,12.053958844680343z" style="fill:rgb(83,212,212)"/><path d="M57.069301473382424,42.36090792521869L41.3659648126285,18.867740188280155L53.62317316765823,44.206859428950054z" style="fill:rgb(168,53,222)"/><path d="M25.738606703866523,9.632446180612659L51.420180155735956,-6.846294630284548L53.662259666403706,-9.591314084496695zM76.49043613685954,-16.385825609892184L76.74720173045357,-16.99424233032248L76.82764770858566,-17.229378223703332z" style="fill:rgb(83,212,212)"/><path d="M81.893014507956,20.316193348805513L70.45335053557295,-5.406667501432213L68.32842073991068,-2.582148614537933z" style="fill:rgb(223,98,206)"/><path d="M20.855012054398895,53.00171991479622L7.862574976824174,28.07276774947023L4.268762520726863,28.14839854164841z" style="fill:rgb(93,32,205)"/><path d="M22.478699732320624,11.628152198588047L18.30182929828303,11.516920712998429L18.763787936934193,12.435937234688655z" style="fill:rgb(121,36,216)"/><path d="M48.90087073000382,-4.198739418553686L46.56484093384349,-0.7424272181193582L49.33554402160431,-3.265671816072583z" style="fill:rgb(204,78,216)"/><path d="M26.56265566616744,24.791382482940868L-17.638745774433602,23.386208985088803L-14.95181853523368,24.60688782392684zM25.738606703866523,9.632446180612659L14.620700381468643,12.053958844680343L18.30182929828303,11.516920712998429zM25.738606703866523,9.632446180612659L48.90087073000382,-4.198739418553686L51.420180155735956,-6.846294630284548z" style="fill:rgb(83,212,212)"/><path d="M22.478699732320624,11.628152198588047L22.019580482455506,10.707458882373077L18.30182929828303,11.516920712998429z" style="fill:rgb(121,36,216)"/><path d="M48.90087073000382,-4.198739418553686L46.12724171994053,-1.6742027454967474L46.56484093384349,-0.7424272181193582z" style="fill:rgb(204,78,216)"/><path d="M25.738606703866523,9.632446180612659L18.30182929828303,11.516920712998429L22.019580482455506,10.707458882373077z" style="fill:rgb(83,212,212)"/><path d="M25.738606703866523,9.632446180612659L22.478699732320624,11.628152198588047L26.194762286006895,10.554827061398838z" style="fill:rgb(133,38,219)"/><path d="M25.738606703866523,9.632446180612659L46.12724171994053,-1.6742027454967474L48.90087073000382,-4.198739418553686z" style="fill:rgb(83,212,212)"/><path d="M46.56484093384349,-0.7424272181193582L43.12496459924978,0.7028515805869713L43.56558689566275,1.6332307196920248z" style="fill:rgb(196,71,219)"/><path d="M25.738606703866523,9.632446180612659L22.019580482455506,10.707458882373077L22.478699732320624,11.628152198588047z" style="fill:rgb(133,38,219)"/><path d="M46.56484093384349,-0.7424272181193582L46.12724171994053,-1.6742027454967474L43.12496459924978,0.7028515805869713z" style="fill:rgb(196,71,219)"/><path d="M79.8383923499609,23.111716481526248L68.32842073991068,-2.582148614537933L65.9984536039476,0.18708193759337502z" style="fill:rgb(218,92,209)"/><path d="M24.448735902828886,52.77433872293707L11.527504623394137,27.802116469055523L7.862574976824174,28.07276774947023z" style="fill:rgb(100,32,208)"/><path d="M29.876458490484012,9.225594859394526L25.738606703866523,9.632446180612659L26.194762286006895,10.554827061398838z" style="fill:rgb(144,42,221)"/><path d="M43.12496459924978,0.7028515805869713L40.36592710069736,3.838245422768961L43.56558689566275,1.6332307196920248z" style="fill:rgb(186,64,221)"/><path d="M25.738606703866523,9.632446180612659L43.12496459924978,0.7028515805869713L46.12724171994053,-1.6742027454967474zM26.56265566616744,24.791382482940868L-14.95181853523368,24.60688782392684L-12.096894991110135,25.655858622418222z" style="fill:rgb(83,212,212)"/><path d="M39.922209508104096,2.9093520527643855L36.996174680334875,5.851238402978091L40.36592710069736,3.838245422768961z" style="fill:rgb(176,57,222)"/><path d="M29.876458490484012,9.225594859394526L29.42335340670652,8.301533849120815L25.738606703866523,9.632446180612659z" style="fill:rgb(144,42,221)"/><path d="M43.12496459924978,0.7028515805869713L39.922209508104096,2.9093520527643855L40.36592710069736,3.838245422768961z" style="fill:rgb(186,64,221)"/><path d="M33.03849122320888,6.727056422825556L29.876458490484012,9.225594859394526L33.488481289634244,7.65277410373584z" style="fill:rgb(155,46,222)"/><path d="M25.738606703866523,9.632446180612659L39.922209508104096,2.9093520527643855L43.12496459924978,0.7028515805869713z" style="fill:rgb(83,212,212)"/><path d="M36.996174680334875,5.851238402978091L33.03849122320888,6.727056422825556L33.488481289634244,7.65277410373584z" style="fill:rgb(166,52,222)"/><path d="M33.03849122320888,6.727056422825556L29.42335340670652,8.301533849120815L29.876458490484012,9.225594859394526z" style="fill:rgb(155,46,222)"/><path d="M39.922209508104096,2.9093520527643855L36.54932106567958,4.923904682045832L36.996174680334875,5.851238402978091z" style="fill:rgb(176,57,222)"/><path d="M25.738606703866523,9.632446180612659L29.42335340670652,8.301533849120815L33.03849122320888,6.727056422825556zM25.738606703866523,9.632446180612659L36.54932106567958,4.923904682045832L39.922209508104096,2.9093520527643855z" style="fill:rgb(83,212,212)"/><path d="M36.996174680334875,5.851238402978091L36.54932106567958,4.923904682045832L33.03849122320888,6.727056422825556z" style="fill:rgb(166,52,222)"/><path d="M25.738606703866523,9.632446180612659L33.03849122320888,6.727056422825556L36.54932106567958,4.923904682045832z" style="fill:rgb(83,212,212)"/><path d="M77.58226446244635,25.84935055424665L65.9984536039476,0.18708193759337502L63.4733156114082,2.8880760348817236z" style="fill:rgb(213,86,212)"/><path d="M28.0934613173989,52.35333760803628L15.24698510745766,27.336805395797505L11.527504623394137,27.802116469055523z" style="fill:rgb(108,33,211)"/><path d="M26.56265566616744,24.791382482940868L-12.096894991110135,25.655858622418222L-9.085252193947968,26.5272934240607z" style="fill:rgb(83,212,212)"/><path d="M75.13415779305411,28.51631696831799L63.4733156114082,2.8880760348817236L60.76384846312168,5.508174999405433z" style="fill:rgb(208,81,214)"/><path d="M31.7727562480047,51.73986947015443L19.004223302456385,26.67816611096454L15.24698510745766,27.336805395797505z" style="fill:rgb(115,34,214)"/><path d="M26.56265566616744,24.791382482940868L-9.085252193947968,26.5272934240607L-5.929324738284336,27.21612461990538z" style="fill:rgb(83,212,212)"/><path d="M72.50456587770279,31.100146307506282L60.76384846312168,5.508174999405433L57.88202165440389,8.03488270762173z" style="fill:rgb(202,76,217)"/><path d="M35.46971567566572,50.93611218070408L22.78191374020125,25.828573914506634L19.004223302456385,26.67816611096454z" style="fill:rgb(123,36,216)"/><path d="M26.56265566616744,24.791382482940868L75.51738262633434,-14.080282782078994L76.36958054249443,-16.099532953886726z" style="fill:rgb(83,212,212)"/><path d="M69.70507814698101,33.58854293593156L57.88202165440389,8.03488270762173L54.840561963911206,10.4563188695272z" style="fill:rgb(196,71,219)"/><path d="M39.16734723693924,49.94521061586597L26.56265566616744,24.791382482940868L22.78191374020125,25.828573914506634z" style="fill:rgb(131,38,218)"/><path d="M26.56265566616744,24.791382482940868L-5.929324738284336,27.21612461990538L-2.6422438082420374,27.71803963942445z" style="fill:rgb(83,212,212)"/><path d="M66.74802650758521,35.96983427136105L54.840561963911206,10.4563188695272L51.65334478824221,12.760944161137878z" style="fill:rgb(189,66,220)"/><path d="M42.84856820694207,48.7712682324068L30.32893556003061,23.570914895610425L26.56265566616744,24.791382482940868z" style="fill:rgb(139,40,220)"/><path d="M26.56265566616744,24.791382482940868L74.05479868493596,-11.168938135825677L75.51738262633434,-14.080282782078994z" style="fill:rgb(83,212,212)"/><path d="M63.646860807402284,38.23270552020727L51.65334478824221,12.760944161137878L48.3348766113424,14.937800846567091z" style="fill:rgb(182,61,221)"/><path d="M46.496189632865025,47.41940547912649L34.063129219226866,22.172510512358457L30.32893556003061,23.570914895610425z" style="fill:rgb(146,43,221)"/><path d="M60.415672167483535,40.36642115506142L48.3348766113424,14.937800846567091L44.90045958751134,16.97657944791271z" style="fill:rgb(175,57,222)"/><path d="M50.09333622151222,45.89561557385374L37.747903615945795,20.6023840265595L34.063129219226866,22.172510512358457z" style="fill:rgb(154,46,222)"/><path d="M26.56265566616744,24.791382482940868L-2.6422438082420374,27.71803963942445L0.7620078578722449,28.029621094845z" style="fill:rgb(83,212,212)"/><path d="M57.069301473382424,42.36090792521869L44.90045958751134,16.97657944791271L41.3659648126285,18.867740188280155z" style="fill:rgb(168,53,222)"/><path d="M53.62317316765823,44.206859428950054L41.3659648126285,18.867740188280155L37.747903615945795,20.6023840265595z" style="fill:rgb(161,49,222)"/><path d="M26.56265566616744,24.791382482940868L72.3646891213729,-8.273315865424635L74.05479868493596,-11.168938135825677zM26.56265566616744,24.791382482940868L0.7620078578722449,28.029621094845L4.268762520726863,28.14839854164841zM26.56265566616744,24.791382482940868L70.45335053557295,-5.406667501432213L72.3646891213729,-8.273315865424635zM26.56265566616744,24.791382482940868L4.268762520726863,28.14839854164841L7.862574976824174,28.07276774947023zM26.56265566616744,24.791382482940868L68.32842073991068,-2.582148614537933L70.45335053557295,-5.406667501432213zM26.56265566616744,24.791382482940868L7.862574976824174,28.07276774947023L11.527504623394137,27.802116469055523zM26.56265566616744,24.791382482940868L65.9984536039476,0.18708193759337502L68.32842073991068,-2.582148614537933zM26.56265566616744,24.791382482940868L11.527504623394137,27.802116469055523L15.24698510745766,27.336805395797505zM26.56265566616744,24.791382482940868L63.4733156114082,2.8880760348817236L65.9984536039476,0.18708193759337502zM26.56265566616744,24.791382482940868L15.24698510745766,27.336805395797505L19.004223302456385,26.67816611096454zM26.56265566616744,24.791382482940868L60.76384846312168,5.508174999405433L63.4733156114082,2.8880760348817236zM26.56265566616744,24.791382482940868L19.004223302456385,26.67816611096454L22.78191374020125,25.828573914506634zM26.56265566616744,24.791382482940868L57.88202165440389,8.03488270762173L60.76384846312168,5.508174999405433zM26.56265566616744,24.791382482940868L54.840561963911206,10.4563188695272L57.88202165440389,8.03488270762173zM26.56265566616744,24.791382482940868L51.65334478824221,12.760944161137878L54.840561963911206,10.4563188695272zM26.56265566616744,24.791382482940868L30.32893556003061,23.570914895610425L34.063129219226866,22.172510512358457zM26.56265566616744,24.791382482940868L48.3348766113424,14.937800846567091L51.65334478824221,12.760944161137878zM26.56265566616744,24.791382482940868L34.063129219226866,22.172510512358457L37.747903615945795,20.6023840265595zM26.56265566616744,24.791382482940868L44.90045958751134,16.97657944791271L48.3348766113424,14.937800846567091zM26.56265566616744,24.791382482940868L37.747903615945795,20.6023840265595L41.3659648126285,18.867740188280155zM26.56265566616744,24.791382482940868L41.3659648126285,18.867740188280155L44.90045958751134,16.97657944791271z" style="fill:rgb(83,212,212)"/></svg>
