<?xml version="1.0" encoding="UTF-8"?>
<!-- Generated by jsxcad -->
<!DOCTYPE svg PUBLIC "-//W3C//DTD SVG 1.1 Tiny//EN" "http://www.w3.org/Graphics/SVG/1.1/DTD/svg11-tiny.dtd">
<svg viewBox="-250 -250 500 500" width="500" height="500" xmlns="http://www.w3.org/2000/svg"><path d="M31.94450072750102,-14.90959869245135L-1.8940592549219548,-32.89956008443644L9.96393193989849,-9.215945174143721z" style="fill:rgb(127,37,217)"/><path d="M59.29851447629635,-49.15514137061732L-3.146903767524825,-57.62965493168432L-24.76886297459621,-43.69641332985271zM59.29851447629635,-49.15514137061732L21.320628362721354,-64.28102328195988L-3.146903767524825,-57.62965493168432zM59.29851447629635,-49.15514137061732L-24.76886297459621,-43.69641332985271L-39.067971384230994,-25.29346719519457z" style="fill:rgb(83,212,212)"/><path d="M9.96393193989849,-9.215945174143721L-8.906498278984872,-15.377794215956628L3.268285123191918,8.234198370874283z" style="fill:rgb(241,128,184)"/><path d="M31.94450072750102,-14.90959869245135L20.51897953118721,-38.853500972717484L-1.8940592549219548,-32.89956008443644z" style="fill:rgb(127,37,217)"/><path d="M39.3796313945655,-0.9796323667781426L20.51897953118721,-38.853500972717484L31.94450072750102,-14.90959869245135z" style="fill:rgb(13,70,126)"/><path d="M59.29851447629635,-49.15514137061732L43.594551534729206,-62.14372717403091L21.320628362721354,-64.28102328195988z" style="fill:rgb(83,212,212)"/><path d="M9.96393193989849,-9.215945174143721L-1.8940592549219548,-32.89956008443644L-8.906498278984872,-15.377794215956628z" style="fill:rgb(241,128,184)"/><path d="M59.29851447629635,-49.15514137061732L-39.067971384230994,-25.29346719519457L-39.53156984689874,-22.90129694074811zM-22.42426444977037,-3.827887858397367L8.727927974735824,-51.25598006256929L-21.851185973322302,-30.337026029610886zM-8.906498278984872,-15.377794215956628L-1.8940592549219548,-32.89956008443644L-39.53156984689874,-22.90129694074811zM-8.906498278984872,-15.377794215956628L-39.53156984689874,-22.90129694074811L-42.704336657667824,-6.530601741577703z" style="fill:rgb(83,212,212)"/><path d="M21.446067007841833,13.594482750593206L-8.906498278984872,-15.377794215956628L3.268285123191918,8.234198370874283z" style="fill:rgb(57,36,182)"/><path d="M-22.42426444977037,-3.827887858397367L40.00349373828683,-46.81058641776425L8.727927974735824,-51.25598006256929zM59.29851447629635,-49.15514137061732L58.768538259243556,-51.338768776162006L43.594551534729206,-62.14372717403091z" style="fill:rgb(83,212,212)"/><path d="M39.3796313945655,-0.9796323667781426L27.926493145532174,-25.01949259387563L20.51897953118721,-38.853500972717484z" style="fill:rgb(13,70,126)"/><path d="M69.41988800282307,-26.949800741983058L63.00675319979085,-33.87715761623102L73.76219385087698,-9.426217782679965z" style="fill:rgb(246,168,147)"/><path d="M39.3796313945655,-0.9796323667781426L9.518201602389306,-10.231533967856544L21.446067007841833,13.594482750593206z" style="fill:rgb(197,72,218)"/><path d="M69.41988800282307,-26.949800741983058L58.768538259243556,-51.338768776162006L63.00675319979085,-33.87715761623102z" style="fill:rgb(246,168,147)"/><path d="M9.518201602389306,-10.231533967856544L-42.704336657667824,-6.530601741577703L-42.769039072161256,-6.196811632291803z" style="fill:rgb(83,212,212)"/><path d="M-2.959609260184889,41.01469609925528L-34.52711675297731,9.355217095072941L-21.639071930518195,32.669512511473414z" style="fill:rgb(48,39,174)"/><path d="M21.446067007841833,13.594482750593206L9.518201602389306,-10.231533967856544L-8.906498278984872,-15.377794215956628z" style="fill:rgb(57,36,182)"/><path d="M9.518201602389306,-10.231533967856544L-8.906498278984872,-15.377794215956628L-42.704336657667824,-6.530601741577703zM9.518201602389306,-10.231533967856544L-42.769039072161256,-6.196811632291803L-38.33161089297658,2.176405898171975z" style="fill:rgb(83,212,212)"/><path d="M39.3796313945655,-0.9796323667781426L27.926493145532174,-25.01949259387563L9.518201602389306,-10.231533967856544z" style="fill:rgb(197,72,218)"/><path d="M62.93251882995889,-34.182950713768214L59.29851447629635,-49.15514137061732L20.51897953118721,-38.853500972717484z" style="fill:rgb(83,212,212)"/><path d="M41.06919634809054,-20.322035805382384L40.40627818046436,-45.92687417383388L40.00349373828683,-46.81058641776425z" style="fill:rgb(247,158,158)"/><path d="M62.93251882995889,-34.182950713768214L20.51897953118721,-38.853500972717484L27.926493145532174,-25.01949259387563zM-22.42426444977037,-3.827887858397367L41.06919634809054,-20.322035805382384L40.00349373828683,-46.81058641776425z" style="fill:rgb(83,212,212)"/><path d="M41.06919634809054,-20.322035805382384L41.48181375776482,-19.436881530687067L40.40627818046436,-45.92687417383388z" style="fill:rgb(247,158,158)"/><path d="M73.76219385087698,-9.426217782679965L54.69683116203131,-13.599859603442763L65.80575474578046,10.750729344108063z" style="fill:rgb(239,124,188)"/><path d="M9.637079370701615,2.6437280586703387L-22.42426444977037,-3.827887858397367L-21.96594491727821,-2.9700076898034444z" style="fill:rgb(67,34,190)"/><path d="M-2.959609260184889,41.01469609925528L-15.631447222978338,17.493306550855124L-34.52711675297731,9.355217095072941z" style="fill:rgb(48,39,174)"/><path d="M73.76219385087698,-9.426217782679965L63.00675319979085,-33.87715761623102L54.69683116203131,-13.599859603442763z" style="fill:rgb(239,124,188)"/><path d="M21.97595192793351,39.654063891722586L-15.631447222978338,17.493306550855124L-2.959609260184889,41.01469609925528z" style="fill:rgb(98,32,207)"/><path d="M58.52428631919621,-22.939307672303L27.926493145532174,-25.01949259387563L9.518201602389306,-10.231533967856544zM58.52428631919621,-22.939307672303L62.93251882995889,-34.182950713768214L27.926493145532174,-25.01949259387563zM35.381684964462956,4.533427506055837L-38.33161089297658,2.176405898171975L-34.52711675297731,9.355217095072941zM-22.42426444977037,-3.827887858397367L9.19549546601644,1.7722625132508654L41.06919634809054,-20.322035805382384z" style="fill:rgb(83,212,212)"/><path d="M9.637079370701615,2.6437280586703387L9.19549546601644,1.7722625132508654L-22.42426444977037,-3.827887858397367z" style="fill:rgb(67,34,190)"/><path d="M58.52428631919621,-22.939307672303L63.00675319979085,-33.87715761623102L62.93251882995889,-34.182950713768214z" style="fill:rgb(83,212,212)"/><path d="M65.80575474578046,10.750729344108063L35.381684964462956,4.533427506055837L47.02394628184985,28.64693145258412z" style="fill:rgb(206,80,215)"/><path d="M41.06919634809054,-20.322035805382384L9.637079370701615,2.6437280586703387L41.48181375776482,-19.436881530687067z" style="fill:rgb(187,64,221)"/><path d="M35.381684964462956,4.533427506055837L58.52428631919621,-22.939307672303L-38.33161089297658,2.176405898171975z" style="fill:rgb(83,212,212)"/><path d="M47.02394628184985,28.64693145258412L9.758964195170014,15.844669422064227L21.97595192793351,39.654063891722586z" style="fill:rgb(156,47,222)"/><path d="M41.06919634809054,-20.322035805382384L9.19549546601644,1.7722625132508654L9.637079370701615,2.6437280586703387z" style="fill:rgb(187,64,221)"/><path d="M35.381684964462956,4.533427506055837L-34.52711675297731,9.355217095072941L-15.631447222978338,17.493306550855124z" style="fill:rgb(83,212,212)"/><path d="M21.97595192793351,39.654063891722586L9.758964195170014,15.844669422064227L-15.631447222978338,17.493306550855124z" style="fill:rgb(98,32,207)"/><path d="M65.80575474578046,10.750729344108063L54.69683116203131,-13.599859603442763L35.381684964462956,4.533427506055837z" style="fill:rgb(206,80,215)"/><path d="M47.02394628184985,28.64693145258412L35.381684964462956,4.533427506055837L9.758964195170014,15.844669422064227z" style="fill:rgb(156,47,222)"/><path d="M35.381684964462956,4.533427506055837L54.69683116203131,-13.599859603442763L58.52428631919621,-22.939307672303zM35.381684964462956,4.533427506055837L-15.631447222978338,17.493306550855124L9.758964195170014,15.844669422064227z" style="fill:rgb(83,212,212)"/></svg>
